<?xml version="1.0" encoding="utf-8"?>
<!-- Generator: Adobe Illustrator 22.0.1, SVG Export Plug-In . SVG Version: 6.00 Build 0)  -->
<svg version="1.1" id="图层_1" xmlns:sketch="http://www.bohemiancoding.com/sketch/ns"
	 xmlns="http://www.w3.org/2000/svg" xmlns:xlink="http://www.w3.org/1999/xlink" x="0px" y="0px" viewBox="0 0 600 600"
	 style="enable-background:new 0 0 600 600;" xml:space="preserve">
<style type="text/css">
	.st0{fill:#238C71;}
</style>
<g sketch:type="MSArtboardGroup">
	<path sketch:type="MSShapeGroup" class="st0" d="M272.8,1.2L286.7,0h27.8l12.6,1.2v184l-1.3,1.3l-1.3,2.5h-1.3l-1.3,1.2l-3.8,1.3
		H283l-3.8-1.3l-1.3-1.2h-2.5v-2.5l-1.3-1.3l-1.3-5V1.2L272.8,1.2z M400.4,298.7v89.5l-1.3,2.5l-1.3,1.3l-1.3,2.5h-2.5l-2.5,1.3
		l-5.1,1.2h-53.1v141.2l11.4-2.5l11.4-1.2l10.1-3.8l10.1-2.5l5-1.2l5-2.5l10.1-3.8l10.1-5.1l8.8-5l10.1-5.1l8.8-5l7.6-6.3l8.9-6.3
		l16.4-13.9l7.6-7.6l6.3-7.6l7.6-8.8l6.3-7.6l6.3-8.8l5-8.8l5-10.1l5.1-8.8l5-10.1l3.8-10.1l6.3-20.2l3.8-10.1l1.3-11.3l2.5-10.1
		l1.3-11.4l1.3-22.7l-1.3-17.6l-1.3-8.8v-8.8l-3.8-17.6l-5-17.6l-2.5-7.6l-2.6-7.6l-6.3-16.4l-8.8-15.1l-7.6-15.1L492.6,155
		l-11.4-13.9l-11.4-12.6l-12.6-11.3l-12.6-10.1l-13.9-10.1l-15.1-8.8l-15.2-7.6v206.7l-1.3,2.5l-1.3,1.2l-1.3,2.5l-2.5,1.3h-2.5
		l-5.1,1.3H312l-1.3,1.2l-1.3,1.3v-87l1.3-2.5l1.3-2.5l2.5-1.2h34.1l5-1.3l3.8-1.3l2.5-1.2l2.5-3.8V6.3l25.2,7.6l12.6,3.8l11.4,3.8
		l12.6,5l11.4,6.3l11.4,5.1l10.1,6.3l11.4,7.6l10.1,6.3l10.1,7.6l8.8,8.8l10.1,8.8l8.9,8.8l16.4,17.6l7.6,10.1l7.6,10.1l6.3,11.4
		l6.3,10.1l12.6,22.7l5,11.3l3.8,12.6l7.6,23.9l3.8,12.6l2.6,12.6l1.3,12.6l2.5,13.9v41.6l-2.5,30.3l-2.5,15.1l-3.8,13.9l-3.8,15.1
		l-5,13.9l-5.1,12.6l-6.3,13.9l-6.3,12.6l-7.6,12.6l-7.6,12.6l-8.8,11.3l-8.9,11.4l-8.8,11.3l-10.1,10.1l-10.1,10.1L480,539.5
		l-11.4,8.8l-12.6,7.6l-12.6,7.6l-12.6,6.3l-13.8,6.3l-12.6,5.1l-15.2,5l-13.9,3.8l-13.9,3.8l-15.2,2.5l-15.2,1.2l-15.1,1.3
		l-15.2,1.3l-15.2-1.3l-15.2-1.3l-15.2-1.2l-15.2-2.5l-15.1-3.8l-13.9-3.8l-13.9-5l-13.9-5.1l-12.6-6.3l-12.6-6.3l-12.6-7.6
		l-12.6-7.6l-11.4-8.8l-22.7-17.7l-10.1-10.1l-10.1-10.1l-10.1-11.3L59.4,479l-7.6-11.3L44.2,455l-7.6-12.6l-6.3-12.6L24,416
		l-5-12.6l-5.1-13.9l-3.8-15.1l-3.8-13.9l-2.5-15.1l-2.5-15.1L0,315.1v-29l1.3-12.6l1.3-13.9l2.6-12.6l5-25.2l7.6-23.9l5-12.6
		l5-11.3l5.1-11.3l6.3-11.4l6.3-10.1l7.6-11.4l7.6-10.1l7.6-10.1l7.6-8.8l8.8-8.8l17.7-17.7l20.2-15.1l20.2-15.1l11.4-6.3l11.3-5.1
		l11.4-6.3l11.4-5l11.4-3.8l25.3-7.6l12.6-3.8v191.6l1.3,2.5l1.3,1.2l3.8,1.2l3.8,1.3l3.8,1.3h34.1l2.5,1.2l2.5,2.5v89.5l-2.5-2.5
		h-74.5l-5.1-1.3h-2.5l-1.3-1.3l-2.5-2.5l-1.3-1.2v-2.5l-1.3-3.8v-203l-15.2,7.6l-13.9,8.8l-27.8,20.2l-12.6,11.3l-11.4,12.6
		l-20.2,27.7l-8.8,13.9l-7.6,15.1l-3.8,7.6l-2.5,8.8l-6.3,16.4l-3.8,16.4l-3.8,17.6l-1.3,8.8v8.8L59.4,300v11.3l1.3,11.3l1.3,10.1
		l1.3,11.4l2.5,11.3l2.5,10.1l3.8,10.1l1.3,5l2.5,5.1l7.6,20.2l10.1,18.9l12.6,16.4l6.3,8.8l6.3,8.8l7.6,7.6l7.6,7.6l15.2,13.9
		l8.8,6.3l8.8,6.3l17.7,10.1l10.1,5l8.9,5.1l10.1,3.8l10.1,3.8l11.3,2.5l10.1,3.8l10.1,1.2l11.4,2.5V397h-53.1l-5.1-1.2l-1.3-1.3
		h-2.5l-2.5-2.5l-1.3-1.3v-2.5l-1.3-3.8v-85.7l1.3,1.2l1.3,1.3l3.8,2.5l3.8,1.3l3.8,1.2h72l2.5,1.3l2.5,2.5v85.7h19v-83.2l1.3-2.5
		l1.3-2.5l2.5-1.3h72l3.8-1.2l3.8-1.3l3.8-2.5L400.4,298.7L400.4,298.7z"/>
</g>
</svg>
