<?xml version="1.0" encoding="utf-8"?>
<!-- Generator: Adobe Illustrator 22.0.1, SVG Export Plug-In . SVG Version: 6.00 Build 0)  -->
<svg version="1.1" id="图层_1" xmlns:sketch="http://www.bohemiancoding.com/sketch/ns"
	 xmlns="http://www.w3.org/2000/svg" xmlns:xlink="http://www.w3.org/1999/xlink" x="0px" y="0px" viewBox="0 0 600 600"
	 style="enable-background:new 0 0 600 600;" xml:space="preserve">
<style type="text/css">
	.st0{fill:#292D78;}
</style>
<g sketch:type="MSArtboardGroup">
	<path sketch:type="MSShapeGroup" class="st0" d="M472.9,450c-35.1,1.1-67.5,2.3-102.5,3.4c-22.2,94.9-205.7,69.2-185.3-51.1
		c10.3-71.3,106.2-102.5,165.7-48.6c13.1,14.8,19.5,28.6,23.7,58.8c29.4-1.1,69-2.3,98.4-3.4c1.5-153.4-171.9-231.3-302-156.8
		C46.3,323.6,60.7,541,191.4,596.6v3.4C120.1,598.6,42,543.2,25,477.3l1-353.7C82.5,85,145,38.6,201.5,0c2.2,1.1,4.5,2.3,6.8,3.4
		c-3.9,53.3-1.5,141.2,1.7,205.4c35.4-34.5,59.3-70.7,120.4-82.7c39.4-7.7,77.1-3.1,100.9,5.1c178.6,61.5,189.8,293.5,38.2,373.3
		c-3.4,0-10.8,6.7-16.4,7.8c0-1.1,3.5-6.1,6.2-11.2C463.9,484.1,468.4,467,472.9,450"/>
</g>
</svg>
