<?xml version="1.0" encoding="utf-8"?>
<!-- Generator: Adobe Illustrator 22.0.1, SVG Export Plug-In . SVG Version: 6.00 Build 0)  -->
<svg version="1.1" id="图层_1" xmlns="http://www.w3.org/2000/svg" xmlns:xlink="http://www.w3.org/1999/xlink" x="0px" y="0px"
	 viewBox="0 0 600 600" style="enable-background:new 0 0 600 600;" xml:space="preserve">
<style type="text/css">
	.st0{fill:#A52A2F;}
</style>
<g id="_x23_a52a2fff">
	<path class="st0" d="M269,0.9c12.3-1.1,24.7-0.5,37-0.9c31.5,0.1,62.8,6.2,92.4,16.6c42.9,15.1,82,40.3,114,72.5
		c10,10.2,19.7,20.8,28.2,32.3c27.2,37.4,46.5,80.8,54.9,126.3c5,27.2,5.7,55,3,82.5c-2.6,27-8.2,53.7-17.9,79.1
		c-7.5,19.8-18.1,38.3-29.4,56.2c-11.5,17.8-24.7,34.6-39.9,49.5c-20,19.8-43.4,35.9-68,49.4c-10.4,5.7-20.9,11.2-32,15.6
		c-22.7,9.1-46.8,14.6-71,17.5c-28.8,3.5-58.1,3.4-86.8-0.7c-23.4-3.4-46.6-9.5-68-19.7c-24.2-11.4-47.8-24.2-69.1-40.4
		c-17.6-13.3-33.5-29-47.2-46.3c-13.9-17.6-25.9-36.7-36.4-56.5c-11.4-22.5-19.7-46.6-25.3-71.2c-9.3-41-10.4-84.1-0.7-125.1
		c2.3-15.8,6.7-31.2,12.4-46.1c12.9-34,32.3-65.4,56-92.9c16.5-18.3,35.5-34.2,55.8-48C171.8,22.7,219.5,4.5,269,0.9 M231.7,73.4
		C216.9,78,202.6,84.1,188.8,91c-12.1,6.2-24.1,12.9-35.1,21c-9.6,8.2-18.9,16.6-27.3,26c-21.8,24.3-37.7,53.5-48.3,84.3
		c-8.1,23.7-14,48.5-14.3,73.7c-0.4,21.8,2.6,43.5,8.6,64.5c6.2,21.9,15.4,43,27.7,62.2c11.1,19.2,24.8,36.8,41,51.9
		c17.2,16.1,37.2,29.4,58.6,39.3c22,10.1,45.5,17.2,69.7,19.5c0-36.4,0-72.8,0-109.1c-14.9,0-29.8,0.1-44.7-0.1
		c-12.2-1.2-24.2-4.9-34.6-11.6c-19.6-12.5-30.8-35.5-32.4-58.3c-0.1-33.8,0-67.6,0-101.5c0.3-17.5,4.9-35.6,16.2-49.3
		c11.9-14.6,30-23.5,48.6-25.6c15.7-0.1,31.3,0,47-0.1c0-36.9,0-73.9,0-110.8C256.6,66.9,243.9,69.7,231.7,73.4 M330.2,67
		c0,36.9,0,73.8,0,110.7c13.3,0,26.6,0,39.9,0c12.1,0.4,24.3,3.3,34.9,9.2c19.1,10.7,31.9,30.9,35.9,52.1c0.1,38.2,0,76.3,0.1,114.5
		c-0.3,13-3.8,26-10.7,37c-10.6,17-28.6,28.9-48,33.5c-17.3,0.2-34.7,0-52,0.1c0,36.3,0,72.7,0,109c21.8-2.2,42.8-9.1,62.8-17.7
		c38.4-16.9,73.9-42.1,98.9-76c15.2-20.8,26.2-44.4,33.3-69.1c7.6-26.3,10.8-53.8,10-81.2c-0.4-12.9-1.7-25.9-4.8-38.4
		c-5.3-23-13.9-45.3-25.9-65.7c-12.9-22.2-29.5-42.2-48.2-59.7C440.1,110,421,97.3,400.6,87.7C378.4,77.3,354.6,69.9,330.2,67
		 M226.4,241c-4.5,1.6-7,6.6-7.4,11.1c0,32.2,0,64.4,0,96.5c0,5.1,3.6,10.7,9.2,10.8c8.4-0.3,16.8-0.1,25.2-0.2
		c40.1,0,80.2-0.1,120.2,0.1c2.4-0.4,4-2.5,4.6-4.7c1-3.4,0.2-6.9,0.2-10.3c0-29.5,0-59.1,0-88.6c0-3.3,0.2-6.8-1.3-9.8
		c-1.6-3.5-5.4-5.5-9.2-5.4c-5.8,0.2-11.5,0.1-17.3,0.1c-40.3,0-80.6,0-121,0C228.5,240.6,227.4,240.6,226.4,241z"/>
</g>
</svg>
