<?xml version="1.0" encoding="utf-8"?>
<!-- Generator: Adobe Illustrator 22.0.1, SVG Export Plug-In . SVG Version: 6.00 Build 0)  -->
<svg version="1.1" id="图层_1" xmlns:sketch="http://www.bohemiancoding.com/sketch/ns"
	 xmlns="http://www.w3.org/2000/svg" xmlns:xlink="http://www.w3.org/1999/xlink" x="0px" y="0px" viewBox="0 0 600 600"
	 style="enable-background:new 0 0 600 600;" xml:space="preserve">
<style type="text/css">
	.st0{fill:#193E7E;}
</style>
<g sketch:type="MSArtboardGroup">
	<path sketch:type="MSShapeGroup" class="st0" d="M277.5,21.2c0,0,53.4-39.3,145.3-10.7c0,0,30.9,10.7,66.6,41.1L600,162.4
		l-59.1,56.3L372.2,55.1C372.2,55.1,344.1,22,277.5,21.2L277.5,21.2z M521.3,238.3l-69.4,64.3c0,0-11.3,15.2-20.6,0.9L303.8,184.7
		c0,0-11.3-14.3-19.7-1.8L155.7,308.1c0,0-8.4,12.5,1.9,17.9l125.6,119.8c0,0,10.3,16.1,19.7,3.6l130.3-125.1c0,0,3.8-10.7,24.4-8
		h133.1c0,0,5.7,128.7-97.5,209.1c0,0-134,127.8-317.8,49.2c0,0-177.2-59-175.3-278c0,0,4.7-146.6,144.4-224.4
		c0,0,102.2-72.4,183.7-18.8L521.3,238.3L521.3,238.3z"/>
</g>
</svg>
