<?xml version="1.0" encoding="utf-8"?>
<!-- Generator: Adobe Illustrator 22.0.1, SVG Export Plug-In . SVG Version: 6.00 Build 0)  -->
<svg version="1.1" id="图层_1" xmlns:sketch="http://www.bohemiancoding.com/sketch/ns"
	 xmlns="http://www.w3.org/2000/svg" xmlns:xlink="http://www.w3.org/1999/xlink" x="0px" y="0px" viewBox="0 0 600 600"
	 style="enable-background:new 0 0 600 600;" xml:space="preserve">
<style type="text/css">
	.st0{fill:#dda014;}
</style>
<g sketch:type="MSArtboardGroup">
	<path sketch:type="MSShapeGroup" class="st0" d="M87.5,25h274.4c0,0,51.7,0,61.5,15h-50.8v16l78.1,1c0,0,12.7,9.1,12.7,16l-90.8,1
		v15h100.6c0,0,11.7,6.1,8.8,19.1H168.5v17.1l318.2-1c0,0,1.9,13,1.9,17.1H168.5v17.1l321.1-1c0,0,1.9,10-2.9,17.1l-318.2,3v16
		l313.4-2c0,0,0,13-7.9,17.1l-305.5,2v15l295.8-2c0,0-1,16-11.7,19.1l-284.1,1v16l260.6-2c0,0-5.9,20.1-45.9,18.1l-48.8-1v15l79,1
		c0,0,33.2,0,38,14l-117.2,3v15.1h137.7c0,0,12.7,10,12.7,16l-316.3,2v18.1l323.1-3c0,0,12.7,9,12.7,18.1l-335.8,2v15h340.6
		c0,0,3.9,5,1.9,14l-342.5,3v15h342.7c0,0,2.9,9.1,0,16l-342.7,2v16h339.7c0,0,2.9,10-4.9,18.1H168.5v16l328-1c0,0-0.9,16-7.8,17.1
		H372.6v17.1l100.6-1c0,0-6.9,16-13.7,18.1l-86.9,1v17.1l58.6-1c0,0-8.8,19.1-85.9,16l-257.8-1L87.5,25"/>
</g>
</svg>
