<?xml version="1.0" encoding="utf-8"?>
<!-- Generator: Adobe Illustrator 22.0.1, SVG Export Plug-In . SVG Version: 6.00 Build 0)  -->
<svg version="1.1" id="图层_1" xmlns:sketch="http://www.bohemiancoding.com/sketch/ns"
	 xmlns="http://www.w3.org/2000/svg" xmlns:xlink="http://www.w3.org/1999/xlink" x="0px" y="0px" viewBox="0 0 600 600"
	 style="enable-background:new 0 0 600 600;" xml:space="preserve">
<style type="text/css">
	.st0{fill:#D9222A;}
</style>
<g sketch:type="MSArtboardGroup">
	<path sketch:type="MSShapeGroup" class="st0" d="M275.2,421.4l81.4-205.5l84.8,205.5H275.2L275.2,421.4z M104.8,421.4l81.4-205.5
		L271,421.4H104.8L104.8,421.4z M527.6,374.5h63.5l-3.5,11.7h-54.5L527.6,374.5L527.6,374.5z M515.2,345.5h81.4l-2,12.4h-73.8
		L515.2,345.5L515.2,345.5z M502.8,316.6H600l-1.4,12.4h-90.3L502.8,316.6L502.8,316.6z M491.1,287.6H600V300H495.9L491.1,287.6
		L491.1,287.6z M478.6,258.6h118.6l1.4,12.4H483.4L478.6,258.6L478.6,258.6z M466.2,229.7h125.5l2.8,12.4H471.7L466.2,229.7
		L466.2,229.7z M300,0h12.4l13.1,1.4l12.4,0.7l11.7,2.1l12.4,2.1L373.8,9l11.7,3.4l11.7,3.4l5.5,2.1l5.5,2.1l11,4.8l11.1,4.8
		l10.3,5.5l10.3,5.5l10.3,6.2l9.7,6.9l9.6,6.9l9,6.9l8.9,7.6l9,8.3l8.3,8.3l8.3,8.3l7.6,9l3.4,4.8l3.5,4.8l7.6,9.6l6.2,9.7l6.2,9.7
		l6.2,10.3l4.8,11l5.5,10.3l4.1,11l4.1,11.7l4.1,11H459.3L380,27.6l-82.8,209L210.3,29.7L57.2,424.8l69.7,86.9h354.5l64.8-94.5
		l-6.2-14.5h42.1l-4.2,11l-4.8,10.3l-4.8,10.3l-4.8,9.7l-6.2,10.3l-5.5,9.6l-6.9,9l-6.2,9l-6.9,9l-7.6,9l-7.6,7.6l-8.3,8.3
		l-8.3,7.6l-8.3,7.6l-8.9,6.9l-9,6.9l-9,6.2l-9.6,6.2l-9.6,5.5l-10.4,5.5l-10.3,4.8l-10.3,4.1l-11,4.1l-10.4,4.1l-11,3.5l-11.7,2.7
		l-11.1,2.8l-11.7,2.1l-5.5,0.7l-6.2,0.7l-11.7,1.4l-11.7,0.7h-27.6l-15.2-1.4l-15.2-2.1l-15.2-2.8l-14.5-3.4l-13.8-3.5l-13.8-4.8
		l-13.8-5.5l-13.1-6.2l-13.1-6.2L151,560l-6.2-3.4l-12.4-7.6l-11.7-8.3l-11.7-9l-5.5-4.8l-4.8-4.8l-5.5-4.8l-4.8-4.8l-10.3-10.3
		l-9.7-11l-4.1-5.5l-4.1-6.2L51,467.6l-3.5-5.5l-4.1-6.2l-3.4-6.2l-3.5-6.9l-6.9-12.4l-6.2-13.8l-4.8-13.1L13.8,389l-4.1-13.8
		l-2.1-7.6l-1.4-6.9l-2.8-15.2L1.4,331l-0.7-15.9L0,307.6V300l0.7-15.2l0.7-15.2l2.1-15.2l2.8-15.2l3.4-14.5l4.1-13.8l9.7-27.6
		l6.2-13.1l6.9-13.1L40,151l3.4-6.2l7.6-12.4l8.9-11.7l8.3-11.7l4.9-5.5l4.8-4.8l4.8-5.5l5.5-4.8l10.3-10.3l10.3-9.7l6.2-4.1
		l5.5-4.1l11.7-9l6.2-3.4l6.2-4.1L151,40l6.2-3.4l13.1-6.9l13.1-6.2l13.8-5.5l13.8-4.1l13.8-4.1l7.6-2.1l6.9-1.4l7.6-1.4l7.6-1.4
		l15.2-2.1l15.2-0.7l7.6-0.7H300L300,0z"/>
</g>
</svg>
