<?xml version="1.0" encoding="utf-8"?>
<!-- Generator: Adobe Illustrator 22.0.1, SVG Export Plug-In . SVG Version: 6.00 Build 0)  -->
<svg version="1.1" id="图层_1" xmlns:sketch="http://www.bohemiancoding.com/sketch/ns"
	 xmlns="http://www.w3.org/2000/svg" xmlns:xlink="http://www.w3.org/1999/xlink" x="0px" y="0px" viewBox="0 0 600 600"
	 style="enable-background:new 0 0 600 600;" xml:space="preserve">
<style type="text/css">
	.st0{fill:#D9222A;}
</style>
<g sketch:type="MSArtboardGroup">
	<path sketch:type="MSShapeGroup" class="st0" d="M59.4,301l2,24.6l2,22.5l6.1,24.6l8.2,20.5l10.3,22.5l12.3,18.4l6.1,10.2l8.2,8.2
		L129,471l18.4,14.3l18.4,14.3l20.5,12.3l20.5,10.2l22.5,8.2l22.5,6.1l12.3,2l12.3,2h49.2l22.5-4.1l24.6-6.1l20.5-8.2l22.5-10.2
		l18.4-12.3l10.2-6.1l8.2-8.2L471,471l14.3-18.4l14.3-18.4l12.3-18.4l10.2-22.5l8.2-20.5l6.1-24.6l2-10.3l2-12.3v-49.1l-4.1-24.6
		l-6.1-22.5l-8.2-22.5l-10.2-20.5l-18.4-30.7l-8.2-8.2L471,131l-18.4-16.4l-18.4-14.3l-18.4-12.3l-22.5-10.2l-20.5-8.2l-24.6-6.2
		l-10.2-2h-12.3l-12.3-2H301l-24.6,2l-24.6,2l-22.5,6.2l-22.5,8.2l-20.5,10.2l-20.5,12.3l-10.2,6.2l-8.2,8.2L129,131l-14.3,16.4
		l-14.3,18.4l-12.3,20.5l-10.3,20.5l-8.2,22.5l-6.1,22.5l-2,12.3v12.3l-2,12.3V301L59.4,301z M0,301l2-30.7l2-16.4l2-14.3l12.3-43
		l6.1-12.3l6.1-14.3l6.1-12.3l14.3-24.6l8.2-12.3l10.2-12.3l18.4-20.5l10.2-10.2l10.3-8.2l12.3-10.2l12.3-8.2l12.3-8.2l12.3-6.1
		l26.6-12.3l26.6-10.2l14.3-4.1l14.3-4.1l14.3-2l16.4-2L301,0l30.7,2l14.3,2l14.3,2l28.7,8.2l14.3,4.1l14.3,6.1l12.3,6.1l12.3,6.1
		L469,51.2l10.2,8.2l12.3,10.2l20.5,18.4l10.2,10.2l10.2,10.2l8.2,12.3l16.4,24.6l6.1,12.3l14.4,26.6l10.2,26.6l2,14.3l4.1,14.3
		l2,14.3l2,16.4l2,30.7l-2,30.7l-4.1,28.7l-6.1,28.7l-6.1,14.3l-4.1,14.3l-6.2,12.3l-8.2,12.3L548.8,469l-8.2,10.2l-8.2,12.3
		l-20.5,20.5l-10.2,10.2l-10.2,10.2l-12.3,8.2l-10.2,8.2l-12.3,8.2l-14.3,6.1l-24.6,14.3l-28.7,10.2l-14.3,4.1l-14.3,2l-14.3,2
		l-14.3,2l-30.7,2l-30.7-2l-16.4-2l-14.3-2l-28.7-6.1l-14.3-6.1l-12.3-4.1l-14.3-6.1l-12.3-8.2l-24.6-14.3l-12.3-8.2l-12.3-8.2
		l-20.5-20.5l-10.3-10.2l-8.2-10.3l-10.2-12.3L51.2,469L43,456.6l-6.1-14.3l-12.3-24.6l-10.2-28.7l-4.1-14.3l-4.1-14.3L2,331.7
		L0,301L0,301z M469,321.5v133.1H321.5v-43h100.3v-49.1H321.5V229.3h100.3v-45.1H321.5v-43H469v133.1H368.6v45H469V321.5L469,321.5
		z M131,321.5v133.1h147.4v-43H178.2v-49.1h100.3V229.3H178.2v-45.1h100.3v-43H131v133.1h100.3v45H131V321.5L131,321.5z"/>
</g>
</svg>
