<?xml version="1.0" encoding="utf-8"?>
<!-- Generator: Adobe Illustrator 22.0.1, SVG Export Plug-In . SVG Version: 6.00 Build 0)  -->
<svg version="1.1" id="图层_1" xmlns="http://www.w3.org/2000/svg" xmlns:xlink="http://www.w3.org/1999/xlink" x="0px" y="0px"
	 viewBox="0 0 600 600" style="enable-background:new 0 0 600 600;" xml:space="preserve">
<style type="text/css">
	.st0{fill:#FFFFFF;}
	.st1{fill:#0772B8;}
	.st2{fill:#EA2127;}
	.st3{fill:#009DA4;}
</style>
<path class="st0" d="M106.2,218.2c5.8-0.1,11.5-0.1,17.3,0c-3.6,17.9-7.5,35.7-11.1,53.6c-0.9,4.5-1,10.2,2.9,13.4
	c4.2,2.8,9.8,2.4,14.6,1.7c6.8-1.3,11.9-7,13.4-13.6c4.1-18.3,7.6-36.8,11.5-55.1c5.7,0,11.4-0.1,17.1,0
	c-3.9,18.7-7.5,37.4-11.7,56.1c-2,10.1-8.8,19.2-18.1,23.7c-8.8,4.3-18.9,5-28.4,3.9c-7.4-1.1-15.1-4.9-18-12.2
	c-2.8-6.4-1.5-13.4-0.3-20C99.2,252.5,102.7,235.4,106.2,218.2z"/>
<path class="st0" d="M360.4,300.7c5.3-26.5,10.8-53.1,16.3-79.6c11.1,0,22.2,0,33.4,0c6.7,0,14.3,0.7,19.1,5.9
	c4.9,5.6,4.6,13.6,3,20.4c-2.5,12.7-13.7,23.2-26.6,24.3c-7.6,0.6-15.2,0.2-22.9,0.3c-2,9.6-4,19.1-5.8,28.8
	C371.4,300.8,365.9,300.8,360.4,300.7 M390.3,234.7c-1.4,7.9-3.1,15.7-4.7,23.5c7-0.5,14.1,0.7,21-0.9c6.8-1.8,10.1-9.4,9.5-15.9
	c-0.3-3.3-3.4-5.7-6.5-6.1C403.2,234.3,396.7,234.8,390.3,234.7z"/>
<path class="st0" d="M237.2,233.8c4.5-0.2,9-0.2,13.5-0.1c-0.6,3.9-1.4,7.9-2.2,11.8c-4.6,0.1-9.2,0.1-13.8,0
	C235.7,241.7,236.5,237.8,237.2,233.8z"/>
<path class="st0" d="M187.4,258.4c2.9-2.9,6.1-5.7,10-7.2c5.5-1.1,11.9-1.3,16.4,2.6c3.6,3.7,3.4,9.3,2.6,14c-2.1,11-4.5,22-6.5,33
	c-4.2,0.1-8.5,0.1-12.7,0.2c1.9-9.9,4.1-19.7,5.9-29.5c0.7-3.2,0.2-6.3-0.8-9.4c-2.4-0.3-4.8-0.5-7.3-0.7c-4.8,1.1-8.5,4.9-9.7,9.6
	c-2.6,9.8-4,19.9-6.1,29.9c-4.2,0-8.4,0-12.6,0c3.2-16.4,6.5-32.8,9.8-49.2c4,0,8.1,0,12.2,0C188.3,253.8,187.8,256.1,187.4,258.4z"
	/>
<path class="st0" d="M276.7,251.1c6.1-1.1,12.8-1.1,18.2,2.3c5.2,3.1,8,9.1,8,15.1c0,7.4-1.9,14.9-6.1,21.1
	c-4.6,6.8-12.2,11.5-20.4,12.2c-6.8,0.8-14.7-0.5-19-6.2c-5.1-5.8-4.6-14.2-2.8-21.2C257,263.4,265.4,253.3,276.7,251.1 M276,262.3
	c-6.2,3-8.4,10.2-9.5,16.5c-0.7,4.2,0.2,9.6,4.5,11.6c4.4,1.5,9.9,0.6,13-3c3.6-3.9,5.1-9.2,5.8-14.4c0.3-3.6-0.2-7.8-3.3-10.1
	C283.5,260.8,279.4,261.1,276,262.3z"/>
<path class="st0" d="M327.3,258.4c5.1-6.6,13.9-9.6,22-7.4c2.6,1.5,5.4,3.2,6.5,6.2c1.4,3.6,0.8,7.5,0.2,11.2
	c-2.1,10.8-4.3,21.5-6.4,32.3c-4.1,0-8.2,0-12.4,0.1c1.4-11,4.7-21.6,6-32.6c0.5-3.2-1-6.9-4.8-6.8c-6.3-0.9-12.2,3.7-13.4,9.7
	c-2.5,9.8-3.8,19.8-6.2,29.7c-4.1,0-8.3-0.1-12.4-0.1c3.4-16.4,6.7-32.8,9.9-49.2c4.1,0,8.1,0,12.2,0
	C328.1,253.9,327.7,256.1,327.3,258.4z"/>
<path class="st0" d="M233.1,251.5c4.5,0,9.1,0,13.6,0.1c-3.6,16.3-7.1,32.6-10.5,49c-4.5,0.2-9,0.2-13.5,0.1
	C225.9,284.3,229.7,268,233.1,251.5z"/>
<path class="st0" d="M489.8,251.6c5.5,0,10.9,0,16.4,0c0.6,11.1,0.6,22.2,1,33.3c4.7-11.2,9.4-22.2,14.1-33.4
	c4.8,0.1,9.5,0.1,14.3,0c-9.5,20.2-19.7,40.2-29.5,60.2c-4.9,9.4-10.4,19.3-19.7,25c-4.7,2.5-10,3.4-15.2,3.5
	c0.3-2.9,0.8-5.8,1.3-8.7c10.6-3.7,15.4-14.8,20.2-24.1c1.9-3,1-6.6,0.8-9.9C492.2,282.3,490.9,267,489.8,251.6z"/>
<path class="st0" d="M436.5,258.5c5.5-3.8,13.4-5.6,19.6-2c1.6,0.9,3.1,1.9,4.7,3c2.5-1.4,4.8-3.6,7.7-4c3.8-0.6,7.7-0.7,11.6-0.9
	c-3.4,15.4-6.9,30.7-10.1,46.1c-5.4-0.1-10.9,0.4-16.2-0.7c-0.4-0.5-1.1-1.5-1.5-1.9c-6.6,2.6-13.7,2.1-20.6,1.9
	c-7.2-5.4-7-15.4-5-23.3C428.4,269.9,431.3,263.1,436.5,258.5 M447.7,267.1c-6.2,5.6-8.6,15.1-5.3,22.9c2,0.8,4,2.5,6.3,1.5
	c4.6-1.3,7-5.8,8.7-9.9c1.8-4.6,2.4-10.2-0.4-14.5C454.8,264,450.1,264.8,447.7,267.1z"/>
<path class="st0" d="M279.7,323.7c5.5-0.1,11-0.1,16.5,0c-1.1,2-2.2,4-3.2,6c6.5,0,13,0,19.6,0c-0.9,3.1-1.7,6.2-2.6,9.3
	c-7.7-0.1-15.5-0.1-23.2,0c-1.7,1.8-3.4,3.9-5.7,5c-5.3,1.2-10.9,0.5-16.3,0.7c0.6-3.2,1.4-6.3,2.2-9.5c1.8-0.2,3.6-0.4,5.4-0.6
	C274.9,331,277.4,327.5,279.7,323.7z"/>
<path class="st0" d="M318.7,323.5c4.8,0,9.6,0,14.5,0.1c-0.2,1.9-0.5,3.8-0.7,5.7c4.7-2.9,9.8-5.6,15.5-5.8c9.1-0.4,18.2,0,27.3-0.2
	c-3.4,13-6.9,25.9-10.8,38.8c-1.3,4.5-6.5,5.3-10.5,5.4c-10.4,0-20.7,0.2-31.1,0c-2.5,9.4-5.4,18.7-7.5,28.3
	c2.6,0.2,5.3,0.5,7.9,0.7c-0.6,2.5-1.3,5.1-1.9,7.6c-5.4,0.5-10.9,0.4-16.3,0.4c-2.3-0.5-4.9-0.5-6.7-2.3c-0.5-3.6,1-7.1,1.9-10.5
	C306.4,369,312.5,346.3,318.7,323.5 M331.8,334.3c-0.9,3.3-1.8,6.6-2.7,9.9c7.8-4.1,16.8-2.3,25.3-2.8c0.6-2.4,1.2-4.7,1.8-7.1
	C348,334.2,339.9,334.4,331.8,334.3 M325.5,357.9c8-0.1,16.1,0.1,24.1-0.2c0.8-2.5,1.5-5,2.1-7.5c-7.9,0.4-15.9-0.1-23.8,0.3
	C326.4,352.7,326.3,355.5,325.5,357.9z"/>
<path class="st0" d="M409.8,328.1c4.6-1.9,9.3-3.9,14.3-4.1c6.9-0.2,13.7,0,20.6-0.1c-1.1,3.9-2.2,7.8-3.5,11.7
	c-0.8,0-2.3-0.1-3.1-0.2c-5,18.1-10.4,36-15.2,54.1c0.8,0,2.4,0,3.1,0c-1.1,3.5-2.1,7-3.1,10.5c-0.9,0-2.6,0.1-3.5,0.1
	c-0.3,1.5-0.6,3.1-0.8,4.6c-5.3,0-10.6,0-15.9-0.1c0.2-1.1,0.5-3.5,0.6-4.6c-10.3,0-20.6,0.1-31-0.1c0.9-3.6,1.9-7.2,3-10.7
	c0.8,0,2.3,0.1,3.1,0.2c5.1-18.1,10.3-36.1,15.3-54.2c-0.8,0-2.4-0.1-3.1-0.1c1.1-3.8,2.2-7.6,3.2-11.4c5.5,0,11.1-0.1,16.6,0
	C410.3,325,410,327.1,409.8,328.1 M408.4,335.4c-1.2,4.9-2.7,9.7-4,14.6c4.3-1.5,8.7-2.6,13.3-3.3c1-3.8,2.1-7.5,3.3-11.2
	C416.8,335.4,412.6,335.4,408.4,335.4 M402.5,356.8c-1.4,5-3,10.1-4.1,15.2c4.3-1.8,8.7-3.3,13.3-4.1c1-3.7,2.1-7.4,3.1-11.1
	C410.7,356.9,406.6,356.9,402.5,356.8 M393.4,389.5c4.1,0,8.1,0,12.2,0c0.9-3.7,2-7.3,3.1-10.9c-4-0.2-8.1-0.3-12.1-0.4
	C395.2,381.9,394.1,385.7,393.4,389.5z"/>
<path class="st0" d="M447.4,340.2c-2.3-5.4-1.7-11.4-1.9-17.1c5.1,0.1,10.2,0.1,15.4,0.2c0.2,2.6,0.6,5.1,1.2,7.7
	c1.1,0,3.4,0.1,4.5,0.2c-0.8,3.2-1.6,6.4-2.3,9.6C458.6,340.8,453,340.9,447.4,340.2z"/>
<path class="st0" d="M440.7,344c16.7,0,33.4,0.1,50.1-0.1c-0.8,3.5-1.8,7.1-2.9,10.6c-5.3-0.1-10.7-0.1-16,0
	c-0.8,3.2-1.7,6.4-2.7,9.6c5.3,0,10.6,0.1,15.9,0c-0.9,3.5-1.9,7-2.8,10.4c-6,0-12-0.1-18,0.1c-1.3,2-2.6,3.9-3.8,5.9
	c2.8,0,5.7,0,8.6,0.1c0.8,4.5,1.5,9,2.3,13.4c1.8,0.2,3.7,0.4,5.5,0.6c-0.8,3.4-1.7,6.8-2.9,10.1c-5.4-0.5-11.4,0.9-16.4-2.1
	c-1-4.6-2-9.2-3-13.8c-3.9,4.5-6.3,10.2-10.5,14.4c-6.3,3.4-13.9,1.1-20.8,1.7c1-3.2,1.9-6.5,2.8-9.7c3.2-0.6,7.4,0.2,9.4-2.9
	c4.2-5.8,8.3-11.7,12.2-17.7c-5.2-0.2-10.5-0.1-15.7-0.1c0.9-3.6,1.9-7.1,3.1-10.5c5.8,0.2,11.6,0.1,17.4,0c0.8-3.2,1.6-6.3,2.1-9.6
	c-5.6,0-11.3,0-16.9,0C438.9,350.9,439.8,347.5,440.7,344z"/>
<path class="st0" d="M264.2,348.3c14.4-0.1,28.8-0.1,43.2,0c-1,3.3-1.9,6.6-2.7,10c-5.8,0-11.5,0-17.3,0c-1,3.3-1.8,6.6-2.4,9.9
	c5.5-0.2,11.1-0.2,16.6-0.1c-0.9,3.3-1.7,6.6-2.5,9.9c-5.7,0-11.4,0-17.1,0c-1.3,5.8-3.7,11.3-4,17.3c5.9,0.3,11.7,0.2,17.6,0.2
	c-0.8,3.1-1.6,6.2-2.4,9.3c-9.3-0.1-18.6,0.4-27.9-0.2c-3.3,0.1-4.6-3.5-4-6.3c1.2-6.9,3.6-13.5,5.2-20.3c-3.6,0-7.1,0-10.7,0
	c0.9-3.3,1.8-6.6,2.5-9.9c3.7,0,7.4-0.1,11.1-0.2c0.8-3.2,1.6-6.4,2.4-9.5c-3.3,0-6.7-0.1-10-0.1
	C262.6,354.9,263.4,351.6,264.2,348.3z"/>
<path class="st0" d="M330,394.9c0.4-8.3,0.6-16.6,1-24.9c4.7,0.1,9.3,0.1,14,0c-0.1,2-0.1,4-0.2,6.1c2.1-0.1,4.1-0.2,6.2-0.4
	c0.4-1.7,0.8-3.4,1.3-5.2c3.9-0.2,7.9-0.2,11.9,0c-1.3,4.2-2,9.5-6.3,11.8c-4.1,1.9-8.8,1.3-13.2,1.4c-0.1,4.1,0,8.3,0.3,12.4
	c3.7,0.4,7.4,0.5,11.1,0.5c-0.7,2.7-1.4,5.4-2.1,8.2c-7.7-0.3-15.6,1.3-23-1.4C330.4,400.6,329.8,397.8,330,394.9z"/>
<path class="st1" d="M254.7,3.6c19.3-3,38.8-4,58.2-3.4c14.3,0.9,28.5,2.6,42.6,5c9.4,2.2,19,3.9,28.3,6.9
	c6.4,1.9,12.7,4.2,19.1,5.9l-0.1,0.4c-3.7,10.8-5.4,22-8.2,33.1c-12.7,55.2-24.8,110.5-37.9,165.6c-2,11.4-5.3,22.6-7.5,34
	c-8.1-2.2-16.9,0.8-22,7.4c0.4-2.3,0.8-4.6,1.2-6.9c-4.1,0-8.1,0-12.2,0c-3.2,16.4-6.5,32.8-9.9,49.2c4.1,0.1,8.3,0.1,12.4,0.1
	c2.4-9.8,3.7-19.9,6.2-29.7c1.3-6.1,7.2-10.7,13.4-9.7c3.7-0.1,5.3,3.6,4.8,6.8c-1.3,11-4.6,21.6-6,32.6c-0.8,7.7-3.4,15.1-4.2,22.8
	c-4.8-0.1-9.7-0.1-14.5-0.1c-6.2,22.7-12.3,45.5-18.5,68.2c-0.8,3.4-2.3,6.9-1.9,10.5c1.8,1.7,4.4,1.8,6.7,2.3
	c0.1,0.2,0.3,0.7,0.4,1c2.8-0.3,5.7-0.6,8.6-0.8c-9,41.7-18.9,83.2-28.2,124.9c-3.4,11.2-4.8,22.9-7.9,34.3
	c-2.8,11.2-4.9,22.6-7.6,33.9l-0.5,0.4c-24.1-1.8-47.9-7.7-70.7-15.6c-24.5-8.8-47.8-20.7-69.2-35.5
	c21.6-95.3,43.3-190.5,65.1-285.7c2.4,0.1,4.8,0.4,7.3,0.7c0.9,3,1.5,6.2,0.8,9.4c-1.8,9.9-4,19.7-5.9,29.5
	c4.2-0.1,8.5-0.1,12.7-0.2c2-11,4.4-22,6.5-33c0.8-4.7,1-10.3-2.6-14c-4.5-3.9-10.9-3.7-16.4-2.6c17.5-76.7,34.9-153.3,52.4-230
	C251,15.2,252.5,9.3,254.7,3.6 M237.2,233.8c-0.7,3.9-1.6,7.8-2.5,11.8c4.6,0.1,9.2,0.1,13.8,0c0.8-3.9,1.6-7.8,2.2-11.8
	C246.3,233.6,241.7,233.6,237.2,233.8 M276.7,251.1c-11.3,2.2-19.7,12.3-22.2,23.2c-1.8,7-2.2,15.5,2.8,21.2c4.4,5.7,12.3,7,19,6.2
	c8.2-0.7,15.8-5.4,20.4-12.2c4.1-6.2,6.1-13.7,6.1-21.1c0-5.9-2.8-12-8-15.1C289.6,250,282.8,249.9,276.7,251.1 M233.1,251.5
	c-3.3,16.4-7.1,32.7-10.4,49.2c4.5,0.1,9,0.1,13.5-0.1c3.4-16.4,6.9-32.7,10.5-49C242.1,251.6,237.6,251.6,233.1,251.5 M279.7,323.7
	c-2.3,3.7-4.8,7.3-7.4,10.8c-1.8,0.2-3.6,0.4-5.4,0.6c-0.8,3.2-1.6,6.3-2.2,9.5c5.4-0.2,10.9,0.5,16.3-0.7c2.3-1.1,3.9-3.2,5.7-5
	c7.7-0.1,15.5-0.1,23.2,0c0.9-3.1,1.8-6.2,2.6-9.3c-6.5-0.1-13,0-19.6,0c1.1-2,2.2-4,3.2-6C290.6,323.6,285.2,323.6,279.7,323.7
	 M264.2,348.3c-0.8,3.3-1.6,6.6-2.4,9.9c3.3,0,6.7,0.1,10,0.1c-0.8,3.2-1.7,6.3-2.4,9.5c-3.7,0.2-7.4,0.2-11.1,0.2
	c-0.8,3.3-1.7,6.6-2.5,9.9c3.6,0,7.1,0,10.7,0c-1.6,6.8-4,13.4-5.2,20.3c-0.6,2.8,0.7,6.3,4,6.3c9.3,0.6,18.6,0.1,27.9,0.2
	c0.8-3.1,1.6-6.2,2.4-9.3c-5.9,0-11.7,0.1-17.6-0.2c0.3-6,2.7-11.5,4-17.3c5.7,0,11.4,0,17.1,0c0.8-3.3,1.7-6.6,2.5-9.9
	c-5.5-0.2-11.1-0.2-16.6,0.1c0.6-3.4,1.5-6.7,2.4-9.9c5.8,0,11.5,0,17.3,0c0.8-3.3,1.7-6.7,2.7-10
	C293,348.2,278.6,348.1,264.2,348.3z"/>
<path class="st1" d="M276,262.3c3.4-1.2,7.4-1.5,10.5,0.5c3.1,2.3,3.6,6.5,3.3,10.1c-0.7,5.2-2.2,10.5-5.8,14.4
	c-3.1,3.6-8.6,4.5-13,3c-4.3-1.9-5.2-7.4-4.5-11.6C267.6,272.5,269.9,265.4,276,262.3z"/>
<path class="st2" d="M106.3,71.2c42-35.6,93.9-59.5,148.4-67.7c-2.1,5.7-3.7,11.6-4.9,17.6c-17.5,76.7-34.9,153.3-52.4,230
	c-3.9,1.5-7.1,4.3-10,7.2c0.4-2.3,0.9-4.6,1.3-6.8c-4.1,0-8.1,0-12.2,0c-3.3,16.4-6.6,32.8-9.8,49.2c4.2,0.1,8.4,0.1,12.6,0
	c2.1-9.9,3.5-20,6.1-29.9c1.1-4.7,4.9-8.5,9.7-9.6C173.3,356.5,151.6,451.7,130,547c-32.8-22.8-61.2-52-82.8-85.7
	C18.1,416.2,1.8,363.1,0.2,309.4c-1.8-54.1,11.4-108.8,38.3-155.9C55.8,122.3,79.1,94.3,106.3,71.2 M106.2,218.2
	c-3.5,17.2-7,34.3-10.7,51.4c-1.2,6.6-2.5,13.6,0.3,20c2.9,7.2,10.7,11.1,18,12.2c9.6,1.1,19.7,0.4,28.4-3.9
	c9.3-4.5,16.1-13.6,18.1-23.7c4.1-18.6,7.8-37.4,11.7-56.1c-5.7,0-11.4,0-17.1,0c-3.9,18.3-7.4,36.8-11.5,55.1
	c-1.4,6.6-6.6,12.3-13.4,13.6c-4.8,0.8-10.3,1.2-14.6-1.7c-4-3.2-3.8-8.9-2.9-13.4c3.6-17.9,7.5-35.7,11.1-53.6
	C117.7,218.1,112,218.1,106.2,218.2z"/>
<path class="st3" d="M394.6,51.4c2.7-11,4.4-22.3,8.2-33.1c76.8,27.5,140.8,88.3,172.8,163.3c17.2,39.3,25.2,82.4,24.4,125.3
	c-1.2,49.9-14.9,99.5-40,142.7c-37,64.4-98.7,114.2-169.6,136.4c-38.5,12-79.5,16.7-119.7,12.4l-0.3-0.7c2.6-11.3,4.8-22.7,7.6-33.9
	c3-11.3,4.5-23,7.9-34.3c9.3-41.7,19.2-83.2,28.2-124.9c-2.9,0.2-5.7,0.5-8.6,0.8c-0.1-0.2-0.3-0.7-0.4-1c5.4-0.1,10.9,0.1,16.3-0.4
	c0.6-2.6,1.2-5.1,1.9-7.6c-2.6-0.2-5.3-0.4-7.9-0.7c2.1-9.5,5-18.8,7.5-28.3c10.4,0.2,20.7,0,31.1,0c4-0.1,9.3-1,10.5-5.4
	c3.9-12.8,7.3-25.8,10.8-38.8c-9.1,0.2-18.2-0.3-27.3,0.2c-5.7,0.2-10.8,2.9-15.5,5.8c0.2-1.9,0.5-3.8,0.7-5.7
	c0.8-7.7,3.4-15.1,4.2-22.8c4.1,0,8.2,0,12.4-0.1c2.1-10.8,4.3-21.5,6.4-32.3c0.6-3.7,1.2-7.6-0.2-11.2c-1.1-2.9-3.9-4.7-6.5-6.2
	c2.2-11.4,5.5-22.5,7.5-34C369.8,162,381.9,106.6,394.6,51.4 M360.4,300.7c5.5,0.2,11,0.1,16.5,0c1.8-9.6,3.8-19.2,5.8-28.8
	c7.6-0.1,15.3,0.3,22.9-0.3c13-1.1,24.1-11.6,26.6-24.3c1.6-6.8,1.9-14.8-3-20.4c-4.8-5.3-12.4-5.9-19.1-5.9c-11.1,0-22.3,0-33.4,0
	C371.2,247.6,365.7,274.1,360.4,300.7 M489.8,251.6c1,15.4,2.4,30.7,3.7,46c0.2,3.3,1.1,6.9-0.8,9.9c-4.7,9.3-9.5,20.3-20.2,24.1
	c-0.5,2.9-0.9,5.8-1.3,8.7c5.2-0.2,10.5-1,15.2-3.5c9.3-5.7,14.8-15.6,19.7-25c9.8-20.1,20-40,29.5-60.2c-4.8,0.1-9.5,0.1-14.3,0
	c-4.7,11.1-9.5,22.2-14.1,33.4c-0.5-11.1-0.5-22.2-1-33.3C500.8,251.6,495.3,251.7,489.8,251.6 M436.5,258.5
	c-5.3,4.7-8.1,11.5-9.9,18.1c-2,7.9-2.2,17.9,5,23.3c6.9,0.1,14,0.7,20.6-1.9c0.4,0.5,1.1,1.5,1.5,1.9c5.3,1.2,10.8,0.6,16.2,0.7
	c3.2-15.4,6.7-30.7,10.1-46.1c-3.9,0.3-7.7,0.4-11.6,0.9c-3,0.4-5.2,2.6-7.7,4c-1.5-1-3.1-2.1-4.7-3
	C450,252.9,442.1,254.6,436.5,258.5 M409.8,328.1c0.2-1,0.5-3.1,0.7-4.1c-5.5-0.1-11.1,0-16.6,0c-0.9,3.8-2.1,7.6-3.2,11.4
	c0.8,0,2.4,0,3.1,0.1c-5,18.1-10.3,36.1-15.3,54.2c-0.8,0-2.3-0.1-3.1-0.2c-1.1,3.6-2.1,7.1-3,10.7c10.3,0.2,20.6,0,31,0.1
	c-0.2,1.2-0.5,3.5-0.6,4.6c5.3,0.1,10.6,0.1,15.9,0.1c0.3-1.5,0.6-3.1,0.8-4.6c0.9,0,2.6-0.1,3.5-0.1c1-3.5,2-7,3.1-10.5
	c-0.8,0-2.4,0-3.1,0c4.8-18.1,10.2-36,15.2-54.1c0.8,0,2.3,0.1,3.1,0.2c1.3-3.8,2.4-7.8,3.5-11.7c-6.9,0.1-13.7-0.1-20.6,0.1
	C419.1,324.1,414.4,326.2,409.8,328.1 M447.4,340.2c5.6,0.7,11.2,0.6,16.8,0.5c0.7-3.2,1.6-6.4,2.3-9.6c-1.1,0-3.4-0.1-4.5-0.2
	c-0.6-2.5-1-5.1-1.2-7.7c-5.1-0.2-10.2-0.1-15.4-0.2C445.7,328.8,445.1,334.8,447.4,340.2 M440.7,344c-0.9,3.5-1.9,7-3,10.4
	c5.6,0,11.3,0,16.9,0c-0.5,3.2-1.3,6.4-2.1,9.6c-5.8,0.1-11.6,0.2-17.4,0c-1.2,3.5-2.2,7-3.1,10.5c5.2,0,10.4-0.1,15.7,0.1
	c-3.9,6-8,12-12.2,17.7c-2,3.1-6.2,2.3-9.4,2.9c-0.9,3.2-1.9,6.5-2.8,9.7c6.9-0.6,14.5,1.8,20.8-1.7c4.2-4.2,6.6-9.9,10.5-14.4
	c1,4.6,2,9.2,3,13.8c4.9,3,10.9,1.6,16.4,2.1c1.2-3.3,2.1-6.7,2.9-10.1c-1.9-0.2-3.7-0.4-5.5-0.6c-0.8-4.5-1.4-9-2.3-13.4
	c-2.9,0-5.7,0-8.6-0.1c1.3-1.9,2.6-3.9,3.8-5.9c6-0.2,12-0.1,18-0.1c0.9-3.5,1.9-6.9,2.8-10.4c-5.3,0.1-10.6,0-15.9,0
	c1-3.2,1.9-6.4,2.7-9.6c5.3,0,10.7,0,16,0c1.1-3.5,2.1-7,2.9-10.6C474.1,344.1,457.4,344,440.7,344 M330,394.9
	c-0.2,2.8,0.4,5.7,1,8.4c7.4,2.7,15.3,1.1,23,1.4c0.6-2.7,1.3-5.5,2.1-8.2c-3.7,0-7.4-0.1-11.1-0.5c-0.3-4.1-0.4-8.3-0.3-12.4
	c4.4-0.1,9,0.5,13.2-1.4c4.4-2.2,5.1-7.5,6.3-11.8c-3.9-0.1-7.9-0.1-11.9,0c-0.4,1.7-0.8,3.4-1.3,5.2c-2.1,0.2-4.1,0.3-6.2,0.4
	c0-2,0.1-4.1,0.2-6.1c-4.7,0-9.3,0.1-14,0C330.6,378.3,330.4,386.6,330,394.9z"/>
<path class="st3" d="M390.3,234.7c6.4,0.1,12.9-0.4,19.3,0.6c3.1,0.4,6.2,2.8,6.5,6.1c0.6,6.5-2.7,14.2-9.5,15.9
	c-6.9,1.5-14,0.4-21,0.9C387.1,250.4,388.8,242.6,390.3,234.7z"/>
<path class="st3" d="M447.7,267.1c2.4-2.4,7.1-3.1,9.3,0c2.9,4.3,2.2,9.9,0.4,14.5c-1.7,4.1-4.1,8.6-8.7,9.9c-2.3,1-4.3-0.6-6.3-1.5
	C439,282.3,441.5,272.8,447.7,267.1z"/>
<path class="st3" d="M331.8,334.3c8.1,0.1,16.2,0,24.3,0c-0.6,2.4-1.2,4.7-1.8,7.1c-8.4,0.5-17.4-1.3-25.3,2.8
	C330,340.9,330.9,337.6,331.8,334.3z"/>
<path class="st3" d="M408.4,335.4c4.2,0,8.4,0,12.6,0c-1.2,3.7-2.3,7.5-3.3,11.2c-4.5,0.7-8.9,1.9-13.3,3.3
	C405.7,345.1,407.2,340.3,408.4,335.4z"/>
<path class="st3" d="M325.5,357.9c0.7-2.5,0.9-5.3,2.4-7.4c7.9-0.4,15.9,0.1,23.8-0.3c-0.6,2.5-1.3,5-2.1,7.5
	C341.6,358,333.6,357.8,325.5,357.9z"/>
<path class="st3" d="M402.5,356.8c4.1,0.1,8.2,0.1,12.3,0c-1,3.7-2.1,7.4-3.1,11.1c-4.6,0.8-9,2.3-13.3,4.1
	C399.5,366.9,401,361.8,402.5,356.8z"/>
<path class="st3" d="M393.4,389.5c0.8-3.8,1.9-7.6,3.1-11.3c4,0.1,8.1,0.2,12.1,0.4c-1.1,3.6-2.2,7.2-3.1,10.9
	C401.5,389.5,397.4,389.5,393.4,389.5z"/>
</svg>
