<?xml version="1.0" encoding="utf-8"?>
<!-- Generator: Adobe Illustrator 22.0.1, SVG Export Plug-In . SVG Version: 6.00 Build 0)  -->
<svg version="1.1" id="图层_1" xmlns="http://www.w3.org/2000/svg" xmlns:xlink="http://www.w3.org/1999/xlink" x="0px" y="0px"
	 viewBox="0 0 330 80" style="enable-background:new 0 0 330 80;" xml:space="preserve">
<style type="text/css">
	.st0{fill:#FFFFFF;}
	.st1{fill:#C6351F;}
</style>
<g id="图层_19">
</g>
<g id="图层_18">
</g>
<path class="st0" d="M16.2,11.6l-2.3-9.2H2l4.3,16.8c0.4,4,2.9,5.7,7.3,5.3h9.9V14.3h-3.7C17.6,14.7,16.4,13.8,16.2,11.6z"/>
<path class="st0" d="M40.3,64.7V14.3h34.5V2.7H27.6V69c-0.4,6.4,2.3,9.3,8.2,8.9H75V67H42.7C40.9,67.3,39.9,66.5,40.3,64.7z"/>
<path class="st0" d="M16.8,36.4l-2.6-8.2H2.7l4,14.5c0.7,4.4,3.3,6.3,7.9,5.6h8.9v-9.6h-3.7C17.9,39.1,17,38.3,16.8,36.4z"/>
<path class="st0" d="M8.9,66c-0.4,2-1.3,2.9-2.6,2.6h-4v9.2h7.9c5.3,0.2,8.2-1.9,8.9-6.3l4-19.5H11.6L8.9,66z"/>
<polygon class="st0" points="129.7,54.8 117.4,54.8 117.4,59.8 85.9,59.8 85.9,69 117.2,69 117.2,76.6 129.7,76.6 129.7,69 
	161.3,69 161.3,59.8 129.7,59.8 "/>
<path class="st0" d="M144.8,47.2c0.7,3.5,3,5.2,6.9,4.9h8.6V42H157c-1.1,0.2-1.8-0.2-2-1.3l-2-5.6h-11.9L144.8,47.2z"/>
<path class="st0" d="M86.8,52.2h9.6c3.3,0.4,5.6-1,6.9-4.3l3-12.9H94.4l-2.3,6.6c-0.2,0.9-0.8,1.2-1.6,1h-3.7V52.2L86.8,52.2z"/>
<path class="st0" d="M156.7,28.5l3-10.5h-12.2l-1.3,4c-0.2,0.9-0.8,1.2-1.6,1h-3v8.9h7.6C153.6,32,156,30.9,156.7,28.5z"/>
<path class="st0" d="M130.9,2.1h-13.1v3.3H86.1v9.2h29.7l-7.9,7.6v9.6h9.2L107.2,42v9.9h24.4c4.6,0,7-1.5,7.3-4.6v-8.9h-10.8v2.3
	c0,1.5-0.6,2.2-1.6,2h-4.4l9.6-10.9h7.6v-9.2h-14.8l7.9-7.9h29V5.5H131V2.1H130.9z"/>
<path class="st0" d="M97.9,31.7h7.6v-9.2h-3c-0.9,0.2-1.4,0-1.6-0.7l-1.3-4H87.4L91,28.3C91.6,30.7,93.9,31.7,97.9,31.7z"/>
<polygon class="st0" points="173.9,12.9 173.9,23.7 194.4,15.9 194.8,76.7 203.2,76.7 203.2,2 201.8,2 "/>
<polygon class="st0" points="180.4,76.7 190.8,76.7 190.8,20.3 180.4,24.3 "/>
<polygon class="st0" points="241.8,2 213.9,12.9 213.9,23.7 234.4,15.9 234.8,76.7 243.2,76.7 243.2,2 "/>
<polygon class="st0" points="220.4,76.7 230.8,76.7 230.8,20.3 220.4,24.3 "/>
<path class="st1" d="M290.5,2c-9.7,0-18.7,3.7-25.3,9.8l9.5,9.7c4.2-3.8,9.7-6,15.8-6c13.2,0,24,10.8,24,24c0,6.2-2.3,11.8-6.2,16
	l9.5,9.7c6.3-6.8,10.2-15.8,10.2-25.7C328,18.8,311.2,2,290.5,2z"/>
<path class="st1" d="M290.5,63.5c-13.2,0-24-10.8-24-24c0-6.1,2.2-11.6,6-15.8L263,14c-6.2,6.7-10,15.7-10,25.5
	c0,20.7,16.8,37.5,37.5,37.5c9.7,0,18.5-3.7,25.1-9.7l-9.5-9.7C302,61.3,296.5,63.5,290.5,63.5z"/>
<g id="图层_16">
</g>
<g id="图层_15">
</g>
<g id="图层_14">
</g>
<g id="图层_13">
</g>
<g id="图层_12">
</g>
<g id="图层_11">
</g>
<g id="图层_10">
</g>
<g id="图层_9">
</g>
<g id="图层_8">
</g>
<g id="图层_7">
</g>
<g id="图层_6">
</g>
<g id="图层_5">
</g>
<g id="图层_4">
</g>
<g id="图层_3">
</g>
</svg>
