<?xml version="1.0" encoding="utf-8"?>
<!-- Generator: Adobe Illustrator 22.0.1, SVG Export Plug-In . SVG Version: 6.00 Build 0)  -->
<svg version="1.1"
	 id="svg4965" xmlns:cc="http://creativecommons.org/ns#" xmlns:dc="http://purl.org/dc/elements/1.1/" xmlns:rdf="http://www.w3.org/1999/02/22-rdf-syntax-ns#" xmlns:svg="http://www.w3.org/2000/svg"
	 xmlns="http://www.w3.org/2000/svg" xmlns:xlink="http://www.w3.org/1999/xlink" x="0px" y="0px" viewBox="0 0 400 100"
	 style="enable-background:new 0 0 400 100;" xml:space="preserve">
<style type="text/css">
	.st0{fill:#ADABAC;}
</style>
<g id="layer1" transform="translate(-297.9885,-472.70039)">
	<g id="g4940" transform="matrix(2.4662885,0,0,-2.4662885,-772.5069,719.18727)">
		<path id="path1274" class="st0" d="M456.5,67.4l-0.1-0.1c-1.8-1.8-3.9-2.8-6.1-2.8c-4.5,0-7.8,3.4-7.8,8c0,4.7,3.3,8,7.8,8
			c2.2,0,4.2-1,6.1-2.8l0.1-0.1l2.9,3.5l-0.1,0.1c-2.4,2.8-5.3,4.2-8.8,4.2c-3.6,0-6.8-1.2-9.2-3.4c-2.6-2.3-3.9-5.6-3.9-9.6
			c0-3.9,1.3-7.2,3.9-9.6c2.3-2.2,5.6-3.4,9.2-3.4s6.4,1.4,8.8,4.2l0.1,0.1L456.5,67.4z"/>
		<path id="path1276" class="st0" d="M462.3,60h5.1v25h-5.1V60L462.3,60z"/>
		<path id="path1278" class="st0" d="M487.5,65.5c-1.4-0.8-2.6-1.2-3.8-1.2c-1.7,0-2.4,0.9-2.4,2.8v13.3h5.2v4.7h-5.2v7.8l-5-2.7
			v-5.1H472v-4.7h4.3V66.2c0-3.8,2.3-6.5,5.7-6.5c2.3,0,3.7,0.6,4.5,1.1l0,0l1.2,4.8L487.5,65.5L487.5,65.5z"/>
		<path id="path1280" class="st0" d="M491.7,60h5.1v25h-5.1V60L491.7,60z"/>
		<path id="path1282" class="st0" d="M578.4,94.5V70.7l1.6,2.5c0,0,7.2,10.4,8.1,11.7h3.2c-0.7-0.9-6.3-8.7-6.3-8.7
			s7.3-15.3,7.8-16.2h-3.1c-0.2,0.4-6.5,13.7-6.5,13.7l-4.7-6.6V60h-2.9v32.8C575.7,93,577.7,94.1,578.4,94.5L578.4,94.5z
			 M554.4,81.9c1.5,2.3,3.9,3.5,6.6,3.5c5.5,0,8.4-3.5,8.4-10.2V60h-2.9v14.6c0,5.7-2,8.3-6.2,8.3c-4.1,0-6.5-3.1-6.5-8.3V60h-2.9
			v24.8h2.9V81L554.4,81.9z M536.5,85.4c5.7,0,8.4-2.6,8.4-7.9V60H542v3.6l-0.6-0.6c-2.1-2.4-4.6-3.5-7.6-3.5
			c-2.3,0-7.7,0.8-7.7,7.8c0,5.8,4.8,7.8,9.2,7.8c2.2,0,4.5-0.5,6.1-1.4l0.5-0.3V77c0,4-1.9,6-5.7,6c-2.3,0-4.5-0.6-6.6-1.8
			c-0.2,0.4-0.9,1.9-1.1,2.4C530.8,84.7,533.6,85.4,536.5,85.4L536.5,85.4z M529.1,67.6c0-3.7,1.9-5.8,5.4-5.8c3,0,5.6,1.4,7.4,4
			l0.1,0.1v5.4l-0.2,0.1c-1.9,1.1-3.8,1.5-6.6,1.5C531.4,72.9,529.1,70.9,529.1,67.6z M506.5,94.5V81.2l0.6,0.6
			c2.1,2.4,4.5,3.5,7.3,3.5c5.5,0,8.6-4.6,8.6-12.5c0-8.1-3.6-13.4-9.1-13.4c-2.7,0-4.8,1-6.8,3.3l-0.6,0.7V60h-2.9v32.8
			C503.8,93,505.8,94.1,506.5,94.5L506.5,94.5z M506.6,79.1L506.6,79.1l-0.1-13l0.1-0.1c1.6-2.5,4.2-4,7-4c4.3,0,6.5,3.6,6.5,10.8
			c0,6.4-2.4,10.1-6.6,10.1C510.9,82.9,508.6,81.6,506.6,79.1"/>
		<path id="path1284" class="st0" d="M499.9,89.4c-4.7,6.6-12.5,10.6-20.4,10.6s-15.7-4-20.4-10.6l-0.2-0.3h5.9l0.1,0.1
			c4,4.1,9.2,6.3,14.6,6.3s10.6-2.2,14.6-6.3l0.1-0.1h5.9L499.9,89.4z"/>
	</g>
</g>
</svg>
