<?xml version="1.0" encoding="utf-8"?>
<!-- Generator: Adobe Illustrator 22.0.1, SVG Export Plug-In . SVG Version: 6.00 Build 0)  -->
<svg version="1.1" id="HSBC_x5F_MASTERBRAND_x5F_LOGO_x5F_WW_x5F_CMYK"
	 xmlns="http://www.w3.org/2000/svg" xmlns:xlink="http://www.w3.org/1999/xlink" x="0px" y="0px" viewBox="0 0 400 100"
	 style="enable-background:new 0 0 400 100;" xml:space="preserve">
<style type="text/css">
	.st0{display:none;}
	.st1{display:inline;}
	.st2{fill:#FFFFFF;}
	.st3{fill:#DB0011;}
	.st4{fill:#ADABAC;}
	.st5{display:none;fill:#FEF382;}
</style>
<g class="st0">
	<path class="st1" d="M205.8,51.1h-6.7v6.6h-3.4V42.2h3.4v6.3h6.7v-6.3h3.4v15.5h-3.4V51.1z"/>
	<path class="st1" d="M217.3,58c-3.3,0-6.1-1.3-6.2-5h3.4c0,1.7,1,2.6,2.9,2.6c1.4,0,2.9-0.7,2.9-2.2c0-1.2-1.1-1.6-2.8-2.1
		l-1.1-0.3c-2.4-0.7-4.9-1.7-4.9-4.4c0-3.5,3.2-4.6,6.2-4.6s5.6,1.1,5.6,4.5h-3.4c-0.1-1.4-0.9-2.2-2.5-2.2c-1.2,0-2.5,0.7-2.5,2
		c0,1.1,1,1.5,3.2,2.2l1.3,0.4c2.7,0.8,4.3,1.8,4.3,4.3C223.7,56.7,220.3,58,217.3,58z"/>
	<path class="st1" d="M225.6,42.2h5.4c1.7,0,2.4,0,3,0.2c1.9,0.4,3.3,1.7,3.3,3.7s-1.3,3-3.1,3.5c2.1,0.4,3.6,1.5,3.6,3.8
		c0,3.5-3.5,4.3-6.2,4.3h-6.1V42.2H225.6z M231,48.7c1.5,0,3-0.3,3-2.1c0-1.6-1.4-2-2.8-2h-2.4v4.1H231z M231.4,55.4
		c1.6,0,3.1-0.4,3.1-2.3c0-1.8-1.3-2.3-2.9-2.3h-2.7v4.5L231.4,55.4L231.4,55.4z"/>
	<path class="st1" d="M246.7,58c-5,0-7.3-3.2-7.3-7.9s2.5-8.2,7.4-8.2c3.1,0,6.1,1.4,6.2,4.9h-3.5c-0.2-1.5-1.2-2.4-2.7-2.4
		c-3,0-3.9,3.3-3.9,5.7c0,2.5,0.9,5.3,3.8,5.3c1.5,0,2.6-0.8,2.9-2.4h3.5C252.7,56.7,249.9,58,246.7,58z"/>
	<g class="st1">
		<rect x="134" y="31.5" class="st2" width="37" height="37"/>
		<polygon class="st3" points="171.1,68.5 189.6,50 171.1,31.5 171.1,31.5 		"/>
		<polygon class="st3" points="134,68.5 115.5,50 134,31.5 134,31.5 		"/>
		<polygon class="st3" points="171.1,31.5 152.5,50 134,31.5 134,31.5 		"/>
		<polygon class="st3" points="134,68.5 152.5,50 171.1,68.5 171.1,68.5 		"/>
	</g>
</g>
<path class="st4" d="M260.7,35.9l0.3,0.3l3.3-4.6l-0.3-0.3c-2.2-3-7.6-6.2-11.4-7.8h-0.3l-2.7,4.1l0.5,0.3
	C253.9,29.2,257.7,31.9,260.7,35.9z"/>
<path class="st4" d="M259.3,48.1l0.3,0.3l3-4.6l-0.3-0.3c-2.4-3-7.9-6.5-11.9-7.8h-0.3l-2.7,4.3l0.5,0.3
	C251.5,41.4,256.1,44.3,259.3,48.1z"/>
<polygon class="st4" points="273.7,30 298.9,30 298.9,24.9 268.3,24.9 268.3,73 301.3,73 301.3,67.8 273.7,67.8 "/>
<path class="st4" d="M260.4,51.6c-3,8.1-6,14.1-12.2,20.3l-0.3,0.3L252,76l0.3-0.3c6.8-6.2,10.3-15.1,12.5-21.6l0.3-0.5l-4.6-2.2
	L260.4,51.6L260.4,51.6z"/>
<polygon class="st4" points="344.9,57 344.9,48.9 364.7,48.9 364.7,43.8 344.9,43.8 344.9,36.2 365.5,36.2 365.5,31.1 344.9,31.1 
	344.9,22.4 339.5,22.4 339.5,31.1 318.7,31.1 318.7,36.2 339.5,36.2 339.5,43.8 319.5,43.8 319.5,48.9 339.5,48.9 339.5,57 
	316.2,57 316.2,62.2 339.5,62.2 339.5,77.6 344.9,77.6 344.9,62.2 368.5,62.2 368.5,57 "/>
<g>
	<rect x="81.6" class="st2" width="100.2" height="100"/>
	<polygon class="st4" points="182.1,0 182.1,100 232.2,50 	"/>
	<polygon class="st4" points="81.6,0 131.7,50 182.1,0 	"/>
	<polygon class="st4" points="81.6,0 31.5,50 81.6,100 	"/>
	<polygon class="st4" points="81.6,100 182.1,100 131.7,50 	"/>
</g>
<g class="st0">
	<g class="st1">
		<g>
			<polygon class="st3" points="189.7,50 171.1,31.5 171.1,68.6 			"/>
			<polygon class="st3" points="152.6,50 171.1,31.5 134,31.5 			"/>
			<polygon class="st3" points="115.5,50 134,68.6 134,31.5 			"/>
			<polygon class="st3" points="152.6,50 134,68.6 171.1,68.6 			"/>
		</g>
	</g>
	<path class="st1" d="M195.9,46.2l1-1.1c1,0.7,2.4,1.9,3.1,3.3l-1.1,1.1C198.3,48.4,197.2,47,195.9,46.2z M195.9,59.4
		c2.2-2.5,3.2-5.7,3.7-8.2l1.3,0.6c-0.5,3-2,6.1-3.9,8.5L195.9,59.4z M197.4,41.1l1.1-0.9c1.2,0.7,2.1,1.6,2.8,2.8l-1.1,1
		C199.5,42.5,198.4,41.7,197.4,41.1z M201.7,40.8h15v1.4h-6.6c0.8,0.6,1.3,1.1,1.8,2l-0.6,0.4h5V46h-4.6v2.4h3.8v1.4h-3.8v2.3h3.8
		v1.4h-3.8v2.6h4.7v1.4h-11.1v-8.7c-0.3,0.5-0.8,1-1.2,1.5c-0.2-0.1-0.6-0.4-0.9-0.8c0,0.8,0,6.5,0,9.5h14v1.4c-5.2,0-10.3,0-15.5,0
		L201.7,40.8z M203.2,49.2c0.9-1,2.7-4.4,3.1-7h-3.1V49.2z M209.4,42.2h-3c0.4,0.2,0.7,0.3,1.2,0.5c-0.1,0.7-0.3,1.3-0.5,1.9h3.4
		c-0.3-0.7-1-1.3-1.7-1.9L209.4,42.2z M206.7,48.4h3.5V46h-3.5V48.4z M206.7,52.1h3.5v-2.3h-3.5V52.1z M206.7,53.5v2.6h3.5v-2.6
		H206.7z"/>
	<path class="st1" d="M228.5,59c-0.2-0.5-0.7-0.9-1.1-1.3l-0.6-0.5h-2v-4h13.8v3.9h-2.3c-0.3,0.7-0.7,1.3-1.2,1.9h6.8v1.4h-20.4V59
		H228.5z M241.1,52.2h-18.9v-1.3h18.9V52.2z M238.9,48.6v-7h1.5v8.3h-17.5v-8.2h1.5v6.9h6.6v-8.4h1.5v8.4H238.9z M230.2,47.3h-2v1.1
		h-1.4v-1.1h-1.9v-1h1.9V45h-1.9v-1h1.9v-1.2h-1.9v-1h1.9v-1.3h1.4v1.3h2v0.9h-2V44h2v1h-2v1.3h2V47.3z M226.3,56h10.8v-1.6h-10.8
		V56z M233.2,59c0.7-0.5,1.2-1.2,1.5-1.9h-6c0.6,0.6,1.1,1.2,1.4,1.9H233.2z M236.4,48.4h-1.3v-1.2h-2v-1h2v-1.3h-2V44h2v-1.3h-2
		v-0.9h1.9v-1.3h1.3v1.3h2v0.9h-2V44h2v0.9h-2v1.2h2.1v1h-2V48.4z"/>
</g>
<rect x="111.5" y="50.4" class="st5" width="4" height="4"/>
</svg>
