<?xml version="1.0" encoding="utf-8"?>
<!-- Generator: Adobe Illustrator 22.0.1, SVG Export Plug-In . SVG Version: 6.00 Build 0)  -->
<svg version="1.1" id="layer" xmlns="http://www.w3.org/2000/svg" xmlns:xlink="http://www.w3.org/1999/xlink" x="0px" y="0px"
	 viewBox="0 0 400 100" style="enable-background:new 0 0 400 100;" xml:space="preserve">
<style type="text/css">
	.st0{fill:#ADABAC;}
</style>
<rect x="178.3" y="47.3" class="st0" width="10.9" height="31.4"/>
<path class="st0" d="M210.4,46.7c-10,0-17.2,7.4-17.2,16.4s7.1,16.2,17.1,16.2s17.2-7.4,17.2-16.4C227.5,54,220.4,46.7,210.4,46.7z
	 M210.4,70.1c-3.8,0-6.6-3.2-6.6-7.1s2.5-7,6.4-7c3.8,0,6.6,3.1,6.6,7.1C216.9,67,214.5,70.1,210.4,70.1z"/>
<rect x="178.3" y="36.5" class="st0" width="10.9" height="7.2"/>
<path class="st0" d="M124.6,60.8c0,5.7-2.9,8.3-7.4,8.3s-7.4-2.8-7.4-8.6v-24H98.4v24.2c0,12.8,7.2,18.6,18.6,18.6
	s18.8-5.7,18.8-18.9v-24h-11.2C124.6,36.4,124.6,60.8,124.6,60.8z"/>
<path class="st0" d="M161.9,46.7c-4.4,0-7.3,2.3-9.3,5v-4.4h-10.9v31.4h10.9l-0.1-16.9c0-3.5,2-5.3,4.6-5.3s4.4,1.9,4.4,5.3v16.9
	h10.9V58.3C172.5,51.1,168.5,46.7,161.9,46.7z"/>
<path class="st0" d="M354.3,46.6c-4.6,0-7.7,2-9.8,4.7v-4.1H339v31.5h5.6v-18c0-5.5,3.6-8.9,8.5-9c5,0.1,7.8,3.2,7.8,8.6v18.3h5.6
	V59.3c0-3.7-1.1-6.9-3.2-9.1C361.1,47.9,358.1,46.6,354.3,46.6z"/>
<polygon class="st0" points="399.8,47.3 392.7,47.3 377.2,63.5 377.2,36.5 371.6,36.5 371.6,78.6 377.2,78.6 377.2,70.4 382.7,64.8 
	393.3,78.7 400,78.7 386.6,60.9 "/>
<path class="st0" d="M251.3,46.7c-4.4,0-7.3,2.3-9.3,5v-4.4h-10.9v31.4H242c0,0,0-16.9,0.1-16.9c0-3.5,2-5.3,4.6-5.3
	c2.5,0,4.3,1.9,4.3,5.3v16.9h10.8V58.3C261.9,51.1,257.9,46.7,251.3,46.7z"/>
<path class="st0" d="M320.1,46.8c-4.5,0-7.8,1.1-11.2,2.6l-0.5,0.2l1.7,4.7l0.5-0.3c2.7-1.2,5.5-2.1,8.9-2.1c2.7,0,4.8,0.7,6.2,1.9
	c1.4,1.2,2.1,3.1,2.2,5.7v0.2c-2.8-0.8-5.8-1.2-8.7-1.1c-3.9,0-7.2,0.9-9.6,2.6c-2.4,1.7-3.8,4.4-3.8,7.8v0.1c0,3.2,1.5,5.8,3.7,7.5
	s5.1,2.5,8.1,2.5c4.7,0,8.1-1.9,10.3-4.3v3.6h5.5v-19c0-3.9-1.1-7-3.3-9.3C327.9,48,324.4,46.8,320.1,46.8z M328.1,67
	c0,2.2-1,4.1-2.7,5.5s-4.1,2.1-6.8,2.1c-1.9,0-3.7-0.6-5-1.5c-1.2-1-2.1-2.3-2.1-4V69c0-3.2,2.8-5.5,8.3-5.5c3.4,0,6.1,0.6,8.3,1.2
	L328.1,67z"/>
<path class="st0" d="M295.2,56.8c2.9-1.6,5.6-4.5,5.6-9.4v-0.1c0-2.8-1-5.1-2.7-7c-2.5-2.4-6.3-3.8-11-3.8h-17.9v42.1h18.7
	c4.5,0,8.4-1,11-3c2.7-2,4.3-5,4.3-8.7v-0.1C303.1,61.4,299.6,58.4,295.2,56.8z M274.7,41.8h11.9c5.7,0.1,8.5,2.4,8.5,6.1V48
	c0,2.3-0.9,3.9-2.4,5s-3.8,1.7-6.4,1.7h-11.5V41.8H274.7z M297.4,66.6L297.4,66.6c-0.1,4.2-3.5,6.8-9.5,6.8h-13.2V60H287
	c3.5,0,6.1,0.6,7.8,1.7c1.7,1.1,2.5,2.7,2.5,4.8v0.1H297.4z"/>
<path class="st0" d="M0,9.5v50.8c0,23.1,13.9,26.5,18.3,27.2C23,88.2,29.1,86,31.7,82c-3.3-2-3.6-8.7-3.6-16.6v-30
	C28.1,16,14.4,9.5,0,9.5 M64.9,30.7v29.1c0,24-21.7,33.1-41.5,30.1c6.9-1.8,13.4-6.4,13.4-19.1V57.4C36.7,44.9,40.7,32.8,64.9,30.7"
	/>
</svg>
