<?xml version="1.0" encoding="utf-8"?>
<!-- Generator: Adobe Illustrator 22.0.1, SVG Export Plug-In . SVG Version: 6.00 Build 0)  -->
<svg version="1.1" id="图层_1" xmlns="http://www.w3.org/2000/svg" xmlns:xlink="http://www.w3.org/1999/xlink" x="0px" y="0px"
	 viewBox="0 0 400 100" style="enable-background:new 0 0 400 100;" xml:space="preserve">
<style type="text/css">
	.st0{fill:#ADABAC;}
</style>
<g>
	<path class="st0" d="M109.7,18.7h-3.8v21.8c0,4.6,2.3,6.6,6.4,6.6h2.7v-3.7h-2.7c-1.8,0-2.6-1.2-2.6-2.8V28.5h5.3v-3.4h-5.3V18.7z
		 M102.3,38.5c0-6-4.9-7.6-9.6-8.7l-1.6-0.3c-4.2-0.9-7.8-1.7-7.8-4.8c0-4.4,4.5-4.9,6.5-4.9c4.3,0,6.8,2.1,7.2,5.9v0.1h4v-0.2
		c-0.2-6-4.3-9.5-11.1-9.5C84.5,16.2,79,18.9,79,25c0,5.4,4.6,6.9,9.6,8l1,0.2c4.3,0.9,8.3,1.8,8.3,5.4c0,4.5-4.6,5.2-7.4,5.2
		c-2.3,0-4.4-0.6-5.9-1.7c-1.7-1.2-2.6-3-2.6-5.3v-0.2h-4v0.2c0,7.8,6.4,10.6,12.4,10.6C96.4,47.5,102.3,44.7,102.3,38.5L102.3,38.5
		z M136.9,43.8c-0.9,0-1-0.5-1-2.2v-11c0-4.1-2.7-6-8.2-6c-3.3,0-9,0.9-9.2,7.3v0.2h3.8v-0.2c0.1-2.7,1.8-3.9,5.2-3.9
		c3.1,0,4.6,1.1,4.6,3.4c0,1.9-2,2.2-4.7,2.6c-0.8,0.1-1.6,0.2-2.4,0.4c-3.7,0.7-7.4,1.8-7.4,6.7c0,3.8,2.7,6.2,7.3,6.2
		c3,0,5.5-1.1,7.4-3.1c0.1,2.5,1.7,3.1,3.1,3.1c1.1,0,1.9-0.2,2.6-0.6h0.1v-3l-0.2,0.1C137.5,43.8,137.2,43.8,136.9,43.8L136.9,43.8
		z M132.1,39.2c0,1.8-1.7,4.7-6.4,4.7c-1.2,0-4-0.3-4-3c0-2.6,2.1-3.3,4.2-3.7c0.6-0.1,1.3-0.2,1.9-0.3c1.7-0.2,3.2-0.4,4.3-1
		C132.1,35.8,132.1,39.2,132.1,39.2z M155.9,32.2v14.6h3.8V32.6c0-5.4-2.5-8-7.5-8c-3.1,0-5.4,1.2-6.9,3.6v-3.1h-3.6v21.7h3.8V34.6
		c0-4.1,2.3-6.5,6.2-6.5C154.2,28,155.9,29.6,155.9,32.2L155.9,32.2z M173.4,47.3c3.1,0,5.6-1.2,6.8-3.1v2.6h3.8V17H180v10.8
		c-1.6-2.3-4.6-3.1-6.8-3.1c-6.1,0-10,4.4-10,11.3c0,3.2,0.9,6,2.5,8C167.5,46.1,170.1,47.3,173.4,47.3L173.4,47.3z M173.6,28
		c6.1,0,6.6,6.1,6.6,8c0,3.8-1.7,7.9-6.4,7.9c-4.5,0-6.5-3.9-6.5-7.7C167.4,33.7,167.9,28,173.6,28L173.6,28z M197.5,34
		c-0.8,0.1-1.6,0.2-2.4,0.4c-3.7,0.7-7.4,1.8-7.4,6.7c0,3.8,2.7,6.2,7.2,6.2c3,0,5.5-1.1,7.4-3.1c0.1,2.5,1.7,3.1,3.1,3.1
		c1.1,0,1.9-0.2,2.6-0.6h0.1v-3l-0.2,0.1c-0.5,0.2-0.8,0.2-1,0.2c-0.9,0-1-0.5-1-2.2v-11c0-4.1-2.7-6-8.2-6c-3.4,0-9,0.9-9.3,7.3
		v0.2h3.8v-0.1c0.1-2.7,1.8-3.9,5.2-3.9c3.1,0,4.6,1.1,4.6,3.4C202.2,33.4,200.4,33.7,197.5,34L197.5,34z M202.2,35.9L202.2,35.9z
		 M202.2,39.2c0,1.8-1.7,4.7-6.4,4.7c-1.2,0-4-0.3-4-3c0-2.6,2.1-3.3,4.2-3.7c0.6-0.1,1.3-0.2,1.9-0.3c1.7-0.2,3.2-0.4,4.3-1V39.2
		L202.2,39.2z M215.2,29.3v-4.2h-3.6v21.7h3.8v-9.7c0-5.8,2.4-8.5,7.6-8.5h0.2v-4H223C219.4,24.5,217,25.9,215.2,29.3z M240.5,17
		v10.8c-1.6-2.3-4.6-3.1-6.9-3.1c-6,0-9.9,4.4-9.9,11.3c0,3.2,0.9,6,2.5,8c1.8,2.2,4.4,3.4,7.5,3.4c3.2,0,5.6-1.2,6.8-3.1v2.6h3.9
		V17H240.5z M234.2,43.9c-4.5,0-6.5-3.9-6.5-7.7c0-2.4,0.6-8.1,6.3-8.1c6.1,0,6.6,6.1,6.6,8C240.6,39.8,238.9,43.9,234.2,43.9
		L234.2,43.9z M86.1,77.1c-0.4,5.2-3.6,8.4-8.4,8.4c-3.3,0-5.9-1.2-7.6-3.6c-1.5-2.1-2.4-5.1-2.4-8.6c0-3.2,0.8-6.1,2.4-8.2
		c1.7-2.4,4.3-3.6,7.5-3.6c4.3,0,7.4,2.3,8.1,6.2v0.1H90v-0.2c-0.4-3.1-1.9-5.6-4.2-7.3c-2.2-1.6-5-2.5-8.2-2.5
		c-4.4,0-8,1.6-10.6,4.6c-2.3,2.8-3.6,6.7-3.6,11.1c0,9.6,5.3,15.6,13.9,15.6c3.7,0,6.8-1.1,9-3.2s3.6-5.1,3.9-8.8v-0.2H86
		L86.1,77.1L86.1,77.1z M104.6,66.2c-2.3,0-5.3,0.9-6.7,3.3v-11H94v29.9h3.8V76.2c0-4.1,2.3-6.5,6.2-6.5c2.6,0,4.2,1.6,4.2,4.1v14.7
		h3.8V74.2C112.1,68.8,109.6,66.2,104.6,66.2L104.6,66.2z M134.8,85.5c-0.9,0-1-0.5-1-2.3v-11c0-4-2.7-6-8.2-6c-3.3,0-9,0.9-9.2,7.3
		v0.2h3.8v-0.2c0.1-2.7,1.8-3.9,5.2-3.9c3.2,0,4.6,1.1,4.6,3.4c0,2-2,2.2-4.7,2.6c-0.8,0.1-1.6,0.2-2.4,0.4
		c-3.7,0.7-7.4,1.8-7.4,6.7c0,3.9,2.7,6.2,7.3,6.2c3,0,5.5-1.1,7.4-3.1c0.1,2.5,1.8,3.1,3.1,3.1c1.1,0,1.9-0.2,2.6-0.6h0.1v-3
		l-0.2,0.1C135.2,85.5,134.9,85.5,134.8,85.5L134.8,85.5z M129.9,80.8c0,1.8-1.7,4.7-6.4,4.7c-1.2,0-4-0.3-4-3
		c0-2.6,2.1-3.3,4.2-3.7c0.6-0.1,1.3-0.2,1.9-0.3c1.7-0.2,3.2-0.4,4.3-1V80.8L129.9,80.8z M240.5,69.4c-1.6-2.3-4.6-3.1-6.9-3.1
		c-6,0-9.9,4.4-9.9,11.3c0,3.1,0.9,6,2.5,8c1.8,2.2,4.4,3.4,7.5,3.4c3.2,0,5.6-1.1,6.8-3.1v2.6h3.9V58.6h-3.9L240.5,69.4L240.5,69.4
		z M234.2,85.5c-4.5,0-6.5-3.9-6.5-7.7c0-2.4,0.6-8.1,6.3-8.1c6.1,0,6.6,6.1,6.6,8C240.6,81.4,238.9,85.5,234.2,85.5L234.2,85.5z
		 M175.4,66.2c-5.9,0-10.2,4.7-10.2,11.3c0.2,7.3,4,11.4,10.4,11.4c4.9,0,8.3-2.6,9.3-7.2h-3.8c-0.7,2.5-2.5,3.8-5.3,3.8
		c-2,0-3.6-0.6-4.8-1.8c-1.2-1.2-1.8-3-1.7-4.9h16v-0.2c0.2-3.9-1-7.5-3.2-9.7C180.4,67.1,178.2,66.2,175.4,66.2L175.4,66.2z
		 M169.4,75.4c0.3-2.9,2.2-5.7,6-5.7c3.2,0,5.8,2.4,6,5.7H169.4L169.4,75.4z M211.4,66.2c-5.9,0-10.2,4.7-10.2,11.3
		c0.2,7.3,4,11.4,10.4,11.4c4.9,0,8.2-2.6,9.3-7.2H217c-0.7,2.4-2.6,3.8-5.3,3.8c-2,0-3.6-0.6-4.8-1.8c-1.2-1.2-1.8-3-1.8-4.9h16
		v-0.2c0.2-3.9-1-7.5-3.2-9.7C216.4,67.1,214,66.2,211.4,66.2L211.4,66.2z M205.1,75.4c0.3-2.9,2.2-5.7,6-5.7c3.2,0,5.8,2.4,6,5.7
		H205.1L205.1,75.4z M143,70.9v-4.2h-3.6v21.7h3.8v-9.7c0-5.8,2.4-8.5,7.6-8.5h0.2v-4h-0.2C147.2,66.1,144.8,67.5,143,70.9z
		 M192.8,70.9v-4.2h-3.6v21.7h3.8v-9.7c0-5.8,2.4-8.5,7.6-8.5h0.2v-4h-0.2C196.9,66.1,194.5,67.5,192.8,70.9z M157.9,60.3h-3.8v21.8
		c0,4.6,2.3,6.6,6.4,6.6h2.7V85h-2.7c-1.8,0-2.6-1.2-2.6-2.9v-12h5.3v-3.4h-5.3V60.3L157.9,60.3z"/>
</g>
<path class="st0" d="M291.1,96.6c-2.6,1.6-5,2.5-7.5,2.5c-6.5,0-11.9-5.3-12.2-11.6L284,80l19.6,8.7L291.1,96.6L291.1,96.6z"/>
<path class="st0" d="M298.6,64.4l-9.4-4.1c-4.2-1.9-8.1-3.4-8.1-8c0-2.4,0.7-3.6,1.9-4.9l19.8,8.7l-4.9,2.8
	c-1.4,0.8-2.3,1.6-2.3,2.6C295.6,62.6,296.9,63.6,298.6,64.4"/>
<path class="st0" d="M307.8,21.3l-9.6,5.8c-0.9,0.5-2,1.3-2,2.6c0,1.5,2.2,2.6,4.2,3.5l-12-5.3c-3.5-1.6-7.1-3.3-7.1-7.6
	c0-1.8,0.5-3.2,1.4-4.5l26-15.8c3.1,1.8,6.1,5.3,6.1,10.1C314.8,15.2,312.2,18.6,307.8,21.3"/>
<path class="st0" d="M328.3,40l-2.4,1.3L306,32.6l23.1-13.9c3.1,1.8,6.2,5.3,6.2,10.1C335.3,33.9,332.8,37.5,328.3,40"/>
<path class="st0" d="M311.5,56.8l11.7,5.1c4.4,2,5.7,4.3,5.7,7.2c0,1.7-0.9,3.3-2.3,4.5L307,64.8l3.3-1.9c2.8-1.6,3.8-2.5,3.8-3.5
	C314.1,58.4,313.4,57.6,311.5,56.8"/>
<path class="st0" d="M332.4,100c-5-3.8-10.3-6.4-16.8-9.4l-29.9-13.2c-7.5-3.3-12.5-7.8-12.5-15.3c0-7.3,3.5-10.8,8.1-13.7l1.7-1
	c-1.1,1.2-1.9,2.5-1.9,4.9c0,4.6,3.9,6.2,8.1,8l34.8,15.3c6.1,2.6,11.6,7.1,11.6,14.7C335.8,94.4,334.1,98.1,332.4,100"/>
<path class="st0" d="M328.9,72.2l-2.2,1.4c1.3-1.1,2.3-2.8,2.3-4.5c0-2.9-1.4-5.2-5.7-7.2L286,45.6c-7.5-3.3-12.2-7.6-12.2-15.1
	c0-6.9,3.4-11.4,8.9-14.7c-0.8,1.2-1.4,2.7-1.4,4.5c0,4.3,3.5,6,7.1,7.6l36.2,15.9c6.6,2.9,11.9,7.3,11.9,15.3
	C336.5,65.4,333.6,69.3,328.9,72.2"/>
</svg>
