<?xml version="1.0" encoding="utf-8"?>
<!-- Generator: Adobe Illustrator 22.0.1, SVG Export Plug-In . SVG Version: 6.00 Build 0)  -->
<svg version="1.1" id="图层_1" xmlns="http://www.w3.org/2000/svg" xmlns:xlink="http://www.w3.org/1999/xlink" x="0px" y="0px"
	 viewBox="0 0 400 100" style="enable-background:new 0 0 400 100;" xml:space="preserve">
<style type="text/css">
	.st0{fill:#adabac;}
</style>
<g id="BIM_x2F_logo_x2F_large-211x22">
	<g id="Wells_Fargo">
		<path id="Shape" class="st0" d="M85.9,56.1h3.9v13H57.2v-4.7h4.6V35.7h-7.5l-9.5,33.4h-7.5l-7.7-27.7l-7.9,27.7h-7.5L4.7,35.7H0.4
			V31H18v4.7h-5.1l6.3,23L26.8,31h7.8l7.7,27.8l6.2-23.1h-5.3V31h45.9v12.4h-3.9L85,41.9c-1.2-4.6-2.4-6.2-6.1-6.2h-9v11.5h10.9
			c0.4,0.8,0.6,1.7,0.6,2.6c0,0.9-0.2,1.9-0.6,2.7H69.9v11.8h9.4c3.5,0,5.1-1.5,6.2-6.4L85.9,56.1z M120.1,58
			c-1.1,4.9-2.6,6.4-6.2,6.4h-7.5V35.7h5.1V31H93.7v4.7h4.6v28.7h-4.6l0,4.7h30.7v-13h-3.9L120.1,58z M154.2,58
			c-1.1,4.9-2.6,6.4-6.2,6.4h-7.5V35.7h5.1V31h-17.8v4.7h4.6v28.7h-4.6v4.7h30.7v-13h-3.9L154.2,58z M182.8,46.8l-6.9-1.6
			c-4-0.9-5.7-2.5-5.7-5.2c0-3.2,2.5-5.2,7.5-5.2c5,0,7.9,1.8,9,6.1l0.5,1.9h3.9v-9.4c-4.3-2.2-9-3.4-13.8-3.4
			c-9.3,0-15.2,4.5-15.2,11.7c0,5.6,3.5,9.7,10.1,11.1l6.9,1.5c4.4,1,6,2.7,6,5.6c0,3.5-2.7,5.5-8,5.5c-6,0-9.1-2.4-10.5-7l-0.7-2.3
			h-3.9v10.7c5,2.5,10.4,3.7,16,3.5c9.1,0,15.1-4.6,15.1-11.7C193.2,52.5,189.6,48.4,182.8,46.8z M235,35.7c3.6,0,4.9,1.6,6.1,6.2
			l0.4,1.5h3.9V31h-32.7v4.7h4.6v28.7h-4.6v4.7h18.1v-4.7h-5.4V53.3h11.2c0.4-0.8,0.6-1.8,0.6-2.7c0-0.9-0.2-1.8-0.6-2.6h-11.2V35.7
			L235,35.7z M317.5,64.8c0.7,1.4,0.7,3.1,0,4.5c-1.4,0.2-2.8,0.3-4.2,0.3c-5.3,0-7.8-2.2-8.4-7.3l-0.2-1.9
			c-0.6-5.5-2.4-7.6-8.4-7.6h-3v11.6h5.1v4.7h-34.1v-4.7h4.4l-2.5-6.8h-14.1l-2.5,6.8h4.5v4.7H240v-4.7h3.8L257,31h7.2l13.5,33.4
			h7.5V35.7h-4.6V31h21.8c7.7,0,12.8,3.9,12.8,10.1c0,6.2-5,9.4-9.9,9.7v0.2c4.9,0.4,6.9,3.2,7.4,7.5l0.2,2c0.3,3.2,1,4.6,3.5,4.6
			C316.8,64.9,317.1,64.9,317.5,64.8L317.5,64.8z M264.6,52.9l-5.3-14.5L254,52.9H264.6z M307,41.8c0-4-2.4-6.1-7.3-6.1h-6.4V48h6.4
			C304.5,48,307,45.7,307,41.8L307,41.8z M339.4,51.7c0,0.9,0.2,1.8,0.6,2.7h6.4v9.7c-2,0.8-4.2,1.3-6.4,1.3
			c-7.8,0-11.9-5.6-11.9-15.3s4.1-15.3,11.4-15.3c4.3-0.2,8.2,2.5,9.5,6.7l0.6,1.5h3.9v-9.8c-4.5-2.2-9.4-3.4-14.4-3.4
			c-11.9,0-19.9,8-19.9,20.3c0,12.3,7.8,20.2,19.9,20.2c5.3-0.1,10.5-1.5,15.2-4v-17h-14.4C339.5,50,339.3,50.8,339.4,51.7
			L339.4,51.7z M399.6,50c0,11.2-9,20.2-20.1,20.2c-11.1,0-20.1-9-20.1-20.2c0-11.2,9-20.2,20.1-20.2
			C390.6,29.8,399.6,38.8,399.6,50z M390.8,50c0-9.7-4-15.3-11.3-15.3c-7.3,0-11.3,5.6-11.3,15.3c0,9.7,3.9,15.3,11.3,15.3
			S390.8,59.7,390.8,50L390.8,50z"/>
	</g>
</g>
</svg>
