<?xml version="1.0" encoding="utf-8"?>
<!-- Generator: Adobe Illustrator 22.0.1, SVG Export Plug-In . SVG Version: 6.00 Build 0)  -->
<svg version="1.1" id="图层_1" xmlns="http://www.w3.org/2000/svg" xmlns:xlink="http://www.w3.org/1999/xlink" x="0px" y="0px"
	 viewBox="0 0 448 180" style="enable-background:new 0 0 448 180;" xml:space="preserve">
<style type="text/css">
	.st0{fill:#EA4335;}
	.st1{fill:#FBBC05;}
	.st2{fill:#4285F4;}
	.st3{fill:#34A853;}
</style>
<path class="st0" d="M191.9,93.9c0,21.1-16.5,36.7-36.8,36.7s-36.8-15.6-36.8-36.7c0-21.3,16.5-36.7,36.8-36.7
	S191.9,72.6,191.9,93.9z M175.8,93.9c0-13.2-9.6-22.2-20.7-22.2s-20.7,9-20.7,22.2c0,13.1,9.6,22.2,20.7,22.2
	S175.8,106.9,175.8,93.9z"/>
<path class="st1" d="M271.3,93.9c0,21.1-16.5,36.7-36.8,36.7s-36.8-15.6-36.8-36.7c0-21.3,16.5-36.7,36.8-36.7
	S271.3,72.6,271.3,93.9z M255.1,93.9c0-13.2-9.6-22.2-20.7-22.2s-20.7,9-20.7,22.2c0,13.1,9.6,22.2,20.7,22.2
	S255.1,106.9,255.1,93.9z"/>
<path class="st2" d="M347.3,59.4v65.9c0,27.1-16,38.2-34.9,38.2c-17.8,0-28.5-11.9-32.5-21.6l14-5.8c2.5,6,8.6,13,18.5,13
	c12.1,0,19.6-7.5,19.6-21.5v-5.3h-0.6c-3.6,4.4-10.6,8.3-19.3,8.3c-18.3,0-35.1-16-35.1-36.5c0-20.7,16.8-36.8,35.1-36.8
	c8.7,0,15.7,3.9,19.3,8.2h0.6v-6L347.3,59.4L347.3,59.4z M333.2,94c0-12.9-8.6-22.4-19.6-22.4c-11.1,0-20.4,9.4-20.4,22.4
	c0,12.8,9.3,22.1,20.4,22.1C324.6,116.1,333.2,106.8,333.2,94z"/>
<path class="st3" d="M372.6,20.8v107.5h-15.7V20.8H372.6z"/>
<path class="st0" d="M433.8,105.9l12.5,8.3c-4,6-13.8,16.3-30.6,16.3c-20.8,0-36.4-16.1-36.4-36.7c0-21.8,15.7-36.7,34.6-36.7
	c19,0,28.4,15.2,31.4,23.3l1.7,4.2L398,105c3.8,7.4,9.6,11.1,17.8,11.1C423.9,116.1,429.6,112,433.8,105.9L433.8,105.9z M395.3,92.7
	l32.8-13.6c-1.8-4.6-7.2-7.8-13.6-7.8C406.3,71.3,394.9,78.6,395.3,92.7z"/>
<path class="st2" d="M58.8,84.3V68.7h52.5c0.5,2.7,0.8,5.9,0.8,9.4c0,11.7-3.2,26.1-13.5,36.4c-10,10.4-22.8,16-39.7,16
	C27.4,130.5,1,105,1,73.6s26.4-57,57.8-57c17.4,0,29.7,6.8,39,15.7l-11,11C80.2,37,71.1,32.2,58.8,32.2c-22.9,0-40.9,18.5-40.9,41.4
	S35.9,115,58.8,115c14.9,0,23.3-6,28.8-11.4c4.4-4.4,7.3-10.7,8.4-19.3L58.8,84.3z"/>
</svg>
