<?xml version="1.0" encoding="utf-8"?>
<!-- Generator: Adobe Illustrator 22.0.1, SVG Export Plug-In . SVG Version: 6.00 Build 0)  -->
<svg version="1.1" id="Layer_1" xmlns="http://www.w3.org/2000/svg" xmlns:xlink="http://www.w3.org/1999/xlink" x="0px" y="0px"
	 viewBox="0 0 3500 1406.2" style="enable-background:new 0 0 3500 1406.2;" xml:space="preserve">
<style type="text/css">
	.st0{display:none;fill:#212020;}
	.st1{fill:none;stroke:#3C3C3C;stroke-width:46;stroke-linecap:round;stroke-miterlimit:10;}
	.st2{fill:#3C3C3C;}
	.st3{fill:none;stroke:#3C3C3C;stroke-width:18;stroke-miterlimit:10;}
</style>
<rect id="XMLID_2_" x="-1152.4" y="203.1" class="st0" width="5804.7" height="1000"/>
<g id="XMLID_1_">
	<path id="XMLID_37_" class="st1" d="M267.8,1139.1C128.6,1058.3,35,907.4,35,734.4"/>
	<path id="XMLID_35_" class="st1" d="M966.4,734.4c0,172.9-93.6,323.9-232.8,404.7"/>
	<path id="XMLID_33_" class="st1" d="M267.8,329.7c68.5-39.8,148-62.6,232.9-62.6s164.4,22.8,232.9,62.6"/>
</g>
<g id="XMLID_42_">
	<path id="XMLID_43_" class="st2" d="M774,871c0,9.8-3.3,18.1-9.8,25c-6.5,6.9-14.4,10.3-23.7,10.3c-9.3,0-17.2-3.4-23.7-10.3
		c-6.5-6.9-9.8-15.2-9.8-25v-16.9c-0.5-14.7-3.7-26.9-9.8-36.4c-6.1-9.6-13.2-17-21.6-22.4c-8.4-5.4-17.4-9.1-27.2-11
		c-9.8-2-18.6-2.9-26.5-2.9H503.1h-2h-2.8H379.6c-14.4,0-29-1.9-43.6-5.9c-14.6-3.9-28.5-9.8-41.5-17.7v113.2c0,9.8-3.3,18.1-9.8,25
		c-6.5,6.9-14.4,10.3-23.7,10.3c-9.4,0-17.2-3.4-23.7-10.3c-6.5-6.9-9.8-15.2-9.8-25V621c0-9.8,3.3-18.1,9.8-25
		c6.5-6.9,14.4-10.3,23.7-10.3c9.3,0,17.2,3.4,23.7,10.3c6.5,6.9,9.8,15.2,9.8,25v12.5c0,15.7,2.9,28.6,8.8,38.6
		c5.8,10.1,13.1,17.9,21.6,23.5s17.8,9.6,27.6,11.8s18.8,3.3,27.2,3.3h120.7h0.7h2.1h118.6c14.4,0,29,2,43.6,5.9
		c14.6,3.9,28.5,9.8,41.5,17.7V621c0-9.8,3.3-18.1,9.8-25c6.5-6.9,14.4-10.3,23.7-10.3c9.3,0,17.2,3.4,23.7,10.3
		c6.5,6.9,9.8,15.2,9.8,25L774,871L774,871z"/>
</g>
<ellipse id="XMLID_34_" class="st3" cx="500.7" cy="734.4" rx="397.8" ry="399.1"/>
<g>
	<path class="st2" d="M1792.7,614.9c0,7.8-2.6,14.5-7.8,19.9c-5.2,5.5-11.5,8.2-18.9,8.2c-7.4,0-13.7-2.7-18.9-8.2
		c-5.2-5.5-7.8-12.1-7.8-19.9v-13.5c-0.4-11.7-3-21.4-7.8-29c-4.8-7.6-10.6-13.6-17.2-17.9c-6.7-4.3-13.8-7.2-21.7-8.8
		c-7.8-1.6-14.8-2.3-21.1-2.3h-94.5h-1.7h-2.2h-94.5c-11.5,0-23.1-1.6-34.8-4.7c-11.7-3.1-22.7-7.8-33.1-14.1v90.1
		c0,7.8-2.6,14.5-7.8,19.9c-5.2,5.5-11.5,8.2-18.9,8.2c-7.4,0-13.7-2.7-18.9-8.2s-7.8-12.1-7.8-19.9v-199c0-7.8,2.6-14.4,7.8-19.9
		c5.2-5.5,11.5-8.2,18.9-8.2c7.4,0,13.7,2.7,18.9,8.2c5.2,5.5,7.8,12.1,7.8,19.9v10c0,12.5,2.3,22.8,7,30.8
		c4.6,8,10.4,14.3,17.2,18.7c6.9,4.5,14.1,7.6,21.9,9.4c7.8,1.8,15,2.6,21.7,2.6h96.1h0.6h1.7h94.5c11.5,0,23.1,1.6,34.8,4.7
		c11.7,3.1,22.7,7.8,33.1,14.1v-90.1c0-7.8,2.6-14.4,7.8-19.9c5.2-5.5,11.5-8.2,18.9-8.2c7.4,0,13.7,2.7,18.9,8.2
		c5.2,5.5,7.8,12.1,7.8,19.9V614.9L1792.7,614.9z"/>
	<path class="st2" d="M1896.1,632.5c-5.6,7-12.5,10.5-20.5,10.5c-7.4,0-13.7-2.7-18.9-8.2s-7.8-12.1-7.8-19.9c0-7,1.9-12.7,5.6-17
		l135.1-191.5c6.3-9,14.6-16.3,25-22c10.4-5.7,21.5-8.5,33.4-8.5c11.2,0,21.7,2.5,31.7,7.6c10,5.1,18.1,12.1,24.5,21.1l135,190.4
		c2.2,2.7,4.1,5.8,5.6,9.1s2.2,6.9,2.2,10.8c0,7.8-2.6,14.5-7.8,19.9c-5.2,5.5-11.5,8.2-18.9,8.2c-8.9,0-15.9-3.7-21.1-11.1
		l-129.5-182.1c-2.6-3.1-5.9-6.5-9.8-10.3c-3.9-3.7-7.9-5.6-12-5.6c-4.1,0-8.1,1.9-12,5.6c-3.9,3.7-7,7.1-9.2,10.3L1896.1,632.5z
		 M2013.5,579.8c0-10.2,3.3-18.7,10-25.8c6.7-7,14.8-10.5,24.5-10.5s17.8,3.5,24.5,10.5c6.7,7,10,15.6,10,25.8
		c0,10.2-3.3,18.7-10,25.8c-6.7,7-14.8,10.5-24.5,10.5s-17.8-3.5-24.5-10.5C2016.7,598.5,2013.5,589.9,2013.5,579.8z"/>
	<path class="st2" d="M2349.2,636.9c-9.3-4.1-17.3-9.7-24.2-16.7c-6.9-7-12.4-15.2-16.4-24.6c-4.1-9.4-6.1-19.5-6.1-30.5V415.8
		c0-7.8,2.6-14.4,7.8-19.9c5.2-5.5,11.5-8.2,18.9-8.2c7.1,0,13.2,2.7,18.6,8.2s8.1,12.1,8.1,19.9v149.3c0,5.9,2.1,10.9,6.4,15.2
		c4.3,4.3,9.2,6.4,14.7,6.4h333.5c7.4,0,13.7,2.7,18.9,8.2c5.2,5.5,7.8,12.1,7.8,19.9c0,7.8-2.6,14.5-7.8,19.9
		c-5.2,5.5-11.5,8.2-18.9,8.2h-331.8C2368.2,643.1,2358.4,641,2349.2,636.9z"/>
	<path class="st2" d="M3231.3,515.4c0,14.8-2.3,29.8-7,44.8c-4.7,15-11.4,28.7-20.3,41c-8.9,12.3-19.6,22.4-32.3,30.2
		c-12.7,7.8-26.9,11.7-42.8,11.7h-253.4c-15.2-0.8-28.7-5.2-40.5-13.2s-21.9-18.1-30.3-30.2c-8.4-12.1-14.7-25.6-19.2-40.4
		c-4.5-14.8-6.7-29.5-6.7-43.9c0-14.8,2.3-29.8,7-44.8c4.6-15,11.4-28.7,20.3-41c8.9-12.3,19.6-22.4,32.3-30.2
		c12.6-7.8,26.9-11.7,42.8-11.7h253.4c15.1,0.8,28.7,5.2,40.5,13.2s21.9,18.1,30.3,30.2c8.4,12.1,14.7,25.6,19.2,40.4
		C3229.1,486.3,3231.3,501,3231.3,515.4z M3148.5,579.5c8.2-4.9,14.5-10.8,19.2-17.9c4.6-7,7.8-14.7,9.5-23.1
		c1.7-8.4,2.5-16.1,2.5-23.1s-0.8-14.7-2.5-23.1c-1.7-8.4-4.8-16.1-9.5-23.1c-4.7-7-11.1-13-19.2-17.9c-8.2-4.9-18.5-7.3-31.1-7.3
		h-224.5c-13,0-23.4,2.4-31.4,7.3c-8,4.9-14.2,10.8-18.9,17.9c-4.7,7-7.8,14.7-9.5,23.1c-1.7,8.4-2.5,16.1-2.5,23.1
		s0.8,14.7,2.5,23.1c1.7,8.4,4.8,16.1,9.5,23.1c4.6,7,11,13,18.9,17.9c8,4.9,18.4,7.3,31.4,7.3h224.5
		C3130,586.8,3140.4,584.4,3148.5,579.5z"/>
</g>
<g>
	<path class="st2" d="M1111.3,1034.5c-5.2-5.5-7.8-12.1-7.8-19.9V815.5c0-7.8,2.6-14.4,7.8-19.9c5.2-5.5,11.5-8.2,18.9-8.2h332.9
		c10.4,0,20.1,2.1,29.2,6.2s17,9.7,23.9,16.7c6.9,7,12.3,15.3,16.1,24.9c3.9,9.6,5.9,19.8,5.9,30.8c0,9.8-1.6,18.9-4.7,27.2
		c-3.2,8.4-7.4,15.9-12.6,22.6c5.2,6.6,9.4,14.2,12.6,22.6c3.2,8.4,4.7,17.3,4.7,26.7c0,10.9-2,21.1-5.9,30.5
		c-3.9,9.4-9.3,17.6-16.1,24.6c-6.9,7-14.8,12.6-23.9,16.7c-9.1,4.1-18.8,6.2-29.2,6.2h-332.9
		C1122.9,1042.7,1116.5,1039.9,1111.3,1034.5z M1157,843.5v43.4h309c5.6,0,10.4-2,14.4-5.9c4.1-3.9,6.1-9,6.1-15.2
		c0-5.9-2.1-11-6.4-15.5c-4.3-4.5-9.2-6.7-14.7-6.7L1157,843.5L1157,843.5z M1157,986.5h308.5c5.6,0,10.5-2.1,14.7-6.4
		c4.3-4.3,6.4-9.4,6.4-15.2c0-6.2-2.1-11.4-6.4-15.5c-4.3-4.1-9.2-6.2-14.7-6.2H1157V986.5z"/>
	<path class="st2" d="M2046.4,915c0,14.8-2.3,29.8-7,44.8c-4.7,15-11.4,28.7-20.3,41c-8.9,12.3-19.6,22.4-32.3,30.2
		c-12.7,7.8-26.9,11.7-42.8,11.7h-253.4c-15.2-0.8-28.7-5.2-40.5-13.2c-11.9-8-21.9-18.1-30.3-30.2c-8.4-12.1-14.7-25.6-19.2-40.4
		c-4.5-14.8-6.7-29.5-6.7-43.9c0-14.8,2.3-29.8,7-44.8c4.6-15,11.4-28.7,20.3-41c8.9-12.3,19.6-22.4,32.3-30.2
		c12.6-7.8,26.9-11.7,42.8-11.7h253.4c15.1,0.8,28.7,5.2,40.5,13.2c11.9,8,21.9,18.1,30.3,30.2c8.4,12.1,14.7,25.6,19.2,40.4
		C2044.2,885.9,2046.4,900.6,2046.4,915z M1963.5,979.2c8.2-4.9,14.5-10.8,19.2-17.9c4.6-7,7.8-14.7,9.5-23.1
		c1.7-8.4,2.5-16.1,2.5-23.1s-0.8-14.7-2.5-23.1c-1.7-8.4-4.8-16.1-9.5-23.1c-4.7-7-11.1-13-19.2-17.9c-8.2-4.9-18.5-7.3-31.1-7.3
		h-224.5c-13,0-23.4,2.4-31.4,7.3c-8,4.9-14.2,10.8-18.9,17.9c-4.7,7-7.8,14.7-9.5,23.1c-1.7,8.4-2.5,16.1-2.5,23.1
		s0.8,14.7,2.5,23.1c1.7,8.4,4.8,16.1,9.5,23.1c4.6,7,11,13,18.9,17.9c8,4.9,18.4,7.3,31.4,7.3h224.5
		C1945,986.5,1955.4,984.1,1963.5,979.2z"/>
	<path class="st2" d="M2135.3,1032.1c-5.6,7-12.5,10.5-20.5,10.5c-7.4,0-13.7-2.7-18.9-8.2s-7.8-12.1-7.8-19.9c0-7,1.9-12.7,5.6-17
		l135.1-191.5c6.3-9,14.6-16.3,25-22c10.4-5.7,21.5-8.5,33.4-8.5c11.2,0,21.7,2.5,31.7,7.6c10,5.1,18.1,12.1,24.5,21.1l134.9,190.4
		c2.2,2.7,4.1,5.8,5.6,9.1s2.2,6.9,2.2,10.8c0,7.8-2.6,14.5-7.8,19.9c-5.2,5.5-11.5,8.2-18.9,8.2c-8.9,0-15.9-3.7-21.1-11.1
		l-129.5-182.1c-2.6-3.1-5.9-6.5-9.8-10.3c-3.9-3.7-7.9-5.6-12-5.6s-8.1,1.9-12,5.6c-3.9,3.7-7,7.1-9.2,10.3L2135.3,1032.1z
		 M2252.6,979.5c0-10.2,3.3-18.7,10-25.8c6.7-7,14.8-10.5,24.5-10.5s17.8,3.5,24.5,10.5c6.7,7,10,15.6,10,25.8s-3.3,18.7-10,25.8
		c-6.7,7-14.8,10.5-24.5,10.5s-17.8-3.5-24.5-10.5C2255.9,998.2,2252.6,989.6,2252.6,979.5z"/>
	<path class="st2" d="M2929.6,964.5c10.4,7.6,20.9,15.9,31.7,24.9c4.1,3.1,7.6,6.7,10.6,10.8c3,4.1,4.5,8.9,4.5,14.4
		c0,7.8-2.6,14.5-7.8,19.9c-5.2,5.5-11.5,8.2-18.9,8.2c-6.3,0-12.6-2.7-18.9-8.2c-15.2-11.7-30.8-23-46.7-34
		c-15.9-10.9-32.5-20.7-49.7-29.3s-35.1-15.4-53.6-20.5c-18.5-5.1-37.8-7.6-57.8-7.6h-110.6c-4.8,0.8-8.9,3.1-12.3,7
		c-3.3,3.9-5,8.8-5,14.6v49.8c0,7.8-2.7,14.5-8.1,19.9c-5.4,5.5-11.6,8.2-18.6,8.2c-7.4,0-13.7-2.7-18.9-8.2s-7.8-12.1-7.8-19.9
		v-56.2c0-9.8,1.8-19,5.3-27.8c3.5-8.8,8.3-16.4,14.1-22.8c5.9-6.4,13-11.5,21.1-15.2c8.2-3.7,17-5.6,26.7-5.6h294.6
		c5.6,0,10.5-2.1,14.7-6.2s6.4-9.3,6.4-15.5c0-5.9-2.1-10.9-6.4-15.2s-9.2-6.4-14.7-6.4h-335.2c-7.4,0-13.7-2.7-18.9-8.2
		c-5.2-5.5-7.8-12.1-7.8-19.9c0-7.8,2.6-14.4,7.8-19.9c5.2-5.5,11.5-8.2,18.9-8.2h332.9c10.4,0,20.1,2.1,29.2,6.2
		c9.1,4.1,17,9.7,23.9,16.7s12.3,15.2,16.1,24.6c3.9,9.4,5.9,19.5,5.9,30.5c0,10.9-2,21.1-5.9,30.5c-3.9,9.4-9.3,17.6-16.1,24.6
		c-6.9,7-14.8,12.6-23.9,16.7c-9.1,4.1-18.8,6.2-29.2,6.2h-2.2C2909.1,949.8,2919.3,956.9,2929.6,964.5z"/>
	<path class="st2" d="M3485,915c0,14.5-2.2,29.1-6.7,43.9c-4.5,14.8-10.9,28.3-19.2,40.4c-8.4,12.1-18.4,22.2-30.3,30.2
		c-11.9,8-25.4,12.4-40.5,13.2h-329.6c-7.4,0-13.7-2.7-18.9-8.2c-5.2-5.5-7.8-12.1-7.8-19.9V815.5c0-7.8,2.6-14.4,7.8-19.9
		c5.2-5.5,11.5-8.2,18.9-8.2h324.1c15.9,0,30.2,3.9,42.8,11.7c12.6,7.8,23.3,17.9,32.3,30.2c8.9,12.3,15.6,26,20.3,41
		C3482.6,885.2,3485,900.2,3485,915z M3085.3,843.5v142.9H3371c12.6,0,23-2.4,31.1-7.3c8.2-4.9,14.5-10.8,19.2-17.9
		c4.6-7,7.8-14.7,9.5-23.1c1.7-8.4,2.5-16.1,2.5-23.1s-0.8-14.7-2.5-23.1c-1.7-8.4-4.8-16.1-9.5-23.1c-4.7-7-11.1-13-19.2-17.9
		c-8.2-4.9-18.5-7.3-31.1-7.3L3085.3,843.5L3085.3,843.5z"/>
</g>
</svg>
