<svg xmlns="http://www.w3.org/2000/svg" enable-background="new 0 0 609 130" width="606" height="243.75409566955648"><rect id="backgroundrect" width="100%" height="100%" x="0" y="0" fill="none" stroke="none" style="" class=""/><title>Microsoft Logo</title><g class="currentLayer" style=""><title>Layer 1</title><g id="svg_1" class="selected"><g fill="#737373" id="svg_2"><path d="M214.29289616346358,131.13059787750245 l-3.6,10.2 h-0.3000000000000003 c-0.6000000000000006,-2.3 -1.7000000000000002,-5.8 -3.5,-10 l-19.3,-48.5 h-18.9 v77.3 h12.5 v-47.7 c0,-3 0,-6.4 -0.1,-10.6 c-0.1,-2.1 -0.3000000000000003,-3.7 -0.4,-4.9 h0.3000000000000003 c0.6000000000000006,3 1.3,5.2 1.8,6.6 l23.2,56.4 h8.8 l23,-56.9 c0.5,-1.3 1,-3.9 1.5,-6.1 h0.3000000000000003 c-0.3000000000000003,5.7 -0.5,10.8 -0.6000000000000006,13.9 v49 h13.3 v-77.2 h-18.2 l-19.8,48.5 zM264.8928961634636,104.43059787750244 h13 v55.4 h-13 zM271.49289616346357,81.03059787750244 c-2.2,0 -4,0.8 -5.5,2.2 c-1.5,1.4 -2.3,3.2 -2.3,5.4 c0,2.1 0.8,3.9 2.3,5.3 c1.5,1.4 3.3,2.1 5.5,2.1 s4.1,-0.8 5.5,-2.1 c1.5,-1.4 2.3,-3.2 2.3,-5.3 s-0.8,-3.9 -2.3,-5.4 c-1.3,-1.4 -3.2,-2.2 -5.5,-2.2 M323.99289616346357,103.93059787750244 c-2.4,-0.5 -4.9,-0.8 -7.3,-0.8 c-5.9,0 -11.3,1.3 -15.8,3.9 c-4.5,2.6 -8.1,6.2 -10.4,10.7 c-2.4,4.6 -3.6,9.9 -3.6,16 c0,5.3 1.2,10 3.5,14.3 c2.3,4.2 5.5,7.6 9.8,9.9 c4.1,2.3 8.9,3.5 14.3,3.5 c6.2,0 11.5,-1.3 15.7,-3.7 l0.1,-0.1 v-12 l-0.5,0.4 c-1.9,1.4 -4.1,2.6 -6.3,3.3 c-2.3,0.8 -4.4,1.2 -6.2,1.2 c-5.2,0 -9.3,-1.5 -12.2,-4.8 c-3,-3.2 -4.5,-7.6 -4.5,-13.1 c0,-5.7 1.5,-10.2 4.6,-13.5 c3.1,-3.3 7.2,-5 12.2,-5 c4.2,0 8.5,1.4 12.4,4.2 l0.5,0.4 v-12.7 l-0.1,-0.1 c-1.7000000000000002,-0.7000000000000006 -3.6,-1.5 -6.2,-2 M366.8928961634636,103.53059787750244 c-3.2,0 -6.2,1 -8.8,3.1 c-2.2,1.8 -3.7,4.4 -5,7.5 h-0.1 v-9.7 h-13 v55.4 h13 v-28.3 c0,-4.8 1,-8.8 3.2,-11.7 c2.2,-3 5,-4.5 8.4,-4.5 c1.2,0 2.4,0.3000000000000003 3.9,0.5 c1.4,0.4 2.4,0.8 3.1,1.3 l0.5,0.4 v-13 l-0.3000000000000003,-0.1 c-0.9,-0.6000000000000006 -2.7,-0.9 -4.9,-0.9 M402.2928961634636,103.23059787750245 c-9.1,0 -16.4,2.7 -21.5,8 c-5.2,5.3 -7.7,12.6 -7.7,21.8 c0,8.6 2.6,15.6 7.6,20.7 c5,5 11.8,7.6 20.3,7.6 c8.9,0 16,-2.7 21.1,-8.1 c5.2,-5.4 7.7,-12.6 7.7,-21.5 c0,-8.8 -2.4,-15.8 -7.3,-20.9 c-4.7,-5.1 -11.6,-7.6 -20.2,-7.6 m10.4,42.6 c-2.4,3.1 -6.2,4.6 -10.9,4.6 s-8.5,-1.5 -11.2,-4.8 c-2.7,-3.1 -4,-7.6 -4,-13.3 c0,-5.9 1.4,-10.4 4,-13.6 c2.7,-3.2 6.4,-4.8 11.1,-4.8 c4.6,0 8.2,1.5 10.8,4.6 c2.6,3.1 4,7.6 4,13.5 c-0.2,6 -1.3,10.7 -3.8,13.8 M458.7928961634636,127.43059787750244 c-4.1,-1.7000000000000002 -6.7,-3 -7.9,-4.1 c-1,-1 -1.5,-2.4 -1.5,-4.2 c0,-1.5 0.6000000000000006,-3 2.1,-4 s3.2,-1.5 5.7,-1.5 c2.2,0 4.5,0.4 6.7,1 s4.2,1.5 5.8,2.7 l0.5,0.4 v-12.2 l-0.3000000000000003,-0.1 c-1.5,-0.6000000000000006 -3.5,-1.2 -5.9,-1.7000000000000002 c-2.4,-0.4 -4.6,-0.6000000000000006 -6.4,-0.6000000000000006 c-6.2,0 -11.3,1.5 -15.3,4.8 c-4,3.1 -5.9,7.3 -5.9,12.2 c0,2.6 0.4,4.9 1.3,6.8 c0.9,1.9 2.2,3.7 4,5.2 c1.8,1.4 4.4,3 8,4.5 c3,1.3 5.3,2.3 6.7,3.1 c1.4,0.8 2.3,1.7000000000000002 3,2.4 c0.5,0.8 0.8,1.8 0.8,3.1 c0,3.7 -2.8,5.5 -8.5,5.5 c-2.2,0 -4.5,-0.4 -7.2,-1.3 s-5.2,-2.2 -7.3,-3.7 l-0.5,-0.4 v12.7 l0.3000000000000003,0.1 c1.9,0.9 4.2,1.5 7,2.2 c2.8,0.5 5.3,0.9 7.5,0.9 c6.7,0 12.2,-1.5 16.1,-4.8 c4,-3.2 6.1,-7.3 6.1,-12.6 c0,-3.7 -1,-7 -3.2,-9.5 c-2.9,-2.4 -6.5,-4.9 -11.7,-6.9 M507.99289616346357,103.23059787750245 c-9.1,0 -16.4,2.7 -21.5,8 s-7.7,12.6 -7.7,21.8 c0,8.6 2.6,15.6 7.6,20.7 c5,5 11.8,7.6 20.3,7.6 c8.9,0 16,-2.7 21.1,-8.1 c5.2,-5.4 7.7,-12.6 7.7,-21.5 c0,-8.8 -2.4,-15.8 -7.3,-20.9 c-4.7,-5.1 -11.6,-7.6 -20.2,-7.6 m10.3,42.6 c-2.4,3.1 -6.2,4.6 -10.9,4.6 c-4.8,0 -8.5,-1.5 -11.2,-4.8 c-2.7,-3.1 -4,-7.6 -4,-13.3 c0,-5.9 1.4,-10.4 4,-13.6 c2.7,-3.2 6.4,-4.8 11.1,-4.8 c4.5,0 8.2,1.5 10.8,4.6 c2.6,3.1 4,7.6 4,13.5 c0,6 -1.3,10.7 -3.8,13.8 " id="svg_3"/><path d="M604.9928961634636,115.13059787750244 v-10.7 h-13.1 v-16.4 l-0.4,0.1 l-12.4,3.7 l-0.3000000000000003,0.1 v12.5 h-19.6 v-7 c0,-3.2 0.8,-5.7 2.2,-7.3 s3.5,-2.4 6.1,-2.4 c1.8,0 3.7,0.4 5.8,1.3 l0.5,0.3000000000000003 v-11.3 l-0.3000000000000003,-0.1 c-1.8,-0.6000000000000006 -4.2,-1 -7.3,-1 c-3.9,0 -7.3,0.9 -10.4,2.4 c-3.1,1.7000000000000002 -5.4,4 -7.1,7.1 c-1.7000000000000002,3 -2.6,6.4 -2.6,10.3 v7.7 h-9.1 v10.6 h9.1 v44.8 h13.1 v-44.7 h19.6 v28.5 c0,11.7 5.5,17.6 16.5,17.6 c1.8,0 3.7,-0.3000000000000003 5.5,-0.6000000000000006 c1.9,-0.4 3.3,-0.9 4.1,-1.3 l0.1,-0.1 v-10.7 l-0.5,0.4 c-0.8,0.5 -1.5,0.9 -2.7,1.2 c-1,0.3000000000000003 -1.9,0.4 -2.6,0.4 c-2.6,0 -4.4,-0.6000000000000006 -5.7,-2.1 c-1.2,-1.4 -1.8,-3.7 -1.8,-7.1 v-26.2 h13.3 z" id="svg_4"/></g><path fill="#F25022" d="M1.092896163463593,56.83059787750244 h61.3 v61.3 h-61.3 z" id="svg_5"/><path fill="#7FBA00" d="M68.7928961634636,56.83059787750244 h61.3 v61.3 h-61.3 z" id="svg_6"/><path fill="#00A4EF" d="M1.092896163463593,124.53059787750244 h61.3 v61.3 h-61.3 z" id="svg_7"/><path fill="#FFB900" d="M68.7928961634636,124.53059787750244 h61.3 v61.3 h-61.3 z" id="svg_8"/></g></g></svg>