<?xml version="1.0" encoding="utf-8"?>
<!-- Generator: Adobe Illustrator 22.0.0, SVG Export Plug-In . SVG Version: 6.00 Build 0)  -->
<svg version="1.1" id="图层_1" xmlns="http://www.w3.org/2000/svg" xmlns:xlink="http://www.w3.org/1999/xlink" x="0px" y="0px"
	 viewBox="0 0 448 180" style="enable-background:new 0 0 448 180;" xml:space="preserve">
<style type="text/css">
	.st0{fill:#373536;}
</style>
<g id="_x23_373536ff">
	<path class="st0" d="M42.3,24.3c15.9-7.5,34.6-8.8,51.3-3.5c14.7,4.5,27.8,14,36.8,26.5c5.5,7.6,9.5,16.2,11.7,25.3
		c2.5,10.3,2.8,21.2,0.7,31.6c-2.9,15.1-10.9,29.2-22.3,39.5c-5.7,5.2-12.2,9.4-19.2,12.6c-8.9,4-18.6,6-28.3,6.1
		c-9.4,0.1-18.8-1.7-27.4-5.2C30,150.9,16.8,138.8,9,123.7c-2.3-4.4-4.2-9.1-5.5-14c9.2,3.8,18.3,7.7,27.5,11.4
		c0.9,4.7,3.6,9,7.3,12c3,2.4,6.6,3.9,10.4,4.3c3.7,0.4,7.5-0.2,10.8-1.9c3.8-1.8,6.9-4.8,9-8.4c1.9-3.4,2.8-7.3,2.7-11.2
		c6.9-4.9,13.8-9.9,20.7-14.9c1.2-0.9,2.4-1.8,3.7-2.6c6,0.1,12-1.8,16.8-5.5c5.4-4,9.2-10.1,10.4-16.7c1.5-7.7-0.5-16.1-5.5-22.2
		c-3.9-5-9.7-8.5-15.9-9.7c-7.6-1.6-15.9,0.5-22,5.4c-4.4,3.5-7.7,8.5-9.2,13.9c-0.8,2.6-1,5.2-1.1,7.9C63.8,79.5,58.5,87.2,53.2,95
		c-0.4,0.5-0.7,1.1-1.2,1.7c-4.4-0.2-8.9,1-12.5,3.6C26.6,94.9,13.8,89.5,1,84.2c0.4-7.1,2.1-14.1,4.7-20.7
		C12.2,46.4,25.6,32,42.3,24.3z"/>
	<path class="st0" d="M94.8,53.2c4-0.3,8.1,0.8,11.4,3c3,2,5.4,5,6.7,8.3c1.5,3.8,1.7,8.1,0.6,12c-1,3.3-2.9,6.3-5.5,8.6
		c-3.5,3.1-8.3,4.7-13,4.4c-3.6-0.2-7-1.6-9.8-3.8c-3.4-2.6-5.8-6.5-6.6-10.7c-0.9-4.2-0.2-8.8,1.9-12.5
		C83.3,57.2,88.8,53.6,94.8,53.2 M93.5,57.9c-4.8,0.9-8.9,4.8-10.3,9.5c-1.2,3.9-0.5,8.2,1.8,11.6c2,3,5.2,5.1,8.7,5.8
		c2.8,0.6,5.9,0.2,8.4-1.1c3.5-1.7,6.2-5,7.2-8.7c0.6-2.4,0.6-4.9,0-7.3c-1-3.7-3.7-7-7.2-8.7C99.5,57.7,96.4,57.3,93.5,57.9z"/>
	<path class="st0" d="M191.1,64.9c4.7-2.3,10.2-2.6,15.3-2c4.7,0.6,9.5,2,13.3,4.9c-1.5,2.7-3.1,5.4-4.6,8.2c-0.1,0-0.3-0.1-0.4-0.1
		c-3.5-2.4-7.7-3.7-11.9-3.9c-2.2,0-4.7,0.2-6.5,1.6c-1.7,1.3-2.4,3.8-1.5,5.8c0.5,1.1,1.5,1.9,2.5,2.5c2.5,1.4,5.4,2.2,8.1,3.2
		c3.3,1.1,6.7,2.3,9.6,4.2c2.5,1.6,4.7,4,5.5,6.9c0.9,3.1,0.7,6.5-0.2,9.6c-1,3.1-3,5.8-5.6,7.6c-3,2.1-6.7,3.2-10.3,3.6
		c-4.2,0.5-8.5,0.1-12.6-0.8c-3.4-0.8-6.6-2-9.6-3.8c1.1-3.1,2.3-6.1,3.4-9.2c4.1,2.1,8.7,3.5,13.3,3.7c2.9,0.1,6.2-0.1,8.6-1.9
		c2.1-1.5,2.7-5,0.8-6.9c-1.8-1.8-4.4-2.5-6.7-3.4c-4.3-1.5-8.7-2.7-12.5-5.2c-2.5-1.7-4.6-4.1-5.4-7c-1-3.3-0.9-6.9,0.3-10.1
		C185.2,69.2,187.9,66.5,191.1,64.9z"/>
	<path class="st0" d="M229.2,63.5c14.3-0.1,28.6,0,42.9,0c0,3.2,0,6.3,0,9.5c-5.3,0-10.6,0-15.9,0c0,14.5,0,28.9,0,43.4
		c-3.7,0-7.3,0-11,0c0-14.5,0-28.9,0-43.4c-5.3-0.1-10.7,0-16,0C229.2,69.9,229.2,66.7,229.2,63.5z"/>
	<path class="st0" d="M284.2,63.5c11.8,0,23.6,0,35.4,0c0,3.2,0,6.3,0,9.5c-8.1,0-16.3,0-24.4,0c0,4,0,7.9,0,11.9c7,0,14,0,21,0
		c0,3.2,0,6.3,0,9.5c-7,0-14,0-21,0c0,4.1,0,8.3,0,12.4c8.1,0,16.3,0,24.4,0c0,3.2,0,6.4,0,9.6c-11.8,0-23.6,0-35.4,0
		C284.2,98.8,284.2,81.2,284.2,63.5z"/>
	<path class="st0" d="M348.8,63.5c3.7,0,7.4,0,11.1,0c6.7,17.6,13.5,35.3,20.2,52.9c-4,0-7.9,0-11.9,0c-1.1-3.4-2.4-6.9-3.5-10.3
		c-6.8,0.1-13.7,0-20.5,0c-1.1,3.4-2.3,6.8-3.4,10.3c-3.8,0-7.7,0-11.5,0c1.5-4.3,3.1-8.4,4.7-12.7
		C338.8,90.4,343.8,76.9,348.8,63.5 M354.3,76.2c-2.4,7.1-4.8,14.1-7.2,21.2c4.8,0,9.6,0,14.5,0C359.1,90.3,356.7,83.2,354.3,76.2z"
		/>
	<path class="st0" d="M391.3,63.5c3.5,0,7,0,10.5,0c5.9,12.7,11.8,25.5,17.6,38.2c5.6-12.7,11.4-25.4,17-38.2c3.5-0.1,7.1,0,10.6,0
		c0,17.6,0,35.3,0,52.9c-3.5,0-7,0-10.5,0c0-10.8,0-21.6,0-32.4c-4.1,8.6-8,17.3-12.1,25.9c-0.8,1.6-1.4,3.3-2.3,4.9
		c-2.1,0-4.1,0-6.2,0c-3.8-8.3-7.6-16.6-11.4-24.9c-0.9-1.9-1.7-3.8-2.6-5.6c0,10.7,0,21.4,0,32.1c-3.5,0-7,0-10.5,0
		C391.3,98.8,391.3,81.2,391.3,63.5z"/>
	<path class="st0" d="M45.6,102.8c1.4-0.7,3-0.9,4.5-1c4.2-0.2,8.4,1.3,11.4,4.3c3.1,3,4.8,7.3,4.7,11.6c-0.1,3.7-1.6,7.4-4.2,10.1
		c-2.3,2.4-5.4,4.1-8.7,4.6c-3.5,0.6-7.1-0.1-10.1-2c-2.6-1.5-4.7-3.9-6-6.6c2.6,1,5.2,2.2,7.8,3.2c0.8,0.3,1.6,0.7,2.5,0.9
		c2.8,0.8,5.9,0.4,8.4-1.1c3.1-1.7,5.3-5,5.6-8.5c0.5-3.7-1.1-7.6-4-10c-1.6-1.4-3.6-2-5.5-2.9C49.8,104.6,47.7,103.7,45.6,102.8z"
		/>
</g>
</svg>
