<?xml version="1.0" encoding="utf-8"?>
<!-- Generator: Adobe Illustrator 22.0.1, SVG Export Plug-In . SVG Version: 6.00 Build 0)  -->
<svg version="1.1" id="图层_1" xmlns="http://www.w3.org/2000/svg" xmlns:xlink="http://www.w3.org/1999/xlink" x="0px" y="0px"
	 viewBox="0 0 448 180" style="enable-background:new 0 0 448 180;" xml:space="preserve">
<style type="text/css">
	.st0{fill:none;}
	.st1{fill:#FF4200;}
</style>
<g>
	<title>background</title>
	<polygon id="canvas_background" class="st0" points="36.2,14 36.2,14 36.2,14 	"/>
</g>
<g>
	<title>Layer 1</title>
	<g id="svg_1">
		<path id="svg_2" class="st1" d="M40.2,14c0,6.3-5.7,11.4-12.7,11.4c-7,0-12.7-5.1-12.7-11.4c0-6.3,5.7-11.4,12.7-11.4
			C34.5,2.6,40.2,7.7,40.2,14"/>
		<path id="svg_3" class="st1" d="M9.1,42.5l7.8-12.1c0,0,11,8.5,14.3,11.4c3.3,2.9,9.2,7.8,9.1,15.7C40,65.4,37.7,72.3,35.9,77
			c-1.9,4.8-14.1,29.8-14.1,29.8L3,95.2c0,0,18-16.6,24.9-26.8c2.2-3.2,4.8-11.5-2.6-15.8C18,48.2,9.1,42.5,9.1,42.5"/>
		<path id="svg_4" class="st1" d="M33.1,35.3c0,0,10.2-6.6,20.3-34.3c2.9,1,17.4,4.9,17.4,4.9l-4.8,8.8c0,0,21.8-6.6,40.5-6.6
			c0,0,10.2-0.4,18.2,2.2c7.9,2.6,16,7.9,18,16.6c2,8.6,4.2,37.4,0.1,63.5c0,0-0.9,6-6.5,11.4c-5.6,5.3-12.4,7.9-24.4,7.9
			c-12,0-18.3-2.3-18.3-2.3l2.5-10.1c0,0,7.4,2.7,13.1,2.7c5.8,0,10.7-2.4,13.3-5.5c0,0,2.3-3.5,2.5-6.3c0.1-2.9,0.3-58.2-0.3-60
			c-0.6-1.9-1.3-8.9-10.2-10.7c-8.9-1.7-16-0.6-18.2-0.1c-2.2,0.4-15.7,3.7-22.5,6.5c2.6,0.9,7.6,2.2,7.6,2.2s-2.3,4.8-6.5,9.4
			c5.8-0.1,44.1,0,44.1,0v8.6H94.5v11.5h24.4v8.6H94.5v18.3c0,0,4,0,9.9-4.6c-0.4-3.2-0.3-3.6-1.7-8.2c3.7-0.9,11.2-3.5,11.2-3.5
			l9.4,23.2l-14,5.5l-2.6-9.4c0,0-4.2,4.8-14.4,7.8c-14.2,4.2-23.3,4-25.8,3.9c0,0-6.9,0.3-11.1-1.6c-4.2-1.9-10.2-6.2-10.2-18.6
			c0-4.2,1-7.6,1-7.6l17.6,0.1c0,0-0.9,6.2-0.9,7.8c0,1.6-1.3,8.4,11.4,8.2c0-9.1-0.1-21.5-0.1-21.5l-25.1-0.1v-8.6h24.9V44.2h-6.3
			c0,0-6.9,6.5-10.8,10.4l-7.2-6.3c0,0,8.3-8.6,14-21.2c-3.3,1.3-9.1,3.9-9.1,3.9s-4,5.2-9.1,10.5C41.9,39.4,33.1,35.3,33.1,35.3"/>
		<path id="svg_5" class="st1" d="M185,27.8l-0.1,8.2h80.8c0,0,8.8-5.3,8.8-10.5s-6.8-6.6-11.4-6.9c-4.6-0.3-17.6-0.4-28.2,0.9
			C224.2,20.7,199.7,23.6,185,27.8 M165,47.6V12.4h19.7v4.5c0,0,28.2-3.9,31.3-3.9V2.9h22.3v7.6c0,0,14.3-1.3,23.6-1.3
			c9.4,0,20.3,1.6,24.5,3c4.2,1.4,9.2,5,9.2,12.5c0,7.5-5.6,15.3-16.9,22.7c-3.5-3.5-6.1-5.9-6.1-5.9l0.1,3.3h-34.3v11.7H278v9.2
			h-39.3v27.5h53.5v11.4H164.8V93.3h50.7V66.1h-35v-9.5h35.2V45.1H185v2.6L165,47.6L165,47.6L165,47.6L165,47.6L165,47.6
			C165,47.6,165,47.6,165,47.6z"/>
		<path id="svg_6" class="st1" d="M276.3,79.8c0,6.2-5.6,11.2-12.5,11.2c-6.9,0-12.5-5-12.5-11.2c0-6.2,5.6-11.2,12.5-11.2
			S276.3,73.6,276.3,79.8"/>
		<path id="svg_7" class="st1" d="M350.5,52.4c-5.2-7.8-12.5-12.7-12.5-12.7s3.9-4.3,5.9-7.6c4.2,2.9,8.6,6,13.4,9.5
			c4.2-7.1,9.7-19.4,9.7-19.4s13.5,6.8,16.1,8.1c-1.3,4.2-2.5,5.6-2.5,5.6s8.5,5.6,13.7,8.9c5.9-11.2,8.5-24.3,8.5-24.3l17.7,10.8
			c0,0,0-6.6-0.3-9.4c-0.3-9.6-10.8-10.8-16.4-10.7c-5.6,0.1-18,2.4-32,5.5c-14,3-36,12.8-36,12.8v36.7
			C343.5,61.5,346.6,57.7,350.5,52.4 M335.9,70.1v34.4h-22.2V8.6h22V17c0,0,21.5-8.2,36-11.2c14.6-3,22.9-3,26.4-3
			c3.5,0,17.7,1.6,25.8,4.6c8.1,3,13.8,9.1,16.1,15.5c2.3,6.5,2.4,24.2,2.4,32.4c0,8.2-0.6,33.4-1.4,38.3
			c-0.9,4.9-2.9,10.5-7.2,13.7c-4.3,3.2-10.5,2.4-16.1,1.3c-5.6-1.2-12.3-3.6-17.9-6.6v-9.5c0,0,5.5,3.9,11,3.9
			c5.5,0,9.8-3.3,9.8-10.7c0-7.3,0.7-38.9,0.1-51.8c-3.6,5.8-11.1,16-14.4,19.7c4.5,3.2,9.8,8.1,13,11.8c-4.2,3.7-15.4,13-15.4,13
			s-6.6-10.1-8.2-11.9c-1.7,2-12.4,13.8-29.1,23.6c-2.9-4.2-6.9-9.4-6.9-9.4s12.5-4.3,27.8-24.6c-3.3-3.5-8.2-9.8-12.5-12.7
			c-1.7,2.4-6.8,7.8-6.8,7.8s4.6,3.5,7.9,9.5c-2.9,2.9-11.8,12.1-11.8,12.1l-7.2-11.1c0,0-7.9,8.3-15.3,13.7
			C338.2,71.8,335.9,70.1,335.9,70.1"/>
		<path id="svg_8" class="st1" d="M12.5,137.2c0,0,2.1-7.8,10.6-7.5c8.4,0.3,14.6,0.8,19.5,0.8c4.9,0,15.9-1.1,17.1-1.5
			c-0.6,2.3-3.2,6.8-7.1,6.8h-8.9c0,0-2.1-0.1-2.1,2.5v30.9c0,0,0.6,4.2,4.7,3.2c-1.3,3.6-4.7,5.7-8.7,5.7c-4,0-7.9-2.5-7.9-6v-34.3
			c0-1.8-0.3-2.2-3.4-2.3c-1.9-0.1-5.5-0.3-8.7,0.1C15.4,135.8,13.8,136.6,12.5,137.2"/>
		<path id="svg_9" class="st1" d="M72.2,155.7c-4,0-7.2,3.8-7.2,8.5c0,4.7,3.2,8.5,7.2,8.5c4,0,7.2-3.8,7.2-8.5
			C79.4,159.5,76.2,155.7,72.2,155.7 M57.2,145.4c0.4-1.3,1.1-3.5,3.9-5.1c3.1-1.8,7.6-1.8,9.3-1.8c1.6,0,6.8,0.3,8.4,0.8
			c1.6,0.4,10.6,1.8,10.6,11.7v18.7c0,0,0.4,3.9,4.4,2.7c-0.6,3.8-4.4,5.8-7.1,5.8c-2.7,0-7.1-1.6-7.1-5c0,0-1.8,5.6-11.2,5.6
			c-9.5-0.1-14.6-5.7-14.6-14.2c0-8.5,6.1-14.3,15.2-14.3c3,0,8.4,1.2,10.7,4.8c0-4.4-0.8-10.4-7.6-11.1
			C68.4,143.6,61.4,143.8,57.2,145.4"/>
		<path id="svg_10" class="st1" d="M209.4,155.7c-4,0-7.2,3.8-7.2,8.5c0,4.7,3.2,8.5,7.2,8.5c4,0,7.2-3.8,7.2-8.5
			C216.6,159.5,213.4,155.7,209.4,155.7 M194.4,145.4c0.4-1.3,1.1-3.5,3.9-5.1c3.1-1.8,7.6-1.8,9.3-1.8c1.6,0,6.8,0.3,8.4,0.8
			c1.6,0.4,10.6,1.8,10.6,11.7v18.7c0,0,0.4,3.9,4.4,2.7c-0.6,3.8-4.4,5.8-7.1,5.8c-2.7,0-7.1-1.6-7.1-5c0,0-1.8,5.6-11.2,5.6
			c-9.5-0.1-14.6-5.7-14.6-14.2c0-8.5,6.1-14.3,15.2-14.3c3,0,8.4,1.2,10.7,4.8c0-4.4-0.8-10.4-7.6-11.1
			C205.6,143.6,198.6,143.8,194.4,145.4"/>
		<path id="svg_11" class="st1" d="M117.5,144.4c-4.3,0-7.8,6.4-7.8,14.2c0,7.8,3.5,14.2,7.8,14.2s7.8-6.4,7.8-14.2
			C125.2,150.8,121.7,144.4,117.5,144.4 M137.2,158.6c0,11.3-8.8,20.4-19.7,20.4s-19.7-9.1-19.7-20.4c0-11.3,8.8-20.4,19.7-20.4
			S137.2,147.4,137.2,158.6"/>
		<path id="svg_12" class="st1" d="M254.3,144.4c-4.3,0-7.8,6.4-7.8,14.2c0,7.8,3.5,14.2,7.8,14.2c4.3,0,7.8-6.4,7.8-14.2
			C262,150.8,258.5,144.4,254.3,144.4 M274,158.6c0,11.3-8.8,20.4-19.7,20.4c-10.9,0-19.7-9.1-19.7-20.4c0-11.3,8.8-20.4,19.7-20.4
			C265.1,138.2,274,147.4,274,158.6"/>
		<path id="svg_13" class="st1" d="M355.6,144.4c-4.3,0-7.8,6.4-7.8,14.2c0,7.8,3.5,14.2,7.8,14.2c4.3,0,7.8-6.4,7.8-14.2
			C363.4,150.8,359.9,144.4,355.6,144.4 M375.3,158.6c0,11.3-8.8,20.4-19.7,20.4c-10.9,0-19.7-9.1-19.7-20.4
			c0-11.3,8.8-20.4,19.7-20.4C366.5,138.2,375.3,147.4,375.3,158.6"/>
		<path id="svg_14" class="st1" d="M156.3,150.6c-1.2,3.6-0.6,13.5,0,15.4c0.6,1.9,2.6,6.6,7.9,6.6c5.3,0,7.1-5.2,7.5-6.9
			c0.4-1.7,1.2-6.3-0.2-14.2c-1.4-7.9-7.4-7.2-7.4-7.2C159.6,144.4,157.4,147,156.3,150.6 M140.4,130.6c0,0,0.8-5.8,7.5-5.8
			c6.7,0,8,4.2,8,5.3v13.1c0,0,2.8-4.2,11.5-4.2c8.7,0,16.6,6.1,16.6,17.7c0,0,1.8,21.6-17.1,21.6c-6.1,0-9.7-2-11.5-5
			c-1.2,3.1-3.9,4.8-7.2,4.8c-3.3,0-7.2-2-7.2-5.7c1.4,0.2,4.1,0.1,4.1-3.4v-35.6C145.1,133.4,144.8,130.6,140.4,130.6"/>
		<path id="svg_15" class="st1" d="M290.1,173c0,3-2.5,5.4-5.5,5.4S279,176,279,173c0-3,2.5-5.4,5.5-5.4
			C287.6,167.6,290.1,170,290.1,173"/>
		<path id="svg_16" class="st1" d="M330.3,172.5c0,0-2-2.1-3.8-2c-1.8,0.1-2.8,0.7-3.8,1.1c-1,0.4-3.2,1.2-5.2,1.2
			c-2,0-5.6-0.8-8.3-4.9c-2.7-4.1-2.7-12.2-1.8-15.6c0.9-3.4,2.9-6,5.3-7.5c2.4-1.5,6.9-0.9,8.4,0.3c1.6,1.3,2.3,3.6,5.2,3.6
			c2.9,0,4.6-3.5,4.1-5.8c0,0-4.7-3.9-14.5-3.9c-9.1-0.1-14.3,4.9-16,6.8c-1.7,2-4.8,6.7-4.8,13c0,6.3,3.2,12.7,6.9,15.6
			c3.8,2.9,9.3,4.3,13.4,4.3C319.6,178.7,325.9,177.3,330.3,172.5"/>
		<path id="svg_17" class="st1" d="M379,144.9c0,0,0.9-5.9,7.6-5.9c5.6,0,7.1,4.2,7.1,4.2s3.5-4.6,10.7-4.6c7.2,0,10.6,3.5,11.9,5.3
			c2.4-2.3,4.8-5.2,11.4-5.2c6.6,0,12.2,2.3,12.8,8.9c0.6,6.6,0.4,22.8,0.4,22.8s0.5,3.1,4,1.8c0.3,3.5-3.4,5.8-7.1,5.8
			c-3.7,0-7.4-2.2-7.4-6.8v-22.1c0,0,0.1-5.1-6-5.1c-6.1,0-6.7,5.6-6.7,7.3v26.5H407v-28.6c0,0-0.1-5.3-5.7-5.3
			c-5.6,0-7.1,4.6-7.1,6.9v26.8h-10.7v-29.3C383.6,148.2,383.8,145,379,144.9"/>
	</g>
</g>
</svg>
