<?xml version="1.0" encoding="utf-8"?>
<!-- Generator: Adobe Illustrator 22.0.0, SVG Export Plug-In . SVG Version: 6.00 Build 0)  -->
<svg version="1.1" id="图层_1" xmlns="http://www.w3.org/2000/svg" xmlns:xlink="http://www.w3.org/1999/xlink" x="0px" y="0px"
	 viewBox="0 0 900 700" style="enable-background:new 0 0 900 700;" xml:space="preserve">
<style type="text/css">
	.st0{fill:#555;}
</style>
<g id="_x23_000000ff">
	<path class="st0" d="M86.8,8.4c30-10.3,62.9-10.8,93.5-3.2c37.8,9.3,72.7,30.6,98.1,60.2c18.4,21.3,31.8,47.1,37.4,74.8
		c5,24.7,3,50.9-6.4,74.3c44,25.1,87.9,50.4,131.9,75.4c106.8-58.7,214-116.7,320.6-175.8c5.8-3.2,11.7-6.6,18-8.8
		c14.6-5.3,30.7-5.3,45.7-1.9c18.3,4.2,35.2,13,50.4,23.8c8.5,6,15.6,13.6,23.9,19.7v0.2c-25,14.8-50.4,28.9-75.5,43.4
		C731.7,243.7,639,296.8,546.2,350C664.1,417.5,782.1,485.1,900,552.6v0.3c-3.5,2.4-6.5,5.4-9.7,8.1c-17.8,16.2-39.1,28.9-62.4,34.9
		c-19.3,5.1-40.6,3.8-58.3-5.9c-109.2-60.4-218.9-119.8-328.3-179.9c-9,4.8-17.7,10.1-26.6,15.1c-35.2,20.1-70.2,40.3-105.4,60.3
		c11,27.6,11.7,58.9,3.2,87.3c-9.6,32.8-30.2,61.9-56.4,83.6c-29.9,24.9-67.6,40.6-106.5,43.2c-35.1,2.4-71.7-6.2-100.1-27.5
		c-28-20.6-46.4-53.8-49-88.5C-0.7,566.1,0,548,6.4,531.5c11.6-32.3,32.5-61.1,59.6-82.1c24.7-19.3,53.6-32.5,83.5-41.3
		c43.9-11.5,87.9-23,131.1-37.2c17.1-5.9,34.6-11.5,50.2-20.9c-10.6-6.5-22.2-11-33.8-15.2c-13.3-4.8-26.8-9.1-40.3-13.3
		c-35-10.6-70.4-20.1-105.9-29.2C118,282.9,86.2,268,60,245.7C35.7,225.3,17,198.4,6.4,168.5c-5-12.8-6.4-26.7-6.4-40.4
		C-0.2,102.9,7.3,77.7,21.7,57C37.2,34.1,60.8,17.2,86.8,8.4 M122.6,68.2C105.2,70.8,88.1,79.4,77.7,94
		c-8.4,11.6-11.9,26.5-10.2,40.7c2.4,22.8,15,43.4,31.3,59c20.4,19.3,47.4,31.7,75.5,33.6c17.7,1.1,36.1-2.2,51-12.1
		c12-7.9,21.1-20.4,24.2-34.5c3.7-16.3,0.2-33.4-6.8-48.3C232,110,213.1,92.2,191.3,80.8C170.4,69.9,146.1,64.5,122.6,68.2
		 M168.5,473.1c-35.6,4.4-69.2,25.2-88.2,55.9c-8.9,14.4-14.2,31.3-13,48.3c1,14,7.5,27.5,17.8,37c11.2,10.5,26.3,16.2,41.5,17.9
		c22,2.5,44.5-2.7,64.1-12.8c23.5-12.1,43.8-31.6,54.1-56.3c6.1-14.6,8.6-31.3,4.2-46.7c-3.9-14.3-14-26.5-26.8-33.8
		C206,473.3,186.7,470.9,168.5,473.1z"/>
</g>
</svg>
