<?xml version="1.0" encoding="utf-8"?>
<!-- Generator: Adobe Illustrator 22.0.0, SVG Export Plug-In . SVG Version: 6.00 Build 0)  -->
<svg version="1.1" id="图层_1" xmlns="http://www.w3.org/2000/svg" xmlns:xlink="http://www.w3.org/1999/xlink" x="0px" y="0px"
	 viewBox="0 0 900 700" style="enable-background:new 0 0 900 700;" xml:space="preserve">
<style type="text/css">
	.st0{fill:#555;}
</style>
<g id="_x23_000000ff">
	<path class="st0" d="M731.3,2.7C767-3.7,805.4,1,837.2,19.2c24.9,14.1,44.7,36.9,54.7,63.6c7.9,20.4,9.6,42.9,7,64.5
		c-1.5,12.6-6.2,24.6-11.4,36.1c-12.4,27.1-31.8,50.8-55.4,68.7c-28,21.4-61.2,35.2-95.3,43.4c-41.5,10.8-82.9,22-123.6,35.7
		c-15,5.3-30.3,10.4-43.9,18.8c16.3,10,34.8,15.6,52.7,21.8c42,13.7,84.8,24.9,127.5,36c38.1,10.9,74.9,29.4,102.9,58
		c19.3,19.5,33.8,43.5,42.5,69.4c4.5,13.2,5.3,27.3,5,41.1c-0.6,29.2-12,58-31.6,79.6c-23,25.5-56.4,40.1-90.2,43.3
		c-59.3,5.8-119.6-20.8-157.8-66.1c-21.3-25.2-35.8-56.8-38.3-89.9c-1.6-19.6,1.4-39.4,8.6-57.7c-43.9-25-87.8-50.1-131.5-75.3
		c-10.5,5.4-20.8,11.3-31.3,16.9C329,481.2,230.1,534.9,131.6,589.4c-19.2,11.1-42.9,11.8-63.8,5.4c-15.4-4.6-29.7-12.2-42.8-21.4
		c-8.9-6.2-16.6-13.9-25-20.7l0,0C117.8,485,235.9,417.6,353.7,350C235.9,282.3,117.8,214.9,0,147.3v-0.4c7.7-5.4,14.2-12.4,21.8-18
		C36.3,118,52.5,109.3,70,104.5c16-4.4,33.5-5,49.3,0.6c7.5,2.5,14.2,6.6,21.1,10.4c13.5,7.5,27.1,15,40.6,22.5
		c92.5,50.8,185.1,101.4,277.8,151.9c43.8-25.2,87.7-50.3,131.6-75.4c-9.7-24.1-11.4-51-6-76.3c6.9-32.3,24.5-61.8,48.1-84.7
		C659.6,27.3,694.3,9.2,731.3,2.7 M751.4,67.6c-12.6,1.4-25,4.9-36.5,10.2c-23.4,10.7-44,28.5-56.1,51.5c-7.7,14.8-11.9,32-8.9,48.7
		c2.3,13.6,10,26.1,21,34.5c11.9,9.3,26.9,13.9,41.9,14.8c21.2,1.3,42.5-4.1,61.2-14c23.3-12.4,43.1-32.3,53.2-57
		c5.7-14.3,7.9-30.6,3.4-45.6c-3.9-13.4-13.1-25.1-25-32.4C789.5,68.4,769.9,65.6,751.4,67.6 M707.7,473
		c-15.8,1.8-31.5,8.1-42.7,19.6c-8.5,8.6-14.1,20.1-15.6,32.2c-2.1,16.5,2.5,33.2,10.3,47.6c8.7,15.8,21.5,29,36.3,39.1
		c22.8,15.4,50.8,23.9,78.3,20.6c17-2.1,33.9-9.4,45.1-22.6c9.8-11.3,14.4-26.6,13.3-41.5c-1.6-24.6-15.3-46.8-33-63.2
		C775.1,482.4,741.1,469.3,707.7,473z"/>
</g>
</svg>
