<?xml version="1.0" encoding="utf-8"?>
<!-- Generator: Adobe Illustrator 22.0.0, SVG Export Plug-In . SVG Version: 6.00 Build 0)  -->
<svg version="1.1" id="图层_1" xmlns="http://www.w3.org/2000/svg" xmlns:xlink="http://www.w3.org/1999/xlink" x="0px" y="0px"
	 viewBox="0 0 512 512" style="enable-background:new 0 0 512 512;" xml:space="preserve">
<style type="text/css">
	.st0{fill:#040000;}
	.st1{fill:#F29419;}
	.st2{fill:#FFFFFF;}
</style>
<path class="st0" d="M68.3,0h375.5C489.2,0,512,22.8,512,68.3v375.5c0,45.5-22.8,68.3-68.3,68.3H68.3C22.8,512,0,489.2,0,443.7V68.3
	C0,22.8,22.8,0,68.3,0z"/>
<path class="st1" d="M404.3,364.1c-40.2,29.7-98.5,45.5-148.3,45.5c-67,0.3-131.8-24.4-181.6-69.3c-3.8-3.4,0-8,4.1-5.4
	c55.2,31.6,117.7,48.2,181.3,48.2c47.6-0.2,94.7-9.9,138.6-28.3C405.2,351.9,411,359.3,404.3,364.1z"/>
<path class="st1" d="M421,345.1c-5.1-6.6-34.1-3.2-46.9-1.5c-3.9,0.5-4.5-3-1-5.5c23-16.1,60.7-11.5,65.1-6.1s-1.2,43.3-22.7,61.3
	c-3.3,2.8-6.5,1.3-5-2.4C415.3,378.8,426.2,351.7,421,345.1L421,345.1z"/>
<path class="st2" d="M359.7,311c-8.1-11.2-17.1-20.3-17.1-41.1v-69.1c0-29.3,2-56.1-19.5-76.3c-17.1-16.3-45.2-22.1-66.8-22.1
	c-42.2,0-89.3,15.8-99.2,68.3c-0.5,4.3,2.6,8.1,6.8,8.6c0,0,0.1,0,0.1,0l42.7,4.7c4.2-0.8,7.4-4.3,7.7-8.5
	c3.7-16.5,18.8-27.8,35.7-26.6c9.7-0.5,19,3.8,24.9,11.5c6.2,9.1,5.4,21.6,5.4,32.2v5.7c-25.6,2.9-59.7,4.8-83.4,15.4
	c-29.4,11.8-48.3,40.8-47.3,72.4c0,46.1,29,69.1,66.4,69.1c31.5,0,48.8-7.4,73.1-32.3c6.7,11.3,15.3,21.3,25.6,29.5
	c3.4,1.9,7.6,1.5,10.5-1c8.5-7.9,24.9-21.8,34.1-29.4C362.2,318.8,362.3,314.2,359.7,311L359.7,311z M272.4,291.1
	c-5.8,11.8-17.6,19.5-30.7,20.1c-17.1,0-27-13-27-32.2c0-37.8,34.1-44.6,66-44.6v9.6C280.7,261.3,281.1,275.7,272.4,291.1z"/>
</svg>
