<?xml version="1.0" encoding="utf-8"?>
<!-- Generator: Adobe Illustrator 22.0.0, SVG Export Plug-In . SVG Version: 6.00 Build 0)  -->
<svg version="1.1" id="图层_1" xmlns="http://www.w3.org/2000/svg" xmlns:xlink="http://www.w3.org/1999/xlink" x="0px" y="0px"
	 viewBox="0 0 360 102" style="enable-background:new 0 0 360 102;" xml:space="preserve">
<style type="text/css">
	.st0{fill-rule:evenodd;clip-rule:evenodd;fill:#2193C2;}
	.st1{fill-rule:evenodd;clip-rule:evenodd;fill:#F8991D;}
</style>
<g>
	<path class="st0" d="M196.5,0h2c2.2,0.1,4.3,0.9,5.9,2.4c1.5,1.5,2.3,3.6,2.2,5.7c0.1,1.8-0.3,3.7-1.4,5.2
		c-1.4,1.9-3.7,3.1-6.1,3.3c-2.7,0.3-5.6-0.1-7.7-1.7c-1.7-1.2-2.7-3.2-2.9-5.2c-0.3-2.3,0.1-4.8,1.6-6.6
		C191.6,1.2,194.1,0.2,196.5,0L196.5,0z M191.4,25.1c0.4-0.1,0.8-0.1,1.2-0.1c3.4,0,6.9,0,10.3,0c0.8,0,1.7,0.1,2.2,0.8
		c0.5,0.7,0.4,1.7,0.4,2.5c0,16.2,0,32.3,0,48.5c0,0.8,0,1.7-0.5,2.3c-0.5,0.7-1.4,0.8-2.2,0.8c-3.5,0-7,0-10.5,0
		c-0.7,0-1.6-0.1-2.1-0.7c-0.6-0.6-0.6-1.5-0.6-2.3c0-16.4,0-32.8,0-49.2c0-0.7,0.1-1.4,0.4-1.9C190.4,25.4,190.9,25.1,191.4,25.1
		L191.4,25.1z"/>
	<path class="st0" d="M96.6,30.1c5.7-5.3,14-7.7,21.7-6.3c4.5,0.8,8.7,3.2,11.6,6.8c3.9,4.6,5.7,10.7,6.3,16.6
		c0.5,6.1,0.1,12.3-2,18.1c-1.8,4.8-4.8,9.4-9.1,12.3c-3.5,2.4-7.7,3.6-11.9,3.5c-5.4,0-10.8-1.7-14.9-5.2c0,8,0,15.9,0,23.9
		c0,0.6-0.2,1.4-0.7,1.8c-0.6,0.4-1.3,0.5-2,0.5c-3.5,0-7,0-10.5,0c-0.8,0-1.7-0.1-2.2-0.8c-0.4-0.5-0.3-1.1-0.4-1.7l0-72.3
		c0-1.7,1-2.2,2.6-2.3c2.5,0,5,0,7.5,0c0.7,0,1.3,0,1.9,0.3c0.7,0.3,1.2,1,1.4,1.8C96.1,28,96.3,29.1,96.6,30.1L96.6,30.1z
		 M98.1,38.1c0,9.4,0,18.8,0,28.2c3.9,2.4,8.8,3.4,13.4,2.7c3-0.5,5.6-2.5,6.8-5.2c1.9-3.9,2.1-8.3,2-12.6c-0.1-2.8-0.3-5.6-1.1-8.3
		c-0.5-1.8-1.4-3.5-2.7-4.9c-1.6-1.6-3.8-2.5-6-2.7C106.2,34.8,101.8,35.9,98.1,38.1L98.1,38.1z"/>
	<path class="st0" d="M241.3,25.5c3.2-1.3,6.6-2,10.1-2.2c3.2-0.1,6.4,0.3,9.3,1.7c2.3,1.1,4.2,2.9,5.4,5.1
		c3.5-2.2,7.2-4.3,11.2-5.5c3.2-1,6.5-1.4,9.8-1.3c2.9,0.1,5.8,0.6,8.4,2.1c2.5,1.4,4.4,3.7,5.5,6.3c0.9,2.1,1.3,4.3,1.3,6.6
		c0,13,0,26.1,0,39.1c0,0.7-0.2,1.5-0.8,2c-0.5,0.4-1.2,0.4-1.8,0.4c-3.5,0-7,0-10.5,0c-0.7,0-1.5-0.1-2-0.6
		c-0.6-0.6-0.7-1.4-0.7-2.1c0-11.7,0-23.4,0-35.1c-0.1-1.7-0.5-3.6-1.7-4.8c-1.1-1.2-2.9-1.7-4.5-1.7c-4.2-0.1-8.3,1-12,2.8
		c0,13,0,26,0,39.1c0,0.8-0.2,1.8-0.9,2.2c-0.6,0.4-1.4,0.4-2.1,0.4c-3.4,0-6.7,0-10.1,0c-0.7,0-1.5-0.1-2-0.6
		c-0.5-0.5-0.7-1.3-0.7-2c0-11.6,0-23.3,0-35c0-1.8-0.4-3.8-1.7-5.2c-1.1-1.2-2.7-1.7-4.3-1.7c-4.3-0.1-8.6,1-12.4,2.9
		c0,13,0,26.1,0,39.1c0,0.8-0.2,1.6-0.9,2.1c-0.6,0.3-1.2,0.4-1.9,0.4c-3.4,0-6.9,0-10.3,0c-0.7,0-1.6-0.1-2.1-0.7
		c-0.5-0.5-0.6-1.3-0.6-2.1c0-16.5,0-32.9,0-49.4c0-0.7,0.1-1.5,0.6-2.1c0.6-0.6,1.5-0.7,2.3-0.7c2.6,0,5.2,0,7.8,0
		c1.1,0,2.2,0.7,2.6,1.7c0.4,1.2,0.7,2.3,1.1,3.5C235.5,28.4,238.3,26.8,241.3,25.5L241.3,25.5z"/>
	<path class="st0" d="M327.1,25.4c3.8-1.5,7.9-2,11.9-2c3.5,0,7.1,0.5,10.4,1.8c3.2,1.3,6.1,3.5,8,6.4c1.6,2.4,2.4,5.3,2.6,8.1
		c0.2,3.2-0.3,6.6-2,9.4c-1.7,2.8-4.4,4.8-7.4,6c-3.8,1.6-8,2.1-12.1,2.3c-4.4,0.1-8.8,0-13-1.1c0.3,3.3,1.1,6.7,3.3,9.2
		c1.9,2.2,4.8,3.3,7.7,3.8c3.5,0.6,7.1,0.4,10.6-0.1c2.5-0.4,5-1,7.5-1.6c0.8-0.2,1.7-0.5,2.4,0c0.7,0.5,0.8,1.4,0.8,2.1
		c0,1.8,0,3.6,0,5.4c-0.1,0.9-0.1,2-0.9,2.5c-1.1,0.8-2.5,1.1-3.8,1.6c-3.8,1.2-7.8,1.9-11.8,2.1c-3.7,0.2-7.4,0-10.9-0.8
		c-3.3-0.7-6.4-2-9.1-3.9c-2.7-1.9-5-4.5-6.5-7.4c-1.7-3.1-2.7-6.6-3.2-10.1c-0.5-4.1-0.5-8.2,0-12.3c0.8-5.9,3.1-11.7,7.3-16
		C321.2,28.4,324,26.6,327.1,25.4L327.1,25.4z M329.4,37.4c-2.4,2.6-3.3,6.1-3.8,9.4c3.4,0.7,6.9,0.9,10.4,0.9c2-0.1,4-0.3,5.8-1
		c1.3-0.5,2.5-1.5,3.1-2.8c0.7-1.4,0.7-3,0.5-4.4c-0.2-1.6-1.1-3.1-2.4-4c-1.7-1.1-3.9-1.3-5.9-1.3
		C334.3,34.3,331.4,35.3,329.4,37.4L329.4,37.4z"/>
	<path class="st0" d="M171.3,25.7c2.3-0.9,4.7-1.3,7.1-1.3c1.1,0,2.3-0.1,3.1,0.5c0.6,0.5,0.7,1.5,0.7,2.2c0,2.9,0,5.8,0,8.7
		c0,0.9-0.1,2-0.9,2.6c-1.2,0.6-2.6,0.3-3.8,0.3c-3.8-0.4-7.6,0.2-11.3,1.1c-1.3,0.3-2.5,0.7-3.7,1.2c0,12.1,0,24.1,0,36.2
		c0,0.7-0.1,1.5-0.7,2.1c-0.5,0.4-1.2,0.5-1.9,0.6c-3.5,0-7,0-10.5,0c-0.7,0-1.6-0.1-2.1-0.7c-0.5-0.6-0.6-1.4-0.6-2.1
		c0-16.5,0-33,0-49.6c0-0.7,0.1-1.5,0.7-2c0.6-0.5,1.3-0.5,2.1-0.6c2.6,0,5.1,0,7.7,0c0.7,0,1.5,0.1,2,0.6c0.6,0.4,0.9,1.2,1.1,1.8
		c0.5,1.9,0.9,3.8,1.4,5.7C164.4,30.1,167.5,27.2,171.3,25.7L171.3,25.7z"/>
	<path class="st1" d="M60.4,25.1H76c1.5,0,2.4,1.6,1.4,3.2l-42.8,66c-0.9,1.3-1.3,2-2.5,2c-1.2,0-1.6-0.7-2.5-2l-29-36
		c-1-1.6-0.2-3.2,1.4-3.2h15.6L31,72.3L60.4,25.1L60.4,25.1z"/>
</g>
</svg>
