<?xml version="1.0" encoding="utf-8"?>
<!-- Generator: Adobe Illustrator 22.0.0, SVG Export Plug-In . SVG Version: 6.00 Build 0)  -->
<svg version="1.1" id="图层_1" xmlns="http://www.w3.org/2000/svg" xmlns:xlink="http://www.w3.org/1999/xlink" x="0px" y="0px"
	 viewBox="0 0 512 512" style="enable-background:new 0 0 512 512;" xml:space="preserve">
<style type="text/css">
	.st0{fill:#181818;}
	.st1{fill:#FFFFFF;}
	.st2{fill:#F39700;}
</style>
<g id="_x23_181818ff">
	<path class="st0" d="M246.2,0h19c42.2,1.6,84,13.5,120.4,35c43,25.2,78.4,63.2,100.3,108.1c16,32.2,24.6,67.9,26.1,103.8v18.9
		c-1.3,30.9-7.9,61.6-20.1,90.1c-18.5,43.9-49.6,82.3-88.5,109.6c-22.8,16.1-48.2,28.3-75,36.2c-20.3,6-41.5,9.3-62.6,10.3h-19
		c-30.9-1.3-61.7-7.8-90.2-19.9c-24.3-10.2-46.9-24.2-66.9-41.3c-8.9-7.4-16.8-15.9-24.6-24.4c-17.3-19.3-31.7-41.3-42.4-65
		C8.8,331.2,1.3,298.3,0,265.2v-19c0.9-19.4,3.6-38.7,8.8-57.5C19,150.8,38.2,115.5,64.2,86.1c27.3-30.9,62.2-55,100.8-69.6
		C190.9,6.6,218.5,1.2,246.2,0 M197.8,126.7c-11.3,9.2-19.1,22.3-22.3,36.4c-0.5,2.6-1.6,5.3-0.6,7.9c1,2.6,3.7,4.2,6.4,4.5
		c12.3,1.3,24.5,2.7,36.7,4c3.2,0.2,5.7-2.5,6.7-5.3c0.9-2.8,1.3-5.6,2.6-8.3c3-7,9.1-12.3,16.2-14.8c9-3.2,19.6-3.3,28.1,1.6
		c4.8,2.6,8.3,7.3,9.8,12.5c2.7,8.8,1.5,18,1.8,27.1c-18.8,2-37.8,3.3-56.2,7.8c-11.7,2.8-23.1,7.4-32.8,14.6
		c-11.7,8.7-20.2,21.4-23.8,35.4c-3.3,13.2-3.2,27.2,0.2,40.3c3.2,12.2,10.5,23.5,21.1,30.5c11.5,7.7,25.7,10.4,39.4,9.7
		c10.8-0.2,21.8-1.9,31.6-6.5c10.9-5.1,20.1-13.2,28.4-21.7c5.1,7.6,10.1,15.4,17.2,21.4c2.8,2.3,5.3,5.8,9.2,5.5
		c2.4,0.2,4.6-1,6.4-2.6c9.6-8.5,19.2-16.9,29-25.1c2.1-1.5,2.7-4.4,2-6.8c-0.5-2.2-1.9-3.9-3.2-5.7c-3.2-4.3-6.5-8.5-8.8-13.3
		c-3.3-6.3-4.5-13.5-4.6-20.5c0-23.2,0-46.3,0-69.5c0.1-14,0.2-28.5-5.1-41.7c-5.1-12.6-15.7-22.4-28-28c-17.3-8-37-9.9-55.8-8.3
		C231,109.5,212.2,114.8,197.8,126.7 M347.9,337.7c-1.6,1-4,2.3-3.3,4.6c0.8,1.3,2.4,0.6,3.7,0.7c8.9-1.1,17.9-2,27-1.4
		c2.7,0.3,5.7,0.7,7.8,2.5c1.7,2.4,1.2,5.6,0.8,8.3c-1.7,9.5-5.5,18.4-8.9,27.3c-0.5,0.9,0.1,1.9,0.5,2.7c1.1-0.1,2.3,0,3.2-0.8
		c4.4-3.5,7.9-8.1,10.6-12.9c4.8-8.7,7.9-18.6,8.3-28.5c-0.1-2.3,0.3-5.6-2.2-6.9c-3.7-1.9-8-2.4-12.1-2.8
		C371.1,329.6,358.4,331.2,347.9,337.7 M122.4,332.3c-2.3,0.9-2.1,4.3-0.6,5.9c22.7,26.1,51.9,47,85,57.7
		c29.2,9.6,61.1,10.9,90.9,3.5c26.9-6.6,52.6-19.2,73.2-38c2-1.7,3.3-4.4,2.4-7c-0.7-2.6-3.9-3.9-6.2-2.6
		c-19.7,10.5-40.9,18.3-62.7,22.7c-29.8,6.3-61,5.7-90.7-1.1c-31.7-7.1-61.8-21-88.1-40.2C124.6,332.6,123.5,331.9,122.4,332.3z"/>
	<path class="st0" d="M243,231.3c12.3-6.4,26.6-7.6,40.2-7.5c-0.1,10.8,0.6,21.6-1.2,32.2c-1.6,9.4-5.6,18.5-12.1,25.6
		c-6.1,6.5-15.2,10.6-24.2,9.4c-6.4-0.6-12.4-4.3-15.7-9.8c-5.2-8.4-5.6-18.8-3.7-28.2C228.2,243.7,234.6,235.7,243,231.3z"/>
</g>
<g id="_x23_ffffffff">
	<path class="st1" d="M197.8,126.7c14.5-11.9,33.2-17.3,51.6-18.9c18.9-1.6,38.5,0.3,55.8,8.3c12.2,5.6,22.9,15.3,28,28
		c5.4,13.2,5.2,27.7,5.1,41.7c0,23.2,0,46.3,0,69.5c0.1,7,1.3,14.2,4.6,20.5c2.3,4.8,5.6,9.1,8.8,13.3c1.3,1.8,2.7,3.5,3.2,5.7
		c0.7,2.4,0.1,5.3-2,6.8c-9.8,8.2-19.4,16.6-29,25.1c-1.7,1.6-3.9,2.8-6.4,2.6c-4,0.3-6.5-3.3-9.2-5.5c-7-6-12.1-13.8-17.2-21.4
		c-8.4,8.5-17.5,16.6-28.4,21.7c-9.8,4.7-20.8,6.3-31.6,6.5c-13.6,0.7-27.9-2-39.4-9.7c-10.6-7-17.9-18.3-21.1-30.5
		c-3.4-13.1-3.5-27.2-0.2-40.3c3.6-14.1,12.1-26.8,23.8-35.4c9.7-7.3,21.1-11.8,32.8-14.6c18.4-4.5,37.4-5.8,56.2-7.8
		c-0.3-9,0.9-18.3-1.8-27.1c-1.5-5.2-5-9.9-9.8-12.5c-8.5-4.8-19.1-4.8-28.1-1.6c-7.1,2.5-13.2,7.9-16.2,14.8
		c-1.3,2.6-1.7,5.5-2.6,8.3c-1,2.8-3.6,5.5-6.7,5.3c-12.2-1.3-24.5-2.7-36.7-4c-2.7-0.3-5.4-1.9-6.4-4.5c-1-2.6,0.1-5.3,0.6-7.9
		C178.7,149,186.4,135.9,197.8,126.7 M243,231.3c-8.4,4.3-14.8,12.4-16.7,21.7c-1.9,9.4-1.5,19.9,3.7,28.2c3.3,5.5,9.4,9.1,15.7,9.8
		c9,1.3,18.1-2.9,24.2-9.4c6.5-7,10.5-16.2,12.1-25.6c1.7-10.7,1-21.5,1.2-32.2C269.6,223.8,255.3,224.9,243,231.3z"/>
</g>
<g id="_x23_f39700ff">
	<path class="st2" d="M347.9,337.7c10.5-6.4,23.3-8.1,35.4-7.3c4.1,0.4,8.4,0.9,12.1,2.8c2.4,1.3,2.1,4.6,2.2,6.9
		c-0.4,10-3.5,19.8-8.3,28.5c-2.8,4.9-6.3,9.4-10.6,12.9c-0.9,0.8-2.1,0.7-3.2,0.8c-0.4-0.8-1-1.7-0.5-2.7
		c3.4-8.9,7.2-17.8,8.9-27.3c0.4-2.8,0.9-5.9-0.8-8.3c-2.1-1.9-5.1-2.2-7.8-2.5c-9-0.6-18,0.4-27,1.4c-1.2,0-2.9,0.6-3.7-0.7
		C343.9,340,346.3,338.7,347.9,337.7z"/>
	<path class="st2" d="M122.4,332.3c1.1-0.4,2.2,0.2,3.1,0.8c26.2,19.2,56.4,33.1,88.1,40.2c29.7,6.7,60.9,7.4,90.7,1.1
		c21.9-4.5,43.1-12.2,62.7-22.7c2.3-1.3,5.5,0.1,6.2,2.6c1,2.6-0.4,5.3-2.4,7c-20.5,18.8-46.2,31.4-73.2,38
		c-29.8,7.4-61.7,6.1-90.9-3.5c-33-10.7-62.2-31.6-85-57.7C120.3,336.6,120.1,333.2,122.4,332.3z"/>
</g>
</svg>
