<?xml version="1.0" encoding="utf-8"?>
<!-- Generator: Adobe Illustrator 22.0.0, SVG Export Plug-In . SVG Version: 6.00 Build 0)  -->
<svg version="1.1" id="图层_1" xmlns="http://www.w3.org/2000/svg" xmlns:xlink="http://www.w3.org/1999/xlink" x="0px" y="0px"
	 viewBox="0 0 512 512" style="enable-background:new 0 0 512 512;" xml:space="preserve">
<style type="text/css">
	.st0{fill:#E43137;}
</style>
<path class="st0" d="M170,231.9h171C336.8,132.9,182.5,129.4,170,231.9z"/>
<path class="st0" d="M256,0C114.6,0,0,114.6,0,256s114.6,256,256,256s256-114.6,256-256S397.4,0,256,0z M402.1,270.6H168.9
	c6.3,105.6,143.4,103.9,165.1,39.1H394c-11.6,62.3-77.8,83.5-134.7,83.5c-103.6,0-149.4-57-149.4-134c0-84.8,47.4-140.5,150.3-140.5
	c82,0,142,42.9,142,136.5V270.6z"/>
</svg>
