<?xml version="1.0" encoding="utf-8"?>
<!-- Generator: Adobe Illustrator 22.0.0, SVG Export Plug-In . SVG Version: 6.00 Build 0)  -->
<svg version="1.1" id="图层_1" xmlns="http://www.w3.org/2000/svg" xmlns:xlink="http://www.w3.org/1999/xlink" x="0px" y="0px"
	 viewBox="0 0 512 512" style="enable-background:new 0 0 512 512;" xml:space="preserve">
<style type="text/css">
	.st0{fill:#E43137;}
</style>
<path class="st0" d="M499.2,0H12.8C5.8,0,0,5.8,0,12.8v486.4c0,7,5.8,12.8,12.8,12.8h486.4c7,0,12.8-5.8,12.8-12.8V12.8
	C512,5.8,506.2,0,499.2,0L499.2,0z M411,272.6H164.6c0,52,39.6,88.8,94.2,88.8c67.2,0,80.9-47.2,80.9-47.2h64.4
	c0,0-8.4,87.7-141.4,87.7c-113,0-161.7-55.7-161.7-143.7c0-111.4,72.6-148.1,159.5-148.1c118,0,150.5,79,150.5,130V272.6L411,272.6z
	"/>
<path class="st0" d="M258.3,151.7c-45.8,0-92.3,28.9-92,79.7H346C346,183.6,310.3,151.7,258.3,151.7L258.3,151.7z"/>
</svg>
