<?xml version="1.0" encoding="utf-8"?>
<!-- Generator: Adobe Illustrator 22.0.0, SVG Export Plug-In . SVG Version: 6.00 Build 0)  -->
<svg version="1.1" xmlns="http://www.w3.org/2000/svg" xmlns:xlink="http://www.w3.org/1999/xlink" x="0px" y="0px"
	 viewBox="0 0 560 720" style="enable-background:new 0 0 560 720;" xml:space="preserve">
<style type="text/css">
	.st0{fill:none;}
	.st1{fill:#469456;}
	.st2{fill:url(#svg_3_1_);}
	.st3{fill:#FFFFFF;}
</style>
<rect id="canvas_background" x="157" y="57" class="st0" width="582" height="402"/>
<g id="svg_1">
	<path id="svg_2" class="st1" d="M521.8,0C542.9,0,560,16.7,560,37.2v310.4L0,720V37.2C0,16.7,17.1,0,38.2,0L521.8,0L521.8,0z"/>
	
		<linearGradient id="svg_3_1_" gradientUnits="userSpaceOnUse" x1="-23.9086" y1="756.8481" x2="-23.9086" y2="754.8851" gradientTransform="matrix(279 0 0 -357 6950.501 270214.0313)">
		<stop  offset="0" style="stop-color:#29CC49"/>
		<stop  offset="1" style="stop-color:#57AD68"/>
	</linearGradient>
	<path id="svg_3" class="st2" d="M40,0h480c22.1,0,40,17.9,40,40v680L0,347.6V40C0,17.9,17.9,0,40,0L40,0z"/>
	<path id="svg_4" class="st3" d="M280,302.3L202.7,345l14.8-90.4L155,190.5l86.4-13.2L280,95l38.6,82.3l86.4,13.2l-62.5,64.1
		l14.8,90.4L280,302.3L280,302.3z"/>
</g>
</svg>
