<?xml version="1.0" encoding="utf-8"?>
<!-- Generator: Adobe Illustrator 22.0.0, SVG Export Plug-In . SVG Version: 6.00 Build 0)  -->
<svg version="1.1" id="图层_1" xmlns="http://www.w3.org/2000/svg" xmlns:xlink="http://www.w3.org/1999/xlink" x="0px" y="0px"
	 viewBox="0 0 512 512" style="enable-background:new 0 0 512 512;" xml:space="preserve">
<style type="text/css">
	.st0{fill:#EB4A4A;}
	.st1{fill:#FFFFFF;}
</style>
<path class="st0" d="M0,256c0,141.4,114.6,256,256,256s256-114.6,256-256S397.4,0,256,0S0,114.6,0,256z"/>
<path class="st1" d="M119.8,223.1c0.6,7.4,1.4,14.9,1.6,22.4c0.5,13.9-4.8,25-15.8,33.1c-8.3,6.2-17.8,10.7-27.9,13.3
	c-11.8,2.8-21.7-7.2-18.7-19.3c1.8-6.9,4-13.9,7.5-20c8.7-15.1,14-31.4,18.4-48.2c0.8-3.1,1.9-6.3,3.2-9.2c2.4-5.1,7.8-7.7,12.9-6.1
	c3.7,1.2,7.4,2.8,10.9,4.7c5.5,3,10.9,6.3,16.3,9.6c3.3-3.7,6.5-7.5,10-11.1c12.1-12.4,27.1-20.2,42.3-27.5
	c23.9-11.4,48.5-21,74.3-26.5c12-2.5,24.2-4.2,36.4-5.1c14.6-1.2,29.2-1.6,43.8-1.3c18.9,0.4,37.6,3,54.9,12
	c9.3,4.8,17.1,11.5,18.8,22.4c1.2,7.7,0.7,15.8-0.1,23.6c-1.4,13.2-6.7,25.4-11.8,37.4c-1.4,3.2-4.9,5.7-8,7.6
	c-7.8,4.7-16.5,7.1-25.4,8.9c-24.9,4.9-49.4,2.7-73.2-6.1c-14.2-5.2-25.6-14.7-36-25.6c-1.1-1.1-1.9-2.6-3.3-3.3
	c-1.4-0.7-3.6-1.3-4.6-0.6c-1,0.7-1.6,3.2-1.4,4.6c0.4,1.7,1.6,3.5,2.9,4.8c15.1,16.8,33.5,28,55.1,33.2c25.9,6.1,51.6,5.8,77-2.8
	c1.4-0.5,2.9-1.1,4.3-1.7c1.4-0.6,2.7-1.4,4.6-1.7c-2.8,4.2-5.4,8.5-8.4,12.6c-19.7,27.2-44.9,46.2-76.8,55.8
	c-20.3,6.1-40.7,5.2-60.9,0.2c-33.8-8.5-64.8-23-91.5-46.3c-8.3-7.2-16.2-15.1-21.7-24.9c-2.2-3.8-3.8-7.8-4.9-12.1
	C124,226.1,122.6,224,119.8,223.1L119.8,223.1z M365.7,140.2c-3.9,0.4-7.9,0.5-11.8,1.1c-6,1-11.7,3-16.5,7c-4.2,3.5-3.7,8.6,1,11.4
	c1.9,1.1,4,1.8,6.1,2.4c9.5,2.7,19.2,2,28.8,0.9c4.9-0.6,9.8-2.2,14.5-4c3.4-1.2,5.6-4.5,5.4-8.1c-0.1-3.8-3.2-5.2-5.9-6.5
	C380.5,141.1,373.2,140.2,365.7,140.2L365.7,140.2z M253,185.2c5.7,0,10.1-4.1,10.1-9.3c0-5.1-4.7-9.4-10.2-9.4
	c-5.7,0-10,4.1-10,9.4C242.9,181.1,247.3,185.2,253,185.2L253,185.2z M297.1,409.4c-2.6,0-5.2,0.2-7.6-0.1c-0.7-0.1-1.6-1.3-1.8-2.2
	c-1.8-7.4-3.4-14.9-5.4-22.3c-0.8-2.9-2.1-5.7-3.8-8.2c-2.5-3.8-6.7-4.3-9.5-0.7c-2.7,3.5-5.1,7.4-6.8,11.5
	c-2.4,6-4.2,12.3-5.9,18.6c-0.7,2.6-1.6,3.9-4.4,3.5c-1.6-0.2-3.2,0-5.2,0c0.4-10.8,0.8-21.2,1.2-32.6c-2.5,1.3-4.4,1.9-5.8,3
	c-3.4,2.7-6.6,5.6-9.6,8.7c-5.4,5.7-10.7,11.6-16,17.6c-3.3,3.7-4.5,4.1-10.2,2.7c6.8-11.8,13.5-23.5,20.4-35.5
	c-6.6-2-12.4-4.7-14.9-11.7c-1.5-4.3-1.4-9,0.4-13.2c0.4,1.5,0.7,3.1,1.2,4.6c2.2,7.9,9,11.9,16.5,9.6c2.1-0.8,4-2.2,5.2-4.1
	c6.6-11,13-22.2,19.4-33.4c1.2-2.1,2.3-2.4,4.5-2.1c10.4,1.7,20.8,3.3,31.3,0.4c2.3-0.6,4.5-1.6,6.9-2.5
	C297.1,350.4,297.1,379.6,297.1,409.4L297.1,409.4z"/>
</svg>
