<?xml version="1.0" encoding="utf-8"?>
<!-- Generator: Adobe Illustrator 22.0.0, SVG Export Plug-In . SVG Version: 6.00 Build 0)  -->
<svg version="1.1" id="图层_1" xmlns="http://www.w3.org/2000/svg" xmlns:xlink="http://www.w3.org/1999/xlink" x="0px" y="0px"
	 viewBox="0 0 512 512" style="enable-background:new 0 0 512 512;" xml:space="preserve">
<style type="text/css">
	.st0{fill:#FFFFFF;}
	.st1{fill:#006039;}
</style>
<g id="_x23_ffffffff">
	<path class="st0" d="M235.7,113.8c10.3-2.1,20.5-4,30.8-6.1c5.4,12.3,9.3,25.2,12.8,38.1c24.8-0.2,49.5-0.3,74.3-0.8
		c12.5-0.3,25.1-0.6,37.6-1.4c0,20.3,0,40.6,0,60.8c-8.9,0-17.8,0-26.7,0c0-12.5,0-24.9,0-37.4c-72.8,0-145.5,0-218.3,0
		c0,12.9,0,25.8,0,38.7c-8.4,0-16.9,0-25.3,0c-0.1-20.7,0-41.5-0.1-62.2c29.6,1.6,59.2,1.9,88.8,2.1c13.1,0.1,26.3,0,39.4,0.1
		C245.7,134.7,241.1,124,235.7,113.8z"/>
	<path class="st0" d="M163.8,196.3c25.5,1.5,51.1,1.9,76.6,2.2c17.6,0.1,35.2,0,52.8-0.4c15.7-0.4,31.5-0.7,47.2-1.8
		c-1.2,10.5-1.6,21.1-1.8,31.6c-0.4,16.1-0.3,32.3,1.8,48.4c-25.8-1.8-51.6-2.2-77.5-2.2c-23.3-0.1-46.7,0-70-0.1
		c0,9.4,0,18.8,0,28.2c53.4-0.2,106.9,0.7,160.2-1.9c-1.5,10-1.5,20.2-1.6,30.3c0,10.9,0,21.7,0,32.6c-0.1,11.4,1,22.7,2.2,34
		c-9.5,0-19,0-28.6,0c0-4.8,0-9.6,0-14.4c-44,0-87.9,0-131.9,0c0,7.2,0.3,14.3,0.9,21.5c-10.3-0.1-20.6,0.1-30.8-0.1
		c2.2-12.8,2.6-25.7,2.6-38.7c0-38.5,0-77.1,0-115.6c0-11.8,0.2-23.7-0.5-35.5C165.2,208.4,164.8,202.3,163.8,196.3 M192.9,219
		c0,11.5,0,23,0,34.5c39.8,0,79.7,0,119.5,0c0-11.5,0-23,0-34.5C272.6,219,232.8,219,192.9,219 M192.9,322.6c0,13.2,0,26.4,0,39.7
		c44.1,0,88.2,0,132.3,0c0-13.2,0-26.4,0-39.6C281.1,322.6,237,322.7,192.9,322.6z"/>
</g>
<g id="_x23_006039ff">
	<path class="st1" d="M240.7,0.4c2-0.1,4,0,6-0.4c5.4,0,10.9,0,16.3,0c19.7,0.6,39.5,3.3,58.6,8.4c37.6,9.8,72.8,28.5,102.1,54
		c6.2,5.2,11.9,11.1,17.7,16.9c21.5,22.5,38.8,48.9,50.8,77.6c13.8,32.8,20.6,68.5,19.8,104.1c-0.7,43-12.5,85.7-34.1,122.9
		c-10.9,18.8-24.1,36.3-39.4,51.6c-27.3,28-61.2,49.4-98,62.2c-21.4,7.5-43.8,12.1-66.4,13.6c-4.8,0.2-9.6,0.8-14.4,0.5
		c-4,0.2-8-0.1-12,0.1c-4.9-0.5-9.9-0.5-14.9-1.1c-26.2-2.3-52-8.8-76.2-19c-23.9-10.1-46.3-23.9-66.1-40.7
		c-27.3-23.2-49.8-52.1-65.3-84.4c-15.8-32.7-24.3-68.7-25.1-105c0.1-5.6-0.3-11.3,0.2-16.9c1.7-43.4,14.8-86.4,37.7-123.4
		c18.6-30.1,43.5-56.4,72.6-76.5C148.7,18.7,194.3,3,240.7,0.4 M235.7,113.8c5.4,10.2,10,20.9,13.4,32c-13.1-0.1-26.3-0.1-39.4-0.1
		c-29.6-0.3-59.3-0.5-88.8-2.1c0,20.7-0.1,41.5,0.1,62.2c8.4,0,16.9,0,25.3,0c0-12.9,0-25.8,0-38.7c72.8,0,145.5,0,218.3,0
		c0,12.5,0,24.9,0,37.4c8.9,0,17.8,0,26.7,0c0-20.3,0-40.6,0-60.8c-12.5,0.8-25.1,1.1-37.6,1.4c-24.8,0.5-49.5,0.7-74.3,0.8
		c-3.6-12.9-7.5-25.8-12.8-38.1C256.2,109.8,245.9,111.8,235.7,113.8 M163.8,196.3c1,6,1.4,12.1,1.7,18.2
		c0.6,11.8,0.4,23.7,0.5,35.5c0,38.5,0,77.1,0,115.6c0.1,12.9-0.4,25.9-2.6,38.7c10.3,0.1,20.6,0,30.8,0.1c-0.7-7.1-1-14.3-0.9-21.5
		c44,0,87.9,0,131.9,0c0,4.8,0,9.6,0,14.4c9.5,0,19,0,28.6,0c-1.2-11.3-2.3-22.6-2.2-34c0-10.9,0-21.7,0-32.6
		c0.1-10.1,0.1-20.3,1.6-30.3c-53.4,2.6-106.8,1.8-160.2,1.9c0-9.4,0-18.8,0-28.2c23.3,0.1,46.7,0,70,0.1c25.8,0,51.7,0.4,77.5,2.2
		c-2.1-16-2.2-32.2-1.8-48.4c0.2-10.6,0.7-21.1,1.8-31.6c-15.7,1.1-31.5,1.4-47.2,1.8c-17.6,0.4-35.2,0.5-52.8,0.4
		C214.9,198.2,189.3,197.8,163.8,196.3z"/>
	<path class="st1" d="M192.9,219c39.8,0,79.7,0,119.5,0c0,11.5,0,23,0,34.5c-39.8,0-79.7,0-119.5,0C192.9,242,192.9,230.5,192.9,219
		z"/>
	<path class="st1" d="M192.9,322.6c44.1,0,88.2-0.1,132.3,0c-0.1,13.2,0,26.4,0,39.6c-44.1,0-88.2,0-132.3,0
		C192.9,349.1,192.9,335.9,192.9,322.6z"/>
</g>
</svg>
