<?xml version="1.0" encoding="utf-8"?>
<!-- Generator: Adobe Illustrator 22.0.0, SVG Export Plug-In . SVG Version: 6.00 Build 0)  -->
<svg version="1.1" id="图层_1" xmlns="http://www.w3.org/2000/svg" xmlns:xlink="http://www.w3.org/1999/xlink" x="0px" y="0px"
	 viewBox="0 0 512 512" style="enable-background:new 0 0 512 512;" xml:space="preserve">
<style type="text/css">
	.st0{fill:#FFFFFF;}
	.st1{fill:#1F1F1F;}
</style>
<g id="_x23_ffffffff">
	<path class="st0" d="M0,0h512v512H0V0 M239.9,0.9C206,3,172.6,11.9,142.2,27c-26.9,13.4-51.4,31.6-72,53.4
		c-24,25.4-42.8,55.7-54.6,88.6C5.3,197.3,0.2,227.5,0.4,257.5c0.2,41.1,10.4,82.1,29.7,118.3c17.3,32.5,41.7,61.3,71,83.6
		c28.4,21.7,61.5,37.4,96.4,45.5c28.5,6.6,58.1,8.4,87.1,5.1c43.2-4.7,85-20.8,120.3-46.2c32.4-23.2,59.2-54,77.7-89.3
		c23.2-44.1,32.8-95.1,27.7-144.6c-3.4-33.9-13.7-67.1-30.2-97c-18.3-33.3-44.2-62.5-75.1-84.6C369.7,22.8,327.8,6.7,284.6,2
		C269.8,0.4,254.8-0.2,239.9,0.9z"/>
	<path class="st0" d="M209.9,89c11.8,2.3,23.5,5.6,35.1,9c12.1,3.6,24.2,7.5,36.2,11.7c17.3,6,34.8,12.7,49.4,24.2
		c7.6,6.1,14.2,13.6,18.7,22.3c5.9,11.2,8.3,23.9,9.4,36.5c0.8,10.9,1,21.8-0.6,32.6c-1.5,9.5-4.3,19.1-9.9,27
		c-5,7.2-12.7,12.7-21.4,14.2c-11.6,2.2-23.5-1.3-33.7-6.8c0.1-29.4,0-58.8,0-88.2c-0.1-6.5,0.3-13-1.1-19.3
		c-1-4.4-3.2-8.9-7.3-11.2c-2.2-1.2-4.9-2.4-7.5-1.7c-2.2,0.5-3.9,2.3-5,4.2c-2,3.7-2.6,8-2.6,12.1c0,79.8,0,159.6,0,239.4
		c-6.1-1.8-12-4.1-18-6.1c-13.9-4.8-27.7-9.6-41.6-14.3C209.9,279.5,209.9,184.2,209.9,89z"/>
	<path class="st0" d="M109.1,296.1c29.8-11.4,59.5-23.1,89.4-34.5c-0.1,12.6,0,25.1,0,37.7c-19.5,7.7-39.1,15.2-58.6,22.9
		c-3.8,1.5-8,2.9-10.8,6.1c-1.4,1.5-1.6,3.9,0,5.4c3,2.9,7.4,3.6,11.4,4.1c10.5,1,21.3-0.4,31-4.5c9-3.6,18-7.1,26.9-10.7
		c0.1,11.3,0,22.5,0.1,33.8c-32.2,6.9-66.2,4.3-97.2-6.8c-8-2.5-16.1-6-22-12.2c-3.2-3.5-5.8-8-5.6-12.8c-0.1-5.5,3.2-10.4,7.5-13.5
		C89.7,304.7,99.4,300.1,109.1,296.1z"/>
	<path class="st0" d="M305.4,283c13.5-3.1,27.3-5.1,41.2-5.1c20,0.1,40.1,3,59,9.7c6.4,2.5,13.1,4.6,19,8.2
		c4.4,2.6,8.6,5.8,11.2,10.2c2.8,4.4,3.1,10.2,0.7,14.8c-2.4,4.7-6.7,8.1-10.9,11.1c-5.7,3.8-11.9,6.9-18.3,9.3
		c-42.3,16.5-84.5,33-126.8,49.5c0-12.5,0-25,0-37.6c31.8-12.3,63.6-24.7,95.4-37c2.8-1.2,5.8-2.5,7.9-4.7c1.3-1.3,2.1-3.4,1.1-5.1
		c-1.2-1.7-3-2.7-4.9-3.3c-4.6-1.7-9.5-2-14.3-2c-6.8,0.1-13.6,1.1-20.1,3.4c-21.7,8.3-43.3,16.7-65,24.9c0-12.9,0-25.8,0-38.7
		l0.2-0.3C288.6,287.3,297,284.9,305.4,283z"/>
</g>
<g id="_x23_1f1f1fff">
	<path class="st1" d="M239.9,0.9c14.9-1.1,29.9-0.5,44.7,1.1c43.2,4.7,85,20.8,120.3,46.2c30.9,22.1,56.8,51.3,75.1,84.6
		c16.5,29.9,26.8,63.1,30.2,97c5.1,49.5-4.5,100.5-27.7,144.6c-18.5,35.3-45.3,66.1-77.7,89.3c-35.2,25.4-77.1,41.5-120.3,46.2
		c-29.1,3.3-58.6,1.5-87.1-5.1c-34.9-8.1-67.9-23.7-96.4-45.5c-29.3-22.3-53.7-51-71-83.6C10.8,339.6,0.6,298.6,0.4,257.5
		c-0.2-30.1,4.9-60.2,15.1-88.5c11.8-32.9,30.6-63.2,54.6-88.6c20.6-21.8,45.1-40,72-53.4C172.6,11.9,206,3,239.9,0.9 M209.9,89
		c0,95.2,0,190.4,0,285.7c13.9,4.8,27.7,9.6,41.6,14.3c6,2,11.9,4.3,18,6.1c-0.1-79.8,0-159.6,0-239.4c0-4.1,0.6-8.4,2.6-12.1
		c1.1-1.9,2.7-3.7,5-4.2c2.6-0.7,5.2,0.4,7.5,1.7c4.1,2.3,6.3,6.8,7.3,11.2c1.5,6.3,1.1,12.9,1.1,19.3c0,29.4,0,58.8,0,88.2
		c10.2,5.5,22.1,9,33.7,6.8c8.7-1.6,16.5-7,21.4-14.2c5.6-7.9,8.5-17.5,9.9-27c1.6-10.8,1.4-21.8,0.6-32.6
		c-1-12.5-3.5-25.2-9.4-36.5c-4.4-8.7-11-16.3-18.7-22.3c-14.6-11.4-32.1-18.1-49.4-24.2c-12-4.2-24-8.1-36.2-11.7
		C233.4,94.6,221.8,91.4,209.9,89 M109.1,296.1c-9.8,4-19.5,8.6-28,15c-4.2,3.2-7.6,8.1-7.5,13.5c-0.2,4.9,2.4,9.4,5.6,12.8
		c6,6.1,14,9.6,22,12.2c31,11.1,65,13.6,97.2,6.8c-0.1-11.3,0-22.5-0.1-33.8c-9,3.6-18,7.1-26.9,10.7c-9.7,4.1-20.5,5.5-31,4.5
		c-4-0.6-8.4-1.3-11.4-4.1c-1.6-1.4-1.4-3.9,0-5.4c2.8-3.2,6.9-4.6,10.8-6.1c19.5-7.6,39.1-15.2,58.6-22.9c0-12.6-0.1-25.1,0-37.7
		C168.7,273,139,284.7,109.1,296.1 M305.4,283c-8.4,2-16.8,4.3-24.8,7.5l-0.2,0.3c-0.1,12.9,0,25.8,0,38.7
		c21.7-8.2,43.3-16.6,65-24.9c6.4-2.3,13.3-3.3,20.1-3.4c4.8,0,9.8,0.3,14.3,2c1.9,0.7,3.7,1.7,4.9,3.3c1,1.7,0.2,3.8-1.1,5.1
		c-2.2,2.2-5.1,3.5-7.9,4.7c-31.8,12.3-63.6,24.6-95.4,37c0,12.5,0,25,0,37.6c42.3-16.5,84.6-33,126.8-49.5
		c6.4-2.4,12.6-5.5,18.3-9.3c4.2-3,8.5-6.4,10.9-11.1c2.4-4.6,2.2-10.5-0.7-14.8c-2.7-4.4-6.9-7.6-11.2-10.2
		c-5.9-3.6-12.6-5.7-19-8.2c-18.9-6.8-39-9.7-59-9.7C332.7,277.9,318.9,279.9,305.4,283z"/>
</g>
</svg>
