<?xml version="1.0" encoding="utf-8"?>
<!-- Generator: Adobe Illustrator 22.0.0, SVG Export Plug-In . SVG Version: 6.00 Build 0)  -->
<svg version="1.1" id="图层_1" xmlns="http://www.w3.org/2000/svg" xmlns:xlink="http://www.w3.org/1999/xlink" x="0px" y="0px"
	 viewBox="0 0 512 512" style="enable-background:new 0 0 512 512;" xml:space="preserve">
<style type="text/css">
	.st0{fill:#004986;}
</style>
<path class="st0" d="M255.5,0C121.9-0.1,10.7,102.4,0,235.3L137.4,292c13.2-9,29-13.4,44.9-12.5l61.2-88.3V190
	c0-53.3,43.3-96.5,96.7-96.5s96.7,43.2,96.7,96.5c0,53.3-43.3,96.5-96.7,96.5c0,0,0,0,0,0h-2.2l-87.1,62.1c0,1.1,0.1,2.3,0.1,3.4
	c0,40-32.4,72.4-72.5,72.4c-34.6,0-64.3-24.3-71.1-58.1L8.8,325.6c38.5,136,180.2,215.2,316.4,176.7
	c136.3-38.4,215.5-179.9,177-315.9C471.1,76.1,370.3,0,255.5,0L255.5,0L255.5,0z M160.7,388.3l-31.5-13c13,27.1,45.5,38.5,72.7,25.5
	c27.1-13,38.6-45.5,25.6-72.5c-12.2-25.5-41.9-37.4-68.4-27.4l32.5,13.4c20.5,8.3,30.5,31.6,22.2,52.1
	c-8.3,20.5-31.6,30.4-52.2,22.2C161.3,388.5,161,388.3,160.7,388.3L160.7,388.3L160.7,388.3z M404.6,189.9
	c0-35.5-28.8-64.3-64.4-64.3c-35.6,0-64.4,28.8-64.5,64.3s28.8,64.3,64.4,64.4c0,0,0,0,0,0C375.7,254.2,404.5,225.4,404.6,189.9z
	 M291.9,189.8c0-26.7,21.7-48.3,48.4-48.3c26.7,0,48.4,21.6,48.4,48.3s-21.7,48.3-48.4,48.3c-26.7,0.1-48.3-21.5-48.4-48.1
	C291.9,189.9,291.9,189.9,291.9,189.8z"/>
</svg>
