<?xml version="1.0" encoding="utf-8"?>
<!-- Generator: Adobe Illustrator 22.0.0, SVG Export Plug-In . SVG Version: 6.00 Build 0)  -->
<svg version="1.1" id="图层_1" xmlns="http://www.w3.org/2000/svg" xmlns:xlink="http://www.w3.org/1999/xlink" x="0px" y="0px"
	 viewBox="0 0 512 512" style="enable-background:new 0 0 512 512;" xml:space="preserve">
<style type="text/css">
	.st0{fill:#FF162A;}
</style>
<path class="st0" d="M256,0c141.4,0,256,114.6,256,256S397.4,512,256,512S0,397.4,0,256S114.6,0,256,0z M402.3,193.6
	c0.1-8.5-3.5-16.7-10-22.2c-11.5-10-29-8.8-39,2.8c-0.2,0.2-0.3,0.4-0.5,0.6L330.4,202c-6.5,8-16.2,12.6-26.4,12.6H208
	c-10.2,0-19.9-4.6-26.4-12.6l-22.5-27.3c-9.7-11.8-27.1-13.5-38.9-3.8c-0.2,0.2-0.4,0.3-0.6,0.5c-6.4,5.6-10.1,13.7-10,22.2v117
	c0,20.4,16.1,36.9,36,36.9h220.5c19.9,0,36-16.5,36-36.9V193.6L402.3,193.6z"/>
</svg>
