<?xml version="1.0" encoding="utf-8"?>
<!-- Generator: Adobe Illustrator 22.0.0, SVG Export Plug-In . SVG Version: 6.00 Build 0)  -->
<svg version="1.1" id="图层_1" xmlns="http://www.w3.org/2000/svg" xmlns:xlink="http://www.w3.org/1999/xlink" x="0px" y="0px"
	 viewBox="0 0 512 512" style="enable-background:new 0 0 512 512;" xml:space="preserve">
<style type="text/css">
	.st0{fill:#FF002B;}
	.st1{fill:#FFFFFF;}
	.st2{fill:#111111;}
</style>
<path class="st0" d="M442.1,0.2H69.4C31.3,0,0.2,30.8,0.1,68.9c0,0.2,0,0.5,0,0.7v371.5c-0.1,38.1,30.8,69,68.9,69.1
	c0.1,0,0.3,0,0.4,0h373.3c38.1,0.2,69.1-30.6,69.3-68.7c0-0.1,0-0.3,0-0.4V69.6c0.2-38.1-30.5-69.2-68.6-69.4
	C443,0.2,442.5,0.2,442.1,0.2z"/>
<path class="st1" d="M463.7,507.3c-6.5,2-13.3,3-20.2,3C450.4,510.2,457.2,509.2,463.7,507.3z"/>
<path class="st2" d="M47.7,506.9c6.9,2,14.1,3,21.3,3C61.8,509.9,54.7,508.8,47.7,506.9z"/>
<path class="st1" d="M467.7,484.8c0-29.9-23.4-54.6-53.3-56.1c-0.8-0.8-1.9-1.2-3-1.1c-1.1-0.2-2.2,0.2-3,1.1h6.5
	c8.5,3.9,15,27.5,15,56.1c-0.1,8.5-0.7,17.1-2,25.5h15.1c6.8,0.1,13.6-0.9,20-3c3.2-7.1,4.7-14.8,4.5-22.5H467.7z"/>
<path class="st2" d="M103.5,428.7c-1.7-1.4-4.2-1.4-6,0H103.5z"/>
<path class="st1" d="M97,428.7c-29.9,1.5-53.4,26.2-53.3,56.1c0.2,7.8,2.1,15.5,5.5,22.5c6.5,2.1,13.2,3.1,20,3h15.1
	c-1.2-8.4-1.8-17-1.9-25.5C82,456.2,88.5,432.7,97,428.7z M408,428.7c-29.9,1.5-53.4,26.2-53.3,56.1c-0.2,8.9,2,17.8,6.5,25.5h34.1
	c-1.2-8.4-1.9-17-2-25.5c0-28.6,6.1-52.1,14.6-56.1H408z M266.7,473.3h-21.3c-6.6,0-8.5,3-5.5,7.5l6.5,8.5c2,3,5.5,7.5,6.5,9.5
	s1.1,1,3.1,1c1.1,0.1,2.1-0.3,3-1c2-2,4.1-6.5,6.5-9.5l5.5-8.5c4.1-4.5,2-7.5-4.5-7.5H266.7z M103.5,428.7
	c8.5,3.9,16.1,27.5,16.1,56.1c-0.1,8.5-0.9,17.1-2.2,25.5h34.2c4.3-7.8,6.5-16.6,6.5-25.5C156.9,454.9,133.3,430.8,103.5,428.7z
	 M463.7,507.3c9.9-3.2,19-8.3,26.9-15c-8,6.3-17,11.4-26.6,15L463.7,507.3z"/>
<path class="st2" d="M23.6,492.3C9,479.3,0.4,460.8,0.1,441.2C0,460.9,8.6,479.6,23.6,492.3L23.6,492.3z M47.7,507.3
	c-9.6-2.8-18.4-8-25.6-15C29.9,498.5,38.5,503.5,47.7,507.3z"/>
<path class="st2" d="M488.8,341.5c-19.5-11.4-40.8,9.6-43.6,14.1c-26.7,30.6-56.3,67.6-109.5,67.6h-160c-53.3,0-81.9-38.1-109.5-68
	c-3.8-4.1-23.5-25.6-43.5-13.7c-18.1,10.7-21.3,44-22.6,66.1v35.1c0,19.6,8.6,38.3,23.6,51c7.6,6.6,16.3,11.7,25.7,15
	c-3.5-7-5.4-14.7-5.5-22.5c0-29.9,23.5-54.6,53.3-56.1c0.8-0.7,1.9-1.1,3-1c1.1-0.1,2.2,0.2,3.1,1c29.8,1.6,53.3,26.2,53.3,56.1
	c0.2,9-2,17.8-6.5,25.6h210.7c-4.3-7.9-6.5-16.7-6.5-25.6c0-29.9,23.5-54.6,53.3-56.1c0.8-0.7,2-1.1,3.1-1c1.1-0.1,2.2,0.2,3,1
	c29.9,1.5,53.3,26.2,53.3,56.1c-0.2,7.8-2.1,15.5-5.5,22.5c9.8-3.2,18.9-8.3,26.7-15c14.4-12.7,22.6-30.9,22.6-50v-35.5
	c0-23-3.5-56.1-21.3-66.5L488.8,341.5z M271.8,480.8l-5.4,7.6c-2.7,2.8-4.9,6-6.6,9.5c-0.9,1.2-2.4,2-3.9,2c-1.1,0-2.2-0.3-3.1-1.1
	c-1.9-2-3.9-6.5-6.5-9.5l-6.5-8.5c-3-3.9,0-7.5,5.5-7.5h21.3c6.5,0,8.5,3,5.4,7.5H271.8z"/>
<path class="st2" d="M414.5,428.7H408c-8.5,3.9-15,27.5-15,56.1c0,8.5,0.6,17,1.7,25.5h33.2c1.3-8.4,2-17,2-25.5
	c0-28.6-7-52.1-15.6-56.1H414.5z M103.5,428.7H97c-8.5,3.9-16.1,27.5-16.1,56.1c0.1,8.5,0.8,17,2,25.5h33.2c1.3-8.4,2-17,2-25.5
	C118.1,456.2,112,432.7,103.5,428.7z"/>
<path class="st1" d="M170.7,176.8h73.4v-19.1h-75.7v-40.2h68.4V97.2H80.9v19.1h68.5v40.5H73.4v19h73.3
	c-7.5,28.6-30.6,53.3-73.3,77.6l9.5,17.1c26.7-15,59.8-37.1,76.9-71.1c4.4,9.3,10.2,17.9,17.1,25.6c17.2,18.4,37.5,33.8,59.8,45.5
	l9.5-17.1c-44.7-23.5-68.4-48-75.8-76.6L170.7,176.8z M340.5,143.8h19.1v-15.6h41.7v16h19.1v-16h19.1v-19.5H420V97.2h-19.1v12.6
	h-41.7V97.2h-19.1v12.6H322v19h18.1L340.5,143.8z M301.4,106.9c-10.4-8.3-23.9-11.8-37.1-9.6h-2v19.1h3c8.1-0.7,16.2,0.7,23.7,3.9
	c2.3,2.6,3.4,6,3,9.5v6.5l-29.6,18l9.5,17.1l20.2-11.2v21.3l-29.6,18l9.6,17.1l20-11.5v16c-0.2,5.5-2.1,10.8-5.5,15
	c-7.1,7.9-15.4,14.7-24.6,20l9.6,17.1c11.4-6.1,21.5-14.5,29.6-24.6c5.9-8,9.2-17.6,9.5-27.5v-89.8c-0.1-9-3.3-17.7-9.1-24.5
	L301.4,106.9z M321.6,156.9V244c-0.2,15.6,12.3,28.4,27.9,28.6c0.2,0,0.4,0,0.6,0H410c15.6,0.2,28.4-12.3,28.6-27.9
	c0-0.2,0-0.4,0-0.6v-87.2L321.6,156.9z M370.7,252.9h-20c-5.1,0.2-9.4-3.8-9.6-8.9c0-0.2,0-0.4,0-0.5v-19.2h29.6V252.9z
	 M370.7,204.8h-29.4v-28.9H371L370.7,204.8z M420,244.3c0.2,5.1-3.8,9.3-8.8,9.5c-0.2,0-0.4,0-0.7,0h-20.2v-29.6H420V244.3z
	 M420,204.8h-29.6v-28.9H420V204.8z"/>
</svg>
