<?xml version="1.0" encoding="utf-8"?>
<!-- Generator: Adobe Illustrator 22.0.0, SVG Export Plug-In . SVG Version: 6.00 Build 0)  -->
<svg version="1.1" id="mnemonic" xmlns="http://www.w3.org/2000/svg" xmlns:xlink="http://www.w3.org/1999/xlink" x="0px" y="0px"
	 viewBox="0 0 480 468" style="enable-background:new 0 0 480 468;" xml:space="preserve">
<style type="text/css">
	.st0{fill:#3CF2A6;}
	.st1{fill:#00261A;}
	.st2{fill:#D4FCEF;}
</style>
<path class="st0" d="M395,468H85c-47,0-85-38-85-85V85C0,38,38,0,85,0h310c47,0,85,38,85,85v298C480,430,442,468,395,468z"/>
<path class="st1" d="M387.4,448H92.6c-40,0-72.6-32.6-72.6-72.8V92.8C20,52.6,52.6,20,92.6,20h294.6c40.2,0,72.6,32.6,72.6,72.6
	v282.6C460,415.4,427.4,448,387.4,448z"/>
<g>
	<path class="st2" d="M84.4,108.2c0-1.6,0.4-2.4,2.4-2.6c7.6-0.4,29.6-1,52.2-1c67.4,0,101,43.6,101,107.4
		c0,88.8-58.2,115.6-103,115.6c-17,0-41.6-0.4-50.6-0.6c-1.4,0-2-1-2-2.6V108.2z M121,295c5.6,0.4,10.2,0.6,16.6,0.6
		c37.2,0,64.8-26.2,65.2-82.8c0.4-55.2-28.2-76.4-63.8-76.4c-7,0-12.2,0.4-18,0.6V295z"/>
	<path class="st2" d="M272.4,196.6c0-2,0-9-1-20.6c0-1.4,0.4-1.6,1.6-2.4c17-6.4,39.8-13.2,62.8-13.2c28.2,0,59.8,11,59.8,59.6
		v104.4c0,2-0.6,2.6-2.4,2.6h-31.6c-2,0-2.6-1-2.6-2.6V222.6c0-19.2-8-30-27.8-30c-8.6,0-16.2,1.6-22.2,3.6v128.4
		c0,1.4-0.6,2.4-2,2.4h-32.2c-1.6,0-2.4-0.6-2.4-2.4L272.4,196.6L272.4,196.6z"/>
</g>
</svg>
