<?xml version="1.0" encoding="utf-8"?>
<!-- Generator: Adobe Illustrator 22.0.0, SVG Export Plug-In . SVG Version: 6.00 Build 0)  -->
<svg version="1.1" id="mnemonic" xmlns="http://www.w3.org/2000/svg" xmlns:xlink="http://www.w3.org/1999/xlink" x="0px" y="0px"
	 viewBox="0 0 480 468" style="enable-background:new 0 0 480 468;" xml:space="preserve">
<style type="text/css">
	.st0{fill:url(#SVGID_1_);}
	.st1{fill:#EE3D8F;}
</style>
<radialGradient id="SVGID_1_" cx="217.83" cy="271.71" r="143.43" gradientTransform="matrix(2 0 0 -2 -240 706)" gradientUnits="userSpaceOnUse">
	<stop  offset="0" style="stop-color:#320008;stop-opacity:0.85"/>
	<stop  offset="0.77" style="stop-color:#320008"/>
</radialGradient>
<rect x="20.2" y="20" class="st0" width="440" height="428"/>
<path class="st1" d="M0,0v468h480V0H0z M20,20h440v428H20V20z"/>
<path class="st1" d="M175.5,324.4c0,2-0.3,2.6-2.6,2.6h-30.7c-2,0-2.6-1-2.6-2.6V109.6c0-2,1-2.6,2.6-2.6h31.1
	c1.6,0,2.3,0.7,2.3,2.3V324.4z M210.9,246.9c0-47.8,31.6-85.1,82-85.1c4.3,0,6.6,0,10.6,0.3V109c0-1.1,0.9-2,2-2H338
	c1.6,0,2,0.7,2,1.7v187.1c-0.1,6.7,0.2,13.5,1,20.1c0,1.3-0.4,1.6-1.7,2.3c-16.4,7.8-34.3,11.9-52.5,11.8
	C242.6,330,210.9,302.7,210.9,246.9z M303.5,194.4c-3.8-1.5-7.8-2.2-11.9-2c-25.7,0-43.8,19.8-43.8,52.8c0,37.6,18.4,52.8,41.5,52.8
	c4.8,0.1,9.7-0.7,14.2-2.3V194.4z"/>
</svg>
