<?xml version="1.0" encoding="utf-8"?>
<!-- Generator: Adobe Illustrator 22.0.0, SVG Export Plug-In . SVG Version: 6.00 Build 0)  -->
<svg version="1.1" id="ps_x5F_cc_x5F_app_x5F_RGB.svg"
	 xmlns="http://www.w3.org/2000/svg" xmlns:xlink="http://www.w3.org/1999/xlink" x="0px" y="0px" viewBox="0 0 480 468"
	 style="enable-background:new 0 0 480 468;" xml:space="preserve">
<style type="text/css">
	.st0{fill:#FF26BE;}
	.st1{fill:#2E001F;}
	.st2{fill:#FFD9F2;}
</style>
<g>
	<path class="st0" d="M395,468H85c-47,0-85-38-85-85V85C0,38,38,0,85,0h310c47,0,85,38,85,85v298C480,430,442,468,395,468z"/>
	<path class="st1" d="M387.4,448H92.6c-40,0-72.6-32.6-72.6-72.6V92.6C20,52.6,52.6,20,92.6,20h294.6c40.2,0,72.6,32.6,72.6,72.6
		v282.6C460,415.4,427.4,448,387.4,448z"/>
	<g>
		<path class="st2" d="M189.8,219l56,107.6c1,1.6,0.4,3.2-1.2,3.2h-34.8c-2.2,0-3.2-0.6-4.2-2.6c-12.8-26.4-25.8-52.8-39.2-81.2H166
			c-12,26.8-25.2,55-38,81.4c-1,1.6-2,2.2-3.6,2.2h-33c-2,0-2.2-1.6-1.2-2.8L145,222.4L92,116.8c-1.2-1.6,0-2.8,1.2-2.8h34.4
			c2,0,2.8,0.4,3.6,2.2c12.6,26.4,25.4,53.6,37.4,80.2h0.4c11.6-26.4,24.4-53.8,36.8-80c1-1.6,1.6-2.6,3.6-2.6h32.2
			c1.6,0,2.2,1.2,1.2,2.8L189.8,219z"/>
		<path class="st2" d="M255.6,251.6c0-46.6,31-83,80.2-83c4.2,0,6.4,0,10.4,0.4v-53c0-1.2,1-2,2-2h31.6c1.6,0,2,0.6,2,1.6v183.6
			c0,5.4,0,12.2,1,19.6c0,1.2-0.4,1.6-1.6,2.2c-16.8,8-34.4,11.6-51.2,11.6C286.6,332.8,255.6,306,255.6,251.6z M346.2,200.4
			c-2.8-1.2-6.8-2-11.6-2c-25.2,0-42.8,19.4-42.8,51.6c0,36.8,18,51.6,40.6,51.6c4.8,0,10-0.6,13.8-2.2V200.4z"/>
	</g>
</g>
</svg>
