<?xml version="1.0" encoding="utf-8"?>
<!-- Generator: Adobe Illustrator 22.0.0, SVG Export Plug-In . SVG Version: 6.00 Build 0)  -->
<svg version="1.1" id="dw_x5F_cc_x5F_app_x5F_RGB.svg"
	 xmlns="http://www.w3.org/2000/svg" xmlns:xlink="http://www.w3.org/1999/xlink" x="0px" y="0px" viewBox="0 0 480 468"
	 style="enable-background:new 0 0 480 468;" xml:space="preserve">
<style type="text/css">
	.st0{fill:#072600;}
	.st1{fill:#35FA00;}
</style>
<g>
	<rect x="20" y="20" class="st0" width="440" height="428"/>
</g>
<g>
	<path class="st1" d="M0,0v468h480V0H0z M20,20h440v428H20V20z"/>
</g>
<path class="st1" d="M62.5,110.2c0-1.7,0.3-2.3,2.3-2.6c7.6-0.3,29.4-1,51.8-1c67,0,100.3,43.2,100.3,106.6
	c0,88.1-57.7,114.8-102.3,114.8c-16.8,0-41.3-0.3-50.2-0.7c-1.3,0-2-1-2-2.6C62.5,324.7,62.5,110.2,62.5,110.2z M98.5,295.6
	c5.6,0.3,10.6,0.7,16.8,0.7c37,0,64.3-26.1,64.7-82.2c0.3-54.8-28-75.9-63.3-75.9c-6.9,0-12.5,0.3-18.1,0.7V295.6z M352.3,327
	c-2.3,0-3-0.9-3.3-2.9c-9.9-55.1-18.1-94.1-21.8-121.1h-0.3c-4.3,24.4-12.2,65-25.4,121.5c-0.7,2-1.3,2.5-3,2.5h-32.3
	c-2.3,0-3-0.3-3.6-2.3l-35.3-157.6c-0.3-1.3,0.3-2.6,2.3-2.6h32.3c1.3,0,2.3,0.5,2.6,1.8c12.5,70.9,17.8,107.7,19.8,122.2h1.3
	c2.3-17.2,9.2-52.9,24.1-121.6c0.7-2,0.7-2.4,2.6-2.4h34c1.6,0,2,0.8,2.3,2.4c11.5,65,19.1,106.1,21.1,122.6h1
	c3.3-21.1,7.6-49.6,21.8-122.9c0.3-1.3,0.7-2.1,2.3-2.1h30.4c1.3,0,2.3,0.7,1.6,2.3l-39.3,157.9c-0.3,1.7-0.7,2.3-3,2.3L352.3,327
	L352.3,327z"/>
</svg>
