<?xml version="1.0" encoding="utf-8"?>
<!-- Generator: Adobe Illustrator 22.0.0, SVG Export Plug-In . SVG Version: 6.00 Build 0)  -->
<svg version="1.1" id="ae_x5F_cc_x5F_app_x5F_RGB.svg"
	 xmlns="http://www.w3.org/2000/svg" xmlns:xlink="http://www.w3.org/1999/xlink" x="0px" y="0px" viewBox="0 0 480 468"
	 style="enable-background:new 0 0 480 468;" xml:space="preserve">
<style type="text/css">
	.st0{fill:#1F0040;}
	.st1{fill:#D291FF;}
</style>
<g>
	<rect x="20" y="20" class="st0" width="440" height="428"/>
</g>
<g>
	<path class="st1" d="M0,0v468h480V0H0z M20,20h440v428H20V20z"/>
</g>
<path class="st1" d="M135.7,265l-15.8,59.7c-0.3,1.6-1,2.3-3,2.3H87.5c-2,0-2.3-0.7-2-3l56.8-198.7c1-3.6,1.7-6.5,2-16.4
	c0-1.3,0.7-2,1.7-2h41.9c1.3,0,2,0.3,2.3,2l63.7,215.4c0.3,1.7,0,2.6-1.7,2.6h-33c-1.6,0-2.6-0.6-3-1.9L199.7,265L135.7,265
	L135.7,265z M191.8,232.5c-5.6-22.1-19.2-70.6-24.1-94h-0.3c-4.3,23.4-15.1,63-23.4,94L191.8,232.5z M299,253
	c0.3,27.1,13.2,45.2,43.6,45.2c11.9,0,22.1-1.6,32.6-6.2c1.3-0.7,2.3-0.3,2.3,1.3v25.1c0,2-0.7,3-2,4c-10.6,5.3-23.7,7.6-40.2,7.6
	c-52.8,0-72.6-38.9-72.6-82.5c0-47.2,24.4-85.8,67.3-85.8c43.6,0,58.7,36.6,58.7,66.3c0,9.6-0.7,17.5-1.6,21.1
	c-0.3,1.6-1,2.2-2.6,2.6c-4,0.7-15.8,1.3-33.3,1.3L299,253L299,253z M339.6,225.5c10.2,0,13.9,0,14.9-0.3c0-1.3,0.3-2.5,0.3-3.4
	c0-10.9-5.3-30.9-26.1-30.9c-19.1,0-27.4,16.8-29.4,34.6C299.3,225.5,339.6,225.5,339.6,225.5z"/>
</svg>
