<?xml version="1.0" encoding="utf-8"?>
<!-- Generator: Adobe Illustrator 22.0.0, SVG Export Plug-In . SVG Version: 6.00 Build 0)  -->
<svg version="1.1" id="mnemonic" xmlns="http://www.w3.org/2000/svg" xmlns:xlink="http://www.w3.org/1999/xlink" x="0px" y="0px"
	 viewBox="0 0 480 468" style="enable-background:new 0 0 480 468;" xml:space="preserve">
<style type="text/css">
	.st0{fill:#3DF0F0;}
	.st1{fill:#022326;}
	.st2{fill:#CCFBFF;}
</style>
<path class="st0" d="M395,468H85c-47,0-85-38-85-85V85C0,38,38,0,85,0h310c47,0,85,38,85,85v298C480,430,442,468,395,468z"/>
<path class="st1" d="M387.4,448H92.6c-40,0-72.6-32.6-72.6-72.8V92.8C20,52.6,52.6,20,92.6,20h294.6c40.2,0,72.6,32.6,72.6,72.6
	v282.6C460,415.4,427.4,448,387.4,448z"/>
<path class="st2" d="M133,326.6c-2.4,0-3-1-3-3v-215c0-1.6,0.6-2.6,2.4-2.6H164c1.6,0,2,0.6,2,2.4v185.2h82.4c1.6,0,2.2,0.6,1.8,2.4
	l-5,28.4c-0.4,1.6-1.4,2.4-3,2.4H133V326.6z M283,197c0-2.4,0-8.2-1-19.4c0-1.6,0.4-2,1.6-2.6c12.2-5,41.2-13.8,73.6-13.8
	c1.6,0,2.4,0.4,2.4,2V192c0,1.6-0.6,2-2.4,2c-12.6-0.6-31.2,1-38.2,4v126.2c0,1.6-0.6,2.4-2.4,2.4h-31.4c-1.6,0-2.4-0.6-2.4-2.4V197
	H283z"/>
</svg>
