<?xml version="1.0" encoding="utf-8"?>
<!-- Generator: Adobe Illustrator 22.0.0, SVG Export Plug-In . SVG Version: 6.00 Build 0)  -->
<svg version="1.1" id="pr_x5F_cc_x5F_app_x5F_RGB.svg"
	 xmlns="http://www.w3.org/2000/svg" xmlns:xlink="http://www.w3.org/1999/xlink" x="0px" y="0px" viewBox="0 0 480 468"
	 style="enable-background:new 0 0 480 468;" xml:space="preserve">
<style type="text/css">
	.st0{fill:#26C9FF;}
	.st1{fill:#061E26;}
	.st2{fill:#D9F5FF;}
</style>
<g>
	<path class="st0" d="M395,468H85c-47,0-85-38-85-85V85C0,38,38,0,85,0h310c47,0,85,38,85,85v298C480,430,442,468,395,468z"/>
	<path class="st1" d="M387.4,448H92.6c-40,0-72.6-32.6-72.6-72.6V92.6C20,52.6,52.6,20,92.6,20h294.6c40.2,0,72.6,32.6,72.6,72.6
		v282.6C460,415.4,427.4,448,387.4,448z"/>
	<path class="st2" d="M118,117.2c0-1.2,0.4-2.2,2-2.2c12.6-0.6,30.6-1,50-1c54,0,77.6,29.6,77.6,67.6c0,49.6-36.4,70.8-80.4,70.8
		c-7.4,0-10-0.4-15.2-0.4v76c0,1.6-0.6,2.2-2.2,2.2h-29.6c-1.6,0-2.2-0.6-2.2-2.2V117.2z M152,220.8c4.4,0.4,8,0.4,15.8,0.4
		c22.8,0,44.6-8,44.6-39c0-24.8-15.6-37.4-41.8-37.4c-7.8,0-15.2,0.4-18.6,0.6C152,145.4,152,220.8,152,220.8z M326.4,197.6
		c-15.4,0-20.6,7.8-20.6,14.2c0,7,3.6,12,24.2,22.6c30.6,14.8,40.2,29,40.2,50c0,31.2-23.8,48-56,48c-17,0-32.2-3.6-40.6-8.4
		c-1.2-0.6-1.6-1.6-1.6-3.2V292c0-2,1-2.6,2.2-1.6c12.2,8,27.2,11.6,40,11.6c15.4,0,21.8-6.4,21.8-15.2c0-7-4.4-13.2-24.2-23.6
		C284,250,272.6,236.4,272.6,214c0-25.2,19.6-46,53.8-46c16.8,0,29.2,2.6,35.6,5.4c1.6,1,2,2.6,2,3.8V204c0,1.6-1,2.6-2.8,2
		C352.4,200.8,339,197.6,326.4,197.6z"/>
</g>
</svg>
