<?xml version="1.0" encoding="utf-8"?>
<!-- Generator: Adobe Illustrator 22.0.0, SVG Export Plug-In . SVG Version: 6.00 Build 0)  -->
<svg version="1.1" id="图层_1" xmlns="http://www.w3.org/2000/svg" xmlns:xlink="http://www.w3.org/1999/xlink" x="0px" y="0px"
	 viewBox="0 0 480 468" style="enable-background:new 0 0 480 468;" xml:space="preserve">
<style type="text/css">
	.st0{fill:#262002;}
	.st1{fill:#FFD70D;}
	.st2{fill:#FFF7CC;}
</style>
<path class="st0" d="M105.6,15.2h270c49.2,0,90,39.8,90,87.8v263.3c0,48-40.8,87.8-90,87.8h-270c-49.2,0-90-39.8-90-87.8V103
	C15.6,55,56.4,15.2,105.6,15.2z"/>
<path class="st1" d="M384,468H96c-52.8,0-96-42.1-96-93.6V93.6C0,42.1,43.2,0,96,0h288c52.8,0,96,42.1,96,93.6v280.8
	C480,425.9,436.8,468,384,468z M96,23.4c-39.6,0-72,31.6-72,70.2v280.8c0,38.6,32.4,70.2,72,70.2h288c39.6,0,72-31.6,72-70.2V93.6
	c0-38.6-32.4-70.2-72-70.2H96z"/>
<path class="st2" d="M104.4,308.9c-1.2-1.2-2.4-2.3-2.4-4.7v-30.4c0-1.2,1.2-2.3,2.4-1.2c14.4,9.4,31.2,14,48,14
	c24,0,33.6-11.7,33.6-25.7c0-11.7-6-22.2-28.8-35.1l-12-5.9c-33.6-18.7-43.2-37.4-43.2-60.8c0-32.8,22.8-58.5,67.2-58.5
	c19.2,0,34.8,3.5,43.2,7c1.2,1.2,2.4,1.2,2.4,3.5v29.2c0,1.2-1.2,2.3-2.4,1.2c-9.6-5.9-26.4-9.4-42-9.4c-25.2,0-33.6,14-33.6,24.6
	c0,11.7,6,21.1,28.8,32.8l10.8,5.8c37.2,19.9,46.8,39.8,46.8,63.2c0,35.1-26.4,59.7-69.6,59.7C133.2,319.4,116.4,315.9,104.4,308.9z
	 M378,232.8c0,57.3-40.8,85.4-82.8,85.4c-2.4,0-6,0-8.4-1.2v43.3c0,1.2-1.2,2.3-2.4,2.3l-30,2.3c-2.4,0-2.4,0-2.4-2.3V186
	c0-3.5,0-12.9-1.2-17.6c0,0-1.2-1.2,0-1.2c13.2-4.7,32.4-10.5,56.4-10.5C352.8,156.8,378,189.5,378,232.8z M286.8,189.5v98.3
	c2.4,1.2,7.2,1.2,10.8,1.2c21.6,0,44.4-15.2,44.4-53.8c0-31.6-14.4-48-38.4-48C296.4,187.2,291.6,188.4,286.8,189.5z"/>
</svg>
