<?xml version="1.0" encoding="utf-8"?>
<!-- Generator: Adobe Illustrator 22.0.0, SVG Export Plug-In . SVG Version: 6.00 Build 0)  -->
<svg version="1.1" id="Capa_1" xmlns="http://www.w3.org/2000/svg" xmlns:xlink="http://www.w3.org/1999/xlink" x="0px" y="0px"
	 viewBox="0 0 480 468" style="enable-background:new 0 0 480 468;" xml:space="preserve">
<style type="text/css">
	.st0{fill:#261300;}
	.st1{fill:#FF7C00;}
</style>
<g>
	<path class="st0" d="M20,20h440v428H20V20z"/>
	<path class="st1" d="M0,0v468h480V0H0z M20,20h440v428H20V20z"/>
	<path class="st1" d="M166.6,265l-15.8,60c-0.4,1.6-1,2-3,2h-29.4c-2,0-2.4-0.6-2-3l56.8-198.8c1-3.6,1.6-6.8,2-16.6
		c0-1.4,0.6-2,1.6-2h42c1.4,0,2,0.4,2.4,2l63.6,215.8c0.4,1.6,0,2.6-1.6,2.6H250c-1.6,0-2.6-0.4-3-1.8L230.4,265H166.6L166.6,265z
		 M222.2,232.6c-5.6-22.2-18.8-70.6-23.8-94H198c-4.2,23.4-14.8,63-23.2,94H222.2z M312.2,121.4c0-12.8,9-20.4,20.4-20.4
		c12.2,0,20.4,8.2,20.4,20.4c0,13.2-8.6,20.4-20.8,20.4C320.6,141.8,312.2,134.6,312.2,121.4L312.2,121.4z M314.6,166.8
		c0-1.6,0.6-2.4,2.4-2.4h31.4c1.6,0,2.4,0.6,2.4,2.4v157.8c0,1.6-0.4,2.4-2.4,2.4h-31c-2,0-2.6-1-2.6-2.6L314.6,166.8L314.6,166.8z"
		/>
</g>
</svg>
