<?xml version="1.0" encoding="utf-8"?>
<!-- Generator: Adobe Illustrator 22.0.0, SVG Export Plug-In . SVG Version: 6.00 Build 0)  -->
<svg version="1.1" id="图层_1" xmlns="http://www.w3.org/2000/svg" xmlns:xlink="http://www.w3.org/1999/xlink" x="0px" y="0px"
	 viewBox="0 0 480 468" style="enable-background:new 0 0 480 468;" xml:space="preserve">
<style type="text/css">
	.st0{fill:#E788FF;}
	.st1{fill:#1F082B;}
</style>
<g id="_x23_ffffffff">
</g>
<g id="_x23_e788ffff">
	<path class="st0" d="M0,0c160,0,320,0,480,0c0,156,0,312,0,468c-160,0-320,0-480,0C0,311.9,0,156,0,0 M20.5,20.3
		c0.1,142.5,0,285.1,0,427.6c146.4,0,292.8-0.1,439.2,0.1c0.1-142.5,0-285.2,0.1-427.7C313.4,20.4,167,20.4,20.5,20.3z"/>
	<path class="st0" d="M125.3,107.4c18.8-1,37.7-1.2,56.5-1.1c18.8,0.6,38.4,4.7,53.2,16.9c15.1,12.1,22.7,31.9,22.5,50.9
		c0.7,18.1-4.5,37.1-17.1,50.6c-13,14-32,20.8-50.7,22.7c-9.8,1-19.7,0.9-29.5,0.2c0,25.1,0,50.1,0,75.3c-0.1,1.3,0.3,3.8-1.7,4
		c-10.2,0.2-20.4,0-30.4,0.1c-1.2,0.1-3.5-0.1-3.1-1.9c-0.1-71.3-0.4-142.5-0.2-213.8C124.8,110.1,125,108.7,125.3,107.4
		 M160.3,138.6c0,25.7,0,51.6,0,77.3c13.9,0.3,28.4,1.5,41.4-4.3c7.9-3.4,14.4-10.2,17.3-18.3c3-8.6,3.2-18.1,1.8-27.1
		c-1.8-10.5-9.1-20-19-24.1C188.6,136.4,174,138.6,160.3,138.6z"/>
	<path class="st0" d="M290.8,174.8c23.2-8.5,47.9-13,72.6-13c1.1,5.9,0.2,12,0.6,17.9c-0.2,5,0.6,10.2-0.6,15.2
		c-13.2-0.7-26.6-0.1-39.4,3.8c0.2,42.6-0.1,85.3-0.1,127.9c-4,0.9-8.2,0.3-12.3,0.4c-7.4-0.1-14.7,0.2-21.9-0.1
		c-2.1-0.2-1.6-2.5-1.7-4c0-42.9,0-85.7-0.1-128.6c0.1-5.6-0.4-11.3-0.7-16.9C287.1,175.7,289.5,175.5,290.8,174.8z"/>
</g>
<g id="_x23_1f082bff">
	<path class="st1" d="M20.5,20.3c146.4,0.1,292.8,0.1,439.2,0c-0.1,142.5,0.1,285.2-0.1,427.7c-146.4-0.2-292.8-0.1-439.2-0.1
		C20.5,305.3,20.6,162.8,20.5,20.3 M125.3,107.4c-0.2,1.3-0.4,2.6-0.6,3.9c-0.2,71.3,0.1,142.5,0.2,213.8c-0.3,1.8,1.9,2,3.1,1.9
		c10.2-0.1,20.2,0.1,30.4-0.1c2-0.2,1.6-2.6,1.7-4c-0.1-25.1,0-50.1,0-75.3c9.8,0.7,19.7,0.8,29.5-0.2c18.7-1.9,37.6-8.7,50.7-22.7
		c12.6-13.5,17.8-32.4,17.1-50.6c0.2-19.1-7.3-38.8-22.5-50.9c-14.9-12.2-34.4-16.3-53.2-16.9C162.9,106.3,144.2,106.5,125.3,107.4
		 M290.8,174.8c-1.2,0.8-3.7,0.9-3.6,2.8c0.1,5.6,0.8,11.2,0.7,16.9c0,42.9,0.1,85.7,0.1,128.6c0.1,1.6-0.4,3.8,1.7,4
		c7.3,0.2,14.7,0,21.9,0.1c4-0.1,8.3,0.4,12.3-0.4c-0.1-42.6,0.2-85.3,0.1-127.9c12.7-3.8,26.2-4.4,39.4-3.8
		c1.1-4.9,0.3-10.2,0.6-15.2c-0.2-5.9,0.6-12.1-0.6-17.9C338.6,161.8,313.9,166.1,290.8,174.8z"/>
	<path class="st1" d="M160.3,138.6c13.9,0.1,28.4-2.2,41.4,3.6c10,4,17.2,13.5,19,24.1c1.5,9,1.3,18.5-1.8,27.1
		c-2.9,8.2-9.4,15-17.3,18.3c-13,5.7-27.5,4.6-41.4,4.3C160.3,190.1,160.1,164.4,160.3,138.6z"/>
</g>
</svg>
