<?xml version="1.0" encoding="utf-8"?>
<!-- Generator: Adobe Illustrator 22.0.0, SVG Export Plug-In . SVG Version: 6.00 Build 0)  -->
<svg version="1.1" id="图层_1" xmlns="http://www.w3.org/2000/svg" xmlns:xlink="http://www.w3.org/1999/xlink" x="0px" y="0px"
	 viewBox="0 0 2500 2000" style="enable-background:new 0 0 2500 2000;" xml:space="preserve">
<style type="text/css">
	.st0{fill:#CF4037;}
	.st1{fill:#FFFFFF;}
</style>
<path class="st0" d="M2246.7,1461.6v5.9h-14v39.9h-6.9v-39.9h-14v-5.9H2246.7z M2291,1507.5c0,0-2.1-31.2-2-40h-0.4
	c-2.5,9-13.4,39.4-13.4,39.4h-5.3c0,0-10.5-30.7-12.7-39.4h-0.3c0,8.2-2,40-2,40h-6.7l3.5-45.8h9.1l9,24.8c1.2,3.4,2,7.2,3.2,11.5
	h0.2c0.9-3.9,1.9-7.8,3.2-11.6l9-24.7h8.9l3.4,45.8L2291,1507.5L2291,1507.5z"/>
<path d="M71.1,1013.3l-21.4,100.3H0.2l81.7-363.1h58.8l77.3,363.1h-50.2l-21.1-100.3H71.1z M140.8,972.9L124,886.1
	c-4.7-24.5-9.6-56.6-13.7-82.7h-1.6c-4.2,27.8-8.9,55.4-14.2,83l-17.1,86.6H140.8z M412,740.8v305.3c0,20,1.4,49.3,2.2,67.5h-43.9
	l-3.2-31.7h-1.6c-8.8,18.6-28.3,36-54.7,36c-48.1,0-77.9-52.5-77.9-134.3c0-92.2,39.2-135.9,80.6-135.9c20.7,0,37.4,9.7,46.6,29.4
	h1.1V740.8H412z M361.1,951.8c0-5.2,0-11.1-0.8-16.6c-2.4-23.5-15.9-44.1-34.1-44.1c-31.2,0-42.2,44-42.2,92.9
	c0,53.5,14.1,91.4,40.4,91.4c11.6,0,26.8-6,34.9-37.1c1.4-5.5,2-11.3,1.8-17V951.8z M532.9,1117.9c-52.1,0-90.1-45-90.1-134.6
	c0-94.9,45-135.6,92.4-135.6c51.6,0,89,46.5,89,134.6c0,103.9-51.5,135.6-90.8,135.6L532.9,1117.9L532.9,1117.9L532.9,1117.9z
	 M534.3,1078.1c31.4,0,38.2-55.4,38.2-95.5c0-38.8-6.8-94.9-39.3-94.9c-33.1,0-39.7,56.1-39.7,94.9c0,43.8,7.6,95.5,40.3,95.5
	L534.3,1078.1L534.3,1078.1z M654.9,740.8h50.9v140.6h1c13.3-23.7,31.8-33.7,55-33.7c44.2,0,72.5,50.3,72.5,130.8
	c0,93.6-38.1,139.4-81.4,139.4c-25.7,0-40.2-13.7-51.7-37.4h-1.6l-3.2,33h-43.6c0.8-17.6,2.2-47.6,2.2-67.5L654.9,740.8L654.9,740.8
	z M705.8,1020.9c0,6.1,0.7,12.1,2,16.4c8.3,31.9,23.5,38.2,34,38.2c30.1,0,41.3-39.9,41.3-93.6c0-50.1-11.7-90.7-41.8-90.7
	c-16.5,0-30.2,19.8-33.7,39.1c-1.1,5.7-1.7,11.5-1.8,17.4V1020.9L705.8,1020.9z M1736.3,1117.9c-52.2,0-90.1-45-90.1-134.6
	c0-94.9,45-135.6,92.4-135.6c51.6,0,89.1,46.5,89.1,134.6c0,103.9-51.5,135.6-90.8,135.6L1736.3,1117.9L1736.3,1117.9L1736.3,1117.9
	z M1737.6,1078.1c31.4,0,38.2-55.4,38.2-95.5c0-38.8-6.8-94.9-39.3-94.9c-33.1,0-39.7,56.1-39.7,94.9c0,43.8,7.5,95.5,40.2,95.5
	L1737.6,1078.1L1737.6,1078.1z M1858.2,740.8h50.9v140.6h1.1c13.2-23.7,31.8-33.7,55-33.7c44.2,0,72.5,50.3,72.5,130.8
	c0,93.6-38.1,139.4-81.4,139.4c-25.8,0-40.2-13.7-51.7-37.4h-1.6l-3.1,33h-43.7c0.8-17.6,2.1-47.6,2.1-67.5L1858.2,740.8
	L1858.2,740.8z M1909.1,1020.9c0,6.1,0.8,12.1,2.1,16.4c8.4,31.9,23.5,38.2,33.9,38.2c30.2,0,41.3-39.9,41.3-93.6
	c0-50.1-11.7-90.7-41.8-90.7c-16.5,0-30.2,19.8-33.7,39.1c-1.1,5.7-1.7,11.5-1.8,17.4L1909.1,1020.9L1909.1,1020.9z M2219.6,1054.1
	c0,20.1,0.5,42.3,3.1,59.4h-46l-3.1-27h-1.3c-12.5,20.1-31.4,31.3-54.2,31.3c-36.6,0-64.4-30.7-64.4-76.4
	c0-66.5,55.1-95.1,114.4-95.6v-7.5c0-30.5-10-51.6-40.3-51.6c-17.6,0-33.1,5.4-46.6,14.1l-10.2-35.2c12.1-8.1,38.2-18.1,67.9-18.1
	c61.5,0,80.8,41.5,80.8,98.4L2219.6,1054.1L2219.6,1054.1z M2169.2,980.9c-21.9,0.3-66.4,5.6-66.4,55.6c0,31.3,16.4,42.6,29.8,42.6
	c15.9,0,30.4-11.3,35.3-33.5c1.1-4.5,1.3-9.3,1.3-14L2169.2,980.9L2169.2,980.9z M2323,788.5V852h50.5v37.7H2323v143.5
	c0,32.9,12.4,41.3,27,41.3c6.7,0,12.1-0.6,17.3-1.6l1.5,39.7c-8.1,2.6-19.7,4.2-34.9,4.2c-17.7,0-33.4-4.5-44.2-16
	c-11.8-12.5-17.8-30.9-17.8-68.8V889.7h-31.6V852h31.6v-45.1L2323,788.5L2323,788.5z"/>
<path class="st0" d="M2253.9,1336.5c14.6,10.7,21.2,22.5,20.4,36.2l18.7,4.8c16.8-35.7,12.2-68.2-13.5-93.9
	c-67.1-67.5-283.7-84.7-551.9-54.1c-60.5-34.1-118.4-72.8-173-115.8h-26.2l0.1-22.3c-43.1-39.3-82.3-86.5-117.7-138.8
	c-1.9,10-3,20.6-3,31.6c0,56.4,22.3,90.7,58.5,90.7c10.9,0,20.1-2.2,28.8-6.6l5.7,39.7c-8.5,4.7-24.8,9-43.8,9
	c-8.1,0-15.9-1-23.3-2.6c48.6,51.6,102.7,94.8,161.7,133.6c-220.3,35.9-462.4,100.7-680,193.2c42-74,82.6-148.8,121.7-224.4
	c52.9-101.8,93.7-193.2,125.9-277.1l42.5-188.9h58.8l40.3,189.4c17.4,29.6,36.1,57.9,55.8,85.1c-2.6-13.3-3.9-26.8-3.9-40.3
	c0-32.5,7.5-61.7,21-84.7c-50.9-85.7-92.5-181.7-124.3-277.9c24.2-136.5,26.2-255.5,28.3-377.4l1.1-59.6l-19.5-2.2l-13.7,83.1
	c-8.1,54.1-18.8,124.4-37.5,210c-38.9-166.8-46.4-317.6-20.2-394.6c4.8-14.2,14.7-29,20.9-36.5c20,11.9,48.8,39.2,55.6,104.2
	l19.5,0.8c10.3-54.5,6.5-93.2-11.7-114.8c-17-20.3-41.6-20.2-52-20.1c-1.6,0-41-0.3-41-0.3c-27.7,0-50.3,22.5-60.3,60.2
	c-34.3,127.9-17,343.8,49.3,559.2c-23.2,80.5-50,159.9-80.3,238c0,0,2.9,8.3,5.4,18h0.2c1.1-4.7,2.4-9.4,3.9-14l10.7-29.8h10.8
	l4.2,55.1h-8.4l-2.2-33.2c-0.3-4.3,0-9.5-0.2-15h-0.4c-1.4,5.3-3,10.6-4.7,15.8l-11.5,31.8h-6.4l-6-17.4
	c-24.4,62.2-50.6,123.6-78.7,184.2l1.1-0.4l7.6,37c-8.2,4.2-18.9,7.4-30.4,9.5c-7.9,16.4-15.6,32.6-23.9,49.5
	c-252.3,508.2-438.3,763-566.1,775.1c0.6-70.9,132.7-249.9,307.4-380.4l-10.5-16.5c-237,126.1-341.1,270.3-358.2,355.6
	c-4.6,22.6-2.4,40.2,6.1,50.6l1.3,1.6l1.8,0.9l48.8,25c109.3,55.9,278.3-112.7,503.3-501.4c228.1-81.8,529.9-142.3,793.5-169.5
	c218.3,117.4,459.8,168.2,551.5,135.1c31.3-11.3,40.7-30.3,43.1-44.3l3.1-18.7l-17.1,8.2c-58.8,28.2-233.7-7.3-421.3-92.8
	C2042.9,1281.7,2196.7,1294.5,2253.9,1336.5L2253.9,1336.5z"/>
<path class="st1" d="M1360.5,1025c-19.9-27.5-38.5-55.9-55.8-85.1l37,173.7h-50.1l-21.1-100.3h-75.5l-21.3,100.3H1124l39.2-174.1
	c-32.2,83.9-73,175.2-125.9,277.1c-39.1,75.6-79.7,150.4-121.7,224.4c217.6-92.6,459.6-157.4,680-193.2
	c-59-38.8-113.1-81.9-161.7-133.6C1396.2,1105.6,1369.7,1075,1360.5,1025L1360.5,1025z"/>
<path class="st1" d="M1247.9,886.1c-4.7-24.5-9.5-56.6-13.7-82.7h-1.6c-4.2,27.8-8.9,55.4-14.1,83l-17.2,86.6h63.3L1247.9,886.1z"/>
<path d="M964.1,1076.6c-30.3,0-59.2-16.3-59.7-83.3l122.3,0.2c0.7-6.9,1.2-15,1.2-28.1c0-65.7-25.3-118-79.7-118
	c-54.4,0-93.8,52.8-93.8,138.7c0,80.6,34.7,130.4,100.3,130.4c10.7,0,21.8-1.1,32.1-3c7.4-15.5,14.7-30.9,21.7-46
	C994.5,1073.7,979.4,1076.7,964.1,1076.6L964.1,1076.6z M944.2,886.1c20.1,0,36.3,24.3,35.7,70.4h-75.2
	C906.1,923.8,918.3,886.1,944.2,886.1z"/>
<path class="st0" d="M1009.6,1067.1l-1.1,0.4c-6.9,15.1-14.2,30.6-21.7,46c11.5-2.1,22.1-5.3,30.4-9.5L1009.6,1067.1L1009.6,1067.1z
	"/>
<path d="M1009.6,1067.1l-1.1,0.4c-6.9,15.1-14.2,30.6-21.7,46c11.5-2.1,22.1-5.3,30.4-9.5L1009.6,1067.1L1009.6,1067.1z"/>
<path class="st0" d="M1304.7,939.9l-40.3-189.4h-58.8l-42.5,188.9c21.7-56.1,40.7-113.2,56.9-171.1
	C1244.1,827.5,1272.5,884.8,1304.7,939.9z"/>
<path d="M1304.7,939.9l-40.3-189.4h-58.8l-42.5,188.9c21.7-56.1,40.7-113.2,56.9-171.1C1244.1,827.5,1272.5,884.8,1304.7,939.9z"/>
<path d="M1173.6,1113.6l21.3-100.3h75.5l21.1,100.3h50.1l-37-173.7c-32.3-55.1-60.6-112.4-84.7-171.5
	c-16.2,57.9-35.2,115-56.9,171.1l-39.2,174.1H1173.6L1173.6,1113.6z M1218.4,886.3c4.7-23.4,10.1-56.6,14.1-83h1.6
	c4.1,26.1,8.9,58.2,13.7,82.7l16.7,86.9h-63.3L1218.4,886.3z M1466,890.7c13.1,0,22.9,3.9,28.6,6.4l8.5-41
	c-7.4-4.1-22.4-7.9-37.3-7.9c-39.3,0-69.6,20-88.2,51.7c10.6,18,21.8,35.5,33.2,52.5C1417.5,917.4,1435.6,890.7,1466,890.7
	L1466,890.7z"/>
<path class="st0" d="M1360.5,1025c22.9,31.7,47.4,61.6,73.3,89.2c7.4,1.6,15.1,2.6,23.3,2.6c19,0,35.3-4.3,43.8-9l-5.7-39.7
	c-8.9,4.5-18.8,6.7-28.8,6.6c-36.2,0-58.5-34.3-58.5-90.7c0-11,1.1-21.5,3-31.6c-11.6-17.2-22.7-34.7-33.2-52.5
	c-13.6,23-21,52.3-21,84.7C1356.6,999.5,1358.2,1012.6,1360.5,1025z"/>
<path d="M1360.5,1025c22.9,31.7,47.4,61.6,73.3,89.2c7.4,1.6,15.1,2.6,23.3,2.6c19,0,35.3-4.3,43.8-9l-5.7-39.7
	c-8.9,4.5-18.8,6.7-28.8,6.6c-36.2,0-58.5-34.3-58.5-90.7c0-11,1.1-21.5,3-31.6c-11.6-17.2-22.7-34.7-33.2-52.5
	c-13.6,23-21,52.3-21,84.7C1356.6,999.5,1358.2,1012.6,1360.5,1025z"/>
<path d="M1433.8,1114.1c-26.3-28.1-50.8-57.9-73.3-89.2C1369.7,1075,1396.2,1105.6,1433.8,1114.1z M1554.6,1113.6h24.9V972.8
	c0-9.5,0.7-18,2-24.6c5.3-29,25.2-48.7,47.6-48.7c4.4,0,7.7,0,11.4,0.5v-51.5c-3.6-0.6-7.2-0.8-10.8-0.8
	c-22.5,0-44.3,18.4-53.7,44.4h-1.6l-2.6-40.1h-45c0.8,21.2,2.2,47.9,2.2,71.3l-0.5,168C1543.5,1104.8,1552.3,1111.9,1554.6,1113.6
	L1554.6,1113.6z"/>
<path class="st0" d="M1554.6,1113.6c-9-7.1-17.7-14.6-26.1-22.3l-0.1,22.3H1554.6z"/>
<path d="M1554.6,1113.6c-9-7.1-17.7-14.6-26.1-22.3l-0.1,22.3H1554.6z M1040.1,901.4h8.3v-48h16.9v-7.1h-42v7.1h16.8V901.4z
	 M1082.4,846.2h-10.9l-4.3,55.1h8.1c0,0,2.4-38.2,2.4-48.2h0.4c2.6,10.5,9.2,30.2,9.2,30.2c1.5-3.8,3-7.6,4.5-11.4L1082.4,846.2z"/>
<path class="st0" d="M1099.6,900.7l11.5-31.8c1.6-4.9,3.3-10.7,4.7-15.8h0.4c0.2,5.4-0.1,10.7,0.2,15l2.2,33.2h8.4l-4.2-55.1h-10.8
	l-10.7,29.8c-1.5,4.6-2.8,9.3-3.9,14h-0.2c-2.5-9.7-5.4-18-5.4-18c-1.4,3.8-3,7.6-4.5,11.4l6,17.4L1099.6,900.7L1099.6,900.7z"/>
<path d="M1099.6,900.7l11.5-31.8c1.6-4.9,3.3-10.7,4.7-15.8h0.4c0.2,5.4-0.1,10.7,0.2,15l2.2,33.2h8.4l-4.2-55.1h-10.8l-10.7,29.8
	c-1.5,4.6-2.8,9.3-3.9,14h-0.2c-2.5-9.7-5.4-18-5.4-18c-1.4,3.8-3,7.6-4.5,11.4l6,17.4L1099.6,900.7L1099.6,900.7z M2438,849.8v7.1
	h-16.9v48.1h-8.3v-48.1H2396v-7.1H2438z M2491.3,904.9l-2.3-33.2c-0.2-4.3,0-9.6-0.1-15h-0.5c-1.4,5.3-3,10.6-4.7,15.8l-11.5,31.8
	h-6.3l-11.2-32.6c-1.5-4.9-2.9-9.9-4.1-15h-0.4c0,9.9-2.4,48.2-2.4,48.2h-8l4.3-55.1h10.9l10.8,29.9c1.4,4.2,2.5,8.7,3.9,13.8h0.3
	c1.2-5.1,2.5-9.9,3.9-14l10.8-29.8h10.9l4.2,55.1L2491.3,904.9L2491.3,904.9L2491.3,904.9z"/>
</svg>
