<?xml version="1.0" encoding="utf-8"?>
<!-- Generator: Adobe Illustrator 22.0.1, SVG Export Plug-In . SVG Version: 6.00 Build 0)  -->
<svg version="1.1" id="图层_1" xmlns="http://www.w3.org/2000/svg" xmlns:xlink="http://www.w3.org/1999/xlink" x="0px" y="0px"
	 viewBox="0 0 900 280" style="enable-background:new 0 0 900 280;" xml:space="preserve">
<style type="text/css">
	.st0{fill:#FFFFFF;}
</style>
<g id="_x23_ffffffff">
	<path class="st0" d="M472.8,105.8c4.7,0.1,9.4,0.1,14.1,0c0.1,20.8,0.3,41.7-0.1,62.5c-0.8,3-3.2,5.1-6.1,6c-2.6-0.1-5.2-0.1-7.9,0
		c-0.4-11.4-0.1-22.9-0.2-34.3C472.7,128.7,472.4,117.2,472.8,105.8z"/>
</g>
<g id="_x23_000000ff">
	<path d="M48.3,39.8c5.6-1.6,11.3-2.5,17.1-2.4c28.9,0,57.7-0.1,86.6,0c-0.8,3.5-1.6,7.1-2.6,10.6c-1.9,7-3.6,14.2-5.6,21.2
		c-1.5,0.3-2.9,0.5-4.3,0.9c-1.7,0.4-3.3,0.7-5,1.1c-16.7,3.5-33.4,7.3-50.1,10.8c-6.3,1.6-12.9,2.4-19.1,4.6
		C60.2,90,56.5,95.7,57,102c0.1,26.7-0.2,53.5,0.1,80.2c1.5,5.2,5,9.8,10.1,12c7.3,1.8,14.8,3.1,22.1,4.8c18.2,3.9,36.3,8,54.5,11.7
		c1.9,6,3,12.1,4.8,18.1c0.3,1.3,0.6,2.7,0.9,4c0.8,3.3,1.7,6.5,2.5,9.8c-28.5,0.1-57.1,0-85.6,0.1c-3.7,0-7.4,0-10.9-0.9
		c-1.4-0.2-2.8-0.4-4.1-0.6c-4.7-1.5-9.4-3-13.7-5.5c-6.8-3.6-12.2-9.1-17.2-14.8c-1.9-2.9-3.7-5.8-5.3-8.9c-1.6-3.2-2.8-6.6-3.8-10
		c-0.3-1.5-0.6-2.9-1.1-4.3c-0.5-2.9-0.7-5.9-0.6-8.8c0-29.3,0-58.7,0-88c0.1-7.7-0.6-15.6,1.7-23.1c1.2-3.4,2.4-6.8,3.9-10
		c1.6-2.7,3.2-5.4,4.9-8.1C27.4,50.6,37.1,43.3,48.3,39.8z"/>
	<path d="M199.6,37.4c28.6-0.1,57.3,0,85.9-0.1c5-0.1,10,0.5,14.9,1.6c10.7,3,20.5,8.9,28,17.1c3,3.8,5.8,7.7,7.9,12
		c3.7,7.4,5.7,15.6,5.7,23.8c0,26,0,52,0,78.1c-0.2,12.4,1.2,25.2-3.5,37c-0.4,0.9-0.8,1.9-1.3,2.9c-4.9,11.2-13.8,20.6-24.6,26.4
		c-8.1,4.2-17.1,6.5-26.1,6.5c-29-0.1-58,0.1-87-0.1c1.2-5.6,2.6-11.1,4-16.6c0.3-1.4,0.6-2.7,1-4.1c1-3.7,2.1-7.4,2.8-11.2
		c1.4-0.2,2.8-0.4,4.2-0.7c7.8-2.1,15.9-3.3,23.8-5.4c1.4-0.3,2.8-0.5,4.2-0.7c12.3-2.8,24.7-5.3,37-8.1c1.6-0.3,3.2-0.5,4.9-0.8
		c4.1-1.2,7.9-3.4,10.5-6.9c1.4-2.9,2.5-5.9,2.4-9.1c0-26.4,0-52.7,0-79.1c0-3.5-1.6-6.6-3.4-9.5c-2-1.7-4.1-3.2-6.4-4.6
		c-5.9-1.6-12-2.5-17.9-4.1c-1.3-0.3-2.7-0.5-4-0.7c-6.3-1.7-12.7-2.6-19-4.3c-1.7-0.3-3.4-0.6-5-1.1c-6-1.2-12-2.6-18-3.8
		c-1.6-0.4-3.3-0.7-4.9-1.2c-2.8-0.5-5.5-1.2-8.2-1.8c-0.6-2.7-1.2-5.4-2.1-8c-0.2-1.1-0.4-2.1-0.6-3.1
		C202.7,51.2,200.9,44.3,199.6,37.4z"/>
	<path d="M389.1,58.9c0.2-0.3,0.8-0.8,1-1.1c18.8,0.1,37.5,0,56.3,0.1c-0.3,1.8-0.6,3.5-1,5.3c-0.4,1.3-0.7,2.6-1,3.9
		c-1.6,7.1-3.3,14.1-4.9,21.2c-2.6,11-5.4,21.9-7.6,32.9c2.7,4.5,5.9,8.8,7.7,13.7c0.3,1,0.7,2,1.1,3c3.6,10,3.9,20.8,2.8,31.3
		c-1,4.1-2.1,8.2-3.9,12.1c-3.2,6.4-7.7,12.5-13.8,16.3c-3.9,2.8-8.5,4.4-12.8,6.2l2.7-1.6l-2.7-0.4c0.1-5.3,0.1-10.6,0.1-15.9
		c6.2-3.6,11.2-9.2,13-16.3c3.5-15.1-0.5-32.6-12.5-42.9c0.1-1.7,0.1-3.4,0.5-5c2-7.5,3.4-15.1,5.4-22.5c1.8-8.2,3.8-16.3,5.6-24.5
		c-6.4,0.1-12.8,0-19.1,0c-0.1,49.2,0,98.5-0.1,147.7c-5.4,0-10.9,0-16.3,0.1c-0.9-4.1-0.4-8.2-0.5-12.3
		C389.2,159.7,389.3,109.3,389.1,58.9z"/>
	<path d="M459.2,74.6c-1.2-5.6-2.8-11.1-3.7-16.8c28.9,0,57.9,0,86.8,0c-0.2,1.7-0.5,3.5-0.8,5.2c-1.1,3.8-1.9,7.7-2.8,11.6
		c-1.2,0-2.5,0-3.7,0c-0.2,35.8,0,71.6-0.1,107.4c0,5.4-0.8,10.8-2.6,15.9c-3.7,9.5-11.2,17.6-20.9,21.1c-5.6,2.4-11.7,2.7-17.6,3.5
		c-1.2-5.5-3.4-10.9-3.1-16.6c6.8,0.3,13.2-2.3,18.7-5.9c5.8-5.3,9.1-13.1,8.6-21c0-34.8,0.1-69.6-0.1-104.3
		C498.4,74.6,478.8,74.8,459.2,74.6z"/>
	<path d="M570.9,57.8c48.4,0,96.8,0.1,145.2,0c0.1,18.8,0,37.6,0,56.3c0,5.4,0.2,10.7-0.4,16.1c-1.8,7.5-6.5,14.5-14.1,17
		c-1.5,0.3-2.9,0.7-4.3,1.2c-15.1,0.8-30.3,0.1-45.5,0.4c0,6.6,0,13.2,0,19.8c17.4,0.1,34.8-0.2,52.1,0.2c1.1,3,1.5,6.3,2.3,9.4
		c0.7,2.5,1.2,4.9,1.8,7.4c-18.8,0.1-37.5,0-56.3,0c0,6.7,0,13.3,0,20c20.3,0,40.7,0,61,0c0.7,3.6,1.6,7.1,2.4,10.6
		c0.5,1.7,1,3.5,1.5,5.3c-0.2,0.3-0.7,0.8-0.9,1.1c-48.4-0.2-96.9-0.1-145.3-0.1c1-5.7,2.8-11.2,3.8-16.9c20.3,0,40.6,0,60.8,0
		c0.1-6.7,0-13.4,0.1-20c-18.7,0.1-37.5,0-56.2,0c0.9-3.4,1.6-6.9,2.4-10.3c0.3-1.4,0.7-2.8,1.1-4.1c0.1-0.6,0.3-1.9,0.4-2.5
		c17.4,0.1,34.8,0,52.2,0.1c0-6.6,0.1-13.3-0.1-19.9c-21.4,0.1-42.8,0.1-64.2,0C570.9,118.3,570.9,88.1,570.9,57.8 M587.9,74.6
		c-0.1,19.1,0,38.1,0,57.2c15.8,0.1,31.5,0,47.2,0c0.1-6.8,0-13.5,0-20.2c-12.9,0-25.8,0-38.7,0c1.3-5.4,2.7-10.8,3.8-16.3
		c8.1-0.1,16.1,0,24.2,0c3.6,0,7.1,0,10.7,0.1c0.1-6.9,0.1-13.8,0-20.7C619.4,74.7,603.7,74.7,587.9,74.6 M652,74.6
		c-0.1,6.7,0,13.4-0.1,20.1c1.5,0.1,3,0.3,4.5,0.6c10.2-0.1,20.4,0,30.5,0c1.3,5.4,2.7,10.8,3.6,16.3c-12.9,0-25.7-0.1-38.6,0
		c-0.1,6.7,0,13.4-0.1,20.1c13.2,0.1,26.3,0.1,39.5,0c4.5,0.1,8-4.4,7.8-8.8c0-16.1,0.1-32.2-0.1-48.3
		C683.4,74.7,667.7,74.7,652,74.6z"/>
	<path d="M756.5,74.6c0.8-5.7,2.5-11.2,3.6-16.8c38.3-0.1,76.6,0.1,114.9-0.1c1.6,4.7,2.2,9.6,3.5,14.4c0.2,0.6,0.5,1.9,0.7,2.5
		C838.2,74.7,797.4,74.7,756.5,74.6z"/>
	<path d="M455.8,89.1c16,0.1,31.9-0.1,47.9,0.1c0,27.3,0,54.6,0,81.8c-0.1,7.2-3.5,14.6-10.2,17.9c-2.9,1-5.9,2-9,1.9
		c-9.5,0-19.1,0-28.7,0C455.7,156.9,455.7,123,455.8,89.1 M472.8,105.8c-0.4,11.4-0.1,22.8-0.2,34.2c0.1,11.4-0.2,22.9,0.2,34.3
		c2.6-0.1,5.2,0,7.9,0c3-0.9,5.3-3,6.1-6c0.4-20.8,0.2-41.7,0.1-62.5C482.2,105.9,477.5,105.9,472.8,105.8z"/>
	<path d="M748.5,121.3c46.1,0.1,92.2,0,138.4,0c1,5.7,3.1,11.2,3.5,17.1c-33.5,0-67,0-100.5,0c-0.5,2.2-1,4.4-1.5,6.5
		c-0.6,2.7-1.3,5.4-1.9,8.1c-1.5,5.6-2.5,11.4-3.9,17.1c-2,7.5-3.2,15.3-5.3,22.8c-0.5,2.8-1.2,5.5-1.9,8.2
		c-0.3,1.5-0.5,2.9-0.7,4.4c29.9,0.1,59.8,0,89.8,0c-0.3-2.2-0.5-4.3-1.1-6.4c-3.1-12.9-5.8-25.8-9.3-38.6c5.8,0,11.6-0.1,17.4,0
		c2.8,11.2,5.4,22.3,7.8,33.6c1.4,6.3,4.1,12.7,2.4,19.2c-1,3.9-4.7,6.3-8.1,8c-3,0.4-6,1.1-9.1,1.1c-37.2,0-74.4,0-111.6,0
		c1-5.2,2.4-10.2,3.5-15.4c1.8-7,3.3-14.1,5-21.1c3.2-12.9,6.1-26,9.1-38.9c0.4-1.6,0.8-3.2,1.3-4.8c0.2-1.2,0.4-2.5,0.7-3.7
		c-9.2-0.1-18.5,0-27.7,0c0.5-2.5,1.2-4.9,1.7-7.4C747.1,127.8,747.9,124.6,748.5,121.3z"/>
	<path d="M143.9,144.4c0-2.8,0-5.7,0-8.5c17.5,0,35,0,52.5,0c3.6,0,7.2,0,10.9-0.1c0.2,2.9,0.2,5.7-0.1,8.6
		C186.1,144.3,165,144.3,143.9,144.4z"/>
</g>
</svg>
