<?xml version="1.0" encoding="utf-8"?>
<!-- Generator: Adobe Illustrator 22.0.0, SVG Export Plug-In . SVG Version: 6.00 Build 0)  -->
<svg version="1.1" id="图层_1" xmlns="http://www.w3.org/2000/svg" xmlns:xlink="http://www.w3.org/1999/xlink" x="0px" y="0px"
	 viewBox="0 0 1600 400" style="enable-background:new 0 0 1600 400;" xml:space="preserve">
<style type="text/css">
	.st0{fill:#23303F;}
	.st1{fill:#0086CA;}
</style>
<g id="_x23_23303fff">
	<path class="st0" d="M902.9,27.6c1.5-1.2,3.7-0.9,5.5-1c4.3,0.1,8.7-0.2,13.1,0.2c2.5,0.3,3.5,3,3.3,5.2c0,46.7,0,93.4,0,140.1
		c0,3.2,0.7,7.2,3.9,8.7c4,2.1,8.6,0.3,12.8,0.8c1.6,0.2,2.2,2,2.3,3.4c0.2,3.6,0.3,7.3-0.2,10.9c-1,2.9-4.4,3.5-7,4
		c-8.3,1.4-17.5,1.6-24.8-3.1c-7.1-4.7-10.2-13.5-10.1-21.8c0-47.7,0-95.3,0-143C901.6,30.5,901.5,28.7,902.9,27.6z"/>
	<path class="st0" d="M1575.5,30.9c-0.2-2.3,1.7-4.4,4-4.2c5.3-0.1,10.7-0.3,16,0.1c2.6,0.3,3.4,3.1,3.3,5.3c0,53.3,0,106.6,0,159.9
		c-0.2,2.4,0.5,6-2.3,7.2c-3.6,0.8-7.3,0.2-10.9,0.4c-2.3,0-5.3,0.2-6.4-2.2c-1.4-3.1-1.8-6.5-2.7-9.8c-15.7,14.2-40,19.3-59.3,9.7
		c-14.6-7.3-23.3-22.6-26.2-38.2c-2.7-14.5-2.3-29.7,1.7-43.9c3.3-11.5,9.8-22.4,19.7-29.4c12.6-9,29.5-10.3,44.1-5.8
		c7,2.1,13.3,5.9,19.1,10.4C1575.5,70.6,1575.4,50.8,1575.5,30.9 M1526.9,101.4c-7.1,5-10.8,13.4-12.4,21.7
		c-1.9,10.2-2.1,20.7-0.5,30.9c1.3,8.3,4.4,16.9,11,22.6c6.6,5.8,15.9,7.3,24.4,6.7c9.5-0.7,18.3-5.1,26-10.5
		c0.2-20.9,0-41.8,0.1-62.7c-0.2-1.4,0.5-3.3-1-4.1c-6.8-4.9-14.7-8.3-23.1-9.2C1543.1,95.8,1534,96.4,1526.9,101.4z"/>
	<path class="st0" d="M974,32.6c4.6-1.1,10-0.8,14,2c8.2,5.8,7.1,20.7-2.5,24.4c-5.6,2-12.8,1.7-17.3-2.7
		C961.2,49.4,963.8,34.9,974,32.6z"/>
	<path class="st0" d="M1238.7,32.3c4.2-0.7,8.8-0.3,12.4,2c8.3,5.5,7.6,20.3-1.7,24.4c-6,2.4-14.1,2-18.5-3.2
		C1224.4,48,1228,33.6,1238.7,32.3z"/>
	<path class="st0" d="M1299,51.4c0.8-4.4,6.2-3.3,9.5-3.5c3.3,0.2,8.8-1.1,9.6,3.4c0.5,9.9,0,19.8,0.2,29.8c10.1,0,20.2-0.1,30.3,0
		c2.3-0.2,4.6,1.4,4.6,3.9c0.2,3.9,0.3,7.9-0.2,11.7c-0.4,2-2.7,2.8-4.5,2.7c-10.1,0.2-20.2-0.2-30.3,0.2c0.2,22.8,0,45.7,0.1,68.5
		c0,4.9,1.6,10.7,6.6,12.7c6.9,2.8,14.6,1.7,21.7,0.4c2.3-0.3,6.3-1.8,7.3,1.4c0.4,3.8,0.3,7.6,0.1,11.4c-0.2,2.6-2.7,4-4.9,4.6
		c-8.6,2.5-17.8,3-26.7,2.4c-8-0.7-16.3-3.8-21.2-10.5c-5.7-7.5-6.4-17.4-6.1-26.4c0-21.5,0-43.1,0-64.6c-6.2-0.1-12.3,0.3-18.5-0.2
		c-3.3-0.6-3.1-4.6-3.1-7.2c0.1-2.8-0.4-7.1,3.2-7.9c6.3-1.4,12.8-1.6,19.2-2.6C1296.8,71.5,1297.7,61.4,1299,51.4z"/>
	<path class="st0" d="M790.9,94.1c12.3-9.3,27.2-15.7,42.7-16.4c9.7-0.6,20.3,0.7,28.1,7.2c7.6,6.3,10.7,16.6,10.6,26.2
		c0,28,0,56.1,0,84.1c0.3,2.3-1.5,4.6-3.9,4.4c-5.3,0.1-10.7,0.2-16-0.1c-2.7-0.2-3.5-3.1-3.3-5.4c0-23.7,0-47.4,0-71.1
		c0.1-6.7-0.2-13.8-4-19.6c-3.2-4.8-9.1-6.8-14.6-7c-13.5-0.6-27,4.1-38,11.8c-0.6,2.2-0.2,4.5-0.3,6.8c0,26.7,0,53.4,0,80.1
		c0.2,2.2-1.4,4.5-3.8,4.4c-5.3,0.1-10.6,0.2-15.9,0c-2.3,0-3.7-2.4-3.4-4.4c0-36.3,0-72.7,0-109c-0.3-2.1,0.9-4.5,3.2-4.7
		c4.1-0.4,8.2-0.2,12.3-0.1c1.7,0,3.6,0.7,4.3,2.4C790,86.9,790.3,90.5,790.9,94.1z"/>
	<path class="st0" d="M1045.9,92.9c11.7-8.1,25.2-14.3,39.6-15.2c8.2-0.5,17,0.4,24.1,5.1c4.2,2.7,7.2,6.7,9.3,11.2
		c11.2-7.7,23.8-14.1,37.4-15.8c10.1-1.3,21.2-0.9,29.8,5.1c8.9,6.1,12.4,17.3,12.5,27.7c0,28,0,56,0,84.1c0.2,2.4-1.7,4.7-4.2,4.4
		c-5.3,0-10.6,0.2-15.8-0.1c-2.7-0.3-3.2-3.2-3.1-5.4c0-25,0-50,0-75c0-5.8-0.7-11.9-4.2-16.7c-2.9-4-8-5.7-12.7-5.9
		c-12.6-0.5-24.9,3.9-35.6,10.3c0.1,29.4,0,58.9,0,88.3c0.4,2.5-1.9,4.8-4.4,4.5c-5.3,0-10.7,0.3-15.9-0.2c-2.4-0.5-2.9-3.2-2.8-5.2
		c0-25.4,0-50.7,0-76.1c-0.1-5.7-1-11.9-4.8-16.5c-3.1-3.6-7.9-5-12.5-5.1c-12.4-0.3-24.9,3.6-35.3,10.4c0.1,29.4,0.1,58.9,0,88.3
		c0.2,2.2-1.5,4.5-3.8,4.4c-5.3,0.1-10.7,0.2-16-0.1c-2.8-0.1-3.6-3.1-3.4-5.4c0-35.7,0-71.4,0-107c-0.1-2.3,0.5-5.5,3.3-5.8
		c4.9-0.2,9.9-0.7,14.7,0.3C1045.7,83.8,1044.7,89.2,1045.9,92.9z"/>
	<path class="st0" d="M1385.4,90.9c8.4-8,19.8-12.1,31.2-13c11-0.9,22.7,0.1,32.6,5.6c8.6,4.8,14.9,13.2,17.7,22.5
		c3.5,11.3,3.3,23.5,1.5,35.2c-0.2,2.1-1.5,4.4-3.9,4.2c-24.8,0.3-49.6-0.1-74.4,0.2c0.6,9.2,1.9,18.9,7.5,26.5
		c4.7,6.5,12.3,10.1,20,11.5c14.1,2.4,28.6,0.4,42-4.1c2.2-0.6,5.8-2.2,7,0.7c0.8,3.5,0.4,7.3,0.3,10.9c0,3.5-3.8,4.9-6.4,6
		c-14.3,5.3-29.9,7.1-45.1,5.5c-13.6-1.4-27.4-7.3-35.7-18.6c-10.1-13.3-12.3-30.7-11.9-47C1367.9,120.3,1372.8,102.6,1385.4,90.9
		 M1400,103.5c-6.8,7-9.1,17-9.8,26.4c19.4,0,38.7,0,58.1,0c0.5-8.5,0.3-17.7-4.6-25c-3.7-5.7-10.4-8.9-17.1-9.5
		C1417.2,94.4,1406.8,96.4,1400,103.5z"/>
	<path class="st0" d="M638.6,86c-0.4-2.3,1.2-4.9,3.7-4.8c5.4-0.2,10.8-0.3,16.2,0.1c2.4,0.2,3.4,2.7,3.3,4.8c0,23.7,0,47.3,0,70.9
		c-0.1,6.9,0.2,14.5,4.2,20.4c3.2,4.7,9.1,6.6,14.6,6.8c12.3,0.4,24.4-4,34.6-10.6c1.4-0.6,0.8-2.4,1-3.5c-0.1-28,0-56.1,0-84.1
		c-0.3-2.1,0.9-4.5,3.2-4.8c4.3-0.5,8.7-0.1,13.1-0.2c1.9,0.1,4.3-0.3,5.8,1.3c1.2,1.2,1,3.1,1.1,4.7c0,35.7,0,71.4,0,107.1
		c0.1,2.1-0.4,4.8-2.8,5.3c-3.7,0.4-7.3,0.1-11,0.2c-2,0-4.6,0-5.6-2.1c-1.3-3.3-1.6-6.9-2.3-10.3c-11,7.7-23.5,14-37,15.5
		c-10.4,1.2-21.9,0.4-30.4-6.3c-8.2-6.4-11.7-17.2-11.7-27.3C638.6,141.4,638.6,113.7,638.6,86z"/>
	<path class="st0" d="M969,81.7c2.7-1.1,5.7-0.5,8.5-0.7c3.5,0.2,7.1-0.4,10.6,0.5c2.3,0.8,2.3,3.5,2.3,5.5c0,35.7,0,71.3,0,107
		c-0.1,1.6,0,3.4-1.3,4.5c-1.6,1.4-3.7,0.9-5.6,1.1c-4.3-0.1-8.7,0.2-13-0.1c-2.3,0-3.6-2.4-3.3-4.4c0-36.3,0-72.6,0-108.9
		C967.1,84.4,967.4,82.5,969,81.7z"/>
	<path class="st0" d="M1232.9,81.5c5.2-0.9,10.5-0.3,15.7-0.4c2.4-0.3,5.3,1.2,5.2,3.9c0.1,36.3,0,72.7,0.1,109.1
		c0.2,2.3-0.7,5.2-3.4,5.4c-5.6,0.2-11.3,0.3-16.9,0c-3-0.5-3.1-4-3.1-6.3c0-35,0-70,0-105C1230.5,85.7,1230.3,82.5,1232.9,81.5z"/>
</g>
<g id="_x23_0086caff">
	<path class="st1" d="M444.9,31.5c4.5-1.3,9.7-1.1,13.9,1.2c8.7,5.2,8.3,20.4-1.1,24.7c-5.2,2.2-11.7,2.1-16.4-1.1
		C432.7,50.4,434.5,34.4,444.9,31.5z"/>
	<path class="st1" d="M28.2,91.6c11.9-8.1,25.6-14.4,40.2-15.2c8.5-0.5,17.7,0.7,24.6,6c3.6,2.7,6.2,6.4,8.2,10.4
		c14-10,30.8-17.1,48.2-16.4c8.7,0.2,17.9,3.2,23.7,10.1c6,7,7.8,16.6,7.8,25.6c-0.1,27.4,0.1,54.7-0.1,82.1c0.2,2.4-2,4.4-4.4,4.2
		c-5,0.1-10,0.2-15-0.1c-2.7,0-4.1-2.7-3.8-5.1c0-25.3,0-50.7,0-76c-0.1-5.7-0.9-12-4.6-16.6c-3.2-4-8.6-5.4-13.6-5.4
		c-12.1,0-24,4-34.1,10.4c-0.3,29.5,0,59.1-0.1,88.6c0.1,2.1-1.6,4.1-3.7,4.1c-5,0.3-10,0.1-15,0.1c-2.4,0.2-4.7-1.7-4.4-4.2
		c-0.2-26,0-51.9-0.1-77.9c-0.2-5.8-1.2-12.1-5.3-16.5c-3.9-4.1-10-4.9-15.4-4.6c-11.3,0.4-22.2,4.3-31.7,10.2
		c-0.1,29.6,0.1,59.2-0.1,88.8c0.2,2.3-1.9,4.2-4.1,4.1c-5.3,0.1-10.7,0.3-16-0.1c-2.4-0.3-3.3-2.9-3.2-5.1c0-36,0-72,0-108
		c-0.3-2.5,1.2-5.4,4.1-5.2c4.6,0.1,9.4-0.5,13.9,0.4C27.9,82.6,27,87.9,28.2,91.6z"/>
	<path class="st1" d="M368,76.8c13.6-1.6,27.6,0.3,40.3,5.4c4.4,1.6,3.6,7,3.6,10.7c-0.1,2.2,0.4,5.7-2.5,6.3c-2,0.1-4-0.6-5.9-1.1
		c-9.4-2.9-19.4-4.2-29.2-3.7c-4.4,0.3-9,1.1-12.8,3.6c-6.8,4.3-7.7,15.3-2,20.8c5.4,4.6,12.3,6.7,18.8,9.3
		c10.8,4.4,22.7,7.4,31.5,15.5c6.2,5.5,8.9,14.1,8.5,22.3c0.2,9.4-3.8,18.8-11,24.9c-8.2,7.1-19.2,10.2-29.8,10.7
		c-13.5,0.6-27.4-1.2-39.9-6.5c-2.1-0.9-4.5-2.4-4.6-4.9c-0.2-3.7-0.5-7.6,0.3-11.3c1.1-2.5,4.2-1.3,6.2-0.8
		c11.5,3.9,23.8,5.8,35.9,5.6c5.6-0.2,11.4-1.2,15.9-4.8c5.1-4,6.7-11.4,4.6-17.4c-1.8-4.7-6.5-7.1-10.8-9
		c-9.8-4.1-19.9-7.3-29.6-11.5c-8.1-3.6-15.6-9.6-18.9-18.1c-4.2-10.5-3-23.5,4.4-32.4C347.7,82.5,357.8,78.1,368,76.8z"/>
	<path class="st1" d="M534,77.8c12.2-1.4,24.9-0.3,36.2,4.5c4.3,1.8,2.9,7.1,3.2,10.7c-0.1,2.3,0.5,6.5-2.8,6.8
		c-4.1-0.4-7.9-2-12-2.6c-9.2-1.5-18.8-1.5-27.8,1.4c-6.4,2-12.1,6.5-15.2,12.5c-5,9.5-5.4,20.5-5.3,31c0.3,10.1,1.6,20.9,8.1,29
		c5.5,6.9,14.4,9.9,22.9,10.5c9.5,0.9,19-0.9,28.2-3.5c1.8-0.8,4.3-0.1,4.5,2.1c0.5,3.7,0.4,7.4,0.1,11.1c-0.1,2.9-3.1,4.2-5.4,5.1
		c-12.9,5.1-27.3,5.5-40.8,3.1c-13.1-2.3-25.5-9.8-32.5-21.4c-8.9-14.6-10.2-32.5-8.8-49.1c1.4-15.8,8-32,21.2-41.5
		C515.5,81.9,524.7,78.9,534,77.8z"/>
	<path class="st1" d="M210.1,84c-0.3-2.5,2-4.5,4.4-4.2c5,0,10-0.1,15,0.1c2.7-0.1,4,2.8,3.8,5.1c0.1,25,0,50,0,75
		c0.1,5.8,1,11.9,4.6,16.6c3.4,4.5,9.2,6.2,14.6,6.3c12.6,0.5,24.7-4.4,35.1-11.1c0.1-29.3,0-58.5,0-87.8c-0.2-2.2,1.7-4.3,3.9-4.2
		c5-0.1,9.9-0.1,14.9,0c2.4-0.2,4.5,1.8,4.2,4.3c0,36.3,0,72.7,0,109c0.2,2.1-0.7,4.8-3.2,5c-4,0.4-8.1,0.2-12.1,0.1
		c-1.8,0-3.8-0.8-4.4-2.6c-1-3.2-1.4-6.6-2.1-9.9c-13.3,9.9-29.6,16.6-46.4,16c-8.6-0.2-17.5-2.8-23.5-9.2c-6.5-6.7-8.9-16.4-9-25.5
		C210.1,139.4,210,111.7,210.1,84z"/>
	<path class="st1" d="M440.7,80.3c5.5-1.1,11.2-0.3,16.8-0.5c2.4-0.3,4.6,1.8,4.3,4.3c0.1,36.3,0,72.6,0,108.9
		c0.3,2.2-0.8,5-3.4,5.1c-5.3,0.3-10.7,0.2-16.1,0.1c-2.2,0-3.9-2.1-3.7-4.2c-0.1-36.3,0-72.6,0-108.9
		C438.7,83.3,439,81.2,440.7,80.3z"/>
	<path class="st1" d="M526,242.8c14.3-1.9,28.8-1.9,43,0.6c5.1,1.1,10.6,2.1,14.9,5.2c2.9,2.6,2.8,6.9,3.1,10.5
		c0.1,13.1-2.8,26.1-6.9,38.4c-6,17.8-15.3,35-29.3,47.8c-2.1,1.9-4.4,4.1-7.4,4.3c-2,0.2-3.9-1.6-3.6-3.7c0.6-3.8,2.6-7.2,3.8-10.7
		c6.1-16,12.4-32.1,15.2-49.1c0.4-5.2,1.5-11.2-1.7-15.8c-4-4.2-10.2-4.8-15.7-5.5c-20.1-1.8-40.2,1.1-60.2,3.2
		c-1.8,0.2-4.4-0.9-4.3-3c-0.2-3.1,2.6-5.1,4.8-6.7C495,249.6,510.5,244.9,526,242.8z"/>
	<path class="st1" d="M3.8,253.5c4-1.9,7.7,1.4,11,3.1c73.5,41.7,156.6,66.1,240.8,72.7c90.6,7.2,182.8-8.5,266.5-43.8
		c3.8-1.5,8.7-0.8,11.4,2.4c2.5,2.8,2.4,7.4,0,10.2c-1.9,2.4-4.6,4-7.1,5.8c-29.5,20.8-62.5,36.1-96.7,47.3
		c-51.9,16.8-106.8,24.6-161.3,21.4c-72.1-3.9-143.2-26-204.4-64.3c-20.4-12.7-39.7-27.2-57.7-43.1c-1.9-1.8-4.3-3.4-5-6.1
		C0.8,257,1.8,254.5,3.8,253.5z"/>
</g>
</svg>
