<?xml version="1.0" encoding="utf-8"?>
<!-- Generator: Adobe Illustrator 22.0.1, SVG Export Plug-In . SVG Version: 6.00 Build 0)  -->
<svg version="1.1" id="图层_1" xmlns="http://www.w3.org/2000/svg" xmlns:xlink="http://www.w3.org/1999/xlink" x="0px" y="0px"
	 viewBox="0 0 450 120" style="enable-background:new 0 0 450 120;" xml:space="preserve">
<style type="text/css">
	.st0{fill:#2E39BF;}
</style>
<g>
	<path class="st0" d="M92.7,22.5c12.3-5.2,27.7-1.4,36.1,9c3.5,4,5.6,9,6.9,14.1c5.9,2.1,11.3,5.7,14.8,10.9
		c6.7,9.6,6.4,23.6-1,32.7c-5.1,6.6-13.4,10.7-21.8,10.7c-31.7,0-63.3,0-95,0c-1.7,0.1-3.8-0.4-4.4-2.2c-1.3-2.3,0.6-5.5,3.3-5.3
		c10.4-0.1,20.8,0,31.2,0c-2.7-2.7-4.9-5.8-6.6-9.2c-2.3-0.1-4.7,0.2-6.9-0.4c-1.7-1.6-1.1-4.3-0.7-6.3c1.3-1.7,3.8-0.9,5.6-1.2
		c-0.1-3,0-5.9,0.4-8.8c-15-0.1-29.9,0.1-44.9-0.1c-3.1,0.5-5.7-3.1-4-5.8c1.1-2.2,4-1.8,6-1.9c15.2,0.1,30.4,0,45.7,0
		c2.3-3.6,5.1-6.7,8.5-9.3c-12.4,0-24.8,0.1-37.3,0c-4.3,0.3-4.8-6.8-0.6-7.3c15.4-0.3,30.8,0,46.2-0.1c1.3-3.3,2.9-6.4,4.9-9.3
		c-14.5,0.1-28.9,0.1-43.4,0c-3,0.2-4.6-3.6-2.9-5.9c1-1.7,3.1-1.6,4.8-1.6c15.7,0.1,31.4,0,47.2,0C87.7,25.5,90.1,23.5,92.7,22.5z"
		/>
	<path class="st0" d="M424,45.7c6.3-3.4,15.2-2.7,19.8,3.2c-1.3,0.9-2.6,1.8-4,2.7c-2.5-2.2-5.7-3.8-9.1-3.3c-2.7,0.1-5.9,1.9-5.8,5
		c0.6,1.6,2,2.7,3.7,3c4.7,1.3,10.1,1,13.9,4.4c4.1,4,2.7,11.7-2.5,14c-7.2,3.3-17.6,2.2-21.6-5.4c1.3-0.9,2.6-1.8,3.8-2.6
		c3.4,4.8,10.2,6.5,15.5,3.7c2.5-1.4,2.7-5.5,0-6.9c-4.8-2.4-11-1.3-15.4-4.8C418.5,55.3,419.3,48.1,424,45.7z"/>
	<path class="st0" d="M171.3,47c6.4-4.5,15.8-3.6,21.5,1.7c-1.1,1.2-2.3,2.3-3.4,3.5c-3.8-3.1-9.3-4.3-13.8-1.8
		c-7.6,3.8-7.5,16.4,0.2,20c4.6,2.3,9.9,0.8,13.8-2.2c1.2,1.2,2.4,2.4,3.5,3.6c-6.7,6.3-18.8,6.3-24.8-0.9
		C162.8,63.9,163.9,52.2,171.3,47z"/>
	<path class="st0" d="M195.5,44.7c1.7,0,3.5,0,5.2,0c0,8.8,0,17.5,0,26.2c5.4,0,10.8,0,16.2,0c0,1.6,0,3.2,0,4.8
		c-7.2,0-14.3,0-21.5,0C195.5,65.4,195.5,55.1,195.5,44.7z"/>
	<path class="st0" d="M230.2,45c6.3-1.9,14.1-0.7,18.2,4.9c5.2,7.3,4.2,19.4-3.9,24.3c-6.3,3.5-15.1,3.1-20.3-2.1
		C216.4,64.2,219.1,48.3,230.2,45 M231.1,49.8c-8.1,3.5-8.2,17.1-0.2,20.8c4.2,1.8,9.7,1.3,12.8-2.2c3.6-4.2,3.6-10.9,0.5-15.4
		C241.3,48.9,235.5,47.9,231.1,49.8z"/>
	<path class="st0" d="M254.5,44.7c1.7,0,3.5,0,5.2,0c0.2,6.9-0.4,13.8,0.2,20.7c0.7,4.8,6.3,7.3,10.6,5.7c3.2-0.9,5.1-4.3,5.1-7.5
		c0.1-6.3,0-12.6,0-18.9c1.8,0,3.5,0,5.2,0c0,5.6,0,11.2,0,16.8c0,3.6-0.5,7.5-2.8,10.4c-6.1,7.6-20.9,5.2-23.1-4.7
		C253.9,59.8,254.8,52.2,254.5,44.7z"/>
	<path class="st0" d="M285.3,44.7c6.7,0.4,14-1.4,20.3,2c9.5,5.4,9.7,21.3,0.3,26.8c-6.2,3.6-13.7,1.7-20.6,2.2
		C285.3,65.4,285.3,55.1,285.3,44.7 M290.5,49.7c0,7,0,14,0,21c4.2-0.2,9,0.8,12.7-1.7c5.9-3.9,5.9-14-0.1-17.8
		C299.3,48.8,294.7,49.9,290.5,49.7z"/>
	<path class="st0" d="M313.6,44.7c1.9,0,3.9,0,5.8,0c2.7,7.8,5.1,15.6,7.7,23.3c2.6-7.8,5.2-15.6,7.8-23.4c1.1,0,2.3,0,3.5,0
		c2.6,7.8,5.4,15.5,7.9,23.3c2.6-7.8,5-15.6,7.6-23.3c1.9,0,3.9,0,5.8,0c-3.8,10.3-7.4,20.7-11.1,31c-1.5,0-3.1,0-4.6,0
		c-2.7-6.8-5.1-13.8-7.4-20.7c-2.1,7-4.6,13.9-7.3,20.8c-1.5,0-3.1,0-4.6,0C321.1,65.4,317.4,55,313.6,44.7z"/>
	<path class="st0" d="M372.2,44.7c1.9,0,3.8,0,5.7,0c4.6,10.3,9.2,20.7,13.9,31c-1.9,0-3.7,0-5.6,0c-1-2.2-2-4.3-3-6.5
		c-5.5,0-10.9,0-16.4,0c-1,2.2-1.9,4.3-2.9,6.5c-1.9,0-3.7,0-5.6,0C363,65.4,367.6,55.1,372.2,44.7 M368.8,64.5c4.2,0,8.4,0,12.5,0
		c-2.1-4.7-4.2-9.4-6.3-14.1C373,55.1,370.9,59.8,368.8,64.5z"/>
	<path class="st0" d="M388,44.7c2.1,0,4.2,0,6.4,0c2.8,4.4,5.5,8.9,8.4,13.3c2.8-4.5,5.7-8.9,8.6-13.3c2.1,0,4.2,0,6.4,0
		c-3.9,6.1-8.2,11.9-12.1,18c-0.9,4.2-0.2,8.7-0.4,13c-1.8,0-3.5,0-5.2,0c-0.6-5.4,1.7-11.7-2.3-16.2
		C394.5,54.6,391.2,49.7,388,44.7z"/>
	<path class="st0" d="M7.9,76.4c1.6-0.6,3.1-1.1,4.8-1c7,0,14,0,21,0c1.8-0.1,3.6,0.3,5.3,0.8c-0.4,2.3,1.2,6.8-2.4,6.9
		c-8,0.2-16,0-24.1,0.1c-1.4-0.1-3.4,0.4-4.3-1.2C7.9,80.2,8,78.3,7.9,76.4z"/>
</g>
</svg>
