<?xml version="1.0" encoding="utf-8"?>
<!-- Generator: Adobe Illustrator 22.0.1, SVG Export Plug-In . SVG Version: 6.00 Build 0)  -->
<svg version="1.1" id="图层_1" xmlns="http://www.w3.org/2000/svg" xmlns:xlink="http://www.w3.org/1999/xlink" x="0px" y="0px"
	 viewBox="0 0 600 140" style="enable-background:new 0 0 600 140;" xml:space="preserve">
<style type="text/css">
	.st0{fill:#232020;}
	.st1{fill:#EB2B2D;}
</style>
<path class="st0" d="M144.5,11.3v-0.4H142v117.6h2.5V11.3z"/>
<path class="st1" d="M81,45.9c-0.2-0.1-0.3-0.2-0.4-0.3c-3.2-1.9-7.2-2.9-12-3.2H46.8v18.5c0,2.6,0,5.3-0.1,7.8v31.6h21.9
	c4.6-0.3,8.3-1.3,11.2-3h0.1v-0.1c0,0,0-0.1-0.1-0.1c0.3-0.3,0.6-0.4,0.9-0.4h0.1c0.3-0.2,0.6-0.4,0.8-0.6v-0.1h-0.1v-0.1
	c0.2-0.2,0.3-0.3,0.4-0.2V96c0.3-0.2,0.6-0.4,0.9-0.7v-0.1h-0.1c-0.1,0-0.2-0.1-0.2-0.3c0.2-0.2,0.3-0.1,0.4,0.2v0.1
	c0.2-0.2,0.4-0.4,0.6-0.5v-0.1c0.1-0.1,0-0.3,0-0.4c0.2,0,0.3,0,0.3,0.2v0.1c0.2-0.1,0.4-0.2,0.4-0.4v-0.2c0,0,0-0.1-0.1-0.1
	c0.1-0.1,0.2-0.2,0.3-0.1h0.1c2.5-2.5,4.4-5.7,5.7-9.5c0.1-0.4,0.3-0.8,0.4-1.3h-0.1c-0.2,0.3-0.3,0.2-0.2-0.3
	c0.1,0.1,0.2,0.1,0.3,0.1v0.1c1.2-3.9,1.6-8.4,1.5-13.7v-0.4v-0.8c0-0.3,0-0.5-0.1-0.6v0.1c-0.2,0.3-0.2,0.2-0.2-0.4H92
	c-0.2-2.1-0.4-4.2-0.9-6c-0.9-4.1-2.5-7.6-4.8-10.4v0.1c-0.2,0.1-0.3,0-0.3-0.2h0.1v-0.2c-0.6-0.5-1.1-1.2-1.6-1.7v0.1
	c0.1,0.4,0,0.4-0.3-0.2h0.1v-0.1c-0.8-0.8-1.8-1.6-2.8-2.2v0.1C81.1,46.4,80.9,46.2,81,45.9C80.9,45.9,80.9,45.9,81,45.9 M71.1,42.8
	h-0.2c-0.4,0.1-0.6,0-0.6-0.2C70.8,42.7,71.1,42.7,71.1,42.8 M64.6,56.1h0.7V56h0.8c2.3,0.1,3.9,1,4.7,2.6h0.1v-0.1
	c0.2-0.2,0.3-0.1,0.1,0.3h-0.1c0,0.2,0.1,0.3,0.2,0.4v0.1c0.3-0.2,0.4,0,0.3,0.4c1.2,2.9,1.8,6.5,1.9,10.5v0.1
	c0.1,0.1,0.1,0.4,0.1,0.6v1.3c0.1,0.3,0.1,0.6,0,1v0.1c0,3.6-0.4,6.8-1.5,9.5V83h0.1c0.1,0.1,0.1,0.2-0.2,0.3h-0.1
	c-1.1,2.5-3.4,3.8-7.1,3.7v-0.4V71.4L64.6,56.1 M46.8,53C46.8,53,46.8,52.9,46.8,53c0.1,2.5,0.1,5,0.1,7.6v0.1
	C46.8,58.2,46.8,55.6,46.8,53 M64.3,56.6c0.1,5,0.2,10,0.1,15.1v14.8c-0.1-5-0.2-10-0.1-15.1L64.3,56.6 M90.3,58.7
	c0.1,0.4,0.2,0.6,0,0.6v-0.1V58.7 M46.7,85.3C46.7,85.2,46.7,85.2,46.7,85.3c0.1,2.3,0.1,4.7,0.1,7.3v0.1
	C46.7,90.3,46.7,87.8,46.7,85.3 M103.1,113.8c0,0.3,0,0.4-0.1,0.6c0.3,4.7,2.9,7.2,7.7,7.3c0.8,0,1.5-0.1,2.2-0.4
	c2.7-1,4.3-3.1,4.7-6.3V115v-1.2c-0.6-3.9-2.9-6.1-6.9-6.5h-0.9c-3.7,0.5-6,2.5-6.8,6.1L103.1,113.8 M115.4,43.8
	c-1.8-3.3-3.8-6.3-6.1-9c-2.3-2.8-4.8-5.4-7.6-7.6s-5.7-4.4-9-6.2c-3.4-1.9-6.9-3.4-10.6-4.5c-3.8-1.2-8.1-2-12.7-2.3h-0.1
	c-0.4,0-0.6,0-0.7-0.1h-0.6c-0.3,0-0.6,0-0.6-0.1h-6.5c-4.2,0.3-8,0.9-11.4,1.9c-3.8,1.1-7.4,2.6-10.9,4.4c-3.4,1.7-6.4,3.7-9.2,6
	s-5.5,4.7-7.8,7.4c-2.4,2.7-4.4,5.7-6.4,8.9c-1.8,3.2-3.4,6.6-4.7,10.5C9.1,56.8,8.2,61,7.5,65.4v0.8c0,0.3,0,0.4-0.1,0.6v0.4
	c0,0.3,0,0.5-0.1,0.6v1.6c0,0.8,0,1.7-0.1,2.6v1.7c0.1,0.2,0.1,0.4,0.1,0.6v0.6c0.1,0.2,0.1,0.4,0.1,0.6v0.1
	c0.4,4.7,1.2,8.9,2.5,12.8c1.3,3.8,2.7,7.4,4.5,10.6c1.8,3.3,3.8,6.3,6.2,9c2.3,2.8,4.9,5.3,7.6,7.6c2.8,2.3,5.8,4.4,9,6.2
	c3.3,1.8,6.8,3.3,10.6,4.6c3.7,1.2,7.8,2,12.3,2.3h7.6V129h1.4V129h0.7c4.7-0.4,8.9-1.2,12.7-2.5c3.8-1.3,7.4-2.8,10.6-4.6
	c0.9-0.5,1.7-1,2.6-1.5V116c0-5.1,0-10.2-0.1-15.1c-1.6,1.5-3.2,3-4.9,4.4c-2.9,2.2-6.1,4.1-9.7,5.5c-3.6,1.5-7.6,2.5-12.3,2.9h-3
	c-0.6,0.1-1.2,0.1-1.6,0h-1c-0.3,0-0.6,0-0.6-0.1h-0.8c-0.3,0-0.4,0-0.6-0.1c-0.4-0.1-0.9-0.1-1.4-0.2c-4.6-0.6-8.4-1.7-11.9-3.2
	c-3.5-1.7-6.6-3.6-9.5-5.8c-2.8-2.3-5.3-4.8-7.5-7.7c-2.2-2.9-4-6.1-5.5-9.7c-1.5-3.6-2.5-7.6-2.8-12.4v-0.9v-0.4v-1v-2.1v-1.1h0.1
	V69v-0.5v-0.6h0.1v-0.1v-0.4c0.6-4.5,1.5-8.6,3-12.2s3.4-6.8,5.5-9.6c2.2-2.9,4.7-5.5,7.5-7.7c2.9-2.3,6.1-4.3,9.5-5.7
	c3.6-1.5,7.5-2.5,11.9-3.1c0.6-0.1,1.2-0.2,1.7-0.2v-0.1H63v-0.1h5.6c4.6,0.4,8.7,1.4,12.3,2.8c3.6,1.5,6.8,3.3,9.7,5.5
	c2.9,2.2,5.5,4.6,7.7,7.4c2.3,2.8,4.2,6,5.7,9.5c1.5,3.4,2.6,7.4,3.3,11.9c0.1,0.7,0.2,1.4,0.2,2.1c0.1,0.2,0.1,0.4,0.1,0.7v0.8
	c0.1,1,0.1,2,0,3.1v0.8c0,0.4,0,0.6-0.1,0.7c-0.2,2.2-0.4,4.3-0.9,6.2c-1,4.1-2.3,7.7-4.2,11c-1.8,3.3-3.9,6.2-6.4,8.8v0.1
	c5,0.1,10,0.2,15.1,0.2c1.3,0,2.5-0.1,3.6-0.2c1.9-3.2,3.6-6.6,4.8-10.4c1.3-4,2.3-8.2,2.8-12.4c0.1-0.7,0.2-1.5,0.2-2.3V75v-0.7
	h0.1v-0.1v-0.5v-0.9v-1.1h0.1v-0.1v-1.2v-1.6v-1.1v-0.8c-0.1-0.4-0.1-0.8-0.1-1.3V65c-0.4-4-1.2-7.6-2.3-11
	C118.8,50.7,117.2,47.1,115.4,43.8L115.4,43.8z"/>
<path class="st1" d="M69.3,42.7C69.7,42.8,69.7,42.8,69.3,42.7C69.3,42.8,69.3,42.7,69.3,42.7"/>
<path class="st1" d="M85.5,50.1C85.9,50.1,85.9,50.2,85.5,50.1"/>
<path class="st1" d="M73.7,72.4C73.5,72.4,73.5,72.3,73.7,72.4C73.7,73,73.7,73,73.7,72.4"/>
<path class="st1" d="M91.7,74.3C91.8,75,91.8,75,91.7,74.3C91.7,74.4,91.7,74.4,91.7,74.3"/>
<g>
	<path class="st0" d="M535.6,74.9C535.6,74.6,535.6,74.6,535.6,74.9c-1.1-12.1-7.6-18.9-19.2-20h-4c-11,1.4-17.2,7.6-18.9,18.6v5.6
		c0.6,12.7,6.8,19.8,18.6,21.2h6.2V100c10.4-1.7,16.1-8.2,17.5-19.2v-0.6v-2h0.3v-0.3v-1.1C535.6,76,535.6,75.5,535.6,74.9
		 M515.8,60.5c2.3,0,4,0.3,5.4,1.4c4.5,2.5,6.8,7.1,7.6,13.6c0.3,1.1,0.3,2.3,0,3.7c-0.6,6.2-2.8,10.4-6.8,13.3
		c-2.5,1.7-5.6,2.3-9.6,1.4c-8.8-1.4-12.7-7.6-12.4-18.4C500.6,65.9,506,60.8,515.8,60.5 M455.1,75.5
		C455.1,75.5,455.1,75.7,455.1,75.5v3.1c0.8,12.4,7.3,19.8,19.2,21.5h8.8v-0.3c2.5,0,4.2-0.6,5.1-2c0.3-0.3,0.3-0.8,0.3-1.1v-0.6v-2
		c0-0.3,0-0.8-0.3-1.1c-0.3-0.6-0.8-0.6-2,0c-3.4,1.4-7.3,1.7-11.6,0.8c-8.5-1.7-12.7-7.9-12.7-18.4c1.1-10.2,7.3-15,18.4-15
		c2.3,0,4.2,0.3,5.9,1.1c0.6,0.3,1.1,0.6,1.7,0.8c0.3-2,0.3-4,0.6-5.9v-0.3c-2-1.1-4.8-1.7-7.9-2h-4.3c-12.4,1.1-19.5,7.6-21.5,19.5
		C455.1,74.6,455.1,74.9,455.1,75.5L455.1,75.5z M592.7,55.4C592.7,55.4,592.4,55.4,592.7,55.4h-10.4c-0.6,2-1.4,4-2,5.9
		c-3.7,10.2-7.6,20.3-11.3,30.2c-0.8-2-1.7-4-2.5-6.2c-3.7-10.2-7.6-20.3-11.6-30.2h-10.2v44h6.2V61.5c4,9.9,7.6,20,11.6,29.9
		c0.8,2.5,2,5.1,3.1,7.6h6.2c4-9.9,7.6-20.1,11.6-30.2c0.8-2.3,1.7-4.8,2.5-7.3v-0.3c0.6-0.3,0.8,0.6,0.8,2.3
		c-0.3,11.9-0.3,23.4-0.3,35.3h6.2v-2.5C592.7,83.1,592.7,69.3,592.7,55.4 M249,74.1c-1.1-12.1-7.9-18.6-20-19.5h-4.3
		c-11.3,1.1-18.1,6.8-19.8,17.5v8.5c1.1,11.3,7.1,17.5,17.8,19.2h7.9v-0.3c11-1.4,16.9-7.9,18.1-18.9V80v-2h0.3v-0.3V76L249,74.1
		 M225.8,63.3C225.8,63.3,226.1,63.3,225.8,63.3C226.1,63.3,226.1,63.3,225.8,63.3c0.8-0.3,1.7-0.3,2.3,0c5.1,1.1,8.2,4.5,8.8,10.2
		c0.8,8.5-1.1,13.8-6.2,16.9c-1.1,0.6-2.5,0.8-4.5,0.3c-6.8-1.4-9.6-6.8-9-16.1C217.6,68.4,220.5,64.7,225.8,63.3 M437.1,99.2
		c3.4,0.3,7.1,0.3,10.4,0.3h0.3V89.3h-10.7V99.2L437.1,99.2z M199.8,74.9C199.8,74.6,199.8,74.6,199.8,74.9
		c-1.1-12.4-8.2-18.6-20.9-19.2h-0.3c-0.8,0-1.4,0-1.7-0.3h-19.2v44h18.7v-0.3h2c13-0.6,20.3-7.3,21.5-19.8v-0.6
		C199.8,77.4,199.8,76.3,199.8,74.9 M181.8,65.6c3.1,1.7,4.8,4.5,5.4,8.5c1.4,12.1-4.5,17.8-17.5,16.4v-0.3V63.9h1.1v-0.3h4
		C177.8,64.2,180.1,64.7,181.8,65.6 M310.8,55.4C310.8,55.4,310.5,55.4,310.8,55.4H293c-3.1,9.9-6.2,19.5-9.6,29.1
		c-3.1-9.6-6.2-19.5-9.3-29.1h-18.4v44H267v-3.1v-8.5v-7.6v-7.9v-6.5c3.4,10.4,6.8,20.9,10.2,31.3c0.3,0.6,0.3,1.1,0.6,2h11
		c3.4-10.4,7.1-20.6,10.4-31.1c0.3-0.6,0.3-1.1,0.6-1.7v-0.6c0.6-0.3,0.6,0.3,0.6,2v5.9c0,3.7,0,7.1-0.3,10.2v15.3h11.6v-2.5
		C310.8,83.1,310.8,69.3,310.8,55.4 M350.1,99.5h12.7c-1.7-4.8-3.4-9.6-5.4-14.1c-4-9.9-7.6-20.1-11.6-29.9h-14.7
		c-1.7,4.5-3.1,9-5.1,13.6c-4,9.9-7.6,20.1-11.6,29.9c1.4,0.6,3.4,0.8,5.6,0.6c2,0,4.2-0.3,6.2-0.3c1.4-2.8,2.5-5.9,3.7-9.3v-0.3
		h16.4C347.5,93.3,348.7,96.4,350.1,99.5 M338.5,64.5C338.5,64.7,338.5,64.7,338.5,64.5c1.7,5.6,3.4,11.3,5.1,16.9
		c-2.3,0-4.8,0-7.1,0.3c-1.7,0-2.8-0.3-3.4-0.8c1.1-2.5,2-5.4,2.8-8.2v-0.3h-0.3c-0.3,0-0.3-0.3-0.3-0.6c0.3-0.3,0.3-0.3,0.6,0
		C336.8,69.3,337.6,66.7,338.5,64.5 M379.4,55.4C379.4,55.4,379.2,55.4,379.4,55.4h-11.9v44h11.9v-2.5V55.4 M428.6,58v-2.5h-10.7
		v10.8c0,6.5,0,12.7-0.3,18.9c-0.3-0.6-0.6-1.1-0.8-1.7c-4.5-9-9.3-18.4-13.8-27.7h-15.3v44h11v-7.6v-4.8v-5.1V73v-3.1h0.3
		c4.5,9.3,9.3,18.4,14.1,27.7c0.3,0.6,0.6,1.4,1.1,2.3h14.7C428.6,85.6,428.6,71.8,428.6,58L428.6,58z"/>
</g>
</svg>
