<?xml version="1.0" encoding="utf-8"?>
<!-- Generator: Adobe Illustrator 22.0.1, SVG Export Plug-In . SVG Version: 6.00 Build 0)  -->
<svg version="1.1" id="图层_1" xmlns="http://www.w3.org/2000/svg" xmlns:xlink="http://www.w3.org/1999/xlink" x="0px" y="0px"
	 viewBox="0 0 380 100" style="enable-background:new 0 0 380 100;" xml:space="preserve">
<style type="text/css">
	.st0{fill:#1F3244;}
	.st1{fill:#0073EC;}
</style>
<g>
	<path class="st0" d="M74,31.2h13.6c13.2,0,24.3,5.6,24.3,20.6c0,13.3-10.8,20.4-23,20.4H74V31.2z M83,63.9h4.7
		c8.4,0,14.7-3.2,14.7-12.5c0-8-6.4-11.8-14.1-11.8H83V63.9z"/>
	<path class="st0" d="M116.5,44.1h8.7v4.5h0.1c1.8-3.4,4.3-5.2,8.1-5.2c1,0,1.9,0.1,2.9,0.3v7.9c-1.2-0.4-2.5-0.6-3.7-0.6
		c-6.6,0-7.4,3.8-7.4,9.4v11.8h-8.7L116.5,44.1z"/>
	<path class="st0" d="M165.8,67.4c-2.9,3.5-7.3,5.6-11.9,5.6c-8.7,0-15.6-5.8-15.6-14.8s6.9-14.8,15.6-14.8
		c8.1,0,13.2,5.8,13.2,14.8v2.7H147c0.5,3.2,3.3,5.5,6.5,5.4c2.5,0,4.8-1.3,6.2-3.4L165.8,67.4z M158.4,55c0.1-2.9-2.2-5.3-5.1-5.3
		c-0.1,0-0.2,0-0.2,0c-3.2-0.2-5.9,2.2-6.1,5.3H158.4z"/>
	<path class="st0" d="M189,68.7h-0.1c-1.9,3-5.4,4.2-8.9,4.2c-5.3,0-10-3-10-8.7c0-9.7,11.8-9.9,19.1-9.9c0-3.1-2.6-5-5.6-5
		c-2.7,0-5.3,1.2-7.1,3.3l-4.6-4.8c3.4-3,7.8-4.6,12.4-4.5c10.1,0,12.9,5.2,12.9,14.5v14.3h-8L189,68.7z M186.9,59.9
		c-2.7,0-8.6,0.2-8.6,4c0,2.1,2.2,3.1,4.1,3.1c3.4,0,6.6-1.8,6.6-5.3v-1.8H186.9z"/>
	<path class="st0" d="M202.5,44.1h8.3v3.8h0.1c1.7-2.9,4.9-4.6,8.2-4.5c3.9,0,7.2,1.6,8.7,5c2-3.6,4.8-5,8.9-5c7.6,0,10,5.4,10,12.2
		v16.6H238V55.8c0-2.6-1-4.8-3.8-4.8c-4,0-5.3,2.8-5.3,6.3v14.9h-8.7V57.3c0-2.1,0.1-6.3-3.9-6.3c-4.5,0-5.2,3.5-5.2,7.2v14h-8.7
		L202.5,44.1L202.5,44.1z"/>
	<path class="st0" d="M252.2,31.2h9v15.3h17.5V31.2h9v41h-9V54.5h-17.5v17.7h-9L252.2,31.2z"/>
	<path class="st0" d="M307.4,43.4c8.7,0,15.6,5.8,15.6,14.8S316,73,307.4,73s-15.6-5.8-15.6-14.8S298.7,43.4,307.4,43.4 M307.4,65.3
		c4.3,0,7-2.9,7-7.1s-2.6-7.1-7-7.1s-7,2.9-7,7.1S303,65.3,307.4,65.3"/>
	<path class="st0" d="M342.9,52.4c-1.2-1.5-3.1-2.4-5-2.4c-1.5,0-3.2,0.6-3.2,2.3c0,4.2,14.6,0.6,14.6,11.3c0,7.2-7,9.3-13,9.3
		c-3.9,0-8.3-1-11.1-3.8l5.3-5.8c1.4,1.9,3.7,3.1,6.1,3.1c2,0,3.9-0.5,3.9-2c0-4.5-14.6-0.7-14.6-11.4c0-6.6,5.9-9.5,11.8-9.5
		c3.7,0,7.8,0.9,10.4,3.7L342.9,52.4z"/>
	<path class="st0" d="M372.6,51H365v9.4c0,3,0.4,5.2,4.1,5.2c0.9,0,2.8-0.1,3.5-0.8V72c-2,0.6-4,0.9-6.1,0.9
		c-5.8,0-10.2-2.4-10.2-8.5V51h-5.6v-7h5.6v-8.3h8.7V44h7.6V51z"/>
	<path class="st0" d="M58.5,62.8c-4.3,2.4-9.3,3.6-14.2,3.5C29,66.1,16.9,53.7,17.2,38.8c0.1-4.9,1.6-9.7,4.2-13.8
		C13,29.6,7.6,38.4,7.4,48C7.1,62.9,19.2,75.2,34.5,75.5C44.1,75.8,53.2,71,58.5,62.8"/>
</g>
<path class="st1" d="M44,63.1h0.5c4,0,7.9-1,11.4-2.8c6.6-11.4,2.8-26-8.6-32.6c-3.6-2.1-7.7-3.2-11.9-3.3c-4,0-8,1-11.5,2.9
	c-2.2,3.5-3.4,7.6-3.5,11.7C20.3,52.2,30.8,63,44,63.1"/>
</svg>
