<?xml version="1.0" encoding="utf-8"?>
<!-- Generator: Adobe Illustrator 22.0.1, SVG Export Plug-In . SVG Version: 6.00 Build 0)  -->
<svg version="1.1" id="图层_1" xmlns="http://www.w3.org/2000/svg" xmlns:xlink="http://www.w3.org/1999/xlink" x="0px" y="0px"
	 viewBox="0 0 350 100" style="enable-background:new 0 0 350 100;" xml:space="preserve">
<style type="text/css">
	.st0{fill:#EC1C24;}
	.st1{fill:#FFFFFF;}
	.st2{fill:#838383;}
</style>
<path d="M334.7,23.2l-6.4,9.8l-6.2-9.8h-10.8l0.6,0.8c-1.4-0.4-3.2-0.8-5.2-0.8h-2.8h-13.4v9.2c-0.8-2.4-1.8-4.2-3.6-5.8
	c-2.8-2.6-6.8-4-12-4c0,0,0,0-0.2,0c-5,0-9,1.4-11.8,4c-1.6,1.4-2.8,3.4-3.6,5.6c-0.2-0.8-0.8-2-1-2.6c-1-2-2.4-3.6-4.2-4.8
	c-1.4-1.4-3-2-5.2-2.4c-1.2-0.2-2.6-0.4-4-0.4c-5,0-9,1.4-11.8,4s-4,6.2-4,11.2c0,0.2,0,0.4,0,0.4c-0.8-1-2-2-3.6-2.8
	c-1.8-0.8-5-1.8-9.2-2.6c-1.8-0.4-2.8-0.8-3.4-1c-0.4-0.4-0.8-0.8-0.8-1.2c0-0.6,0.2-1.2,0.8-1.6s1.4-0.6,2.6-0.6
	c1.4,0,2.4,0.2,3.2,0.8c0.8,0.6,1.2,1.4,1.4,2.6h9.2c-0.4-3-1.8-5.4-3.8-6.8s-5.2-2-9.2-2c-3.4,0-5.8,0.4-7.8,1
	c-1.8,0.8-3.4,1.8-4.2,3c-0.4,1.6-0.8,3-0.8,4.4c0,2.4,1,4.2,2.8,5.6s4.8,2.6,9.2,3.6c2.6,0.4,4.2,1,5,1.8c0.8,0.6,1.2,1.2,1.2,2
	s-0.4,1.4-1.2,2s-1.8,0.8-3.2,0.8c-1.8,0-3.4-0.6-4.2-1.8c-0.6-0.8-1-1.4-1.2-3h-8.8l-7.8-19.3h-4.4c-0.8,0-1.4,0-2,0h-4l-10.2,25.3
	l-9.4-14.2l11.4-11h-13.2l-10,10.8V22.8l0,0h-9.4h-0.2V42c-0.2,0.8-0.6,1.8-1.2,2.4c-1,0.8-2.2,1.4-4,1.4s-3-0.4-4-1.4
	c-1-0.8-1.4-2-1.4-3.8v-18h-9.6v6.4c-0.2-1-0.4-2-0.8-3c-0.6-2.4-1.6-4.2-3-6s-3.4-3-5.4-4c-2.2-0.8-5-1.2-8.6-1.2H87.2v36.9H105
	c0.2,0,0.2,0,0.2,0c2.2,0,4.6-0.4,7.2-1c2-0.4,3.8-1.4,5.4-3c1.8-1.4,3-3.2,4-5.4c0.4-1.2,0.8-2.6,1.2-4.4v2c0,1.4,0.2,3,0.8,5
	c0.4,1,1.2,2.4,2,3.4c1,1,2,2,3.4,2.6c1.2,0.6,2.8,1,4.4,1.2c1.8,0.2,3.4,0.4,5,0.4c2,0,3.6-0.2,5.2-0.4h9v-7l5-4.8l6.6,12h7.8h4h6
	l1.4-4.8h5.4c1.8,0,3.8,0,5.6,0l1.4,4.8h10.2l-1-2.4c2,2,5.6,3,11,3c3,0,5.6-0.4,7.6-1.2s3.6-2,4.6-3.6c0.8-1,1.2-2,1.4-3.2
	c0.2,0.6,0.6,1.2,1,1.8c1.6,2.4,3.4,4,5.6,4.8c2,0.8,5,1.4,8.4,1.4c1.4,0,2.6-0.2,3.6-0.2c1.2-0.2,2.4-0.4,3.4-0.8
	c1.8-0.8,3.4-2,4.6-3.4c0.8-1,1.6-2.2,2-3.6c0.2-0.4,0.2-1,0.4-1.6c0.4,1,0.8,2.2,1.4,3.2c1.4,2.4,3.4,4,5.6,5s5,1.4,8.6,1.6
	c0.2,0,0.2,0,0.2,0c3.6,0,6.4-0.6,8.8-1.8s4-3,5.2-5.2c0.4-0.8,0.8-1.8,1.2-3v9.4h9.8V42h3.6h1.6c4,0,6.8-0.8,8.8-2.4
	c1.8-1.8,2.8-4,2.8-7c0-0.4,0-0.8,0-1l6.6,9v12.2h9.6V40.5l12.2-17C345.5,23.2,334.7,23.2,334.7,23.2z M110.4,40
	c-0.8,1.4-1.4,2.4-2.6,2.8c-0.4,0.2-1.2,0.4-2,0.4c-0.4,0.2-0.8,0.2-1.2,0.2c-0.6,0.2-1.4,0.2-2.2,0.2h-3V23.4h3c1,0,2,0.2,2.8,0.2
	c1.8,0.4,3,1,4,2c1.4,1.4,2,4,2,8C111.4,36.5,111,38.5,110.4,40z M189.3,41h-3.4l3.2-10l0.2-0.4l3.4,10.6
	C191.7,41,190.5,41,189.3,41z M258.6,37.4c0,1.4,0.2,2.8,0.4,4h-8.6c-0.2,1.2-0.6,2.2-1.4,3c-1,1-2.4,1.4-4.2,1.4s-3.4-0.6-4.4-1.8
	c-1.2-1.2-1.6-3.4-1.6-6.8c0-2.6,0.4-4.6,1.4-5.8c1.2-1.8,2.8-2.6,5-2.6c1,0,1.8,0.2,2.6,0.6c0.4,0.2,0.8,0.4,1.2,0.8
	c0.6,0.4,1.2,1.2,1.4,2h8.8C258.8,33.8,258.6,35.6,258.6,37.4z M279.6,44c-1.2,1.2-2.8,1.8-4.8,1.8s-3.6-0.6-4.8-2
	c-1.2-1.2-1.8-3.4-1.8-6.4s0.6-5.2,1.8-6.4c1.2-1.4,2.8-2,4.6-2c0,0,0,0,0.2,0c2,0,3.6,0.6,4.6,2c1.2,1.2,1.8,3.2,1.8,6
	C281.4,40.4,280.8,42.8,279.6,44z M306.6,34.3c-1.2,0.8-2.8,0.8-4,0.8h-2.4v-6.6h2.8c1.2,0,2.8,0.2,3.6,1c0.8,0.6,1,1.4,1,2.4
	C307.6,32.8,307.4,33.6,306.6,34.3z"/>
<path class="st0" d="M70.4,82.9H10.1c-2.8,0-5-2.2-5-5V18c0-2.8,2.2-5,5-5h60.3c2.6,0,4.8,2.2,4.8,5v59.8
	C75.4,80.6,73.2,82.9,70.4,82.9z"/>
<polygon class="st1" points="33.1,68.9 47.2,68.9 47.2,54.9 61.2,54.9 61.2,41 47.2,41 47.2,27 33.1,27 33.1,41 19.1,41 19.1,54.9 
	33.1,54.9 "/>
<g>
	<path class="st2" d="M87.2,75.6l2.4-0.2c0.2,1,0.4,1.8,0.8,2.2c0.4,0.6,1,1.2,1.8,1.4c0.8,0.4,1.8,0.4,2.8,0.4s1.8-0.2,2.4-0.4
		c0.8-0.2,1.2-0.6,1.6-1.2c0.4-0.4,0.4-1,0.4-1.6c0-0.6-0.2-1.2-0.4-1.4c-0.4-0.4-0.8-0.8-1.8-1.2c-0.4-0.2-1.6-0.4-3.4-0.8
		c-1.8-0.4-2.8-0.8-3.6-1.2c-0.8-0.4-1.6-1-2-1.8s-0.6-1.4-0.6-2.4s0.2-1.8,0.8-2.6c0.6-0.8,1.4-1.4,2.4-1.8c1-0.4,2-0.6,3.4-0.6
		s2.6,0.2,3.6,0.6c1.2,0.4,1.8,1.2,2.4,2s1,1.8,1,2.8l-2.4,0.2c-0.2-1.2-0.4-2-1.2-2.8c-0.8-0.6-1.8-0.8-3.2-0.8s-2.6,0.2-3.2,0.8
		s-1,1.2-1,2c0,0.6,0.2,1.2,0.8,1.6c0.6,0.4,1.8,0.8,3.6,1.4c2,0.4,3.4,0.8,4,1.2c1.2,0.4,1.8,1.2,2.4,1.8s0.8,1.6,0.8,2.6
		s-0.2,2-0.8,2.8c-0.6,0.8-1.4,1.6-2.4,2c-1.2,0.4-2.2,0.8-3.6,0.8c-1.8,0-3-0.2-4.2-0.8s-2-1.2-2.8-2.2
		C87.6,78.1,87.4,76.9,87.2,75.6z"/>
	<path class="st2" d="M107.6,81.6l-4-13.4h2.4l2,7.8l0.8,2.8c0-0.2,0.2-1.2,0.8-2.8l2-7.8h2.4l2,7.8l0.6,2.6l0.8-2.6l2.4-7.8h2.2
		l-4.2,13.4h-2.6l-2-8l-0.4-2.4L110,81.6C109.8,81.6,107.6,81.6,107.6,81.6z"/>
	<path class="st2" d="M123.6,65.7v-2.6h2.2v2.6H123.6z M123.6,81.6V68.2h2.2v13.4C125.8,81.7,123.6,81.7,123.6,81.6z"/>
	<path class="st2" d="M128.6,77.6l2.2-0.4c0.2,0.8,0.4,1.6,1.2,2c0.6,0.4,1.4,0.8,2.4,0.8s1.8-0.2,2.4-0.6c0.4-0.4,0.8-1,0.8-1.4
		c0-0.4-0.2-0.8-0.6-1.2c-0.4-0.2-1.2-0.4-2.4-0.8c-1.8-0.4-2.8-0.8-3.4-1.2c-0.6-0.2-1.2-0.8-1.4-1.2c-0.4-0.4-0.4-1.2-0.4-1.8
		s0.2-1.2,0.4-1.6c0.2-0.4,0.6-1,1.2-1.2c0.4-0.2,0.8-0.4,1.4-0.6c0.6-0.2,1.2-0.2,2-0.2c1.2,0,2,0.2,2.8,0.4
		c0.8,0.2,1.4,0.8,1.8,1.2c0.4,0.4,0.6,1.2,0.8,2l-2.2,0.2c-0.2-0.8-0.4-1.2-0.8-1.6c-0.4-0.4-1.2-0.6-2-0.6c-1,0-1.8,0.2-2.2,0.4
		c-1.2,0.6-1.4,1-1.4,1.4c0,0.2,0.2,0.6,0.2,0.8c0.2,0.2,0.4,0.4,0.8,0.6c0.2,0.2,0.8,0.2,2,0.6c1.6,0.4,2.8,0.8,3.4,1.2
		c0.6,0.2,1.2,0.6,1.4,1.2c0.4,0.4,0.4,1.2,0.4,2s-0.2,1.4-0.6,2c-0.4,0.6-1.2,1.2-2,1.6c-0.8,0.4-1.8,0.4-2.8,0.4
		c-1.8,0-3-0.4-4-1.2C129.4,80.1,128.8,79.1,128.6,77.6z"/>
	<path class="st2" d="M141.5,77.6l2.2-0.4c0.2,0.8,0.4,1.6,1.2,2c0.6,0.4,1.4,0.8,2.4,0.8s1.8-0.2,2.4-0.6c0.4-0.4,0.8-1,0.8-1.4
		c0-0.4-0.2-0.8-0.6-1.2c-0.4-0.2-1.2-0.4-2.4-0.8c-1.8-0.4-2.8-0.8-3.4-1.2c-0.6-0.2-1.2-0.8-1.4-1.2s-0.4-1.2-0.4-1.8
		s0.2-1.2,0.4-1.6c0.2-0.4,0.6-1,1.2-1.2c0.4-0.2,0.8-0.4,1.4-0.6c0.6-0.2,1.2-0.2,2-0.2c1.2,0,2,0.2,2.8,0.4
		c0.8,0.2,1.4,0.8,1.8,1.2c0.4,0.4,0.6,1.2,0.8,2l-2.2,0.2c-0.2-0.8-0.4-1.2-0.8-1.6c-0.4-0.4-1.2-0.8-2-0.8c-1,0-1.8,0.2-2.2,0.4
		c-0.4,0.4-0.6,0.8-0.6,1.2c0,0.2,0.2,0.6,0.2,0.8c0.2,0.2,0.4,0.4,0.8,0.6c0.2,0.2,0.8,0.2,2,0.6c1.6,0.4,2.8,0.8,3.4,1.2
		c0.6,0.2,1.2,0.6,1.4,1.2c0.4,0.4,0.4,1.2,0.4,2s-0.2,1.4-0.6,2c-0.4,0.6-1.2,1.2-2,1.6c-0.8,0.4-1.8,0.4-2.8,0.4
		c-1.8,0-3-0.4-4-1.2C142.3,80.1,141.7,79.1,141.5,77.6z"/>
	<path class="st2" d="M162.9,81.6V63h7c1.4,0,2.6,0.2,3.4,0.6c0.8,0.4,1.4,1,2,1.8c0.4,0.8,0.8,1.6,0.8,2.4c0,0.8-0.2,1.4-0.6,2.2
		c-0.4,0.8-1.2,1.2-2,1.8c1.2,0.4,2,0.8,2.6,1.8c0.6,0.8,0.8,1.8,0.8,2.8c0,0.8-0.2,1.8-0.4,2.4c-0.4,0.8-0.8,1.4-1.4,1.8
		c-0.4,0.4-1.2,0.8-2,0.8c-0.8,0.2-1.8,0.4-3,0.4h-7.2L162.9,81.6L162.9,81.6z M165.1,70.9h4c1.2,0,1.8-0.2,2.4-0.2
		c0.6-0.2,1.2-0.4,1.4-0.8c0.4-0.4,0.4-1,0.4-1.6c0-0.6-0.2-1.2-0.4-1.6c-0.2-0.4-0.8-0.8-1.2-1c-0.4-0.2-1.4-0.2-2.8-0.2h-3.6
		L165.1,70.9L165.1,70.9z M165.1,79.4h4.6c0.8,0,1.4,0,1.8-0.2c0.6-0.2,1-0.2,1.4-0.4s0.8-0.6,1-1c0.2-0.4,0.4-1,0.4-1.6
		c0-0.8-0.2-1.2-0.4-1.8c-0.4-0.4-0.8-0.8-1.4-1.2c-0.6-0.2-1.4-0.4-2.8-0.4h-4.4v6.6H165.1z"/>
	<path class="st2" d="M188.5,80.1c-0.8,0.8-1.6,1.2-2.4,1.4c-0.8,0.2-1.6,0.4-2.4,0.4c-1.4,0-2.6-0.4-3.4-1.2
		c-0.8-0.8-1.2-1.6-1.2-2.8c0-0.6,0.2-1.2,0.4-1.8c0.2-0.4,0.8-1,1.2-1.4c0.4-0.4,1-0.6,1.6-0.8c0.4-0.2,1.2-0.2,2-0.4
		c1.8-0.2,3.2-0.4,4-0.8c0-0.4,0-0.4,0-0.6c0-1-0.2-1.6-0.6-2c-0.6-0.4-1.4-0.8-2.6-0.8c-1.2,0-1.8,0.2-2.4,0.6
		c-0.6,0.4-0.8,1-1.2,2l-2.2-0.2c0.2-1,0.4-1.8,1-2.4c0.4-0.6,1.2-1,2-1.4c0.8-0.4,1.8-0.4,3-0.4s2,0.2,2.8,0.4
		c0.8,0.2,1.2,0.6,1.6,1c0.4,0.4,0.6,1,0.8,1.6c0.2,0.4,0.2,1.2,0.2,2v3c0,2,0,3.4,0.2,4c0.2,0.6,0.2,1.2,0.6,1.6h-2.2
		C188.9,81.1,188.5,80.6,188.5,80.1z M188.3,74.9c-0.8,0.4-2,0.6-3.6,0.8c-1,0.2-1.6,0.2-2,0.4c-0.4,0.2-0.8,0.4-0.8,0.8
		c-0.2,0.4-0.4,0.8-0.4,1.2c0,0.6,0.2,1.2,0.8,1.4c0.4,0.4,1.2,0.6,2,0.6s1.6-0.2,2.4-0.6c0.8-0.4,1.2-0.8,1.4-1.6
		c0.2-0.4,0.4-1.2,0.4-2.2v-0.8C188.5,74.9,188.3,74.9,188.3,74.9z"/>
	<path class="st2" d="M194.3,81.6V68.2h2v1.8c1-1.4,2.4-2.2,4.4-2.2c0.8,0,1.6,0.2,2.2,0.4c0.6,0.2,1.2,0.6,1.4,1.2
		c0.4,0.4,0.6,1,0.8,1.8c0.2,0.4,0.2,1.2,0.2,2.2v8.2h-2.2v-8.2c0-1-0.2-1.6-0.2-2c-0.2-0.4-0.4-0.8-1-1.2c-0.4-0.2-1-0.4-1.6-0.4
		c-1,0-1.8,0.4-2.4,0.8c-0.8,0.6-1.2,1.8-1.2,3.4v7.2L194.3,81.6L194.3,81.6z"/>
	<path class="st2" d="M208.5,81.6V63h2.2v10.6l5.4-5.4h3l-5.2,5l5.6,8.4h-2.8l-4.4-7l-1.6,1.6v5.4H208.5z"/>
	<path class="st2" d="M221.6,65.7v-2.6h2.2v2.6H221.6z M221.6,81.6V68.2h2.2v13.4C223.8,81.7,221.6,81.7,221.6,81.6z"/>
	<path class="st2" d="M227.4,81.6V68.2h2v1.8c1-1.4,2.4-2.2,4.4-2.2c0.8,0,1.6,0.2,2.2,0.4c0.6,0.2,1.2,0.6,1.4,1.2
		c0.4,0.4,0.6,1,0.8,1.8c0.2,0.4,0.2,1.2,0.2,2.2v8.2h-2.2v-8.2c0-1-0.2-1.6-0.2-2c-0.2-0.4-0.4-0.8-1-1.2c-0.4-0.2-1-0.4-1.6-0.4
		c-1,0-1.8,0.4-2.4,0.8c-0.8,0.6-1.2,1.8-1.2,3.4v7.2L227.4,81.6L227.4,81.6z"/>
	<path class="st2" d="M241.4,82.6l2.2,0.4c0.2,0.8,0.4,1.2,0.8,1.4c0.6,0.4,1.4,0.6,2.4,0.6c1.2,0,1.8-0.2,2.4-0.6
		c0.6-0.4,1-1,1.2-1.8c0.2-0.4,0.2-1.4,0.2-3c-1,1.2-2.2,1.8-3.6,1.8c-1.8,0-3.4-0.6-4.4-2c-1-1.4-1.4-3-1.4-4.8
		c0-1.2,0.2-2.4,0.8-3.6c0.4-1.2,1.2-2,2-2.4c0.8-0.6,2-0.8,3-0.8c1.6,0,2.8,0.6,4,2v-1.6h2v11.6c0,2-0.2,3.6-0.6,4.4
		c-0.4,0.8-1.2,1.6-2,2c-0.8,0.4-2,0.8-3.4,0.8c-1.6,0-2.8-0.4-3.8-1.2C241.8,85.2,241.4,84.2,241.4,82.6z M243.2,74.6
		c0,1.8,0.4,3,1.2,3.8s1.6,1.2,2.6,1.2s2-0.4,2.6-1.2s1.2-2,1.2-3.8c0-1.6-0.4-2.8-1.2-3.8s-1.6-1.2-2.6-1.2s-1.8,0.4-2.6,1.2
		C243.6,71.6,243.2,73.1,243.2,74.6z"/>
	<path class="st2" d="M272.2,74.2v-2h7.8v7c-1.2,1-2.4,1.8-3.6,2.2s-2.6,0.8-4,0.8c-1.8,0-3.4-0.4-5-1.2c-1.4-0.8-2.6-1.8-3.4-3.4
		c-0.8-1.4-1.2-3-1.2-5c0-1.8,0.4-3.4,1.2-5c0.8-1.6,1.8-2.8,3.2-3.4c1.4-0.8,3-1.2,5-1.2c1.4,0,2.6,0.2,3.6,0.6
		c1.2,0.4,2,1,2.6,1.8c0.6,0.8,1.2,1.8,1.4,3l-2.2,0.6c-0.2-1-0.6-1.8-1-2.2s-1-1-1.8-1.2c-0.8-0.4-1.6-0.4-2.6-0.4
		c-1.2,0-2,0.2-3,0.4c-0.8,0.4-1.4,0.8-2,1.4c-0.4,0.6-0.8,1.2-1.2,1.8c-0.4,1.2-0.8,2.4-0.8,3.8c0,1.6,0.2,3,0.8,4.2
		c0.6,1.2,1.4,2,2.4,2.4c1.2,0.4,2.2,0.8,3.4,0.8c1.2,0,2-0.2,3-0.6c1-0.4,1.8-0.8,2.4-1.4v-3.2h-5.6v-0.6
		C271.6,74.3,272.2,74.3,272.2,74.2z"/>
	<path class="st2" d="M283.4,81.6V68.2h2v2c0.4-1,1-1.6,1.4-1.8c0.4-0.2,1-0.4,1.4-0.4c0.8,0,1.6,0.2,2.4,0.8l-0.8,2
		c-0.6-0.4-1.2-0.4-1.8-0.4c-0.4,0-1,0.2-1.4,0.4c-0.4,0.2-0.6,0.8-0.8,1.2c-0.2,0.8-0.4,1.8-0.4,2.8v7
		C285.6,81.6,283.4,81.6,283.4,81.6z"/>
	<path class="st2" d="M291.2,74.9c0-2.4,0.8-4.4,2-5.6c1.2-1,2.6-1.4,4.2-1.4c1.8,0,3.4,0.6,4.6,1.8c1.2,1.2,1.8,2.8,1.8,5
		c0,1.8-0.2,3-0.8,4c-0.4,1-1.2,1.8-2.2,2.4c-1,0.4-2,0.8-3.2,0.8c-1.8,0-3.4-0.6-4.6-1.8C292,79.1,291.2,77.2,291.2,74.9z
		 M293.6,74.9c0,1.8,0.4,3,1.2,3.8s1.8,1.2,2.8,1.2c1.2,0,2-0.4,2.8-1.2c0.8-0.8,1.2-2.2,1.2-4c0-1.6-0.4-3-1.2-3.8
		c-0.8-0.8-1.8-1.2-2.8-1.2s-2,0.4-2.8,1.2C294,71.6,293.6,73.2,293.6,74.9z"/>
	<path class="st2" d="M315.3,81.6v-2c-1,1.4-2.4,2.2-4.4,2.2c-0.8,0-1.4-0.2-2.2-0.4c-0.8-0.2-1.2-0.8-1.4-1.2
		c-0.4-0.4-0.6-1-0.8-1.8c-0.2-0.4-0.2-1.2-0.2-2v-8.2h2.2v7.4c0,1.2,0,2,0.2,2.4c0.2,0.6,0.4,1.2,0.8,1.4c0.4,0.2,1,0.4,1.8,0.4
		s1.4-0.2,2-0.4c0.6-0.4,1-0.8,1.2-1.4c0.2-0.6,0.4-1.4,0.4-2.6v-7.2h2.2v13.4L315.3,81.6L315.3,81.6z"/>
	<path class="st2" d="M320.9,86.9V68.2h2v1.8c0.4-0.8,1-1.2,1.6-1.4c0.6-0.4,1.4-0.4,2.2-0.4c1.2,0,2,0.2,3,0.8
		c0.8,0.6,1.4,1.4,2,2.4c0.4,1.2,0.6,2.2,0.6,3.6c0,1.4-0.2,2.6-0.8,3.8c-0.4,1.2-1.2,2-2,2.4c-1,0.6-2,0.8-3,0.8
		c-0.8,0-1.4-0.2-2-0.4c-0.6-0.4-1.2-0.8-1.4-1.2v6.4L320.9,86.9L320.9,86.9z M322.9,74.9c0,1.8,0.4,3,1.2,3.8
		c0.8,0.8,1.6,1.2,2.6,1.2s1.8-0.4,2.6-1.2c0.8-0.8,1.2-2.2,1.2-4s-0.4-3-1.2-3.8c-0.8-0.8-1.6-1.2-2.4-1.2c-1,0-1.8,0.4-2.6,1.4
		S322.9,73.2,322.9,74.9z"/>
</g>
</svg>
