<?xml version="1.0" encoding="utf-8"?>
<!-- Generator: Adobe Illustrator 22.0.1, SVG Export Plug-In . SVG Version: 6.00 Build 0)  -->
<svg version="1.1"
	 id="svg186" xmlns:cc="http://creativecommons.org/ns#" xmlns:dc="http://purl.org/dc/elements/1.1/" xmlns:rdf="http://www.w3.org/1999/02/22-rdf-syntax-ns#" xmlns:svg="http://www.w3.org/2000/svg"
	 xmlns="http://www.w3.org/2000/svg" xmlns:xlink="http://www.w3.org/1999/xlink" x="0px" y="0px" viewBox="0 0 1000 260"
	 style="enable-background:new 0 0 1000 260;" xml:space="preserve">
<style type="text/css">
	.st0{fill:#0CAEB1;}
	.st1{fill:#058984;}
	.st2{fill:#EF5F54;}
	.st3{fill:#FD9F82;}
	.st4{fill:#617DC6;}
	.st5{fill:#1A5F78;}
	.st6{fill:#AF385C;}
	.st7{fill:#233560;}
</style>
<g id="layer1" transform="translate(30.23809790327757,-94.54715916918962)">
	<g id="g297" transform="translate(-4.810868253675969e-7,2.293503087003046e-6)">
		<g id="g3148" transform="matrix(0.1043728997530271,0,0,0.1043728997530271,96.07523801916825,145.3937048758759)">
			<g id="g3116" transform="matrix(3.8408629,0,0,3.8408629,-1218.3198,550.4260699999997)">
				<g id="g2450" transform="matrix(1.0847383,0,0,1.0847383,-4.6424721,-273.37031)">
					<path id="path2452" class="st0" d="M836.9,296v102.9c0.3,3.4-0.9,6.8-3.4,9.3c-2.5,2.4-5.9,3.6-9.3,3.3h-8.5
						c-3.5,0.4-6.9-0.8-9.4-3.2c-2.5-2.4-3.8-5.9-3.4-9.3v-93.2c0-53.4-11.9-82.6-45.4-82.6c-31.7,0-77.5,26.7-77.5,75.8v100
						c0.3,3.4-0.9,6.8-3.3,9.2c-2.4,2.4-5.8,3.7-9.2,3.4H659c-3.5,0.3-6.9-0.9-9.4-3.3c-2.5-2.5-3.7-5.9-3.3-9.4V104.5
						c-0.5-6.6,3.8-12.6,10.1-14.3l9.3-2.9c9.3-2.9,14.4,1.3,14.4,10.2v130.4c19.9-24.2,48.7-32.1,81.8-32.1
						C815.2,195.6,836.9,237.1,836.9,296"/>
				</g>
				<g id="g2456" transform="matrix(1.0847383,0,0,1.0847383,-4.6424721,-273.37031)">
					<path id="path2458" class="st0" d="M574.7,374.7c9.8-5.5,11.9-4.2,17.8,1.7l0.4,0.4c6.3,6.3,3.8,13.2-1.3,17.8
						c-11.3,10.6-43.6,21.2-74.1,21.2c-59.7,0-105.8-40.7-105.8-109.3c0-64.8,41.1-111,101.2-111c63.9,0,97,52.1,97,100.8
						c0,11-1.7,15.7-12.3,15.7H445.5c3,57.2,35.6,78.8,76.2,78.8C545.5,390.8,559.5,383.7,574.7,374.7 M446.2,288.8h129.9
						c-4.2-38.6-18.9-67.8-61.4-67.8c-38.2,0-62.4,24.2-68.3,67.8L446.2,288.8"/>
				</g>
				<g id="g2462" transform="matrix(1.0847383,0,0,1.0847383,-4.6424721,-273.37031)">
					<path id="path2464" class="st0" d="M1056.3,199.8h8.5c3.5-0.3,6.9,0.9,9.4,3.3c2.5,2.5,3.7,5.9,3.3,9.4v186.3
						c0,8.1-2.6,12.3-9,12.3c-2.9,0-6.2-0.5-10.9-8.5l-11-18.9c-18.7,20.9-45.6,32.6-73.6,32.1c-60.5,0-102.9-47-102.9-110.1
						s41.6-110.1,102.5-110.1c29.2,0,53.4,5,71.2,27v-10.1c-0.4-3.4,0.9-6.9,3.3-9.3C1049.4,200.8,1052.8,199.5,1056.3,199.8
						 M1044.9,306.1c0-66.1-38.1-82.2-68.6-82.2c-42.8,0-72.4,31.3-72.4,81.8s29.6,81.7,72.8,81.7c30.9,0,68-16.1,68-81.3H1044.9"/>
				</g>
				<g id="g2468" transform="matrix(1.0847383,0,0,1.0847383,-4.6424721,-273.37031)">
					<path id="path2470" class="st0" d="M1264.2,208.7c8.1,6.8,6.3,12.7,0.4,18.2l-5.1,4.6c-6.8,6.3-12.3,4.2-18.2,0.4
						c-8.4-5.3-18.1-8.1-28-8.1c-30.2,0-53.8,22.5-53.8,61l-0.9,113.9c0.4,3.5-0.8,6.9-3.3,9.4c-2.5,2.5-5.9,3.6-9.4,3.2h-8.5
						c-3.5,0.3-6.9-0.9-9.4-3.3c-2.5-2.5-3.7-5.9-3.3-9.4V212.6c-0.4-3.5,0.9-6.9,3.3-9.4c2.5-2.5,5.9-3.7,9.4-3.4h8.5
						c3.5-0.3,6.9,0.9,9.4,3.3c2.5,2.5,3.7,5.9,3.3,9.4v14c16.5-18.6,38.6-30.5,62.2-30.5C1235.4,196,1253.6,200.3,1264.2,208.7"/>
				</g>
				<g id="g2474" transform="matrix(1.0847383,0,0,1.0847383,-4.6424721,-273.37031)">
					<path id="path2476" class="st0" d="M1612.5,295.6v103.3c0.3,3.4-0.9,6.8-3.4,9.3c-2.5,2.4-5.9,3.6-9.3,3.3h-8.5
						c-3.5,0.3-6.9-0.9-9.4-3.3c-2.5-2.5-3.7-5.9-3.3-9.4v-99c0-49.5-14-76.6-44.5-76.6s-61,25.4-61.4,75.8v99.9
						c0.3,3.4-0.9,6.8-3.4,9.3c-2.5,2.4-5.9,3.6-9.3,3.3h-8.5c-3.5,0.3-6.9-0.9-9.4-3.3c-2.5-2.5-3.7-5.9-3.3-9.4v-99
						c0-49.5-14-76.6-44.5-76.6c-30.5,0-61,25.4-61.4,75.8v99.9c0.3,3.4-0.9,6.8-3.4,9.3c-2.5,2.4-5.9,3.6-9.3,3.3h-8.5
						c-3.5,0.3-6.9-0.9-9.4-3.3c-2.5-2.5-3.7-5.9-3.3-9.4V212.6c-0.4-3.5,0.9-6.9,3.3-9.4c2.5-2.5,5.9-3.7,9.4-3.4h8.5
						c3.5-0.3,6.9,0.9,9.4,3.3c2.5,2.5,3.7,5.9,3.3,9.4v16.1c16.9-20.7,35.6-34,63.5-34c31.3,0,56.7,16.1,67.8,45.7
						c19.9-30.5,42.4-45.7,73.7-45.7C1589,194.8,1612.5,236.3,1612.5,295.6"/>
				</g>
				<g id="g2480" transform="matrix(1.0847383,0,0,1.0847383,-4.6424721,-273.37031)">
					<path id="path2482" class="st0" d="M1649.8,306.1c0-69,48.3-110.1,103.7-110.1c55.5,0,103.7,41.1,103.7,110.1
						s-48.3,110.1-103.7,110.1C1698.1,416.2,1649.8,375.2,1649.8,306.1 M1822.6,306.1c0-53.8-33.4-82.6-69-82.6
						c-35.6,0-69.5,28.4-69.5,83.1s33.9,82.1,69,82.1S1822.6,361.2,1822.6,306.1"/>
				</g>
				<g id="g2486" transform="matrix(1.0847383,0,0,1.0847383,-4.6424721,-273.37031)">
					<path id="path2488" class="st0" d="M2085.4,295.6v103.3c0.3,3.4-0.9,6.8-3.4,9.3c-2.4,2.4-5.9,3.6-9.3,3.3h-8.5
						c-3.5,0.3-6.9-0.9-9.4-3.3c-2.5-2.5-3.7-5.9-3.3-9.4v-99c0-47-9.8-76.6-45.7-76.6c-33,0-75.4,25-77.1,79.6v96.1
						c0.3,3.5-0.9,6.9-3.4,9.3c-2.5,2.4-5.9,3.6-9.4,3.3h-8.5c-3.5,0.3-6.9-0.9-9.4-3.3c-2.5-2.5-3.7-5.9-3.3-9.4V212.6
						c-0.4-3.5,0.9-6.9,3.3-9.4c2.5-2.5,5.9-3.7,9.4-3.4h8.5c3.5-0.3,6.9,0.9,9.4,3.3c2.5,2.5,3.7,5.9,3.3,9.4v17.3
						c21.6-26.7,48.7-35.1,80.5-35.1C2063.4,194.8,2085.4,236.7,2085.4,295.6"/>
				</g>
				<g id="g2492" transform="matrix(1.0847383,0,0,1.0847383,-4.6424721,-273.37031)">
					<path id="path2494" class="st0" d="M2287.5,193.9h7.2c9.3,0,13.6,5.9,9.8,14.8l-129.6,299.1c-2.3,6.1-8.3,10-14.8,9.8h-7.2
						c-9.3,0-13.5-5.9-9.8-14.8l46.7-102l-74.6-192c-3.4-8.9,0.8-14.8,10.2-14.8h9.8c6.7-0.6,12.9,3.7,14.8,10.2l56.3,157.1
						l66.5-157.5C2275,197.5,2281,193.6,2287.5,193.9"/>
				</g>
			</g>
			<g id="g3098" transform="matrix(3.8149791,0,0,3.8149791,-1214.6076,546.92916)">
				<g id="g2500" transform="matrix(1.0847383,0,0,1.0847383,-4.6424721,-273.37031)">
					<path id="path2502" class="st0" d="M184.2,153.2c-40.9-40.9-107.2-40.9-148.2,0l74.1,74.1L184.2,153.2"/>
				</g>
				<g id="g2506" transform="matrix(1.0847383,0,0,1.0847383,-4.6424721,-273.37031)">
					<path id="path2508" class="st1" d="M36,301.3l74.1-74.1L36,153.2C-4.9,194.1-4.9,260.4,36,301.3L36,301.3"/>
				</g>
				<g id="g2512" transform="matrix(1.0847383,0,0,1.0847383,-4.6424721,-273.37031)">
					<path id="path2514" class="st2" d="M332.3,301.3c40.9-40.9,40.9-107.2,0-148.2l-74.1,74.1L332.3,301.3"/>
				</g>
				<g id="g2518" transform="matrix(1.0847383,0,0,1.0847383,-4.6424721,-273.37031)">
					<path id="path2520" class="st3" d="M184.2,153.2l74.1,74.1l74.1-74.1C291.4,112.3,225.1,112.3,184.2,153.2L184.2,153.2"/>
				</g>
				<g id="g2524" transform="matrix(1.0847383,0,0,1.0847383,1.1500659,-270.17054)">
					<path id="path2526" class="st4" d="M253,224.3l-74.1-74.1l-74.1,74.1l74.1,74.1L253,224.3"/>
				</g>
				<g id="g2530" transform="matrix(1.0847383,0,0,1.0847383,1.1500659,-270.17054)">
					<path id="path2532" class="st5" d="M104.8,224.3l-74.1,74.1l74.1,74.1l74.1-74.1L104.8,224.3"/>
				</g>
				<g id="g2536" transform="matrix(0.76702515,-0.76702515,0.76702515,0.76702515,-27.009889,-199.17435)">
					<path id="path2538" class="st6" d="M-19.9,309.5H84.9v104.8H-19.9V309.5"/>
				</g>
				<g id="g2542" transform="matrix(0.76702515,-0.76702515,0.76702515,0.76702515,-48.27059,-207.97156)">
					<path id="path2544" class="st7" d="M-116.6,329.2h104.8v104.8h-104.8V329.2"/>
				</g>
			</g>
		</g>
	</g>
</g>
</svg>
