<?xml version="1.0" encoding="utf-8"?>
<!-- Generator: Adobe Illustrator 22.0.0, SVG Export Plug-In . SVG Version: 6.00 Build 0)  -->
<svg version="1.1" id="图层_1" xmlns="http://www.w3.org/2000/svg" xmlns:xlink="http://www.w3.org/1999/xlink" x="0px" y="0px"
	 viewBox="0 0 620 160" style="enable-background:new 0 0 620 160;" xml:space="preserve">
<style type="text/css">
	.st0{fill:#FE9400;}
	.st1{fill:#3B2C44;}
	.st2{filter:url(#Adobe_OpacityMaskFilter);}
	.st3{fill:#FFFFFF;}
	.st4{mask:url(#mask-2_1_);fill:#3B2C44;}
	.st5{filter:url(#Adobe_OpacityMaskFilter_1_);}
	.st6{mask:url(#mask-2_2_);fill:#3B2C44;}
	.st7{filter:url(#Adobe_OpacityMaskFilter_2_);}
	.st8{mask:url(#mask-2_3_);fill:#3B2C44;}
	.st9{filter:url(#Adobe_OpacityMaskFilter_3_);}
	.st10{mask:url(#mask-2_4_);fill:#3B2C44;}
	.st11{filter:url(#Adobe_OpacityMaskFilter_4_);}
	.st12{mask:url(#mask-2_5_);fill:#3B2C44;}
	.st13{filter:url(#Adobe_OpacityMaskFilter_5_);}
	.st14{mask:url(#mask-2_6_);fill:#3B2C44;}
</style>
<g id="Guides-Alfa">
	<g id="guide_board_basic_web" transform="translate(-169.000000, -223.000000)">
		<g id="logo_new" transform="translate(42.000000, 223.000000)">
			<g id="Group-16" transform="translate(127.000000, -0.000000)">
				<path id="A" class="st0" d="M88.6,138.1c-13.9,0-27.4-5.1-37.9-14.3l-2.2-1.9l-22.5,1.7l9.7-20.2l-1.1-2.8
					C32.2,94,30.9,87.1,30.9,80c0-6.7,1.2-13.4,3.4-19.7l54.2,40.4l54.2-40.4c2.3,6.3,3.5,13,3.5,19.7
					C146.3,112,120.4,138.1,88.6,138.1 M88.6,21.9c19.4,0,37.2,9.7,47.9,25.8L88.6,83.4L40.7,47.7C51.4,31.7,69.2,21.9,88.6,21.9
					 M151.8,46.2C139.3,22.6,115.1,8,88.6,8C62.1,8,37.9,22.6,25.4,46.2c-5.5,10.3-8.4,22-8.4,33.8c0,7.7,1.2,15.3,3.6,22.6
					L3.2,139.2l40.7-3.1C56.5,146.4,72.3,152,88.6,152c39.4,0,71.5-32.3,71.5-72C160.2,68.2,157.3,56.6,151.8,46.2"/>
				<path id="Fill-3" class="st1" d="M226.1,88.4h-23.1l0.2-1c0.8-4,2.3-7,4.5-9c2.2-2,4.8-3,7.8-3c3.5,0,6.2,1.1,8,3.4
					c1.7,2.2,2.6,5.2,2.6,8.9V88.4z M215.2,65.5c-4.2,0-8.2,1.1-11.9,3.4c-3.7,2.3-6.8,5.5-9.1,9.7c-2.3,4.2-3.5,9.1-3.5,14.7
					c0,5.6,1.2,10.6,3.5,14.8c2.3,4.2,5.4,7.4,9.4,9.6c4,2.2,8.5,3.3,13.4,3.3c3.2,0,6.4-0.5,9.6-1.6c3-0.9,5.7-2.3,8.2-3.9
					l-4.1-7.7c-8,4.4-16,4.4-22,0.1c-3-2.2-4.9-5.6-5.7-10.2l-0.2-1h33.8c0.3-1.6,0.5-3.6,0.5-6c0-7.5-1.9-13.7-5.7-18.3
					C227.7,67.8,222.3,65.5,215.2,65.5L215.2,65.5z"/>
				<path id="Fill-5" class="st1" d="M281.3,110.2h8L307.1,65h0.4l0,0.3l-0.5,5c-0.9,9-1.4,15.5-1.4,19.5v29.8h12.3V47.2h-15.4
					l-16.6,46.6h-0.4l-16.9-46.6h-15.4v72.4h12.1V89.8c0-4-0.5-10.5-1.4-19.5l-0.5-5.3h0.4L281.3,110.2z"/>
				<path id="Fill-7" class="st1" d="M425.6,110.4c-1,0-1.9-0.5-2.6-1.4c-0.7-0.9-1.1-2.1-1.1-3.9V47.3h-13.1v57.2
					c0,5.3,1,9.4,3.1,12.3c2,2.8,5.3,4.2,9.9,4.2c2.6,0,4.8-0.3,6.7-0.9l-1.6-9.6C426.4,110.4,426,110.4,425.6,110.4"/>
				<g id="Clip-10">
				</g>
				<defs>
					<filter id="Adobe_OpacityMaskFilter" filterUnits="userSpaceOnUse" x="440.9" y="66.8" width="13.1" height="52.8">
						<feColorMatrix  type="matrix" values="1 0 0 0 0  0 1 0 0 0  0 0 1 0 0  0 0 0 1 0"/>
					</filter>
				</defs>
				<mask maskUnits="userSpaceOnUse" x="440.9" y="66.8" width="13.1" height="52.8" id="mask-2_1_">
					<g class="st2">
						<polygon id="path-1_1_" class="st3" points="3.2,152 616.8,152 616.8,8 3.2,8 						"/>
					</g>
				</mask>
				<polygon id="Fill-9" class="st4" points="440.9,119.6 454,119.6 454,66.8 440.9,66.8 				"/>
				<defs>
					<filter id="Adobe_OpacityMaskFilter_1_" filterUnits="userSpaceOnUse" x="439.9" y="45.2" width="15.1" height="14.3">
						<feColorMatrix  type="matrix" values="1 0 0 0 0  0 1 0 0 0  0 0 1 0 0  0 0 0 1 0"/>
					</filter>
				</defs>
				<mask maskUnits="userSpaceOnUse" x="439.9" y="45.2" width="15.1" height="14.3" id="mask-2_2_">
					<g class="st5">
						<polygon id="path-1_2_" class="st3" points="3.2,152 616.8,152 616.8,8 3.2,8 						"/>
					</g>
				</mask>
				<path id="Fill-11" class="st6" d="M447.5,45.2c-2.2,0-4.1,0.7-5.5,2c-1.4,1.3-2.1,3-2.1,5.2c0,2.1,0.7,3.8,2.1,5.2
					c1.4,1.3,3.2,2,5.5,2c2.3,0,4.1-0.7,5.5-2c1.4-1.3,2.1-3,2.1-5.2c0-2.1-0.7-3.8-2.1-5.2C451.5,45.9,449.7,45.2,447.5,45.2"/>
				<defs>
					<filter id="Adobe_OpacityMaskFilter_2_" filterUnits="userSpaceOnUse" x="466.8" y="65.5" width="46.4" height="55.5">
						<feColorMatrix  type="matrix" values="1 0 0 0 0  0 1 0 0 0  0 0 1 0 0  0 0 0 1 0"/>
					</filter>
				</defs>
				<mask maskUnits="userSpaceOnUse" x="466.8" y="65.5" width="46.4" height="55.5" id="mask-2_3_">
					<g class="st7">
						<polygon id="path-1_3_" class="st3" points="3.2,152 616.8,152 616.8,8 3.2,8 						"/>
					</g>
				</mask>
				<path id="Fill-12" class="st8" d="M502.2,88.4h-23.1l0.2-1c0.8-4,2.3-7,4.5-9c2.2-2,4.8-3,7.8-3c3.6,0,6.2,1.1,8,3.4
					c1.7,2.2,2.6,5.2,2.6,8.9V88.4z M491.3,65.5c-4.2,0-8.2,1.1-11.9,3.4c-3.7,2.3-6.8,5.5-9.1,9.7c-2.3,4.2-3.4,9.1-3.4,14.7
					c0,5.6,1.2,10.6,3.4,14.8c2.3,4.2,5.4,7.4,9.4,9.6c4,2.2,8.5,3.3,13.4,3.3c3.2,0,6.4-0.5,9.6-1.6c3-0.9,5.7-2.3,8.2-3.9
					l-4.1-7.7c-8,4.4-16,4.4-22,0.1c-3-2.2-4.9-5.6-5.7-10.2l-0.2-1h33.8c0.3-1.6,0.5-3.6,0.5-6c0-7.5-1.9-13.7-5.7-18.3
					C503.8,67.8,498.3,65.5,491.3,65.5L491.3,65.5z"/>
				<defs>
					<filter id="Adobe_OpacityMaskFilter_3_" filterUnits="userSpaceOnUse" x="525.5" y="65.5" width="46.2" height="54.1">
						<feColorMatrix  type="matrix" values="1 0 0 0 0  0 1 0 0 0  0 0 1 0 0  0 0 0 1 0"/>
					</filter>
				</defs>
				<mask maskUnits="userSpaceOnUse" x="525.5" y="65.5" width="46.2" height="54.1" id="mask-2_4_">
					<g class="st9">
						<polygon id="path-1_4_" class="st3" points="3.2,152 616.8,152 616.8,8 3.2,8 						"/>
					</g>
				</mask>
				<path id="Fill-13" class="st10" d="M555.8,65.5c-3.3,0-6.3,0.7-9,2.2c-3.7,2-6.5,3.9-8.6,6l-0.5,0.5l-1.8-7.3h-10.6v52.8h13.1
					V82.8l0.3-0.3c2.2-2.1,4.1-3.6,5.6-4.5c1.7-1,3.6-1.4,5.8-1.4c2.8,0,4.9,0.9,6.2,2.8c1.2,1.8,1.9,4.7,1.9,9v31.2h13.3V86.5
					c0-6.8-1.3-12.1-3.9-15.7C565.2,67.2,561.2,65.5,555.8,65.5"/>
				<defs>
					<filter id="Adobe_OpacityMaskFilter_4_" filterUnits="userSpaceOnUse" x="581.3" y="52.2" width="35.6" height="68.7">
						<feColorMatrix  type="matrix" values="1 0 0 0 0  0 1 0 0 0  0 0 1 0 0  0 0 0 1 0"/>
					</filter>
				</defs>
				<mask maskUnits="userSpaceOnUse" x="581.3" y="52.2" width="35.6" height="68.7" id="mask-2_5_">
					<g class="st11">
						<polygon id="path-1_5_" class="st3" points="3.2,152 616.8,152 616.8,8 3.2,8 						"/>
					</g>
				</mask>
				<path id="Fill-14" class="st12" d="M610.1,110.8c-5.4,0-8.1-3.3-8.1-9.8v-24h13.2V66.8H602V52.2h-10.7l-1.7,14.5l-0.2,0l-8,0.6
					v9.6h7.6v24.1c0,6.3,1.4,11.3,4.2,14.7c2.7,3.4,7.1,5.1,13.1,5.1c3.5,0,7.1-0.6,10.7-1.7l-2-9.3
					C613,110.5,611.5,110.8,610.1,110.8"/>
				<defs>
					<filter id="Adobe_OpacityMaskFilter_5_" filterUnits="userSpaceOnUse" x="344.7" y="45.6" width="55.1" height="75">
						<feColorMatrix  type="matrix" values="1 0 0 0 0  0 1 0 0 0  0 0 1 0 0  0 0 0 1 0"/>
					</filter>
				</defs>
				<mask maskUnits="userSpaceOnUse" x="344.7" y="45.6" width="55.1" height="75" id="mask-2_6_">
					<g class="st13">
						<polygon id="path-1_6_" class="st3" points="3.2,152 616.8,152 616.8,8 3.2,8 						"/>
					</g>
				</mask>
				<path id="Fill-15" class="st14" d="M378.2,109.5c-6.2,0-11.1-2.4-14.7-7.3c-3.5-4.7-5.3-11.2-5.3-19.3c0-5.2,0.9-9.8,2.5-13.7
					c1.7-4,4.1-7.1,7.2-9.2c3.1-2.2,6.6-3.3,10.5-3.3c2.8,0,5.3,0.6,7.7,1.7c1.9,0.9,3.8,2.2,5.6,3.8l6.7-8.1
					c-2.4-2.3-5.3-4.3-8.6-5.9c-3.6-1.7-7.5-2.6-11.8-2.6c-6,0-11.7,1.5-16.8,4.5c-5.1,3-9.2,7.4-12.1,13.1
					c-3,5.7-4.5,12.5-4.5,20.3c0,7.8,1.5,14.6,4.4,20.2c2.9,5.5,6.9,9.8,11.9,12.6c5,2.9,10.6,4.3,16.7,4.3c8.8,0,16.3-3.3,22.1-9.7
					l-6.7-7.9C388.8,107.3,383.8,109.5,378.2,109.5"/>
			</g>
		</g>
	</g>
</g>
</svg>
