<?xml version="1.0" encoding="utf-8"?>
<!-- Generator: Adobe Illustrator 22.0.1, SVG Export Plug-In . SVG Version: 6.00 Build 0)  -->
<svg version="1.1" id="_x31__1_" xmlns="http://www.w3.org/2000/svg" xmlns:xlink="http://www.w3.org/1999/xlink" x="0px" y="0px"
	 viewBox="0 0 980 260" style="enable-background:new 0 0 980 260;" xml:space="preserve">
<style type="text/css">
	.st0{fill:#242424;}
	.st1{enable-background:new    ;}
	.st2{opacity:0.15;}
	.st3{fill:#FAA91B;}
	.st4{opacity:0.302;}
	.st5{fill:#FFFF35;}
</style>
<g id="FastComet">
	<g>
		<path class="st0" d="M225.7,212.5h26.7v-50.3l1.1-1.3h37.1V139h-37.1l-1.1-1.3v-24.5l1.1-1.2h47.8V90h-75.6V212.5L225.7,212.5z
			 M348,123.3h-13.7c-2.9,0-8.2,0.6-11.4,1.3l-15.2,3.8l1.9,20.5l17.5-4.2c2.1-0.6,5.1-0.8,8.4-0.8h4.6c4,0,6.1,2.3,6.1,6.3v5.4
			l-1.1,1.1h-17.9c-18.1,0-24.8,9.8-24.8,24.9v7.5c0,15.1,6.3,24.9,24.4,24.9c3.8,0,9-0.4,13.7-1.7l13.3-3.8l3.2,4h15v-64.9
			C372,133.1,363.8,123.3,348,123.3z M346.1,190l-1,1.5l-4.6,1.3c-3,1-6.5,1.5-8.9,1.5c-1.7,0-3.6-1.5-3.6-4.6v-10.1
			c0-3.1,2.1-5,4.4-5H345l1.1,1.1V190L346.1,190z M441.8,168.9l-29.1-17c-1.3-0.8-2.1-1.7-2.1-3.8v-0.2c0-2.5,1.1-3.8,4.4-3.8h4.4
			c4.8,0,8.2,0.8,12,2.1l15.1,5.4l2.1-20.9l-13.1-4.8c-4.8-1.7-9.5-2.5-14.5-2.5h-12.4c-13.9,0-23.2,9.2-23.2,23.2v5.6
			c0,8,3.8,12.8,8.4,15.5l28.8,16.9c1.3,0.8,2.1,1.7,2.1,3.8v1.3c0,2.5-1.5,3.8-4.4,3.8H414c-4.8,0-8.2-0.8-12-2.1l-15-5.4
			l-2.1,20.9l13.1,4.8c4.8,1.7,9.5,2.5,14.5,2.5h14.7c13.9,0,23.2-9.2,23.2-23.2v-6.5C450.2,176.4,446.4,171.6,441.8,168.9z
			 M510.5,191.3c-2.1,0.6-6.1,1.1-8,1.1h-0.4c-4,0-5.1-2.3-5.1-6.3v-39.4l1.1-1.2h22.1v-20.7h-22.1l-1.1-1.2v-24l-25.9,10.9v13.2
			l-1.1,1.2h-12.4v20.7H470l1.1,1.2v43.1c0,14.6,8.2,24.3,24,24.3h7.6c2.9,0,8.8-1,12-1.7l8.6-2.3l-1.9-21.4L510.5,191.3z
			 M588.4,88.5h-31c-14.3,0-25,10.7-25,25.3v60.3c0,21.6,14.1,40,34.5,40h18.3c4,0,8.6-1.1,11.6-2.5l14.9-6.5l-1.9-22l-18.3,7.3
			c-2.9,1.1-5,1.7-8.2,1.7h-12.2c-6.7,0-12-5.6-12-18.8v-56.5c0-4,2.1-6.3,6.1-6.3h16c4,0,6.1,2.3,6.1,6.3v8.6h26.1v-11.6
			C613.4,99.2,602.7,88.5,588.4,88.5z M667.8,123.3h-21.7c-15.8,0-24,9.8-24,24.3v34.3c0,18.8,11.4,32.2,26.7,32.2h16.3
			c15.2,0,26.7-13.4,26.7-32.2v-34.3C691.8,133.1,683.6,123.3,667.8,123.3z M665.9,181.3c0,6.5-2.1,12.1-8.8,12.1h-0.6
			c-6.7,0-8.6-5.6-8.6-12.1v-31c0-4,2.1-6.3,6.1-6.3h5.7c4,0,6.1,2.3,6.1,6.3L665.9,181.3L665.9,181.3z M790.6,123.3
			c-3.8,0-7.2,0.4-12,1.7l-12.8,3.6c-3.4-3.4-8.8-5.4-17-5.4c-3.8,0-7.2,0.4-12,1.7l-12.8,3.8l-3.2-4h-15v87.7h25.9v-64.3l1.1-1.3
			l3.8-1.3c2.9-1,4.8-1.5,7.2-1.5c1.7,0,3.6,1.5,3.6,4.6v63.9h25.9v-64.3l1.1-1.3l3.8-1.3c2.9-1,4.8-1.5,7.2-1.5
			c1.7,0,3.6,1.5,3.6,4.6v63.9h25.9v-64.3C815.2,133.1,808.7,123.3,790.6,123.3z M874.8,123.3h-21.7c-15.8,0-24,9.8-24,24.3v34.3
			c0,18.8,11.4,32.2,26.7,32.2h12.9c2.9,0,8.2-0.8,11.4-1.7l15.2-4.8l-1.9-19.5l-17.5,5.2c-1.9,0.6-5.1,1.1-8.4,1.1h-4
			c-6.7,0-8.6-5.6-8.6-12.1V179l1.1-1.1h42.7v-30.2C898.8,133.1,890.6,123.3,874.8,123.3z M872.9,158l-1.1,1.1h-15.7L855,158v-8.6
			c0-4,2.1-6.3,6.1-6.3h5.7c4,0,6.1,2.3,6.1,6.3V158L872.9,158z M971.5,188.6l-10.9,2.7c-2.1,0.6-6.1,1.1-8,1.1h-0.4
			c-4,0-5.1-2.3-5.1-6.3v-39.4l1.1-1.2h22.1v-20.7h-22.1l-1.1-1.2v-24l-25.9,10.9v13.2l-1.1,1.2h-12.4v20.7h12.4l1.1,1.2v43.1
			c0,14.6,8.2,24.3,24,24.3h7.6c2.9,0,8.8-1,12-1.7l8.6-2.3L971.5,188.6z"/>
	</g>
</g>
<g id="Group_4_1_" class="st1">
	<g id="Shape_8_copy_3" class="st2">
		<g>
			<path d="M36,163.7c-3.3,2.5-4,7.2-1.6,10.5l1.5,2c2.5,3.3,7.2,4,10.5,1.6l6-4.5c3.3-2.5,159.6-124.5,161.4-131
				C207.1,42.2,45.3,156.8,42,159.2L36,163.7z M213.8,42.2c0,0,0,0.1,0,0.2c0.1,0,0.2,0,0.2,0.1L213.8,42.2z"/>
		</g>
	</g>
	<g id="Shape_8_copy_2" class="st2">
		<g>
			<path d="M130.5,67.4L130.5,67.4c0.1,0.1,0.1,0.1,0.1,0.1L130.5,67.4z M29.9,131.7c-1.9,1.3-2.4,3.9-1.1,5.8l0.8,1.1
				c1.3,1.9,3.9,2.4,5.8,1.1l3.4-2.4c1.9-1.3,90.6-66.3,91.7-69.9c-3.7-0.2-95.4,60.5-97.2,61.8L29.9,131.7z"/>
		</g>
	</g>
	<g id="Shape_8_copy_4" class="st2">
		<g>
			<path d="M62.4,81.1c-1.2,0.8-1.5,2.4-0.6,3.6l0.5,0.7c0.8,1.2,2.4,1.5,3.6,0.7l2.1-1.5c1.2-0.8,56.2-41.2,56.9-43.3
				c-2.3-0.1-59.2,37.6-60.3,38.4L62.4,81.1z M124.9,41.1C124.9,41.2,124.9,41.2,124.9,41.1C124.9,41.2,125,41.2,124.9,41.1
				L124.9,41.1z"/>
		</g>
	</g>
	<g id="Shape_5">
		<g>
			<path class="st3" d="M126.1,151.9c-3.8-33-33.4-56.7-66.3-53c-32.9,3.8-56.5,33.6-52.7,66.6s33.4,56.7,66.3,53
				C106.3,214.7,129.9,184.9,126.1,151.9z"/>
		</g>
	</g>
	<g id="Shape_5_copy" class="st4">
		<g>
			<path d="M114,132.8c1.6,5.4,2.4,11.1,2.2,17.1c-0.9,30.1-25.9,53.8-55.8,53c-18.7-0.5-34.9-10.5-44.2-25.2
				c7.4,20.1,26.4,34.6,49,35.2c29.8,0.9,54.6-22.7,55.4-52.6C120.8,150.3,118.4,140.9,114,132.8z"/>
		</g>
	</g>
	<g id="Shape_8">
		<g>
			<path class="st5" d="M35.4,139.7l3.4-2.4c1-0.7,24.8-18.1,47.9-35.4c-2.7-1-5.4-1.7-8.2-2.3l0,0c-22.7,14.7-44.3,29.1-45.2,29.7
				l-3.4,2.4c-1.9,1.3-2.4,3.9-1.1,5.8l0.8,1.1C30.9,140.6,33.5,141.1,35.4,139.7z M106.6,113.8
				C106.6,113.8,106.5,113.8,106.6,113.8c-34,23.7-63.2,44.4-64.6,45.4l-6,4.5c-3.3,2.5-4,7.2-1.6,10.5l1.5,2
				c2.5,3.3,7.2,4,10.5,1.6l6-4.5c1.4-1,30.2-23.5,63.1-49.5C112.9,120.1,109.9,116.8,106.6,113.8z"/>
		</g>
	</g>
</g>
</svg>
