<?xml version="1.0" encoding="utf-8"?>
<!-- Generator: Adobe Illustrator 22.0.1, SVG Export Plug-In . SVG Version: 6.00 Build 0)  -->
<svg version="1.1" id="Layer_1" xmlns="http://www.w3.org/2000/svg" xmlns:xlink="http://www.w3.org/1999/xlink" x="0px" y="0px"
	 viewBox="0 0 600 170" style="enable-background:new 0 0 600 170;" xml:space="preserve">
<style type="text/css">
	.st0{fill:#50C6DB;}
</style>
<g>
	<g>
		<path class="st0" d="M88.1,21.2c-35.2,0-63.8,28.6-63.8,63.8s28.6,63.8,63.8,63.8s63.8-28.6,63.8-63.8S123.4,21.2,88.1,21.2z
			 M71,30.2c5.4-1.7,11.1-2.6,17.1-2.6c6.2,0,12.2,1,17.8,2.8c-3.7,2.5-6.3,6-7.7,10.2c-2.4,7.3,0.1,14,2.4,19.8l0.2,0.6
			c1.3,3.5,1.9,7.9-1.4,11c-1.4-1.2-2.9-2.2-4.7-3C95.2,61.8,91,55.5,83,51.8l-0.6-0.3c-5.3-2.4-9.9-4.5-12.1-8.8
			C67.8,37.9,69.2,33.4,71,30.2L71,30.2z M97.2,84.8c0,5-4,9-9,9s-9-4-9-9s4-9,9-9S97.2,79.9,97.2,84.8z M61.2,34.3
			c-0.7,4.2,0,8.4,2,12.2c3.6,6.8,10.1,9.8,15.9,12.4l0.6,0.3c3.4,1.5,7,4.2,7.1,8.6c-1.9,0.1-3.7,0.6-5.4,1.3
			c-4.8-5.5-12.3-7.1-20.6-4.2l-0.7,0.2c-5.4,2-10.1,3.7-14.9,2.1c-4.8-1.5-7.2-5.3-8.3-8.3C42.3,48.6,50.7,39.9,61.2,34.3z
			 M33.3,101.9c-1.6-5.3-2.5-11-2.5-16.9c0-5.7,0.9-11.3,2.4-16.5c2.5,3.1,5.8,5.3,9.6,6.5c7.4,2.4,14.1,0,20.1-2.2l0.7-0.2
			c3.6-1.3,8.2-1.9,11.5,1.5c-1.1,1.3-2,2.8-2.6,4.4c-7.5-0.7-14.1,3.3-17.8,11.3l-0.3,0.6c-2.4,5.1-4.5,9.6-8.9,11.8
			c-4.5,2.2-9,1.1-11.9-0.2L33.3,101.9z M60.6,135.3c-10-5.5-18.2-13.9-23.5-24.1c0.9,0.1,1.8,0.2,2.7,0.2c3.2,0,6.2-0.7,9.1-2.1
			c7-3.4,10-9.9,12.6-15.5l0.3-0.6c1.6-3.4,4.5-7.1,9.4-6.8c0.2,1.7,0.6,3.4,1.2,4.9c-5.8,4.7-7.5,12.2-4.3,20.5l0.2,0.7
			c2,5.3,3.8,9.9,2.3,14.5c-1.7,5.1-6,7.3-9.4,8.3H60.6z M105.4,139.7c-5.5,1.7-11.3,2.7-17.3,2.7c-6.1,0-12.1-1-17.6-2.8
			c3.7-2.5,6.3-6,7.7-10.2c2.4-7.3-0.1-14-2.4-19.8l-0.2-0.6c-1.3-3.5-2-8,1.6-11.2c1.4,1.2,2.9,2.1,4.5,2.8
			c-0.7,7.3,3.5,13.8,11.7,17.5l0.6,0.3c5.3,2.4,9.9,4.5,12.1,8.8C108.6,132,107.2,136.5,105.4,139.7
			C105.6,139.5,105.6,139.7,105.4,139.7z M115.3,135.5c0.6-4.2-0.1-8.3-2-12.1c-3.6-6.8-10.1-9.8-15.9-12.4l-0.6-0.3
			c-3.5-1.6-7.2-4.4-7.1-9c1.8-0.2,3.5-0.6,5.1-1.2c4.8,5.7,12.4,7.5,20.8,4.5l0.7-0.2c5.4-2,10.1-3.7,14.9-2.1
			c4.7,1.5,7.1,5.1,8.2,8.1C134.1,121.2,125.7,129.9,115.3,135.5z M145.5,85c0,5.7-0.8,11.2-2.4,16.4c-2.5-3-5.7-5.2-9.5-6.4
			c-7.4-2.4-14.1,0-20.1,2.2l-0.7,0.2c-3.7,1.3-8.4,1.9-11.7-1.7c1.1-1.3,1.9-2.7,2.6-4.2c0.7,0.1,1.3,0.1,1.9,0.1
			c6.8,0,12.6-4.1,16.1-11.4l0.3-0.6c2.4-5.1,4.5-9.6,8.9-11.8c4.5-2.2,9-1.2,12,0.2C144.6,73.4,145.5,79.1,145.5,85z M127.5,60.7
			c-7,3.4-10,9.9-12.6,15.5l-0.3,0.6c-1.6,3.5-4.5,7.2-9.5,6.8c-0.1-1.7-0.5-3.4-1.1-4.9c5.8-4.7,7.5-12.2,4.3-20.5l-0.3-0.7
			c-2-5.3-3.8-9.9-2.3-14.5c1.7-5.1,6-7.3,9.4-8.3l0.4-0.1c10,5.5,18.2,13.9,23.5,24.1C135.1,58.2,131.1,58.9,127.5,60.7z"/>
		<path class="st0" d="M88.1,3.7C43.2,3.7,6.8,40.1,6.8,85s36.4,81.3,81.3,81.3s81.3-36.4,81.3-81.3S133,3.7,88.1,3.7z M88.1,156
			C48.9,156,17,124.1,17,84.9s32-71,71.1-71c39.2,0,71.1,31.9,71.1,71.1S127.3,156,88.1,156z"/>
		<path class="st0" d="M155.7,18c-7.6-7.7-17.4-13.3-26.2-15.1c-0.5-0.1-1.1,0.2-1.3,0.7s0.1,1.1,0.6,1.3
			c8.3,3.8,16.4,9.5,23.3,16.5c7,7.1,12.7,15.2,16.4,23.6c0.2,0.4,0.6,0.7,1,0.7c0.1,0,0.2,0,0.3-0.1c0.5-0.2,0.9-0.7,0.7-1.3
			C168.7,35.2,163.4,25.7,155.7,18z"/>
		<path class="st0" d="M47.2,165c-8.3-3.8-16.4-9.5-23.3-16.5c-7-7.1-12.7-15.2-16.4-23.6c-0.2-0.5-0.8-0.8-1.3-0.6
			s-0.9,0.7-0.7,1.3c1.9,9.3,7.2,18.7,14.9,26.5c7.6,7.7,17.4,13.3,26.2,15.1c0.1,0,0.1,0,0.2,0c0.5,0,0.9-0.3,1-0.8
			C48,165.8,47.7,165.2,47.2,165z"/>
		<path class="st0" d="M234.9,52.7h-30c-1,0-1.8,0.8-1.8,1.8v61.6c0,1,0.8,1.8,1.8,1.8h6c1,0,1.8-0.8,1.8-1.8V89.9h19.4
			c1,0,1.8-0.8,1.8-1.8v-6c0-1-0.8-1.8-1.8-1.8h-19.4V62.1h22.2c1,0,1.8-0.8,1.8-1.8v-6C236.7,53.4,235.9,52.7,234.9,52.7z"/>
		<path class="st0" d="M281.2,108.3H259V54.4c0-1-0.8-1.8-1.8-1.8h-6c-1,0-1.8,0.8-1.8,1.8V116c0,1,0.8,1.8,1.8,1.8h30
			c1,0,1.8-0.8,1.8-1.8v-6C282.9,109.1,282.1,108.3,281.2,108.3z"/>
		<path class="st0" d="M323.1,52.4h-6.7c-0.6,0-1.2,0.4-1.5,0.9l-13.6,25.1l-13.8-25.1c-0.3-0.6-0.9-0.9-1.5-0.9h-6.7
			c-0.6,0-1.2,0.3-1.5,0.9c-0.3,0.5-0.3,1.2,0,1.7l18.7,34.4V116c0,1,0.8,1.8,1.8,1.8h6c1,0,1.8-0.8,1.8-1.8V90l18.7-35.1
			c0.3-0.5,0.3-1.2,0-1.7C324.3,52.8,323.7,52.4,323.1,52.4z"/>
		<path class="st0" d="M592.7,108.3h-22.2V54.4c0-1-0.8-1.8-1.8-1.8h-6c-1,0-1.8,0.8-1.8,1.8V116c0,1,0.8,1.8,1.8,1.8h30
			c1,0,1.8-0.8,1.8-1.8v-6C594.5,109.1,593.7,108.3,592.7,108.3z"/>
		<path class="st0" d="M449.2,52.7h-6c-1,0-1.8,0.8-1.8,1.8v25.9h-21.5V54.5c0-1-0.8-1.8-1.8-1.8h-6c-1,0-1.8,0.8-1.8,1.8v61.6
			c0,1,0.8,1.8,1.8,1.8h6c1,0,1.8-0.8,1.8-1.8V89.9h21.5v26.2c0,1,0.8,1.8,1.8,1.8h6c1,0,1.8-0.8,1.8-1.8V54.5
			C450.9,53.4,450.1,52.7,449.2,52.7z"/>
		<path class="st0" d="M497.5,52.7h-30.4c-1,0-1.8,0.8-1.8,1.8v61.6c0,1,0.8,1.8,1.8,1.8h30.4c1,0,1.8-0.8,1.8-1.8v-6
			c0-1-0.8-1.8-1.8-1.8h-22.6V89.9h19.7c1,0,1.8-0.8,1.8-1.8v-6c0-1-0.8-1.8-1.8-1.8h-19.7V62.1h22.6c1,0,1.8-0.8,1.8-1.8v-6
			C499.3,53.4,498.5,52.7,497.5,52.7z"/>
		<path class="st0" d="M545.4,52.7h-30.3c-1,0-1.8,0.8-1.8,1.8v61.6c0,1,0.8,1.8,1.8,1.8h30.4c1,0,1.8-0.8,1.8-1.8v-6
			c0-1-0.8-1.8-1.8-1.8h-22.6V89.9h19.8c1,0,1.8-0.8,1.8-1.8v-6c0-1-0.8-1.8-1.8-1.8h-19.8V62.1h22.6c1,0,1.8-0.8,1.8-1.8v-6
			C547.2,53.4,546.4,52.7,545.4,52.7z"/>
		<path class="st0" d="M398.2,52.6h-6.6c-0.6,0-1.1,0.4-1.2,1l-10.1,43.6L370,53.5c-0.1-0.6-0.6-1-1.2-1h-6.7c-0.6,0-1.1,0.4-1.2,1
			l-10.3,43.6l-10.1-43.6c-0.1-0.6-0.6-1-1.2-1h-6.6c-0.4,0-0.7,0.2-1,0.5c-0.2,0.3-0.3,0.7-0.2,1.1l14.6,62.7
			c0,0.2,0.1,0.4,0.3,0.6c0.2,0.3,0.6,0.5,1,0.5h6.6c0.6,0,1.1-0.4,1.2-1l10.4-43.8l10.3,43.8c0.1,0.6,0.6,1,1.2,1h6.6
			c0.6,0,1.1-0.4,1.2-1l14.6-62.8c0.1-0.4,0-0.8-0.2-1.1C398.9,52.8,398.5,52.6,398.2,52.6z"/>
	</g>
</g>
</svg>
