<?xml version="1.0" encoding="utf-8"?>
<!-- Generator: Adobe Illustrator 22.0.1, SVG Export Plug-In . SVG Version: 6.00 Build 0)  -->
<svg version="1.1" id="图层_1" xmlns="http://www.w3.org/2000/svg" xmlns:xlink="http://www.w3.org/1999/xlink" x="0px" y="0px"
	 viewBox="0 0 600 180" style="enable-background:new 0 0 600 180;" xml:space="preserve">
<style type="text/css">
	.st0{fill:#FAA41D;}
	.st1{fill:#18315A;}
</style>
<g id="_x23_fffffeff">
</g>
<g id="_x23_faa41dff">
	<path class="st0" d="M52.3,12.4c3.4-3.1,6.6-6.3,9.8-9.6c0.1,9.3,0.5,18.7-0.2,28C44.1,48.7,26,66.4,8,84.3
		c-0.1-8.2,0-16.4-0.1-24.6c0.2-1.8-0.4-4.1,1.2-5.5c3.6-3.7,7.4-7.3,11.1-10.9C31.3,33.3,41.6,22.6,52.3,12.4z"/>
</g>
<g id="_x23_18315aff">
	<path class="st1" d="M551.4,30.4c11.2-8,26.7-7,38.8-1.5c-1.1,4.4-2.4,8.8-3.6,13.2c-6.1-2.9-12.9-5-19.7-3.9
		c-4.1,0.8-8.3,3.2-9.5,7.4c-1.8,4.5,0.6,9.6,4.4,12.2c7.5,5.2,17,6.8,23.7,13.2c12.2,10.5,10.1,32.8-4,40.8
		c-12.6,7.2-28.6,5.6-41.1-0.7c1-4.6,2.2-9.1,3.3-13.6c8.3,4.6,18.7,7.7,27.9,4c7.5-3,8.9-14.2,2.8-19.3
		c-7.3-6.3-17.8-7.2-24.7-14.2C538.3,58.5,539.5,38.7,551.4,30.4z"/>
	<path class="st1" d="M431.2,28.2c3.1,0.1,6.1,0.1,9.2,0c5.9,28.7,11.6,57.4,17.5,86.2c-5.7,0-11.4,0.1-17.1,0
		c-2.6-15.1-5.6-30.1-8-45.1c-5.7,15.9-10.5,32.2-15.9,48.1c-2.8,0-5.6,0-8.4,0c-5.2-15.8-10.8-31.5-15.9-47.3
		c-3.1,14.6-5.4,29.4-8.4,44.1c-5.6,0.9-11.5,0.1-17.2,0.4c6-28.7,11.7-57.4,17.5-86.2c3.1,0,6.3,0,9.4,0
		c6.1,18.3,12.2,36.6,18.6,54.9C418.4,64.8,424.9,46.5,431.2,28.2z"/>
	<path class="st1" d="M200.1,28.6c12.9,0.3,25.8-0.3,38.7,0.7c7.5,0.3,13.9,5.8,16.8,12.5c2.9,6.2,2.8,13.2,2.3,19.9
		c-1,9.5-7.6,18.7-17.1,20.8c-8.3,1.8-16.8,0.8-25.2,1.1c0,11.1-0.1,22.2,0.1,33.3c-5.2,0-10.4,0-15.5,0
		C200.3,87.5,200.2,58,200.1,28.6 M215.6,43.6c-0.1,8.3-0.1,16.7,0,25c5.4,0,10.8,0.1,16.2-0.3c3.9-0.2,7.7-2.5,9.2-6.1
		c3.4-6.1,0.9-15.3-6-17.6C228.6,43.1,222,43.7,215.6,43.6z"/>
	<path class="st1" d="M267.4,28.6c12.4,0.2,24.9-0.2,37.3,0.2c6.2,0.4,13,0.6,18,4.8c7,5.7,9,15.5,8,24c-0.6,6.3-3.6,12.5-8.9,16.1
		c-3.2,2.4-7.2,3.3-11,4.5c5.3,3.4,9.5,8.2,12.6,13.7c4.8,8.3,9.2,16.8,14,25.1c-6.3-0.2-12.6-0.1-18.9,0
		c-5.7-9.3-11-18.9-16.8-28.2c-2-2.9-4-6.1-7.3-7.6c-3.6-1.2-7.4-1-11.1-1.1c-0.1,12.3-0.1,24.6,0,36.9c-5.2-0.1-10.5-0.1-15.7,0
		C267.5,87.5,267.5,58,267.4,28.6 M283.2,43.6c0,7.5,0,14.9,0,22.4c8.2-0.2,16.4,0.5,24.5-0.7c7.5-2,9.3-12.7,4.6-18.2
		c-2-2.6-5.5-3.3-8.6-3.4C296.9,43.4,290,43.7,283.2,43.6z"/>
	<path class="st1" d="M342.2,28.6c5.1,0.1,10.1,0.1,15.2,0c0.1,29.5,0,58.9,0,88.4c-5.1-0.1-10.2-0.1-15.3,0
		C342.3,87.5,342.2,58,342.2,28.6z"/>
	<path class="st1" d="M467,80.6c0-17.3-0.1-34.7,0-52.1c5.1,0.2,10.3-0.2,15.5,0.2c0.4,19.6-0.3,39.3,0.4,59
		c-0.1,6.6,4,13.6,10.8,14.9c4.8,0.7,10.5,1,14.4-2.5c4-3.2,4.9-8.6,4.9-13.4c0.2-19.4,0.1-38.8,0.1-58.2c5.3,0.3,10.6,0.2,15.9,0
		c-0.3,20.7,0.5,41.5-0.5,62.2c-0.3,8.4-3,17.6-10.3,22.6c-7.9,5.8-18.2,5.4-27.4,4.7c-9.8-0.9-18.9-7.9-21.7-17.4
		C467.4,94.1,467,87.3,467,80.6z"/>
	<path class="st1" d="M8,91.2c18.2-17.4,36.2-35,54.3-52.5c-0.1,9.2-0.1,18.5,0,27.8c-18.1,18-36.3,35.9-54.4,53.9
		C8,110.6,8,100.9,8,91.2z"/>
	<path class="st1" d="M73.5,38.4c15.6,0.2,31.2,0.1,46.8,0c-0.1,4.4,0,8.8-0.1,13.1c-10.9-0.1-21.8,0-32.7-0.1c0,6,0,12.1,0,18.1
		c9.4,0,18.8,0,28.2,0c0,4.3-0.1,8.6,0.2,12.8c-9.4,0.1-18.9,0-28.3,0c0,10.9-0.1,21.8,0.1,32.7c-4.7,0-9.3,0-14,0
		C73.5,89.5,73.6,63.9,73.5,38.4z"/>
	<path class="st1" d="M126.6,38.4c5.1,0.2,10.2,0,15.3,0.1c1.6-0.3,1.9,1.6,2.6,2.6c4.1,7.4,8,14.8,12.2,22.1
		c4-8.4,8.9-16.3,13.1-24.7c5.4,0,10.8,0,16.2,0c-7.1,12.4-14.2,24.9-21.2,37.3c8,13,15.5,26.3,23.4,39.4c-5.6-0.1-11.2-0.1-16.8,0
		c-5.1-8.8-10.1-17.6-15-26.4c-5.2,8.7-10.1,17.6-15.3,26.4c-5.5-0.1-11.1,0-16.6,0c7.8-13.4,15.7-26.7,23.4-40.2
		C140.5,62.8,133.8,50.4,126.6,38.4z"/>
	<path class="st1" d="M37.4,144.9c1.4,0,2.7,0,4.1,0c0,4.4,0.1,8.8-0.2,13.1c2.2-2.1,5.1-4.3,8.4-3.5c3.4,0.5,6,3.7,6,7.1
		c0.3,4.9,0.1,9.8,0.1,14.7c-1.3,0-2.6,0-3.9-0.1c-0.2-5.2,0.7-10.6-0.6-15.6c-1.6-4.5-8.5-3.5-9.5,0.9c-0.7,4.8-0.2,9.8-0.3,14.7
		c-1.4,0-2.8,0-4.1,0C37.5,165.9,37.5,155.4,37.4,144.9z"/>
	<path class="st1" d="M167.7,145.7c2.2-1.7,5.1-1.3,7.6-1.1c-0.1,1.1-0.1,2.2-0.2,3.3c-1.8,0.2-4.1-0.6-5.6,0.9
		c-1.3,1.8-1.2,4.2-1.5,6.3c1.8,0,3.6-0.1,5.4-0.1c0,1.1,0,2.1-0.1,3.1c-1.7-0.1-3.4-0.1-5.1-0.2c0,6.2,0,12.4,0,18.6
		c-1.3,0-2.7-0.1-4-0.1c0.1-6.1,0.1-12.3,0-18.4c-0.7,0-2.1,0.1-2.8,0.2c0-0.8-0.1-2.4-0.1-3.1c0.7,0,2.1,0.1,2.8,0.1
		C164.3,151.8,164.5,147.7,167.7,145.7z"/>
	<path class="st1" d="M295.7,144.9c1.4,0,2.7,0.1,4.1,0.2c-0.2,10.4-0.3,20.8,0,31.2c-1.4,0.1-2.7,0.1-4.1,0.2
		C295.6,165.9,295.9,155.4,295.7,144.9z"/>
	<path class="st1" d="M559.6,144.9c1.3,0,2.6,0,3.9,0c0.1,10.5-0.3,20.9,0.2,31.4c-0.9,0.1-2.6,0.2-3.4,0.2c0-0.9-0.1-2.8-0.1-3.7
		c-3.4,5.9-13.1,5.2-15.6-1.2c-2.4-5.5-1.2-13.6,4.8-16.3c3.5-1.8,7.6-0.6,10.3,2.1C559.5,153.2,559.6,149.1,559.6,144.9 M551.9,158
		c-5.6,2.6-5.9,12-0.7,15.2c3.1,1.5,7.2-0.2,8.1-3.6c0.4-2.3,0.3-4.7,0.1-7C559.3,159,555.1,156.5,551.9,158z"/>
	<path class="st1" d="M6.6,146.5c7.5,0,15,0.1,22.4,0c0,0.9,0.1,2.6,0.1,3.4c-3.1-0.1-6.2-0.1-9.3-0.1c0,8.8,0,17.7,0,26.5
		c-1.3,0-2.7,0-4,0.1c0-8.9,0-17.7,0-26.6c-3.1,0-6.2,0-9.3,0C6.6,149.1,6.6,147.4,6.6,146.5z"/>
	<path class="st1" d="M112.3,148.2c3.8-3,8.9-2.4,13.2-1.1c-0.1,1.1-0.2,2.3-0.3,3.4c-2.8-0.5-5.7-1.8-8.6-0.8
		c-1.9,0.5-2.6,2.5-3.7,4c1.4,5,7,5.5,10.7,8c4.6,3,4.2,10.8-0.5,13.6c-4.3,2.6-9.8,1.9-14.2,0c0.1-1.1,0.3-2.2,0.6-3.3
		c1,0.3,1.9,0.7,2.9,1c2.8,0.3,6.3,1.4,8.7-0.7c2.3-1.7,2.4-5.5,0.2-7.2c-3.2-2.7-7.9-3.1-10.6-6.5
		C108.6,155.4,109.1,150.5,112.3,148.2z"/>
	<path class="st1" d="M267.6,146.9c4.9-0.6,10.3-1.4,14.8,1c4.2,2.2,4.6,8.3,2.6,12.1c-2.8,4.4-8.6,4.9-13.3,4.8
		c0.1,3.8,0.1,7.7,0,11.5c-1.4,0-2.8,0-4.1,0C267.6,166.6,267.6,156.7,267.6,146.9 M271.8,149.5c-0.1,4-0.1,8.1,0,12.1
		c3.6,0.1,8.7,0.2,10-4.1c1.4-2.8-0.6-5.6-2.4-7.6C276.9,149.6,274.3,149.5,271.8,149.5z"/>
	<path class="st1" d="M401.6,146.5c7.4,0.1,14.9,0.1,22.3,0c0,0.8,0,2.5,0,3.4c-3,0-6,0-9.1,0c0,8.8,0,17.6,0,26.5
		c-1.3,0-2.6,0-3.9,0c0-8.9,0-17.7,0.1-26.6c-3.1,0-6.2,0-9.4,0.1C401.6,149.1,401.6,147.3,401.6,146.5z"/>
	<path class="st1" d="M471,146.5c7.4,0.1,14.8,0,22.2,0c0,0.9,0,2.6,0,3.4c-3.1,0-6.1-0.1-9.2-0.1c-0.1,8.9,0,17.7,0,26.6
		c-1.4,0-2.7,0-4.1,0c0.1-8.9,0.1-17.7,0-26.6c-3,0-6,0-9,0.1C470.9,149.1,470.9,147.4,471,146.5z"/>
	<path class="st1" d="M233.2,151c1.3-0.4,2.6-0.9,3.9-1.3c0,1.8,0,3.6,0,5.4c1.9,0,3.8-0.1,5.7-0.1c0,0.8,0,2.3,0,3
		c-1.9,0-3.8-0.1-5.6-0.1c0.2,4.7-0.6,9.4,0.4,14c0.8,2.1,3.3,1.3,5,1.6c-0.1,1.1-0.1,2.1-0.2,3.2c-3,0.4-7.5,0.5-8.5-3.1
		c-1.2-5.1-0.3-10.5-0.6-15.7c-1.1,0-2.3,0.1-3.4,0.1c0-0.8,0.1-2.3,0.1-3.1c0.8,0.1,2.5,0.1,3.3,0.2
		C233.2,153.7,233.2,152.4,233.2,151z"/>
	<path class="st1" d="M69.2,157.2c3.6-3.6,10.5-3.8,13.7,0.4c2.1,2.4,2,5.8,2.3,8.8c-5.3,0.1-10.6,0-15.8,0c0.8,2.2,1.3,4.8,3.3,6.3
		c3.3,2,7.2,0.9,10.8,0.3c0.1,1,0.1,2,0.2,3.1c-4,0.8-8.3,1.8-12.2,0C64.6,172.5,64.4,162.3,69.2,157.2 M69.4,163.4
		c4,0.1,8,0.1,12,0.1c-0.7-2.9-2.1-6.6-5.8-6.1C72.1,157.2,70.7,160.8,69.4,163.4z"/>
	<path class="st1" d="M137.2,156.1c3.5-1.2,7.5-2.4,11.1-0.9c2.8,0.8,3.9,3.9,4.1,6.6c0.2,4.9-0.2,9.8,0.5,14.6
		c-1.2,0-2.5,0.1-3.7,0.1c0-0.6-0.1-1.9-0.1-2.6c-2.5,2.2-6.1,4-9.4,2.6c-4.9-1.3-5.3-8.9-1.3-11.4c3.1-2.2,7.1-2.1,10.7-2.6
		c-0.9-1.8-1.3-4.4-3.6-4.9c-2.6-0.7-5.1,0.4-7.4,1.4C137.9,158.3,137.4,156.8,137.2,156.1 M142.5,166.4c-2.5,0.9-3.8,4.4-1.9,6.4
		c1.7,2.2,5.1,1.4,6.7-0.5c1.9-1.8,1.4-4.7,1.7-7.1C146.8,165.5,144.6,165.6,142.5,166.4z"/>
	<path class="st1" d="M185.7,155.7c3.9-2.2,9.9-1.5,12.2,2.7c1.5,2.4,1.4,5.3,1.6,7.9c-5.3,0.1-10.5-0.1-15.8,0.1
		c0.8,2.1,1.2,4.8,3.3,6.1c3.2,2.2,7.3,1,10.8,0.4c0.1,1,0.1,2,0.2,3c-4.7,1.1-10.2,2-14.3-1.4C178.6,169.6,179.4,159.4,185.7,155.7
		 M183.9,163.5c4.1,0,8.1,0.1,12.2-0.1c-0.8-2.9-2.6-6.8-6.3-6.1C186.4,157.6,185.1,160.9,183.9,163.5z"/>
	<path class="st1" d="M208.8,162.6c-1.2-3.1,0.8-6.9,4.1-7.6c2.8-1.2,5.7-0.1,8.5,0.5c-0.3,1-0.6,1.9-0.9,2.9
		c-1.6-0.4-3.1-0.9-4.7-1c-2.2-0.2-4.4,2.1-3.2,4.2c2.5,2.5,6.5,2.8,8.7,5.6c1.6,3.1,0.6,7.6-2.9,8.8c-3.3,1.7-7,0.5-10.4-0.3
		c0.1-0.7,0.4-2.2,0.6-3c3.3,0.7,8.9,2.8,9.8-2.1C216.9,166.1,210.3,167.1,208.8,162.6z"/>
	<path class="st1" d="M316.7,154.5c3.9-0.7,8.7,1.3,9.4,5.6c0.6,5.4-0.1,10.8,0.4,16.2c-0.8,0-2.5,0.1-3.3,0.1
		c0-0.7-0.1-2.1-0.2-2.8c-2.4,2.3-5.9,4.2-9.3,2.8c-4.4-1.1-5.6-7.2-2.6-10.4c2.9-3.3,7.6-3.1,11.5-3.7c-0.5-1.4-0.6-3-1.7-4.1
		c-2.9-2.1-6.5-0.4-9.5,0.5C310,155.3,314.3,155.1,316.7,154.5 M313.5,169.5c-0.8,3.7,4,6,6.8,3.7c2.9-1.6,2.2-5.2,2.4-7.9
		C319.3,165.6,314.8,165.7,313.5,169.5z"/>
	<path class="st1" d="M340.7,156.6c3.6-2.7,8.4-2.3,12.5-1.3c-0.1,0.8-0.2,2.3-0.3,3c-2.9-0.4-5.9-0.6-8.8-0.2
		c-1.7,2.2-4.1,4.4-3.8,7.5c-0.4,3.1,2,5.5,3.8,7.7c2.9,0.4,5.9,0.3,8.8-0.2c0.1,0.7,0.2,2.2,0.2,3c-4.2,1.1-9.1,1.7-12.9-1
		C334.6,170.6,334.8,160.7,340.7,156.6z"/>
	<path class="st1" d="M365.8,155.8c3.6-2.1,8.7-1.8,11.6,1.4c2.4,2.4,2.2,6,2.7,9.1c-5.3,0.2-10.6,0.1-15.8,0.1
		c0.8,2.5,1.6,5.3,3.9,6.8c3.3,1.3,6.7,0.4,10-0.2c0.1,1,0.2,2,0.3,3c-4.1,0.8-8.5,1.9-12.4-0.2C358.8,171.9,359.1,160,365.8,155.8
		 M364.2,163.4c4,0.1,8,0.1,12,0c-0.6-2.8-2-6.3-5.5-6.2C367,157,365.5,160.7,364.2,163.4z"/>
	<path class="st1" d="M433.4,155.6c3.6-1.7,8.2-1.6,11.4,0.9c6.5,5,5,17.6-3.3,19.9c-6.3,2.5-14.2-2.7-13.7-9.6
		C427.3,162.4,429.3,157.6,433.4,155.6 M435.9,158c-6,3.1-5.3,14.8,1.8,16c5.1,0.3,8-5.9,6.9-10.3
		C444.1,159.7,439.9,155.9,435.9,158z"/>
	<path class="st1" d="M498.4,155c1.2,0,2.4-0.1,3.5-0.1c0,1,0,2.9,0,3.9c1.7-2.5,4.1-4.4,7.2-4.7c0,1,0.1,3.1,0.2,4.2
		c-0.8,0-2.5,0-3.3,0c-1.5,1.4-3.2,3-3.2,5.3c-0.4,4.3-0.1,8.6-0.2,12.9c-1.3,0-2.6,0-4,0C498.5,169.3,498.7,162.1,498.4,155z"/>
	<path class="st1" d="M520.1,155.4c3.4-1.2,7.3-1.5,10.5,0.4c2.2,1.5,2.9,4.3,2.9,6.8c0.1,4.6-0.1,9.3,0.4,13.9
		c-1.9,0-4,0.2-4.3-2.2c-2.5,1.9-5.7,3.5-8.8,2.2c-4.8-1.3-5.4-8.6-1.6-11.3c3.2-2.3,7.3-2.2,11-3c-0.9-1.5-1.4-3.2-2.7-4.4
		c-3-1.1-6.2,0.3-9.2,0.9C518.6,157.5,518.5,155.7,520.1,155.4 M520.8,169.7c-1,3.7,3.8,5.6,6.5,3.5c2.9-1.6,2.5-5.2,2.6-8.1
		C526.7,165.8,521.5,165.5,520.8,169.7z"/>
	<path class="st1" d="M579.1,155.6c3.6-1.7,8.5-1.6,11.2,1.6c2.3,2.5,2.4,6,2.8,9.2c-5.4,0.1-10.7,0-16.1,0c0.9,2.5,1.7,5.4,4.2,6.6
		c3.3,1.5,7,0.2,10.4,0c-0.2,1-0.4,1.9-0.5,2.9c-4,1.2-8.5,1.8-12.3-0.2C571.7,171.6,572.2,159.6,579.1,155.6 M577.2,163.5
		c4.1,0.1,8.1,0.1,12.2-0.1c-1-2.6-2.2-6.3-5.7-6.1C580,157,578.5,160.8,577.2,163.5z"/>
</g>
</svg>
