<?xml version="1.0" encoding="utf-8"?>
<!-- Generator: Adobe Illustrator 22.0.1, SVG Export Plug-In . SVG Version: 6.00 Build 0)  -->
<svg version="1.1"
	 id="svg3013" inkscape:version="0.48.5 r10040" sodipodi:docname="New document 2" xmlns:cc="http://creativecommons.org/ns#" xmlns:dc="http://purl.org/dc/elements/1.1/" xmlns:inkscape="http://www.inkscape.org/namespaces/inkscape" xmlns:rdf="http://www.w3.org/1999/02/22-rdf-syntax-ns#" xmlns:sodipodi="http://sodipodi.sourceforge.net/DTD/sodipodi-0.dtd" xmlns:svg="http://www.w3.org/2000/svg"
	 xmlns="http://www.w3.org/2000/svg" xmlns:xlink="http://www.w3.org/1999/xlink" x="0px" y="0px" viewBox="0 0 550 160"
	 style="enable-background:new 0 0 550 160;" xml:space="preserve">
<style type="text/css">
	.st0{fill:#00A63F;}
</style>
<sodipodi:namedview  bordercolor="#666666" borderopacity="1.0" fit-margin-bottom="0" fit-margin-left="0" fit-margin-right="0" fit-margin-top="0" id="base" inkscape:current-layer="layer1" inkscape:cx="801.49267" inkscape:cy="-90.614637" inkscape:document-units="px" inkscape:pageopacity="0.0" inkscape:pageshadow="2" inkscape:window-height="1034" inkscape:window-maximized="0" inkscape:window-width="1052" inkscape:window-x="864" inkscape:window-y="-12" inkscape:zoom="0.40458385" pagecolor="#ffffff" showgrid="false">
	</sodipodi:namedview>
<g id="layer1" transform="translate(202.85714,-346.70514)" inkscape:groupmode="layer" inkscape:label="Layer 1">
	<path id="Fill-1" inkscape:connector-curvature="0" class="st0" d="M-45,425.9c0-6.3-5-11.7-11.7-11.7c-6.3,0-11.7,5.4-11.7,11.7
		s5,11.7,11.7,11.7S-45,432.1-45,425.9 M-25,425.9c0,16.7-14.2,29.6-31.7,29.6s-31.7-13.4-31.7-29.6c0-16.7,14.2-30,31.7-30
		C-38.8,395.8-25,409.2-25,425.9"/>
	<path id="Fill-2" inkscape:connector-curvature="0" class="st0" d="M38,413.8c0-11.3-7.9-20.9-19.2-20.9H3V435h15.9
		C30.1,435.5,38,425,38,413.8 M59.7,413.8c0,23.8-16.7,40.1-40.5,40.1H-15c-1.7,0-2.9-1.3-2.9-2.9v-74c0-1.7,1.3-2.9,2.9-2.9h34.2
		C43,374.1,59.7,390,59.7,413.8"/>
	<path id="Fill-3" inkscape:connector-curvature="0" class="st0" d="M93.1,437.6c6.3,0,11.7-5.4,11.7-11.7s-5-11.7-11.7-11.7
		c-6.3,0-11.7,5.4-11.7,11.7C81.8,432.1,86.9,437.6,93.1,437.6 M90.2,395.8c6.7,0,12.1,2.5,14.6,6.3v-1.7c0-1.7,1.3-2.9,2.9-2.9
		h14.6c1.7,0,2.5,1.3,2.5,2.5v51.3c0,1.7-1.3,2.5-2.5,2.5h-14.6c-1.7,0-2.5-1.3-2.5-2.5v-1.7c-2.5,3.3-7.9,6.3-14.6,6.3
		c-14.6,0-28.4-11.7-28.4-30S75.6,395.8,90.2,395.8"/>
	<path id="Fill-4" inkscape:connector-curvature="0" class="st0" d="M158.6,437.6c6.3,0,11.7-5.4,11.7-11.7s-5-11.7-11.7-11.7
		c-6.3,0-11.7,5.4-11.7,11.7C147.4,432.1,152.4,437.6,158.6,437.6 M155.3,395.8c7.1,0,12.5,2.5,15,5.8v-25c0-1.7,1.3-2.5,2.5-2.5
		h14.6c1.7,0,2.5,1.3,2.5,2.5v74.7c0,1.7-1.3,2.5-2.5,2.5h-14.6c-1.7,0-2.5-1.3-2.5-2.5v-1.7c-2.9,3.3-7.9,6.3-14.6,6.3
		c-14.6,0-28.4-11.7-28.4-30S141.1,395.8,155.3,395.8"/>
	<path id="Fill-5" inkscape:connector-curvature="0" class="st0" d="M224.6,437.6c6.3,0,11.7-5.4,11.7-11.7s-5-11.7-11.7-11.7
		c-6.3,0-11.7,5.4-11.7,11.7S217.9,437.6,224.6,437.6 M220.8,395.8c7.1,0,12.5,2.5,15,5.8v-25c0-1.7,1.3-2.5,2.5-2.5h14.6
		c1.7,0,2.5,1.3,2.5,2.5v74.7c0,1.7-1.3,2.5-2.5,2.5h-14.6c-1.7,0-2.5-1.3-2.5-2.5v-1.7c-2.9,3.3-7.9,6.3-14.6,6.3
		c-14.6,0-28.4-11.7-28.4-30S206.6,395.8,220.8,395.8"/>
	<path id="Fill-6" inkscape:connector-curvature="0" class="st0" d="M303.9,462.2c-3.8,12.1-12.1,18.8-25,18.8
		c-7.1,0-14.2-2.5-18.4-6.3c-0.8-0.8-1.3-1.7-1.3-2.5s0.4-1.7,0.8-2.5l5.4-8.3c0.8-1.3,2.1-1.3,2.5-1.3c1.3,0,1.7,0.4,2.9,1.3
		c1.7,1.3,4.2,2.5,6.7,2.5c2.1,0,5-0.8,6.3-4.2l1.7-5.8h-8.8c-1.7,0-2.9-1.3-3.3-2.9l-14.6-49.2c-0.4-1.3-0.4-2.1-0.4-2.5
		c0-1.3,0.8-2.1,2.5-2.1H278c1.7,0,2.5,1.3,2.9,2.9l9.6,35.5h0.8l7.9-35.5c0.4-1.3,1.3-2.9,2.9-2.9h17.5c1.7,0,2.5,0.8,2.5,2.1
		c0,0.4,0,1.3-0.4,2.5L303.9,462.2"/>
	<path id="Fill-7" inkscape:connector-curvature="0" class="st0" d="M-108.5,443c-7.1,9.6-18.4,12.9-28.4,12.9
		c-23.8,0-40.9-17.5-40.9-41.7c0-23.4,18.8-41.7,43-41.7c17.9,0,32.6,7.5,39.2,22.1c0.8,1.7,1.3,4.6-3.3,5.4l-12.9,2.1
		c-2.9,0.4-4.6-1.3-5-2.1c-3.8-5-10-8.8-17.1-8.8c-12.9,0-21.7,9.6-21.7,22.5c0,14.2,10.4,22.5,21.7,22.5c7.5,0,13.8-2.9,17.9-7.9
		h-11.3c-1.7,0-2.9-1.3-2.9-2.9v-10.8c0-1.7,1.3-2.9,2.9-2.9h34.6c1.7,0,2.9,1.3,2.9,2.9v35.9c0,1.7-1.3,2.9-2.9,2.9h-12.1
		c-1.7,0-2.9-1.3-2.9-2.9V443"/>
</g>
</svg>
