<?xml version="1.0" encoding="utf-8"?>
<!-- Generator: Adobe Illustrator 22.0.0, SVG Export Plug-In . SVG Version: 6.00 Build 0)  -->
<svg version="1.1" id="Layer_1" xmlns="http://www.w3.org/2000/svg" xmlns:xlink="http://www.w3.org/1999/xlink" x="0px" y="0px"
	 viewBox="0 0 400 100" style="enable-background:new 0 0 400 100;" xml:space="preserve">
<style type="text/css">
	.st0{fill:#0098D0;}
	.st1{fill:url(#SVGID_1_);}
	.st2{fill:#4674B8;}
	.st3{fill:#86CAF3;}
	.st4{fill:#3F3F41;}
	.st5{fill:url(#SVGID_2_);}
	.st6{fill:url(#SVGID_3_);}
	.st7{fill:url(#SVGID_4_);}
</style>
<path class="st0" d="M43.9,35.5c1.5-8,3.9-16.4,3.9-16.4C51.4,6.2,61.7,3.5,61.7,3.5c10-3.4,15.9,3.4,15.9,3.4V7
	c0.5,0.6,0.7,1.2,0.7,1.2c0.3,0.3,0.4,0.8,0.4,1.3c0,1.4-0.8,2.5-1.9,3.1h-0.1c-7.9,3.6-13.5,9.9-13.5,9.9
	C49.2,38,42.4,65.6,42.4,65.6s-6.8,28.6-24.9,23.7c0,0-11.4-2.8-14.4-19.4c-0.7-4.4,0.5-5.4,0.5-5.4c1.9-1.5,4.1,1.2,4.1,1.2
	c5.6,6.8,12.9,6.2,12.9,6.2c0.9,0,11-0.1,19.1-21.2C39.7,50.8,42.4,44.2,43.9,35.5z"/>
<linearGradient id="SVGID_1_" gradientUnits="userSpaceOnUse" x1="39.6648" y1="39.7191" x2="7.6648" y2="39.7191" gradientTransform="matrix(1 0 0 -1 0 102.9)">
	<stop  offset="0.1401" style="stop-color:#FFFFFF"/>
	<stop  offset="0.2324" style="stop-color:#F5F9FD;stop-opacity:0.8926"/>
	<stop  offset="0.3737" style="stop-color:#E1ECF7;stop-opacity:0.7283"/>
	<stop  offset="0.5463" style="stop-color:#C3DAF0;stop-opacity:0.5277"/>
	<stop  offset="0.7436" style="stop-color:#9AC4E8;stop-opacity:0.2982"/>
	<stop  offset="0.9591" style="stop-color:#6AADDE;stop-opacity:4.758775e-02"/>
	<stop  offset="1" style="stop-color:#5FA9DC;stop-opacity:0"/>
</linearGradient>
<path class="st1" d="M39.7,50.8C31.6,71.9,21.4,72,20.6,72c0,0-7.3,0.5-12.9-6.2c0,0,4.4,9.8,12.7,9.8c0,0,8.9,1.5,18.9-24
	L39.7,50.8z"/>
<path class="st2" d="M103.8,54"/>
<path class="st0" d="M95.1,54.8c-14.6-2.4-34.6,38.3-34.6,38.3c-1.3,2.4-2.7,1.9-2.7,1.9c-1.6-0.3-0.9-2.7-0.9-2.7
	S67.8,46,90.3,42.2c0,0,12.8-2,13.8,12.2c0,0,0,4.3-4.1,2.5C100,57,97.4,55.2,95.1,54.8z"/>
<path class="st3" d="M107.2,27.5C96.9,13.7,82,18.7,82,18.7C51.8,28.2,42.9,94,42.9,94s-0.5,3.4,1.7,3.5c0,0,2,0.3,3.3-3.1
	c0,0,12.6-58.5,41.9-60.4c0,0,7.5-0.6,14.4,2.6c0,0,2.2,1.3,4-0.4c0,0,2.4-2.2,0.7-5.7C108.9,30.5,108.3,29.4,107.2,27.5L107.2,27.5
	z"/>
<g>
	<path class="st4" d="M140.8,75.1c0-4.5,2-10.9,4.9-17.6c-3.5,0.6-8.2,1-14.1,1.1c-2.8,5.9-5.9,12.1-8.3,16.4
		c-1.9,3.3-4.1,5.9-8.3,5.9c-5.1,0-6.4-1.9-6.4-1.9c3.3-4.4,8-12.5,12.4-21.6c-2.7-1-4.3-3.1-4.3-5.9c0-1.8,0.9-2.6,0.9-2.6
		c2,1.6,4.3,2.6,5.7,3.1c3.5-7.5,6.5-15,8-21.4c3.9-0.1,8.5,0.5,8.5,5.9c0,2.6-2.7,9.6-6.2,17.3c4.4,0.3,10.7,0,13.9-0.5
		c4.3-8.7,9.8-17,13.3-20.2c2.1-1.8,4.6-2.8,7.7-2.8c3.6,0,5.8,1.7,5.8,1.7c-9.6,8.3-24.6,33.7-24.6,51.8
		C146,83.7,140.8,80.4,140.8,75.1z"/>
	<path class="st4" d="M166.4,80.3c-5.7,0-8.4-3.1-8.4-7.7c0-11.7,13-23.6,24.9-23.6c4.8,0,7.8,1.8,7.8,6.4
		C190.6,64.3,180.4,80.3,166.4,80.3z M171.2,74c6.6,0,13.9-12.1,13.9-18.6c0-1.4-0.5-2.2-1.8-2.2c-5.1,0-14.1,10.6-14.1,18.4
		C169.2,73.3,170,74,171.2,74z"/>
	<path class="st4" d="M212.4,55.6c0,0-0.9-3.1-3.9-3.1c-3.3,0-5.1,2.8-5.1,6.2c0,3.9,2.8,6.5,2.8,11.2c0,5.5-6.5,10.4-14.9,10.4
		c-4.3,0-6-1.4-6-3.3c0-2.8,3-3.6,3-3.6s0.9,3.2,3.9,3.2c2.7,0,4.4-1.9,4.4-5c0-3.6-3.3-6.5-3.3-11.2c0-5.9,7.2-11.7,16-11.7
		c4.3,0,6.1,1.4,6.1,3.3C215.4,54.8,212.4,55.6,212.4,55.6z"/>
	<path class="st4" d="M242,50.3c0,1.2-1,3.8-4,3.8h-5.4c-4.9,8.3-8.9,19.4-8.4,26.8c-4,0.1-8.4-2.5-8.4-8.6c0-4.9,3-12.1,6.3-18.2
		H217c0-1.2,1-3.8,4-3.8h3.4c1.6-2.5,3.5-4.9,5.1-6.6c1.8-2,4.2-2.7,7.1-2.7c3.5,0,5.3,1.5,5.3,1.5c-2.1,1.7-4.6,4.7-6.8,7.8
		C235.1,50.3,242,50.3,242,50.3z"/>
	<path class="st4" d="M287.8,52.6c0,6.7-14.4,27-27,27c-3.2,0-4.6-2.3-4.6-5.3c0-2.6,1-5.3,2-7.4c-4.9,5.5-11.5,13-19.1,13
		c-3.2,0-4.2-2-4.2-4.5c0-5.9,3.8-17.5,9.2-23.6c2.3-2.6,5.4-3.1,8.3-3.1c3.1,0,4.9,1.4,4.9,1.4c-5.7,6.8-10.9,16.7-10.9,21.2
		c-0.1,0.8,0.4,1.3,1,1.3c4.1,0,15.2-15.2,18.6-24.1c4,0.1,7.3,1.4,7.3,4.9c0,5-6.7,13.9-6.7,18.5c-0.1,0.9,0.5,1.3,1.1,1.3
		c5.8,0,13.8-17.4,16-25.2C286,48.5,287.8,50.3,287.8,52.6z"/>
	<path class="st4" d="M302.5,55.3c0,6.1-11.2,15-11.2,26.3c0,0.2,0,0.5,0,0.7c-4.1,0-7.6-3.5-7.6-8c0-7,8-17,11-24.6
		C297.8,49.7,302.5,50.1,302.5,55.3z"/>
	<path class="st4" d="M326.5,82.7c-4.1,0-7.5-3-7.5-7.8c0-6.5,7-13.7,7-17.7c0-0.7-0.4-1.2-0.9-1.2c-3.6,0-15,12-19.5,23.8
		c-3.6,0-6.4-2.5-6.4-5.9c0-6.7,9.1-14.8,11.7-25.3c2.9,0,7.5,0.3,7.5,4.9c0,2-1.9,4.8-1.9,4.8c4.8-4.8,9.7-8.8,15.2-8.8
		c3,0,4.8,1.9,4.8,5.1C336.6,63,328.4,71.1,326.5,82.7z"/>
	<path class="st4" d="M362.8,81.6c-4.9,0-7.6-3.9-7.6-9.1c0-1.5,0.3-2.2,0.3-2.3c-1.5,1.7-7.7,9.8-14.8,9.8c-3.4,0-5.7-2.2-5.7-6.4
		c0-11.4,12-24.5,28-24.5c0.9,0,1.8,0.1,1.8,0.1c6.4-11.7,10.9-18.6,18-18.6c3.6,0,4.8,1.6,4.8,1.6
		C377.7,40.6,363.4,64.4,362.8,81.6z M361.8,52.7c-8.9,0-15.8,12.3-15.8,17.8c0,0.9,0.4,1.5,1.2,1.5c4.9,0,12.4-12.8,16.1-19.2
		C363.2,52.9,362.3,52.7,361.8,52.7z"/>
	<path class="st4" d="M394.1,55.6c0,0-0.9-3.1-3.9-3.1c-3.3,0-5.1,2.8-5.1,6.2c0,3.9,2.8,6.5,2.8,11.2c0,5.5-6.5,10.4-14.9,10.4
		c-4.3,0-6-1.4-6-3.3c0-2.8,3-3.6,3-3.6s0.9,3.2,3.9,3.2c2.7,0,4.4-1.9,4.4-5c0-3.6-3.3-6.5-3.3-11.2c0-5.9,7.2-11.7,16-11.7
		c4.3,0,6.1,1.4,6.1,3.3C397.1,54.8,394.1,55.6,394.1,55.6z"/>
</g>
<linearGradient id="SVGID_2_" gradientUnits="userSpaceOnUse" x1="64.113" y1="44.1404" x2="119.6746" y2="44.1404" gradientTransform="matrix(0.9996 2.980000e-02 2.980000e-02 -0.9996 -16.4069 103.5064)">
	<stop  offset="1.916930e-02" style="stop-color:#FFFFFF"/>
	<stop  offset="0.8019" style="stop-color:#89CBEF;stop-opacity:0"/>
</linearGradient>
<path class="st5" d="M48,94.4C66-1.5,105.3,37,105.3,37S84.9,25.3,68.6,47c0,0-10.1,11.4-17.5,36.1L48,94.4z"/>
<path class="st4" d="M302.4,46.8c-2.8,0-5.1-1.5-5.1-4.5s2.5-5.2,5.4-5.2c3,0,5.1,1.4,5.1,4.6C307.8,44.6,305.5,46.8,302.4,46.8z"/>
<linearGradient id="SVGID_3_" gradientUnits="userSpaceOnUse" x1="106.9848" y1="33.4113" x2="68.3132" y2="33.4113" gradientTransform="matrix(0.9998 2.150000e-02 2.150000e-02 -0.9998 -8.0552 103.712)">
	<stop  offset="0" style="stop-color:#A4D5F1"/>
	<stop  offset="0.1783" style="stop-color:#9DCFEE;stop-opacity:0.8082"/>
	<stop  offset="0.4526" style="stop-color:#8BC3E8;stop-opacity:0.5131"/>
	<stop  offset="0.787" style="stop-color:#6EB1E0;stop-opacity:0.1535"/>
	<stop  offset="0.9297" style="stop-color:#5FA9DC;stop-opacity:0"/>
</linearGradient>
<path class="st6" d="M100,57c0,0-2.5-1.8-4.8-2.2c-14.6-2.4-34.6,38.3-34.6,38.3s10.5-29.7,25.8-40.6C86.4,52.5,93.4,47.4,100,57z"
	/>
<linearGradient id="SVGID_4_" gradientUnits="userSpaceOnUse" x1="61.2596" y1="48.7274" x2="61.2596" y2="93.8295" gradientTransform="matrix(1 0 0 -1 0 102.9)">
	<stop  offset="0" style="stop-color:#FFFFFF"/>
	<stop  offset="0.1074" style="stop-color:#F5F9FD;stop-opacity:0.8926"/>
	<stop  offset="0.2717" style="stop-color:#E1ECF7;stop-opacity:0.7283"/>
	<stop  offset="0.4723" style="stop-color:#C3DAF0;stop-opacity:0.5277"/>
	<stop  offset="0.7018" style="stop-color:#9AC4E8;stop-opacity:0.2982"/>
	<stop  offset="0.9524" style="stop-color:#6AADDE;stop-opacity:4.758775e-02"/>
	<stop  offset="1" style="stop-color:#5FA9DC;stop-opacity:0"/>
</linearGradient>
<path class="st7" d="M50.1,43.8c3.3-7.4,7.6-15.3,13.1-21.3c0,0,5.6-6.3,13.4-9.9c0,0-17.9-21.4-30.7,41.6"/>
</svg>
