<?xml version="1.0" encoding="utf-8"?>
<!-- Generator: Adobe Illustrator 22.0.1, SVG Export Plug-In . SVG Version: 6.00 Build 0)  -->
<svg version="1.1" id="图层_1" xmlns="http://www.w3.org/2000/svg" xmlns:xlink="http://www.w3.org/1999/xlink" x="0px" y="0px"
	 viewBox="0 0 240 60" style="enable-background:new 0 0 240 60;" xml:space="preserve">
<style type="text/css">
	.st0{fill:#5C4EA0;}
</style>
<g id="_x23_5c4ea0ff">
	<path class="st0" d="M7.5,7.5c3.6,1.9,7.1,3.7,10.7,5.7c0,3.1,0,6.3,0,9.4c4.6,0.1,9.3-0.2,14,0.1c3.8,1.6,7.2,3.9,10.9,5.8
		c-11.8,0-23.6,0-35.4,0C7.5,21.5,7.5,14.5,7.5,7.5z"/>
	<path class="st0" d="M35,7.5c3.6,1.8,7.2,3.7,10.9,5.4c0.1,4.8,0,9.5,0.1,14.3c-3.6-2-7.1-4.2-10.8-6.1C34.9,16.5,35.1,12,35,7.5z"
		/>
	<path class="st0" d="M63.8,20.9c1.4,0,2.8-0.1,4.3-0.1c0,2.4,0,4.8,0,7.1c2.4,0,4.7,0,7.1,0c0-2.4,0-4.8,0-7.1c1.4,0,2.8,0,4.2,0
		c0,6.2,0,12.4,0,18.6c-1.4,0-2.8,0-4.2,0c0-2.6,0-5.3,0-7.9c-2.4,0-4.7,0-7.1,0c0,2.6,0,5.3,0,7.9c-1.4,0-2.8,0-4.2,0
		C63.8,33.2,63.9,27.1,63.8,20.9z"/>
	<path class="st0" d="M90.4,21.1c2.5-1,5.4-1,7.9,0.1c6.9,3,7,14.6,0.2,17.7c-4,1.8-9.5,0.9-12-3C83.4,31.1,84.7,23.3,90.4,21.1
		 M91.4,25c-3.7,2.9-2.8,11,2.6,11.1c4.6,0.2,6-5.5,4.5-9C97.6,24.2,93.7,23.2,91.4,25z"/>
	<path class="st0" d="M108.8,23.3c2.5-3.9,7.9-3.2,11.7-1.9c-0.4,1.1-0.8,2.2-1.2,3.4c-2.1-0.4-6-2.1-7,0.7c0.6,2.5,4,2.5,5.9,3.8
		c3.7,1.4,4.2,7.4,0.8,9.3c-3.5,1.8-7.7,1.2-11.3-0.1c0.3-1.1,0.7-2.2,1.1-3.3c2.5,0.6,5.6,1.9,8,0.1c1.2-2.9-2.8-3.3-4.5-4.3
		C109.1,30.2,106.9,26.3,108.8,23.3z"/>
	<path class="st0" d="M124.5,20.8c5.2,0,10.3,0,15.5,0c0,1.2,0,2.4,0,3.6c-1.9,0-3.8,0-5.6,0c0,5,0,10,0,15c-1.4,0-2.8,0-4.2,0
		c0-5,0-10,0-15c-1.9,0-3.8,0-5.7,0C124.5,23.2,124.5,22,124.5,20.8z"/>
	<path class="st0" d="M144.6,20.9c1.4,0,2.9-0.1,4.3-0.1c0,6.2,0,12.4,0,18.7c-1.4,0-2.8,0-4.2,0C144.7,33.3,144.8,27.1,144.6,20.9z
		"/>
	<path class="st0" d="M155.2,20.8c1.1,0,2.3,0,3.4,0c3.1,3.4,5.8,7.2,8.5,11c0-3.7,0-7.3,0-11c1.4,0,2.8,0,4.2,0
		c0,6.2,0,12.4,0,18.6c-0.9,0-2.6,0-3.5,0c-2.5-4.3-5.3-8.4-8.4-12.2c0,4.1,0,8.1,0,12.2c-1.4,0-2.8,0-4.2,0
		C155.2,33.2,155.2,27,155.2,20.8z"/>
	<path class="st0" d="M181.9,21.3c3.4-1.6,7.2-0.9,10.6,0.3c-0.4,1.1-0.8,2.3-1.2,3.4c-2.8-0.9-6.7-1.8-8.9,0.9
		c-1.6,2.6-1.6,6.4,0.4,8.8c1.4,1.6,3.7,1.4,5.7,1.5c0-2.2,0-4.4,0-6.6c1.4,0,2.8,0,4.2,0c0,3.1,0,6.2,0,9.3
		c-3.6,0.8-7.6,1.5-11.1-0.1C175.1,35.6,175.3,24.4,181.9,21.3z"/>
	<path class="st0" d="M198.7,20.7c4.2,0.1,8.4,0,12.6,0.1c0,1.2,0,2.3,0,3.5c-2.8,0-5.6,0-8.4,0c0,0.9,0,2.7,0,3.6c2.5,0,5,0,7.5,0
		c0,1.1,0,2.3,0,3.4c-2.5,0-5,0-7.5,0c0,1.5,0,3,0,4.5c3,0,6,0,9,0c0,1.2,0,2.3,0,3.5c-4.4,0-8.9,0-13.3,0
		C198.7,33.2,198.5,27,198.7,20.7z"/>
	<path class="st0" d="M217.1,21c4-0.3,8.6-1.1,12.2,1.3c3.2,2.5,2.3,8-1.4,9.7c1.7,2.4,3.2,4.9,4.5,7.5c-1.6,0-3.3-0.1-4.9-0.1
		c-1.7-2.5-2.5-6.8-6.2-6.9c-0.1,2.3-0.1,4.7-0.1,7c-1.4,0-2.8,0-4.2,0C217,33.3,216.9,27.1,217.1,21 M221.2,24.1c0,1.8,0,3.5,0,5.3
		c2-0.3,5.6,0.2,5.6-2.8C226.7,23.8,223.2,24.3,221.2,24.1z"/>
	<path class="st0" d="M9.9,31.2c11.8-0.2,23.7,0.7,35.5-0.3c1.3,7.1,0.4,14.5,0.4,21.6h-0.4c-3.1-2.6-7-3.9-10.4-6
		c0-3.1,0-6.2,0-9.3c-4.6-0.1-9.3,0.2-14-0.2C17.2,35.6,13.7,33,9.9,31.2z"/>
	<path class="st0" d="M7.5,32.8c3.6,2.1,7.3,4,10.7,6.4c-0.2,4.3-0.1,8.6-0.1,12.8c-3.5-1.8-7.1-3.7-10.6-5.5
		C7.5,42,7.5,37.4,7.5,32.8z"/>
</g>
</svg>
