<?xml version="1.0" encoding="utf-8"?>
<!-- Generator: Adobe Illustrator 22.0.1, SVG Export Plug-In . SVG Version: 6.00 Build 0)  -->
<svg version="1.1" id="图层_1" xmlns="http://www.w3.org/2000/svg" xmlns:xlink="http://www.w3.org/1999/xlink" x="0px" y="0px"
	 viewBox="0 0 410 60" style="enable-background:new 0 0 410 60;" xml:space="preserve">
<style type="text/css">
	.st0{fill:#00658A;}
	.st1{fill:#73A736;}
</style>
<g id="_x23_ffffffff">
</g>
<path class="st0" d="M2.6,2.5c1.5,0,3,0,4.6,0c0,6.7,0,13.5,0,20.2c2.8-2.5,5.6-5.3,9.4-5.9c5.2-0.9,11.5,0.3,14.6,5
	c1.9,2.5,2.2,5.8,2.2,8.8c0,8.7,0,17.3,0,26c-1.5,0-3,0-4.5,0c0-8.7,0-17.4,0-26c0.1-3.9-1.6-8.5-5.8-9.4
	c-6.8-2.5-14.8,2.3-15.6,9.5c-0.7,8.6-0.1,17.3-0.3,26c-1.5,0-3.1,0-4.6,0C2.6,38.5,2.6,20.5,2.6,2.5z"/>
<path class="st0" d="M124.9,6.9c1.5,0,3,0,4.5,0c0,3.6,0,7.2,0,10.7c2.4,0,4.8,0,7.2,0c0,1.3,0,2.5,0,3.8c-2.4,0-4.8,0-7.3,0
	c0.1,10-0.3,19.9,0.2,29.9c0.8,3.2,5,1.9,7.4,1.8c0,0.9,0,2.6,0,3.5c-3.1,0.7-6.6,1.5-9.4-0.2c-2.4-1.4-2.6-4.5-2.6-7
	c0-9.3,0-18.7,0-28c-1.8,0-3.6,0-5.5,0c0-1.3,0-2.5,0-3.8c1.8,0,3.6,0,5.5,0C124.9,14.1,124.9,10.5,124.9,6.9z"/>
<path class="st0" d="M53.9,17.2c6.1-1.7,13.3-0.8,18,3.8c3.4,3.2,5.2,7.8,5.6,12.4c0.7,6.6-0.5,14-5.2,18.9
	c-7.1,7.5-21,6.6-26.9-1.9C41,44,40.7,35.5,43,28.2C44.6,23.1,48.7,18.8,53.9,17.2 M55.8,21c-3.8,1.1-6.7,4.2-8,7.9
	c-2.2,6.4-2,13.9,1.7,19.6c4.6,6.8,16.2,6.7,20.5-0.4c3.7-6.3,3.8-14.4,0.9-21C68.4,21.5,61.4,19.2,55.8,21z"/>
<path class="st0" d="M90.8,17.9c5.8-2.4,13.1-2,18.2,1.8c2.8,2.1,3.6,5.7,4.4,9c-1.5,0-3,0-4.6,0c-0.6-7.9-10.9-10.4-16.8-6.6
	c-3.1,2-3.8,7.1-0.5,9.2c5.9,4,13.9,2.9,19.6,7.4c5,3.7,4.3,12.2-0.7,15.6c-5.1,3.5-12.1,4-17.9,2.1c-5.2-1.7-8.2-6.9-8.7-12.2
	c1.5,0,3.1,0,4.6,0c1,3.3,2.4,7.1,6,8.3c4.3,1.5,10,1.7,13.5-1.8c2.6-2.3,2.7-7.2-0.5-9.1c-6.3-3.9-14.9-2.2-20.4-7.7
	C82.4,29.1,84.7,20.3,90.8,17.9z"/>
<path class="st1" d="M329.4,7c1.3,0,2.6,0,4,0c0,3.5,0,7,0,10.5c2.4,0,4.8,0,7.2,0c0.1,1.3,0.2,2.6,0.4,3.9c-2.5,0-5,0-7.5,0
	c0,9.4-0.1,18.7,0,28.1c-0.1,1.6,1,2.7,1.7,4c2,0,4.1-0.1,6.2-0.1c0,0.7,0.1,2.1,0.1,2.8c-3.9,2-10.1,2.1-11.9-2.7
	c-0.4-10.7,0-21.4-0.2-32c-2,0-4-0.1-6-0.1c0.1-1.3,0.2-2.5,0.3-3.8c1.9-0.1,3.9-0.1,5.8-0.2C329.4,14,329.4,10.5,329.4,7z"/>
<path class="st1" d="M148.4,23c3-3.6,7.1-6.8,12-6.6c5-0.4,9.6,2.9,11.5,7.4c3.5-8.3,16.8-10.3,22.2-3c1.6,2.9,2.3,6.3,2.3,9.6
	c0,8.7,0,17.4,0,26c-1.5,0-3,0-4.4,0c0-9,0-17.9,0-26.9c-0.2-3-0.6-6.7-3.5-8.3c-3.3-1.5-7.4-1.2-10.5,0.8c-3.7,2-5.1,6.4-5.5,10.2
	c-0.1,8,0,16.1,0,24.1c-1.5,0-3,0-4.4,0c0-9,0-17.9,0-26.9c-0.1-3.1-0.7-7.1-4-8.4c-6.5-2.7-14.5,1.7-15.3,8.8
	c-0.6,8.8-0.1,17.7-0.2,26.6c-1.6,0-3.2,0-4.9,0c0.1-12.9-0.2-25.9,0.1-38.8c1.5,0,3.1,0,4.6,0C148.3,19.4,148.3,21.2,148.4,23z"/>
<path class="st1" d="M217.8,16.9c6.5-1.6,14.1,0.5,18.3,6c5.6,8.5,5.5,20.5-0.6,28.8c-6.5,7.7-19.8,7.9-26.4,0.2
	c-5.2-5.6-5.4-13.9-4.3-21.1C206.2,24.1,211.2,18.3,217.8,16.9 M213.6,23.6c-3.8,3.5-4.7,8.9-4.7,13.8c0.2,4.4,1,9.1,4.2,12.4
	c4.1,4.4,11.5,5.1,16.4,1.5c2.3-1.5,3.6-4.1,4.7-6.5c2.2-6.8,1.8-14.8-2.5-20.6C227.1,19.4,218.4,18.9,213.6,23.6z"/>
<path class="st1" d="M253,22.9c2.8-2.6,5.7-5.5,9.6-6.3c5.4-1,11.9,0.8,14.8,5.7c1.6,3.1,2,6.6,1.9,10c0,8,0,16,0,24
	c-1.6,0-3.2,0-4.9,0c0-9,0-18.1,0-27.1c0.1-2.6-0.8-5.4-2.9-7.1c-5.1-3.5-13-2.2-16.4,3.1c-2.2,3.2-2.3,7.2-2.4,11
	c0,6.7,0,13.4,0,20.1c-1.5,0-3,0-4.4,0c0-13,0-25.9,0-38.9c1.4,0,2.8,0,4.2,0C252.7,19.3,252.9,21.1,253,22.9z"/>
<path class="st1" d="M290.6,21.9c4.2-6.1,12.8-6.6,19.2-4.2c4.6,1.5,7.1,6.2,7.8,10.8c-1.6,0-3.2-0.1-4.7-0.2
	c-0.3-7.2-9.2-9.3-14.9-7.3c-3,1.3-6,5.3-3.7,8.5c2.5,3.9,7.6,4.3,11.6,5.4c4.9,1,10.5,2.8,12.4,7.9c0.3,2.8,0.6,6-1,8.5
	c-1.5,2.7-4.3,4.1-7.1,5.1c-5.7,1.9-12.4,1.5-17.3-2.2c-2.9-2.4-4.3-6.1-4.6-9.8c1.4,0,2.8,0,4.3,0c1,5.1,5.4,9.5,10.8,9.1
	c4.8,0.8,9.8-2.2,10.9-7c-0.5-2.5-1.6-5-4.3-5.8c-5.7-2.6-12.8-1.8-17.8-5.9C288.3,31.8,288.1,25.8,290.6,21.9z"/>
<path class="st1" d="M349.7,24.9c4.2-7.8,15-10.9,22.6-6.6c7.1,3.5,9.1,12.3,9.1,19.6c-10.1,0-20.1,0-30.2,0
	c0.1,5.5,2,12.1,7.5,14.4c4.6,2.4,10.5,1.4,14.4-2c1.5-1.7,2.3-3.9,3.3-5.9c1.6,0,3.2,0,4.8,0c-1.3,2.9-2.3,6.1-4.6,8.3
	c-4.9,5.1-12.9,6-19.3,3.5c-5.6-2.1-9.4-7.7-10.2-13.6C345.6,36.7,347,30.3,349.7,24.9 M358,22.2c-4.2,2.6-6.1,7.6-6.8,12.3
	c8.4,0,16.9,0,25.3,0c0-2.6,0-5.3-1.4-7.6C372.4,20.6,363.6,18.4,358,22.2z"/>
<path class="st1" d="M394.8,24.9c2.3-4.9,6.9-8.8,12.6-8.6c0,1.7,0,3.3,0,5c-3.9-0.1-8.2,1.6-10.2,5.1c-1.9,3-2,6.6-2.4,10
	c-0.1,6.7,0,13.3,0,20c-1.5,0-3,0-4.4,0c0-13,0-25.9,0-38.9c1.4,0,2.8,0,4.2,0C394.8,20,394.9,22.4,394.8,24.9z"/>
</svg>
