<?xml version="1.0" encoding="utf-8"?>
<!-- Generator: Adobe Illustrator 22.0.0, SVG Export Plug-In . SVG Version: 6.00 Build 0)  -->
<svg version="1.1" id="图层_1" xmlns="http://www.w3.org/2000/svg" xmlns:xlink="http://www.w3.org/1999/xlink" x="0px" y="0px"
	 viewBox="0 0 500 90" style="enable-background:new 0 0 500 90;" xml:space="preserve">
<style type="text/css">
	.st0{fill:#4580C2;}
	.st1{fill:#2E578C;}
	.st2{fill:#FBCE3B;}
	.st3{fill:#ECA93E;}
	.st4{fill:#EDB248;}
	.st5{fill:#F1F1F2;}
	.st6{fill:#F68B51;}
	.st7{fill:#F26A23;}
	.st8{fill:#C56428;}
	.st9{fill:#EBEEF2;}
</style>
<title>Hg-Logo</title>
<g id="HG-Logo-Update">
	<g id="Default">
		<g id="Default-Default">
			<g id="LightBlue_Snappy">
				<g id="Back_Leg">
					<path class="st0" d="M52.6,65c-2.4,2.4-4.9,5.6-7.3,7.9c1.2,6.2-1.1,8.8,1.6,11.1c1,0.8,7,2.5,10.4,0.5
						c0.1-3.2-1.7-4.1-3.5-5.3C51.9,75.2,52.6,69,52.6,65"/>
					<path class="st1" d="M54,85.4c-0.4-1.8-1.7-3.3-3.4-4c1.4,0.8,2.2,2.4,2.1,4C53.1,85.4,53.5,85.4,54,85.4z M56.9,84.8
						c-0.4-1.8-1.7-3.3-3.4-4c1.8,1.4,2.3,2.8,2.1,4.4C56,85.1,56.5,84.9,56.9,84.8z"/>
				</g>
				<g id="Back_Arm">
					<path class="st0" d="M49.7,33.2c-1.3,1.8-1.8,5.7,8.2,11.3c0,0-4.2,7.3-5.5,8.6s-2.1,4.9-0.8,6.7c0.7,0.9,1.4,1.8,2.3,2.6
						c0,0,3.3,0.6,4.7-0.2c1.8-1.9,2.2-4.8,1-7.1c0,0,8.4-8.8,7.9-11.5S53.7,27.4,49.7,33.2z"/>
					<path class="st1" d="M59.5,55c0,0-3.4,2.8-4.3,3.3c0.7-0.2,1.4-0.5,2-0.9c0,0,1.5,1.9,0.4,3.4c0,0,2-1.2,0.7-3.9
						c0.5-0.6,0.9-1.2,1.3-1.8L59.5,55z"/>
				</g>
				<g id="Body">
					<g id="Tail_Spines">
						<path class="st0" d="M24.3,53.3c0,0.7-0.2,1.3-0.6,1.8c-0.6,0.9-0.9,0.8,0.5,1.6c1.1,0.5,2.2,0.9,3.4,1.1
							c2,0.3,1.5,0.1,0.7-1.8c-0.4-0.9-0.9-1.7-1.4-2.4C25,50.8,24.4,51,24.3,53.3 M17.1,52.4c-0.7,1.4,0.4,1.6,1.8,2.1
							c0.5,0.2,1.1,0.3,1.7,0.4c1.6,0.2,1.2-0.1,0.5-1.4c-0.4-0.8-0.9-1.6-1.4-2.4C16.8,47,18.2,50.4,17.1,52.4 M10.9,51.8
							c0,0.3,0,0.6,0,0.9c-0.1,1.1-0.2,1,1.2,1.1c0.6,0.1,1.3,0.1,1.9,0c1.8-0.3,1.1-0.9,0.2-2c-0.3-0.4-0.7-0.7-1.1-1
							C9.6,48.1,10.9,50,10.9,51.8"/>
					</g>
					<path class="st0" d="M34.8,11.6c0,0-10.2,5.3-10.1,6.9s2.9,1.4,4,3.7c0,0-6.3,4.3-5.8,6.3s4.4,1.3,5.4,2.8c0,0-1,3.9-0.1,5.4
						s0.8,0.2,2,2C30.2,38.8,29.5,24.1,34.8,11.6z"/>
					<path class="st0" d="M32.6,16.4c3.6,3.4,8.1,5.6,12.3,8.2c2.8,1.7,5.4,3.9,7.4,6.5c2.5,3.3,1,7.2,1.6,11.3
						c0.2,1.4,0.3,2.8,0.3,4.2c0.1,2.5,0,5.1-0.2,7.6c-0.6,6.1-0.9,11-5.2,15.5c-5.3,5.7-11,6.7-17.6,1.8c-2.6-1.9-4.6-2.8-6.6-5.2
						c-1.4-1.6-3.1-2.6-4.5-4.1c-1.9-2-4.1-3.6-6.6-4.7c-2.6-1-4.4,0.4-5.6,0.9c-0.6,0.3-1.5,0.9-2.3,0.3c-0.3-0.2-0.4-0.6-0.3-0.9
						c0.4-0.9,1-1.7,1.7-2.4c3.9-3.6,10.3-3.7,15-1.2c1.8,1,3.7,2,5.8,2.2c1.5,0.2,2.9-0.2,4.1-1.2c0.9-0.8,1.5-1.9,1.7-3.1
						c0.3-1.7,0.2-3.4-0.3-5c-0.8-2.3-2.2-4.4-3-6.7c-3-7.8-4-16.7,0.9-24l0.7-1L32.6,16.4z"/>
					<path class="st2" d="M14.3,57.9c3.4,1.7,7.1,5.6,10.6,9.7c4.6,5.4,16,13.5,25.5,0.9c8.9-11.9,4.7-28.5,4.2-30.4l-0.1-0.2
						c-0.3-0.4-8.2-10.5-15.5-12c-1.9,1.7-2.3,4.7,0.3,9.8c4.3,8.6,7.8,21.2,0.1,28.9c-1.2,1.2-2.6,2.1-4.1,2.6
						c-5.5,1.8-8.4-1.5-11.8-4.7C21,59.9,17.8,58.4,14.3,57.9z"/>
					<path class="st3" d="M51.5,66.9c-3.3-0.4-6.5-1.7-9.2-3.7c1.9,2.8,4.8,4.7,8.1,5.3C50.8,68,51.2,67.5,51.5,66.9z M36.1,67.7
						c1.3,2.8,3.2,5.2,5.5,7.2c0.7-0.2,1.5-0.4,2.2-0.7C40.6,72.8,38,70.6,36.1,67.7z M24.4,67l0.6,0.7l0.3,0.3
						c-0.2-0.8-0.1-1.7,0.3-2.4C25.1,66,24.7,66.4,24.4,67z M28.2,70.8c0.4,0.3,0.8,0.6,1.2,1c-0.3-1.4-0.4-2.8,0-3.6
						C29,69,28.6,69.9,28.2,70.8z"/>
					<path class="st4" d="M20.7,63l0.9,0.9c0-0.6,0.1-1.3,0.2-1.9C21.4,62.3,21,62.6,20.7,63z"/>
					<path class="st3" d="M44.8,56.6c3.5-1,7.2-1,10.7,0c0.1-0.5,0.2-1,0.2-1.5C48.7,53.5,44.8,56.6,44.8,56.6z M55.9,45.7
						c-0.1-0.6-0.1-1.2-0.2-1.7c-7.4-0.2-11.2,3.4-11.2,3.4C48,45.6,52,45,55.9,45.7z M53,36c-0.3-0.3-0.6-0.7-1-1.1
						c-7.9,0-10,3.7-10,3.7C45.3,36.5,49.2,35.6,53,36z"/>
					<path class="st3" d="M55.8,44.5c-0.2-1.8-0.5-3.5-0.9-5.3l-0.6-0.3c-2.5-1.6-13.6-8.3-16.8-10.3c-0.1,0.5-0.1,1,0,1.5
						C41,34.8,48.6,42.9,55.8,44.5z"/>
				</g>
				<g id="Front_Leg">
					<path class="st0" d="M30.7,63.8c1-1.5,2.8-2.3,4.6-2.2c5.1,0.7,3.5,6.6,2.3,10.2c-0.8,2.5-1.3,5.2-1.4,7.8
						c0,3.5,1.3,4.5-0.3,5.9c-2.6,1.8-5.7,2.7-8.8,2.5c-2.8-0.6-2.9-6.4,1.6-7.9c1.2-2.7,1.2-5.5,1.1-8.3
						C29.6,69.7,29.4,65.7,30.7,63.8"/>
					<path class="st1" d="M29.7,87.9c0.4-0.1,0.8-0.1,1.2-0.2C30.5,86,31,84.2,32.2,83C30.4,84.1,29.8,85.8,29.7,87.9z M26.9,88
						c-0.4-1.9,0.1-3.8,1.3-5.2c-1.6,1-2.5,2.7-2.5,4.5C26.1,87.6,26.5,87.8,26.9,88z"/>
				</g>
				<g id="Front_Arm">
					<path class="st1" d="M29.5,56.4c0,0-0.6,3.3,1.7,4.5c1.9,1,4.3,1,5.5-0.4c1.6-2,4-6-2.5-9.9c-4-2.4-4.3,5.8-4.3,5.8L29.5,56.4z
						 M30.1,40.4c0.8,1.8,1.6,3.3,1.7,3.4s5.3-6.5,4.3-7.6S30.9,38.9,30.1,40.4z"/>
					<path class="st0" d="M35.2,30.8c5.7,5.5-6.1,12.7-6.1,12.7c1.3,0.8,2.9,3.6,4.1,5.6s1.7,1.7,3.2,3.4s-2.7,4.2-2.7,4.2
						S19.5,49,19.6,44.1c0-0.6,3.3-6.1,6.6-9.4C27.8,33,32.5,28.2,35.2,30.8z"/>
					<path class="st0" d="M29.7,54c0,0-1,5.2,2.1,6.7c0,0,2.5,0.2,3.8-0.8c0,0,3.2-4.9,0.8-7.4S29.7,54,29.7,54z"/>
					<path class="st1" d="M29.7,54.3c0,0,4.1,2.2,4.8,2.4c-0.7,0.1-1.4,0-2.1-0.3c0,0-1,2,0.2,3.2c0,0-1.9-0.3-1.2-3.5L29.7,54.3
						L29.7,54.3z"/>
				</g>
				<g id="Head-2">
					<path class="st0" d="M33.4,14.8c0,0,2.1-12.6,7.3-12.8c3.4-0.1,5.2,4.2,5.2,4.2C48,6.3,50,6.9,51.8,8c0,0,1-1.7,2.6-1.2
						S57.8,11,57.1,17c1.6,0.2,3,1.2,3.7,2.6c-0.4,0.6-1.1,1-1.8,1.1c-1.1,0.1-5.7-1.6-7-0.5c-1.3,0.9-1.9,2.5-1.7,4
						c0,0-5.2-0.5-7.4-3.5S38.7,12.2,33.4,14.8z"/>
					<path class="st5" d="M51.1,15.7c0,0,1.3-4.2,3.7-5.4c0.1,2,0.3,4.1,0.7,6.1C54,16.1,52.6,15.9,51.1,15.7z M39.9,7.1
						c0,0,3.2,1.5,5.3,8.1c-2.4-0.4-4.8-0.6-7.2-0.6C39.2,12.2,39.9,9.7,39.9,7.1z"/>
					<path class="st1" d="M41.2,10c0.8,0,1.4,0.9,1.4,1.9s-0.6,1.9-1.4,1.9s-1.4-0.9-1.4-1.9S40.5,10,41.2,10 M53.1,15.1
						c0.6,0,1.1-0.6,1.1-1.5s-0.5-1.5-1.1-1.5c-0.1,0-0.2,0-0.3,0.1c-0.3,0.4-0.6,0.8-0.8,1.3c0,0,0,0.1,0,0.1
						C52,14.5,52.5,15.1,53.1,15.1z"/>
					<path class="st6" d="M39.2,18.1c0,0-2.2-2.5-4.3-0.5c-1.7,1.7-0.4,4.5-0.4,4.5s0.1-2.4,1.3-2.3c0,0,0.9,6,9.8,12.1
						s11.3,5.5,13.2,5s4.1-1.5,3.4-3s-5.3-5.4-5.3-5.4s-2,1.5-5.9,0.2c-5.3-2.1-9.9-5.6-13.4-10.1c0,0,0.2-1.1,1.5-0.5"/>
					<path class="st7" d="M38,25c5-1.2,10.2,0.2,13.8,3.7l-1-0.5c0,0,4.5-0.2,5.2,0.4c2.7,1.8,4.4,4.8,4.7,8
						C60.9,38.1,57.2,39,49,35C43.9,32.4,38,25,38,25z"/>
					<path class="st8" d="M48,26l0.2,0.1L48,26z"/>
					<path class="st9" d="M56.5,28.5c0,0-1.1,4.5-2.8,4c-0.6-0.2-0.3-1.5-0.6-2.3s-0.9-2.6-0.9-2.6L56.5,28.5z M64.9,26.8
						c0,0-0.3,4.6-2.1,4.4c-0.6-0.1-0.6-1.4-0.9-2.2s-1.3-2.4-1.3-2.4L64.9,26.8z"/>
					<path class="st2" d="M66.8,22.7c-0.2-3.3-4.5-4.7-7.7-2.4c-2.6-0.6-5.4-2.3-8,0.3c-1,0.9-1.4,2.3-0.8,3.6c0,0-5.4-0.9-7.2-3.6
						s-4.3-6.4-6.9-6.6c-1.4-0.1-3.7-0.3-5.1,2.3s-2,7.4,8,14.9s14.4,9.6,16.6,9.5c2.8,0,2.9-1,6.1-1.5c1.6-0.2,2.9-3,1.1-5.4
						s-6-5.3-6-5.3s4.5,3.8,5.3,5.4s-1.4,2.5-3.4,3s-4.4,1-13.2-5s-9.8-12.1-9.8-12.1c-1.1-0.2-1.3,2.3-1.3,2.3s-1.3-2.8,0.4-4.5
						c2.1-2,4.3,0.5,4.3,0.5h-0.1c-1.3-0.6-1.5,0.5-1.5,0.5c3.5,4.5,8.1,8,13.3,10.1c3.8,1.3,5.9-0.2,5.9-0.2c1.8,0,3.7-0.2,5.5-0.4
						C63.7,27.7,67.1,27.1,66.8,22.7z"/>
					<path class="st3" d="M54,22.4c0.9-0.3,1.6,0.9,0.4,1.5c-0.2,0.5,0.1,0.9,0.8,1.1c-0.7,0.3-1.6,0-1.9-0.7
						C53,23.5,53.3,22.7,54,22.4L54,22.4 M64.1,22c-0.7-0.2-1.3,0.8-0.3,1.2c0.1,0.4-0.1,0.8-0.7,0.9C65,24.5,65.1,22.3,64.1,22"/>
				</g>
			</g>
			<path class="st6" d="M203,60c0.6,3.7,4,5.1,7.7,5.1s6.6-1.6,6.6-3.5c0.1-2.9-2.1-4.6-5.3-5.2c-2.2-0.4-8.8-1.7-8.8-1.7
				c-8.1-1.5-12.6-3.8-12.6-10.6c0-8.9,7.7-14.7,18.7-14.7c10.8,0,18,4.9,19.8,12.5l-12.6,2.5c-0.4-2.7-3-5.1-7.3-5.1
				c-3.7,0-5.6,1.6-5.9,3.4c-0.2,1.2,0.3,2.2,4.3,3c2.6,0.5,10.2,2.1,10.2,2.1c8.2,1.7,12,6.7,12,13.1c0,9.6-8.3,14.6-19.8,14.6
				c-10.2,0-19-3.7-20.4-12.6L203,60z M329.4,40.3c0.2,1.8,0.3,3.5,0.4,5.3c0,17.7-12.6,30.4-30.2,30.4s-31.4-13.3-31.4-30.5
				S281.8,15,299.3,15c13,0,24.4,6.1,28.5,17.5l-13.8,4c-3.4-6.6-9-8.4-14.6-8.4c-9.5,0-16.7,7.5-16.7,17.3s7.4,17.4,17.1,17.4
				c7.7,0,13.2-4,15.4-10.4h-17.9V40.3H329.4z"/>
			<g id="Text-Default">
				<path class="st6" d="M137,73.6h-14.3v-23H98.1v23H83.8V15.3h14.4V38h24.5V15.3H137V73.6z M188.7,51.8c0,13.8-11,23.1-23.9,23.1
					c-13.2,0-24.2-9.2-24.2-23.1s11-23,24.2-23C177.7,28.8,188.7,38,188.7,51.8z M175.2,51.8c0-6.8-5.1-11.3-10.5-11.3
					c-6,0.1-10.9,5-10.8,11c0,0.1,0,0.2,0,0.3c0,6.9,5.1,11.3,10.8,11.3C170.1,63.1,175.2,58.7,175.2,51.8z M268.6,71.7
					c-3.6,2.1-7.7,3.2-11.9,3.2c-10.9,0-17.4-5.9-17.4-17.4V41h-7.9V30h7.9V18.3l13.9-3V30h12.9v11h-12.8v15.2
					c0,4.5,2.2,6.4,5.8,6.4c2.2-0.1,4.4-0.7,6.4-1.7L268.6,71.7z M373.8,46v27.7h-13.4v-3.2c-3.6,3.1-8.3,4.7-13.1,4.5
					c-9.7,0-16.3-5.7-16.3-14.3s6.5-14.1,18.2-14.1h11.1v-0.9c0.2-3.2-2.3-6-5.5-6.1c-0.2,0-0.4,0-0.6,0c-4.2,0-6.6,1.7-7.3,5.5
					l-13.1-2.7c1.9-8.4,9.6-13.8,20-13.8C366.1,28.6,373.8,34.8,373.8,46L373.8,46z M360.4,56.4v-1h-9.6c-3.5,0-5.6,1.8-5.6,4.5
					s2.4,4.5,6.1,4.5C356.1,64.5,360.4,61.3,360.4,56.4L360.4,56.4z M413.2,71.7c-3.6,2.1-7.7,3.2-11.9,3.2
					c-10.9,0-17.4-5.9-17.4-17.4V41h-7.9V30h7.9V18.3l13.9-3V30h12.9v11h-12.9v15.2c0,4.5,2.2,6.4,5.8,6.4c2.2-0.1,4.4-0.7,6.4-1.7
					L413.2,71.7z"/>
				<path class="st6" d="M459.1,51.8c0,13.8-11,23.1-23.9,23.1c-13.2,0-24.2-9.2-24.2-23.1s11-23,24.2-23
					C448.1,28.8,459.1,38,459.1,51.8z M445.7,51.8c0-6.8-5.1-11.3-10.5-11.3c-6,0.1-10.9,5-10.8,11c0,0.1,0,0.2,0,0.3
					c0,6.9,5.1,11.3,10.8,11.3C440.6,63.1,445.7,58.7,445.7,51.8z M494.7,29.7l-0.6,13.9h-2.5c-9.7,0-15,5-15,16.4v13.7h-13.9V33
					l13.9-3v8.4c3.1-5.2,7.9-9,15-9C492.6,29.3,493.7,29.4,494.7,29.7L494.7,29.7z"/>
			</g>
		</g>
	</g>
</g>
</svg>
