<?xml version="1.0" encoding="utf-8"?>
<!-- Generator: Adobe Illustrator 22.0.1, SVG Export Plug-In . SVG Version: 6.00 Build 0)  -->
<svg version="1.1"
	 id="svg5838" inkscape:version="0.92.0 r15299" sodipodi:docname="hotels.com.svg" xmlns:cc="http://creativecommons.org/ns#" xmlns:dc="http://purl.org/dc/elements/1.1/" xmlns:inkscape="http://www.inkscape.org/namespaces/inkscape" xmlns:rdf="http://www.w3.org/1999/02/22-rdf-syntax-ns#" xmlns:sodipodi="http://sodipodi.sourceforge.net/DTD/sodipodi-0.dtd" xmlns:svg="http://www.w3.org/2000/svg"
	 xmlns="http://www.w3.org/2000/svg" xmlns:xlink="http://www.w3.org/1999/xlink" x="0px" y="0px" viewBox="0 0 560 120"
	 style="enable-background:new 0 0 560 120;" xml:space="preserve">
<style type="text/css">
	.st0{fill:#EE2841;}
</style>
<sodipodi:namedview  bordercolor="#666666" borderopacity="1.0" fit-margin-bottom="0" fit-margin-left="0" fit-margin-right="0" fit-margin-top="0" id="base" inkscape:current-layer="layer1" inkscape:cx="53.333237" inkscape:cy="3.5403569" inkscape:document-units="mm" inkscape:pageopacity="0.0" inkscape:pageshadow="2" inkscape:window-height="744" inkscape:window-maximized="1" inkscape:window-width="1280" inkscape:window-x="-4" inkscape:window-y="-4" inkscape:zoom="8.4093905" pagecolor="#ffffff" showgrid="false" units="px">
	</sodipodi:namedview>
<g id="layer1" transform="translate(-64.507962,-181.84103)" inkscape:groupmode="layer" inkscape:label="Layer 1">
	<g id="g5994" transform="translate(0.13229173,-0.13228748)">
		<path id="path3017" inkscape:connector-curvature="0" class="st0" d="M151.7,210.4c0-3,0.9-5.8,2.5-8.1c-4.8,1.4-8.2,5.7-8.2,11
			v9.2l5.7,0.3V210.4z"/>
		<path id="path3021" inkscape:connector-curvature="0" class="st0" d="M145.9,273.5c0,5.2,3.5,9.6,8.3,11c-1.6-2.3-2.5-5.1-2.5-8.1
			v-17.2h-5.7V273.5z"/>
		<path id="path3025" inkscape:connector-curvature="0" class="st0" d="M160.3,259.2h-5.7v17.2c0,5.2,3.5,9.6,8.2,11
			c-1.6-2.3-2.5-5.1-2.5-8.1V259.2z"/>
		<path id="path3029" inkscape:connector-curvature="0" class="st0" d="M160.3,207.6c0-3,0.9-5.8,2.5-8.1c-4.8,1.4-8.2,5.7-8.2,11
			v12.5l5.7,0.3V207.6z"/>
		<path id="path3033" inkscape:connector-curvature="0" class="st0" d="M95.6,203.9c-4.2,2.5-7,7-7,12.3v54.5c0,5.2,2.8,9.8,7,12.3
			c-0.8-2-1.3-4.2-1.3-6.5v-65.9C94.3,208.1,94.8,205.9,95.6,203.9"/>
		<path id="path3037" inkscape:connector-curvature="0" class="st0" d="M102.9,204.7c0-2.3,0.5-4.5,1.3-6.5c-4.2,2.5-7,7-7,12.3v66
			c0,6.2,3.9,11.4,9.4,13.4c-2.3-2.9-3.6-6.6-3.6-10.5L102.9,204.7z"/>
		<path id="path3041" inkscape:connector-curvature="0" class="st0" d="M174.6,196.1c-6.3,0-11.5,5.1-11.5,11.5v18.6l-28.7-1.4
			v-20.1c0-7.9-6.4-14.3-14.3-14.3c-7.9,0-14.3,6.4-14.3,14.3v74.6c0,7.9,6.4,14.3,14.3,14.3s14.3-6.4,14.3-14.3v-22.9h28.7v22.9
			c0,6.3,5.1,11.5,11.5,11.5c6.3,0,11.5-5.1,11.5-11.5v-71.7C186.1,201.2,180.9,196.1,174.6,196.1"/>
		<path id="path3045" inkscape:connector-curvature="0" class="st0" d="M273.6,265.9v-21.2h-31v21.2c0,2.3-1.8,4.2-4.1,4.2
			c-2.3,0-4.3-1.9-4.3-4.2v-48.4c0-2.3,1.9-4.2,4.2-4.2c2.3,0,4.2,1.9,4.2,4.2v19.7h31v-19.7c0-2.3,1.8-4.2,4.2-4.2
			c2.3,0,4.2,1.9,4.2,4.2v48.4c0,2.3-1.8,4.2-4.2,4.2C275.4,270.1,273.6,268.2,273.6,265.9"/>
		<path id="path3049" inkscape:connector-curvature="0" class="st0" d="M287.9,249.4c0-11.7,7.9-21.2,20.5-21.2
			c12.7,0,20.5,9.6,20.5,21.2c0,11.8-7.8,21.3-20.5,21.3C295.8,270.7,287.9,261.1,287.9,249.4 M321,249.4c0-7.6-4.5-14.5-12.6-14.5
			c-8.1,0-12.6,6.9-12.6,14.5c0,7.7,4.5,14.6,12.6,14.6C316.5,264,321,257.1,321,249.4"/>
		<path id="path3053" inkscape:connector-curvature="0" class="st0" d="M372.8,228.2c12.2,0,19.7,9.5,19.7,20.1
			c0,2.3-1.6,3.6-4.5,3.6h-27.6c0.6,6.9,5.6,12.6,13.8,12.6c3.4,0,7.1-1.1,10.1-3.3c0.4-0.3,1-0.4,1.7-0.4c1.7,0,3,1.3,3,3
			c0,1.1-0.5,1.9-1.3,2.5c-4,2.9-8.8,4.4-14.2,4.4c-12.1,0-21-8.6-21-21.3C352.5,237.6,361,228.2,372.8,228.2 M360.4,246.5h24.8
			c-0.2-5.4-3.8-12.1-12.3-12.1C364.7,234.4,360.8,240.9,360.4,246.5"/>
		<path id="path3057" inkscape:connector-curvature="0" class="st0" d="M397.3,266.3v-49.3c0-2.1,1.7-3.8,3.8-3.8
			c2,0,3.8,1.7,3.8,3.8v49.3c0,2.1-1.8,3.8-3.8,3.8C399,270.1,397.3,268.4,397.3,266.3"/>
		<path id="path3061" inkscape:connector-curvature="0" class="st0" d="M409.7,263.5c0-1.8,1.4-3.3,3.3-3.3c0.7,0,1.3,0.3,1.8,0.6
			c3.1,2.3,7.1,3.9,11.4,3.9c5.7,0,8.7-2.3,8.7-5.8c0-4-4.6-5.4-9.8-6.5c-6.9-1.6-14.9-3.4-14.9-12.2c0-6.5,5.5-12,15.4-12
			c5.6,0,10.1,1.7,13.5,4.2c0.8,0.6,1.3,1.4,1.3,2.5c0,1.7-1.4,3.1-3.1,3.1c-0.6,0-1.3-0.2-1.7-0.6c-2.6-1.9-6.1-3.1-10-3.1
			c-5.1,0-8.3,2-8.3,5.3c0,3.5,4.4,4.7,9.4,5.9c7.1,1.6,15.4,3.5,15.4,12.8c0,7-5.7,12.4-16.4,12.4c-5.6,0-10.7-1.4-14.8-4.5
			C410.3,265.6,409.7,264.6,409.7,263.5"/>
		<path id="path3065" inkscape:connector-curvature="0" class="st0" d="M452.2,260.1c2.9,0,5.3,2.4,5.3,5.2c0,2.9-2.4,5.3-5.3,5.3
			c-2.9,0-5.2-2.4-5.2-5.3C447,262.5,449.4,260.1,452.2,260.1"/>
		<path id="path3069" inkscape:connector-curvature="0" class="st0" d="M496.7,249.4c0-11.7,7.9-21.2,20.5-21.2
			c12.7,0,20.5,9.6,20.5,21.2c0,11.8-7.8,21.3-20.5,21.3C504.6,270.7,496.7,261.1,496.7,249.4 M529.8,249.4
			c0-7.6-4.5-14.5-12.6-14.5c-8.1,0-12.6,6.9-12.6,14.5c0,7.7,4.5,14.6,12.6,14.6C525.3,264,529.8,257.1,529.8,249.4"/>
		<path id="path3073" inkscape:connector-curvature="0" class="st0" d="M600.2,240.4v25.9c0,2.1-1.8,3.8-3.9,3.8
			c-2,0-3.7-1.7-3.7-3.8v-23.7c0-4.7-2.1-7-7.1-7c-4.1,0-8.1,4.6-10.1,7.6v23.1c0,2.1-1.7,3.8-3.8,3.8c-2,0-3.8-1.7-3.8-3.8v-23.7
			c0-4.7-2-7-7.1-7c-3.9,0-7.9,4.9-9.9,7.8v22.8c0,2.1-1.8,3.8-3.8,3.8c-2.1,0-3.8-1.7-3.8-3.8v-33.8c0-2.1,1.7-3.8,3.7-3.8
			c2.1,0,3.9,1.7,3.9,3.8v2.3c1.7-2.5,7.1-6.7,13.1-6.7c6.1,0,9.7,3.2,11,7.6c2.3-3.8,7.8-7.6,13.8-7.6
			C596.3,228.2,600.2,232.3,600.2,240.4"/>
		<path id="path3077" inkscape:connector-curvature="0" class="st0" d="M480.1,228.2c5.8,0,9.8,1.8,12.9,4.7
			c0.7,0.6,1.2,1.6,1.2,2.5c0,1.9-1.5,3.4-3.4,3.4c-0.9,0-1.7-0.3-2.3-0.8c-2.3-2.2-4.9-3.1-8.1-3.1c-8,0-13.1,6.1-13.1,14.5
			c0,8.4,5.1,14.3,13.1,14.6c5.4,0.2,10.8-3.7,15.2-10.6c0.5-0.9,1.3-2.4,2-3.3c1.2-1.6,2.1-0.8,2.8-0.1c1.3,1.4,1.3,4.7,0.5,6.3
			c-2.4,4.6-4.5,6.7-6.8,9c-3.3,3.2-8.1,5.3-13.9,5.3c-12.3,0-20.6-9.1-20.6-21.3C459.5,237.2,467.9,228.2,480.1,228.2"/>
		<path id="path3081" inkscape:connector-curvature="0" class="st0" d="M357.9,263.5c0,1.4-4.1,4.6-7,6c-1.7,0.8-3.4,1.2-5.8,1.2
			c-6.4,0-9.7-3.6-9.7-10v-24.9h-3.9c-1.8,0-3.4-1.5-3.4-3.4c0-1.8,1.6-3.3,3.4-3.3h3.9v-7.7c0-2.1,1.7-3.8,3.8-3.8
			c2,0,3.8,1.7,3.8,3.8v7.7h5.3c1.8,0,3.4,1.5,3.4,3.3c0,1.8-1.5,3.4-3.4,3.4H343V259c0,2.9,1.3,5,3.9,5c4.6,0,8.3-7.2,10.3-7.2
			C359.1,256.8,357.9,261.6,357.9,263.5"/>
	</g>
</g>
</svg>
