<?xml version="1.0" encoding="utf-8"?>
<!-- Generator: Adobe Illustrator 22.0.1, SVG Export Plug-In . SVG Version: 6.00 Build 0)  -->
<svg version="1.1" id="图层_1" xmlns="http://www.w3.org/2000/svg" xmlns:xlink="http://www.w3.org/1999/xlink" x="0px" y="0px"
	 viewBox="0 0 600 180" style="enable-background:new 0 0 600 180;" xml:space="preserve">
<style type="text/css">
	.st0{fill:#F90608;}
</style>
<g id="_x23_f90608ff">
	<path class="st0" d="M36.1,5c4.3,0,8.6,0,12.9,0c-2.1,14.7-4.8,29.3-7.4,44c14.2,0.1,28.3,0,42.5,0.2c2.4-14.7,4.8-29.5,7.3-44.2
		c4.5,0,9.1,0,13.6,0c-0.2,4-1.1,8-1.6,11.9C98.3,49.6,93,82.1,88,114.8c-4.8,0.5-9.7,0.5-14.5,0.1c2.9-17.7,5.2-35.6,8-53.3
		c-13.8,0-27.6,0.2-41.4,0.5c-2.9,17.6-6,35.3-8.9,52.9c-3.9,0-7.8-0.3-11.6,0.2c-0.8-0.3-1.5-0.5-2.3-0.8
		C23.6,77.8,29.8,41.4,36.1,5z"/>
	<path class="st0" d="M202.5,5c4.6,0,9.2,0,13.8,0c-2.3,14.6-4.8,29.3-7.1,43.9c10.1,0.2,20.1,0.1,30.2,0.2
		c-0.7,3.8-1.4,7.5-2.1,11.3c-9.9,0.1-19.7,0.3-29.6,0.4c-3.2,18-6.1,36-9.5,54c-3.6-0.2-7.1-0.2-10.7,0.1c-0.5-0.2-1.5-0.6-2-0.8
		c3-17.8,5.7-35.7,8.7-53.4c-3.2,0-6.4,0-9.5,0c0.7-3.8,1.2-7.7,1.8-11.6c3.2,0,6.4,0,9.6,0C198.4,34.4,200.4,19.7,202.5,5z"/>
	<path class="st0" d="M142.1,45.1c8.1-1.1,17,0.9,22.2,5.9c6.2,5.8,8,13.5,8,20.8c-0.4,9.7-3,19.5-9.4,28
		c-4.6,6.2-11.8,11.6-20.7,14c-8.3,2.3-18.5,1.4-25-3.4c-7.9-5.8-10.1-14.6-9.8-22.7c0.4-9.9,3.4-19.9,10-28.4
		C122.7,52.3,131.4,46.4,142.1,45.1 M139.1,53.4c-10,3-15.1,11-18.1,18.3c-3.2,8.6-4.4,18.1-0.3,26.6c2.1,4.5,7.5,8.8,14.2,8.5
		c7.6-0.2,13.6-4.6,17.4-9.1c6.4-7.8,9.2-17.1,8.9-26.2c-0.4-5.5-1.6-11.6-6.7-15.7C150.8,52.7,144.3,52.1,139.1,53.4z"/>
</g>
<g id="_x23_000000ff">
	<path d="M254.6,5c17,0.1,34,0,51,0c-1.2,4.3-2.5,8.6-4,12.8c-12.1-0.1-24.3,0-36.4,0c-1.7,10-3.4,20.1-5.1,30
		c12.2,0.2,24.5,0.4,36.7,0.4c-0.8,4.3-1.5,8.6-2.4,12.8c-12.2,0.1-24.5,0.1-36.7,0.2c-3.1,18.3-6.1,36.6-9.3,54.9
		c-4.4-0.2-8.7-0.3-13.1-0.4C241.6,78.8,248.1,41.9,254.6,5z"/>
	<path d="M476,5.1c5.6-0.1,11.2,0,16.7-0.1c9.8,16.3,19.9,32.5,29.8,48.7c2.2,3.5,4.1,7.1,6.7,10.5c7.1-8,14.3-16,21.5-24
		c5.8,0,11.6-0.1,17.4-0.2c-10.1,11.5-19.9,23.2-29.9,34.7c-1.3,1-0.3,2.2,0.3,3.2c17.5,28.9,34.8,57.8,52.3,86.7
		c-5.6,0.2-11.2,0.2-16.8,0.4c-15.9-26.5-31.6-52.9-47.6-79.3c-8.7,10.6-18.2,20.8-27.4,31.2c-5.4-0.1-10.8-0.1-16.1-0.2
		c2.5-3.9,6-7.3,9-11c8.7-10.6,17.5-21.2,26.2-31.9C504,50.9,489.8,28,476,5.1z"/>
	<path d="M331.4,47.8c5.8-0.6,12-0.3,17,2.1c8.1,3.7,11.9,11.1,13,17.9c1.5,10.9-1,22.2-7.2,32.1c-4.9,7.6-13.3,14.5-24.3,16.8
		c-7.9,1.9-17.1,0.5-23.1-4c-5.7-4.2-8.5-10.2-9.4-16c-1.4-11.5,1.3-23.3,8.5-33.5C311.2,55.9,320.1,49.3,331.4,47.8 M331.1,55.6
		c-10.3,1.8-16.1,9.6-19.4,16.7c-3.9,9-5.6,18.9-1.6,28.1c1.9,4.4,6.4,8.9,12.9,9.1c6.8,0.6,12.9-2.7,16.8-6.6
		c7.9-7.8,11.1-17.8,11.3-27.4c-0.2-5.6-1.2-11.6-5.9-16.1C342,56.1,336.2,54.7,331.1,55.6z"/>
	<path d="M408.7,48.6c2.8-1.1,6.1-0.9,9.2-0.9c-0.5,3.3-1.2,6.5-1.7,9.7c-4.2-0.2-8.7,0-12.1,2.1c-7.6,4.6-10.9,12-12.6,19
		c-2.4,12.5-4.4,25-6.8,37.6c-3.5,0-7,0-10.4,0c2.8-15.1,5.4-30.2,8.2-45.3c1.3-7.2,2.6-14.4,3.4-21.7c3.1,0,6.1,0,9.2,0
		c-0.6,4.4-1.2,8.8-1.9,13.2C396.6,56.9,401.1,51.1,408.7,48.6z"/>
	<path d="M439.1,54.2c5.8-4.3,13.7-7.2,22-6.6c7.4,0.1,13.7,4.2,16.3,9.2c4.7,8.5,3.7,18,1.5,26.8c-15.5,0-31.1,0-46.6,0
		c-1.1,6.5-1.4,13.8,3.2,19.6c2.9,3.9,8.7,6,14.5,6.1c6.8,0.2,13.4-1.1,19.5-3.3c0.2,2.4,0.4,4.9,0.8,7.3c-8.8,3.6-19.2,5.2-29,3.6
		c-7.6-1.3-13.8-5.9-16.6-11.3c-4.3-8.1-3.7-17.3-1.7-25.7C425.3,70.5,430.1,61,439.1,54.2 M447.6,57.5
		c-7.8,4.4-11.4,11.6-13.8,18.5c12.2,0.1,24.4,0,36.6,0c0.6-5.9,1.2-12.6-3.9-17.6C461.9,54.2,453,54.3,447.6,57.5z"/>
	<path d="M14,140.3c0.7,0,2.2-0.1,2.9-0.1c-0.6,3.7-1.3,7.5-1.9,11.1c4.3,0,8.5,0,12.7,0c0.7-3.7,1.4-7.4,2-11.1c1,0,2,0,2.9,0
		c-1.7,8.5-2.8,17.1-4.8,25.6c-0.7,0.2-2.1,0.5-2.8,0.7c0.5-4.3,1.5-8.6,2.3-12.9c-4.3,0-8.5,0-12.8,0c-0.8,4.2-1.6,8.4-2.3,12.6
		c-0.8,0-2.3,0-3,0C11,157.5,12.6,148.8,14,140.3z"/>
	<path d="M170.2,140c3-0.8,6.8-0.6,9.1,1.3c3.1,2.4,3.6,6.1,3.4,9.4c-0.4,4.2-1.7,8.4-4.9,11.9c-2.4,2.5-6.5,4.4-10.7,3.9
		c-4-0.3-6.5-3.3-7.3-6c-1.1-4.6-0.2-9.4,2.2-13.7C163.5,143.8,166.2,141.1,170.2,140 M170.2,142.3c-4.8,2-6.6,6.3-7.5,10.1
		c-0.6,3.3-0.8,7.1,1.8,10c1.8,2,5.7,2.2,8.1,0.8c4.1-2.2,5.7-6.1,6.6-9.7c0.7-3.3,0.8-7.1-1.9-10.1
		C175.8,141.9,172.5,141.4,170.2,142.3z"/>
	<path d="M321.2,140.1c6.3-0.1,12.5-0.1,18.8,0c-0.2,0.8-0.4,1.5-0.6,2.4c-2.6,0-5.2,0-7.8,0c-1.5,7.9-2.8,15.8-4.3,23.6
		c-0.7,0-2.2,0-2.9,0c1.5-7.9,2.9-15.8,4.3-23.7c-2.6,0-5.1,0-7.6,0.1C321.1,141.8,321.2,140.9,321.2,140.1z"/>
	<path d="M117.6,147.1c0.5-1.8,1.4-3.6,3.9-4.3c-0.2,1.5-0.5,3.1-0.8,4.6c1.6,0,3.3,0,4.9,0c-0.1,0.5-0.2,1.6-0.2,2.2
		c-1.7,0-3.3,0-5,0c-0.7,4.4-2,8.7-2,13.2c0,1.7,3.1,1.3,4.5,1.7c-0.7,2.9-7,2.7-7.3-0.2c-0.5-4.9,1.3-9.7,2-14.5
		c-0.9-0.1-2.8-0.2-3.7-0.3C114.7,148.2,116,147.5,117.6,147.1z"/>
	<path d="M43.5,147.2c2.2-0.5,4.9-0.3,6.6,1c2.7,1.9,3,4.9,2.7,7.6c-0.4,3.6-2.2,7.4-6.2,9.5c-2.7,1.5-7,1.6-9.3-0.5
		c-3-2.7-2.8-6.6-1.8-9.9C36.5,151.8,39,148.4,43.5,147.2 M43.5,149.5c-5,2-6.1,7-5.5,10.9c0.2,2.4,3.4,4.9,6.6,3.4
		c4.7-2.4,5.8-7.4,4.9-11.4C49,150.4,46.3,148.6,43.5,149.5z"/>
	<path d="M59.6,147.5c0.9,0,1.8,0,2.7,0.1c-0.2,0.7-0.6,2.1-0.8,2.7c2.3-1.7,5.4-4,9-2.9c3.8,1.4,3.4,5.2,3,8
		c-0.7,3.5-1,7.1-2.2,10.5c-0.7,0.2-2,0.5-2.7,0.7c0.6-4.3,1.8-8.5,2.1-12.8c0.1-1.5-0.1-3.5-2.2-4.2c-3.5-0.8-6.3,1.9-6.9,4.3
		c-1.1,4.1-1.5,8.3-2.4,12.3c-0.7,0-2.2,0-2.9,0C57.5,159.9,58.6,153.7,59.6,147.5z"/>
	<path d="M83.9,148.4c2.4-1.7,6.6-2,8.9-0.1c2.5,2.4,1.7,5.8,1.6,8.7c-4.5,0-9,0-13.5,0.1c0.3,2.1-0.3,4.9,2.2,6.4
		c2.5,1.4,5.8,0.4,8.5,0.2c0,0.5,0,1.5,0,2.1c-2.9,0.5-6.1,1.2-9.1,0.5c-3.1-1.1-4.4-3.9-4.4-6.3C78.2,155.7,79.7,151.1,83.9,148.4
		 M81.3,154.9c3.6,0.1,7.2,0.1,10.8,0c-0.4-2,0.1-5.2-3.3-5.7C84.5,148.8,82.8,152.6,81.3,154.9z"/>
	<path d="M99.5,153c0-4.1,5.8-7.1,10.8-5.3c0.1,0.6,0.2,1.8,0.3,2.4c-1.8-0.2-3.6-0.9-5.4-0.7c-2.2,0.6-3.4,2.7-2.4,4.3
		c1.9,1.7,4.9,2.6,6.2,4.7c1.3,3-0.9,6.9-5.1,7.9c-2.5,0.6-5-0.2-7.3-0.7c0.3-0.5,0.8-1.6,1.1-2.2c2,0.5,4.1,1.3,6.2,0.7
		c2.1-0.7,2.9-2.7,2.5-4.3C104.2,157.4,99.1,156.2,99.5,153z"/>
	<path d="M190.6,150.5c2-1.5,4.2-3.6,7.4-3.4c2.6-0.2,4.5,1.4,5.4,3.1c1.8,3.7,0.7,7.8-1.2,11.3c-1.6,2.7-5.1,5.4-9.3,4.9
		c-2-0.1-3-1.7-4.4-2.5c-0.3,3.3-1,6.6-1.6,9.9c-0.7,0-2.1,0-2.8-0.1c1.5-8.7,3.2-17.5,4.6-26.3c0.6,0,1.8,0,2.4,0
		C190.9,148.2,190.7,149.8,190.6,150.5 M193.5,150.3c-3.5,2.4-3.8,6.2-4.1,9.5c-0.2,2.1,1.5,4.6,4.5,4.4c3.2,0,5.1-2.4,6.1-4.4
		c1.2-2.9,2.1-6.4-0.1-9.1C198.6,149,195.3,149,193.5,150.3z"/>
	<path d="M213.2,148.6c2.5-1.8,7.2-2.2,9.4,0.2c2.3,2.4,1.6,5.6,1.3,8.4c-4.5,0-9,0-13.5,0.1c0.3,2.2-0.1,4.9,2.4,6.4
		c2.6,1.5,6.1,0.3,9,0.1c-0.4,3-4.8,3-7.8,2.9c-3.8-0.2-6-3.3-6.2-5.9C207.4,156.2,209,151.5,213.2,148.6 M210.9,154.9
		c3.6,0.1,7.2,0.1,10.8,0c-0.3-2.1,0-5.3-3.6-5.8C213.8,149,212.3,152.5,210.9,154.9z"/>
	<path d="M232.6,150.2c2.3-1.6,4.8-3.7,8.3-3c3.7,0.8,4.3,4.1,3.9,6.5c-0.6,4-1,8.1-2.3,12.1c-0.7,0.2-2.1,0.5-2.7,0.7
		c0.6-4.8,2.3-9.6,2-14.4c0-1.5-1.8-3-3.9-2.7c-2.6,0.3-4.4,2.1-5.1,4c-1.4,4.1-1.2,8.4-2.6,12.4c-0.7,0.2-2.1,0.5-2.7,0.8
		c1.1-6.2,1.9-12.5,3.4-18.6c0.6-0.2,1.9-0.6,2.5-0.8C233.2,147.9,232.8,149.4,232.6,150.2z"/>
	<path d="M254.6,150.3c1.9-1.6,4.3-3.6,7.5-3.2c3.6,0.2,4.9,3.5,4.6,5.9c-0.5,4.3-1.1,8.7-2.4,12.8c-0.7,0.2-2.1,0.5-2.7,0.7
		c0.6-4.3,1.8-8.5,2.1-12.8c0.3-1.7-0.8-3.1-1.8-4.5c-3,0.2-6.1,1.3-7,3.6c-1.6,4.3-1.8,8.9-2.8,13.3c-0.7,0-2.2-0.1-2.9-0.1
		c1.4-6,1.9-12.2,3.5-18.2c0.5-0.2,1.6-0.7,2.1-0.9C254.8,148.1,254.7,149.2,254.6,150.3z"/>
	<path d="M277.5,148c2.6-1.4,7-1.5,8.8,0.8c2,2.4,1.2,5.5,1.2,8.1c-4.5,0-9,0-13.5,0.1c0.3,2.1-0.3,4.9,2.2,6.4
		c2.5,1.4,5.7,0.4,8.5,0.2c0,0.5,0,1.5,0,2c-3,0.5-6.4,1.4-9.4,0.4c-3.2-1.4-4.3-4.4-4.1-7C271.4,154.9,273.1,150.5,277.5,148
		 M274.3,154.9c3.6,0,7.2,0,10.8,0c-0.4-2,0.1-5.1-3.2-5.7C277.4,148.7,275.7,152.5,274.3,154.9z"/>
	<path d="M297.4,147.3c2.1-0.5,4.3,0.1,6.4,0.3c-0.2,0.8-0.5,1.6-0.8,2.4c-2.4-0.5-5.8-1.5-7.1,0.8c-2.1,2.4,1.6,4.1,3.8,5.4
		c5.2,2.6,2.1,9.5-3.6,10.2c-2.2,0.3-4.4-0.4-6.6-0.8c0.3-0.5,0.9-1.7,1.2-2.2c2.1,0.5,4.6,1.5,6.7,0.5c2-1.1,3.1-3.8,0.9-5
		c-1.8-1.4-4.6-2.4-5.5-4.3C291.8,151.7,293.8,148.4,297.4,147.3z"/>
	<path d="M354.5,150.1c1.6-4.2,11.6-4.3,12.2,0.4c0.5,5.2-1.5,10.3-2,15.6c-0.6,0-1.9-0.1-2.5-0.1c0.1-0.5,0.3-1.7,0.4-2.3
		c-2.3,1.7-5.5,3.6-8.9,2.3c-3.5-1.9-2.6-6-0.5-8.4c2.4-2.7,7-3.1,10.9-3.6c-0.4-1.4-0.1-3-1.2-4.2
		C360.5,148.4,357.2,150,354.5,150.1 M357.6,157.2c-2.8,1.1-3.9,4-2.7,6.2c1.5,1.3,4.2,0.8,5.7-0.2c2.6-1.8,2.4-4.7,3.1-7.1
		C361.6,156.4,359.5,156.6,357.6,157.2z"/>
	<path d="M374.5,147.5c0.6,0,1.9,0,2.5,0c-0.1,0.7-0.4,2.1-0.6,2.8c2.2-1.8,5.1-3.9,8.7-3c3.5,1.2,3.8,4.6,3.4,7.1
		c-0.7,3.8-1,7.7-2.2,11.3c-0.7,0.2-2,0.5-2.7,0.7c0.5-4,1.5-8.1,2-12.1c0.2-1.8,0.2-4.3-2.5-5c-3.4-0.4-6,2.1-6.6,4.3
		c-1.1,4.1-1.6,8.2-2.3,12.3c-1,0-2,0-2.9,0C372.2,159.9,373.5,153.7,374.5,147.5z"/>
	<path d="M394.8,154.5c-1.6-4.1,4-8.8,9.5-7.1c2,0,0.9,1.7,1.1,2.7c-1.8-0.3-3.5-0.9-5.3-0.8c-2.1,0.7-3.5,2.7-2.3,4.3
		c2,1.8,5.7,2.7,6.5,5.3c0.5,3-1.4,6.5-5.4,7.3c-2.5,0.6-5-0.2-7.3-0.8c0.3-0.5,0.9-1.6,1.2-2.1c1.9,0.4,4,1.2,6,0.7
		c2.3-0.7,3-2.7,2.6-4.4C399.5,157.7,395.9,156.8,394.8,154.5z"/>
	<path d="M411.2,150.2c1.3-4.3,11.7-4.4,12.1,0.4c0.5,5.2-1.6,10.3-1.9,15.5c-0.9,0-1.8-0.1-2.8-0.1c0.1-0.5,0.3-1.6,0.4-2.1
		c-1.9,1-3.6,2.6-6.1,2.5c-1.9,0.2-3.7-0.7-4.4-2.1c-1.3-3,0-6.6,3.5-8.4c2.6-1.4,5.8-1.5,8.8-2c-0.4-1.6,0.1-3.9-2.2-4.6
		C416.1,148.8,413.6,149.9,411.2,150.2 M414.1,157.4c-2.5,1.1-3.4,3.4-2.8,5.4c0.2,1.8,3.4,1.7,5,1c3.4-1.6,3.3-4.9,3.8-7.6
		C418,156.6,415.9,156.6,414.1,157.4z"/>
	<path d="M433.1,150.5c2-1.4,3.9-3.5,7-3.4c4.1-0.3,6.3,3.1,6.5,5.7c0.4,4.8-1.3,10.6-7.2,13.2c-3.2,1.3-6.6-0.1-8.5-2.2
		c-0.3,3.3-1,6.6-1.6,10c-1,0-2-0.1-2.9-0.1c1.7-8.7,3.4-17.5,4.6-26.2c0.7,0,2,0,2.7,0C433.4,148.4,433.2,149.5,433.1,150.5
		 M437.5,149.6c-4.6,1.7-5.2,6-5.6,9.4c-0.3,1.9,0.5,4.3,3.2,5c2.9,0.7,5.5-1.1,6.7-2.9c1.8-2.9,2.5-6.2,1.4-9.3
		C442.5,150.1,439.9,148.8,437.5,149.6z"/>
	<path d="M452.6,150.2c1.1-4.3,11.4-4.4,12,0.2c0.5,5.2-1.4,10.4-1.9,15.6c-0.9,0-1.8,0-2.6,0c0.1-0.5,0.4-1.6,0.5-2.2
		c-2.4,1.5-5.6,3.5-8.9,2.1c-4-2.4-2.4-7.3,0.9-9.6c2.6-1.7,6.3-2,9.5-2.5c-0.3-1.4-0.2-3-1.1-4.2
		C458.4,148.5,455.3,149.9,452.6,150.2 M453.2,159.1c-1.5,1.8-1.2,5.8,2.7,5.2c4.8-0.7,5.1-5.2,5.7-8.1
		C458.6,156.8,454.7,156.8,453.2,159.1z"/>
	<path d="M472.4,147.5c0.6,0,1.9,0,2.5,0c-0.2,0.8-0.5,2.6-0.7,3.5c1.6-2.1,4-3.6,7.1-4.2c-0.1,0.6-0.2,1.9-0.3,2.6
		c-2.1,0.7-4.6,1.2-5.6,3c-2.6,4.3-1.9,9-3.5,13.5c-0.7,0.2-2,0.5-2.7,0.7C470.1,160.1,471.4,153.7,472.4,147.5z"/>
	<path d="M487.5,148.7c2.4-1.9,7-2.4,9.4-0.4c2.6,2.4,1.7,5.8,1.7,8.7c-4.5,0-9,0-13.5,0.1c0.3,2.1-0.3,4.8,2.2,6.3
		c2.6,1.6,6.1,0.3,9.1,0.2c-0.2,3-4.4,2.8-7.3,2.8c-4,0-6.4-3.1-6.6-5.9C482,156.4,483.4,151.8,487.5,148.7 M485.4,154.9
		c3.6,0.1,7.2,0.1,10.9,0c-0.5-2,0-5.2-3.4-5.7C488.5,148.8,486.9,152.6,485.4,154.9z"/>
	<path d="M507.4,150.3c2-1.6,4.3-3.6,7.5-3.2c3.6,0.3,4.8,3.5,4.6,5.8c-0.5,4.3-1.2,8.7-2.4,12.8c-0.7,0.2-2.1,0.5-2.8,0.7
		c0.4-5,2.7-10,1.9-15.1c-1.2-3.6-7.3-1.7-8.4,1c-2,4.4-1.9,9.1-2.9,13.7c-0.7,0-2.2,0.1-3,0.1c1.2-6,1.8-12.2,3.4-18.2
		c0.5-0.2,1.6-0.8,2.2-1C507.5,148.1,507.5,149.2,507.4,150.3z"/>
	<path d="M531.3,147.9c2.6-1.2,5.7-0.6,8.5-0.3c-0.2,0.8-0.4,1.7-0.7,2.5c-2.3-0.3-4.9-1.1-7.1-0.1c-3.7,1.7-5,5.2-5.3,8.3
		c-0.1,2.1,0.7,4.8,3.6,5.7c2.1,0.4,4.2-0.1,6.3-0.2c0,0.5-0.1,1.6-0.1,2.1c-2.9,0.4-6,1.2-8.7,0c-3.4-1.5-4.3-4.9-4-7.6
		C524.3,154.2,526.5,149.9,531.3,147.9z"/>
	<path d="M128.1,147.1c0.7,0.2,2.2,0.5,2.9,0.7c1.4,4.9,1.9,10,2.9,14.9c2.7-4.9,4.6-10.3,8-14.9c0.7-0.2,2.2-0.5,2.9-0.7
		c-3,5.9-6.4,11.6-9.7,17.3c-2.3,4.1-5.3,8.3-10.7,10.5c-0.8-4.3,7.1-5.6,7.1-9.9C130.7,159,128.8,153.2,128.1,147.1z"/>
	<path d="M342.5,147.9c0.6-0.2,1.7-0.6,2.2-0.8c-0.2,1.3-0.3,2.6-0.6,3.9c1.6-2,3.9-3.6,7-4.2c-0.1,0.7-0.3,2-0.3,2.7
		c-2.4,0.6-5.1,1.4-5.9,3.4c-2,4.3-2,8.8-2.9,13.2c-0.7,0-2.2,0-3,0.1C340.2,160,340.9,153.9,342.5,147.9z"/>
	<path d="M542.6,147.1c0.7,0.2,2.2,0.6,3,0.8c1.6,4.9,1.9,9.9,3,14.8c2.3-4.7,4.6-9.4,7.2-14.1c0.4-1.3,2.4-1.2,3.8-1.6
		c-2.6,5.1-5.7,10.1-8.4,15.1c-2.8,4.8-5.6,10.1-12,12.8c-0.9-4.3,7.1-5.6,7.1-9.9C545.3,159,543.7,153.2,542.6,147.1z"/>
	<path d="M145.9,154.7c3.2,0,6.5-0.1,9.7-0.1c-0.1,0.7-0.2,1.4-0.4,2c-3.2,0-6.4,0-9.6,0C145.7,156.2,145.8,155.2,145.9,154.7z"/>
	<path d="M306.9,154.7c3.3-0.1,6.5-0.1,9.8-0.1c-0.2,0.7-0.3,1.3-0.5,2c-3.2,0-6.4,0-9.6,0C306.7,156,306.8,155.3,306.9,154.7z"/>
</g>
</svg>
