<?xml version="1.0" encoding="utf-8"?>
<!-- Generator: Adobe Illustrator 20.1.0, SVG Export Plug-In . SVG Version: 6.00 Build 0)  -->
<svg version="1.1" id="Layer_1" xmlns="http://www.w3.org/2000/svg" xmlns:xlink="http://www.w3.org/1999/xlink" x="0px" y="0px"
	 viewBox="0 0 75 75" style="enable-background:new 0 0 75 75;" xml:space="preserve">
<style type="text/css">
	.st0{fill:url(#SVGID_1_);}
	.st1{fill:#FFFFFF;}
</style>
<radialGradient id="SVGID_1_" cx="2180.6899" cy="-696.1552" r="43.8903" gradientTransform="matrix(-1.0887 -0.8098 1.0342 -0.821 3138.3645 1227.3306)" gradientUnits="userSpaceOnUse">
	<stop  offset="0" style="stop-color:#E30613"/>
	<stop  offset="0.1625" style="stop-color:#E00713"/>
	<stop  offset="0.3663" style="stop-color:#D50911"/>
	<stop  offset="0.5923" style="stop-color:#C30D0E"/>
	<stop  offset="0.8326" style="stop-color:#AA0F09"/>
	<stop  offset="0.9066" style="stop-color:#A21007"/>
</radialGradient>
<rect class="st0" width="75" height="75"/>
<g>
	<g>
		<path class="st1" d="M64.3,42.1h-2.6h-4.8h-7.6l-7.5,7.4h14.1c-2.2,5.6-7.7,9.5-14,9.5c-8.4,0-15.1-6.8-15.1-15.1
			c0-8.4,6.8-15.1,15.1-15.1c5.6,0,10.5,3.1,13.1,7.6l5.4-5.4c-4.1-5.9-10.9-9.7-18.5-9.7c-12.5,0-22.6,10.1-22.6,22.6
			c0,12.5,10.1,22.6,22.6,22.6c12.5,0,22.6-10.1,22.6-22.6C64.4,43.3,64.4,42.7,64.3,42.1z"/>
	</g>
	<path class="st1" d="M7.9,22.1v35.8c1.8,3.5,4.3,6.5,7.5,8.7V22.1H7.9z"/>
</g>
</svg>
