<?xml version="1.0" encoding="utf-8"?>
<!-- Generator: Adobe Illustrator 22.0.1, SVG Export Plug-In . SVG Version: 6.00 Build 0)  -->
<svg version="1.1" id="图层_1" xmlns="http://www.w3.org/2000/svg" xmlns:xlink="http://www.w3.org/1999/xlink" x="0px" y="0px"
	 viewBox="0 0 450 120" style="enable-background:new 0 0 450 120;" xml:space="preserve">
<style type="text/css">
	.st0{fill:#2A7AC6;}
	.st1{fill:#2D2D2D;}
</style>
<g id="_x23_ffffffff">
</g>
<g id="_x23_2a7ac6ff">
	<path class="st0" d="M253.5,22.1c5.1-3.3,10.8-5.4,16.7-6.7c-5.4,3.5-10.9,6.8-15.4,11.3c-2.3,2.4-4.6,5.1-5.2,8.4
		c-0.6,3.2,0.7,6.3,2.2,8.9c2.9,4.9,7,9,10.7,13.3c3,3.5,5.3,7.7,5.7,12.4c0.4,4.1-0.8,8.2-3.2,11.6c-3,4.3-7.3,7.4-11.8,9.9
		c-6.1,3.4-12.7,5.9-19.3,8c-4.6,1.5-9.3,2.8-13.8,4.4c-1,0.4-1.9,0.7-2.9,1c1-0.9,2.1-1.8,3.2-2.5c9.7-6.4,20.5-11,30.1-17.6
		c3.3-2.3,6.5-4.8,8.8-8.1c1.3-1.9,2.1-4.3,1.5-6.6c-0.7-3-2.7-5.6-4.7-7.9c-4.1-4.8-8.2-9.8-10.7-15.6c-1.8-4.2-2.5-9.1-1.1-13.5
		C245.9,28.2,249.5,24.6,253.5,22.1z"/>
	<path class="st0" d="M23.9,28.9c9.9-4.2,20.6-6,31.3-6.7c-9.3,1.4-18.7,3.5-27,7.9c-6.7,3.5-12.8,8.6-16.4,15.3
		C10.4,48,9.3,50.8,9,53.8c-0.1,4.5,1.4,8.9,4,12.5c2.9,4.2,6.9,7.5,11.2,10.2c8.9,5.4,19,8.7,29.2,10.8c-5.5,0.1-11-0.4-16.4-1.4
		c-7.1-1.3-14-3.8-19.9-8c-6.3-4.5-11-11.1-12.8-18.5c-1.5-5.6-0.4-11.7,2.4-16.7C10.5,36.2,17.1,31.8,23.9,28.9z"/>
	<path class="st0" d="M87.8,23.5c1.3,0,2.5,0,3.8,0c0,2.9,0,5.8,0,8.7c-1.2,0-2.5,0-3.8,0C87.8,29.3,87.8,26.4,87.8,23.5z"/>
	<path class="st0" d="M52.8,31.4c7.7-2.8,15.9-4.2,24.1-4.6c-7.1,1-14.2,2.5-20.8,5.5c-6.4,2.9-12.3,7.2-16,13.3
		c-1.4,2.5-2.6,5.1-2.9,8c-0.1,4.4,1.6,8.8,4.4,12.2c3.3,4.1,7.8,7.2,12.5,9.6c6.7,3.4,14,5.6,21.4,7.1c-6.8,0-13.7-0.7-20.2-2.7
		c-6.7-2.1-13.1-5.8-17.4-11.5c-2.8-3.7-4.6-8.1-5.1-12.7C32.3,50.4,34.2,45,37.7,41C41.7,36.4,47.2,33.5,52.8,31.4z"/>
</g>
<g id="_x23_2d2d2dff">
	<path class="st1" d="M151.4,24.5c1.2-0.5,2.5-1,3.7-1.5c0,4.7,0,9.5,0,14.2c3.7,0,7.3,0,11,0c0,1.3,0,2.7,0,4c-3.7,0-7.3,0-11,0
		c0,10.9,0,21.8,0,32.8c0.1,2.4,0.2,4.8,1.3,7c0.8,1.6,2.6,2.4,4.3,2.4c2,0.1,3.8-0.7,5.4-1.7c0,1.4,0,2.7,0,4.1
		c-2.2,1.2-4.7,1.9-7.2,1.5c-2.3-0.3-4.4-1.6-5.6-3.6c-1.7-2.8-2-6.1-2-9.3c0-11,0-22,0-33.1c-2.5,0-5,0-7.5,0c0-1.3,0-2.7,0-4
		c2.5,0,5,0,7.5,0C151.4,33,151.4,28.8,151.4,24.5z"/>
	<path class="st1" d="M116.3,37.6c3.4-1.7,7.5-2,11.1-0.9c3.5,1.1,6.1,4,7.5,7.4c2.1,4.8,2.2,10.1,2.1,15.3c0,9,0,18.1,0,27.1
		c-1.3,0-2.5,0-3.8,0c0-9.8,0-19.6,0-29.5c-0.1-4.1-0.5-8.4-2.5-12.1c-1.2-2.3-3.4-4.1-6-4.6c-3.6-0.7-7.6,0.2-10.3,2.8
		c-4,3.7-5.8,9.2-5.9,14.6c0,9.6,0,19.2,0,28.8c-1.2,0-2.5,0-3.7,0c0-16.4,0-32.8,0-49.2c1.2,0,2.5,0,3.7,0c0,3,0,6.1,0,9.1
		C110.4,42.9,112.7,39.4,116.3,37.6z"/>
	<path class="st1" d="M184,37.3c3.9-1.6,8.5-1.7,12.4,0.1c3.4,1.5,5.8,4.7,7.3,8.1c2.3,5.2,2.7,11,2.6,16.7c-10.3,0-20.6,0-31,0
		c0,6,1,12.5,5.1,17.2c2.5,3,6.4,4.5,10.3,4.3c5-0.1,9.6-2.8,13.2-6.1c0,1.6,0,3.1,0,4.7c-3.9,3.3-8.8,5.3-13.9,5.4
		c-4.2,0.2-8.5-1.3-11.5-4.4c-4.2-4.1-6.1-9.9-6.7-15.6c-0.8-6.9-0.4-14.1,2.6-20.4C176.4,43.1,179.6,39.1,184,37.3 M181.7,43.3
		c-4.1,3.7-5.6,9.4-6.2,14.7c9,0,17.9,0,26.9,0c-0.2-5.1-1.1-10.7-4.6-14.7C193.7,38.9,186,39.2,181.7,43.3z"/>
	<path class="st1" d="M285.4,37.7c3.8-1.9,8.4-2.1,12.4-0.7c3.5,1.3,6.2,4.3,7.8,7.6c2.7,5.4,3.1,11.6,3,17.5c-10.3,0-20.6,0-31,0
		c0,5.5,0.8,11.2,4,15.8c2,3.1,5.4,5.3,9.1,5.6c5.3,0.6,10.5-1.6,14.5-5c0.4-0.3,0.8-0.8,1.3-1c-0.3,1.6-0.1,3.2-0.2,4.8
		c-3.8,3.2-8.5,5.2-13.5,5.4c-4.2,0.3-8.5-1.1-11.6-4c-4.2-3.9-6.3-9.6-7-15.2c-0.9-6.9-0.6-14.2,2.3-20.6
		C278.4,43.7,281.3,39.8,285.4,37.7 M284,43.3c-4.1,3.7-5.6,9.4-6.2,14.8c9,0,17.9,0,26.9,0c-0.2-5.1-1.1-10.7-4.6-14.7
		C296,38.9,288.3,39.2,284,43.3z"/>
	<path class="st1" d="M392.6,37.9c3.8-2.1,8.5-2.4,12.7-1c3.5,1.2,6.2,4.1,7.9,7.4c2.8,5.5,3.2,11.8,3.2,17.8c-10.3,0-20.6,0-30.9,0
		c0,6,1,12.4,5,17.1c2.4,3,6.3,4.6,10.1,4.5c5.1,0,9.9-2.7,13.6-6.1c0,1.6,0,3.1,0,4.7c-5,4.2-11.8,6.4-18.3,5
		c-4.4-0.9-8-4.1-10.3-7.9c-2.9-4.8-3.8-10.4-3.9-15.9c-0.2-5.6,0.6-11.4,3.1-16.5C386.4,43.3,389,39.9,392.6,37.9 M391.7,43.3
		c-4.1,3.7-5.6,9.4-6.2,14.7c9,0,17.9,0,26.9,0c-0.2-5.2-1.1-10.7-4.7-14.7C403.7,38.9,396,39.2,391.7,43.3z"/>
	<path class="st1" d="M226.2,38.5c2.8-2.3,6.9-2.7,10.2-1.3c0,1.6,0,3.1,0,4.7c-2.4-1.9-6-2-8.5-0.3c-2.7,1.8-4.3,4.7-5.4,7.6
		c-2.2,5.9-2.1,12.4-2.1,18.6c0,6.3,0,12.5,0,18.8c-1.2,0-2.4,0-3.7,0c0-16.4,0-32.8,0-49.2c1.2,0,2.4,0,3.7,0c0,3.7-0.1,7.4,0,11.1
		C221.5,44.7,223.1,40.9,226.2,38.5z"/>
	<path class="st1" d="M328.5,38.4c2.8-2.3,6.9-2.7,10.2-1.2c0,1.6,0,3.1,0,4.7c-2.3-1.8-5.6-2-8.1-0.6s-4.2,4-5.4,6.6
		c-2.2,5-2.6,10.5-2.6,15.8c0,7.6,0,15.2,0,22.8c-1.2,0-2.4,0-3.7,0c0-16.4,0-32.8,0-49.2c1.2,0,2.4,0,3.7,0c0,3.7-0.1,7.4,0.1,11.1
		C323.8,44.6,325.4,40.8,328.5,38.4z"/>
	<path class="st1" d="M438.7,37c2.5-1,5.3-0.9,7.7,0.2c0,1.6,0,3.1,0,4.7c-1.9-1.5-4.7-2-7-1.1c-2.8,1-4.6,3.5-6,6
		c-2.4,4.8-3,10.3-3.1,15.6c0,8,0,16.1,0,24.1c-1.2,0-2.4,0-3.7,0c0-16.4,0-32.8,0-49.2c1.2,0,2.4,0,3.7,0c0,3.7-0.1,7.4,0,11.1
		c0.7-2.2,1.4-4.4,2.6-6.3C434.4,39.9,436.3,38,438.7,37z"/>
	<path class="st1" d="M87.8,37.3c1.2,0,2.5,0,3.8,0c0,16.4,0,32.8,0,49.2c-1.2,0-2.5,0-3.8,0C87.8,70.1,87.8,53.7,87.8,37.3z"/>
	<path class="st1" d="M340.7,37.3c1.4,0,2.8,0,4.2,0c4.1,13,8.3,26,12.4,39c0.6,1.8,1,3.7,1.4,5.5c0.7-3.9,2.1-7.5,3.2-11.2
		c3.6-11.1,7.3-22.2,10.9-33.2c1.4,0,2.7,0,4.1,0c-5.5,16.4-11.1,32.8-16.6,49.2c-1.1,0-2.3,0-3.4,0
		C351.5,70.1,346.1,53.7,340.7,37.3z"/>
</g>
</svg>
