<?xml version="1.0" encoding="utf-8"?>
<!-- Generator: Adobe Illustrator 22.0.1, SVG Export Plug-In . SVG Version: 6.00 Build 0)  -->
<svg version="1.1" id="图层_1" xmlns="http://www.w3.org/2000/svg" xmlns:xlink="http://www.w3.org/1999/xlink" x="0px" y="0px"
	 viewBox="0 0 380 130" style="enable-background:new 0 0 380 130;" xml:space="preserve">
<style type="text/css">
	.st0{fill:#231F20;}
	.st1{fill:#33CC66;}
	.st2{fill:#82F4A0;}
	.st3{fill:#FFFFFF;}
</style>
<title>iPage-logo</title>
<g>
	<path class="st0" d="M122.9,50h22.4c5.8,0,10.4-1.7,13.9-5.1c3.5-3.4,5.3-7.9,5.3-13.5c0-4.8-1.6-9.1-4.7-12.9
		c-3.1-3.8-7.7-5.6-13.6-5.6h-23.2L122.9,50L122.9,50z M122.9,99.2h-12.4V2.7h34.7c10.8,0,18.8,2.9,23.9,8.7
		c5.1,5.8,7.7,12.4,7.7,19.9c0,8.3-2.8,15.1-8.4,20.6c-5.6,5.4-12.9,8.1-22,8.1h-23.6v39.2H122.9z M230.9,63
		c-4.5-0.3-7.9-0.4-10.2-0.4c-8.8,0-15.6,1.5-20.5,4.4s-7.3,7.2-7.3,12.8c0,3.5,1.3,6.6,3.9,9c2.6,2.5,6.4,3.7,11.4,3.7
		c6.7,0,12.1-2.5,16.4-7.4s6.5-10.7,6.5-17.4C231.2,66.4,231.1,64.8,230.9,63 M243.3,101.1h-11c-0.4-2.3-0.9-5.9-1.3-12.3
		c-4.9,10-13.3,12.4-25.1,12.4c-8,0-14.2-2.2-18.5-6.5s-6.5-9.5-6.5-15.5c0-7.3,3.1-13.3,9.2-18s16.6-7.1,31.3-7.1
		c2,0,5.2,0.1,9.5,0.3c0-5.7-0.4-7.9-1.3-10.5s-2.7-4.6-5.6-6.1c-2.8-1.5-6.6-2.3-11.2-2.3c-11.3,0-17.9,4.3-19.7,13l-10.3-1.8
		c2.5-13.3,13-20,31.6-20c9.9,0,16.9,2.2,21,6.6s6.2,12.1,6.2,22.9v30.7C241.8,92.2,242.3,96.9,243.3,101.1 M281,66.8
		c4.7,0,8.5-1.5,11.5-4.4S297,55.7,297,51s-1.5-8.6-4.6-11.7c-3.1-3-6.8-4.5-11.2-4.5c-4.2,0-7.9,1.4-11.1,4.2s-4.9,6.9-4.9,12.1
		c0,4.7,1.5,8.4,4.4,11.3C272.5,65.4,276.3,66.8,281,66.8 M267.8,97.2c-5.2,2.3-7.8,5.6-7.8,9.9c0,3.7,2.1,6.5,6.4,8.5
		c4.2,2,9.7,3,16.2,3c6.1,0,11.7-0.9,16.8-2.6s7.6-4.7,7.6-8.8c0-2.2-0.8-4.1-2.3-5.5s-3.6-2.3-6.2-2.7c-2.6-0.4-7.2-0.7-13.6-0.9
		C277.2,98,271.5,97.7,267.8,97.2 M315,16.9v8.9c-5.1,0-8.5,0.6-10.2,1.8s-2.9,3.3-3.4,6.4c4.6,5.3,6.8,11.1,6.8,17.4
		c0,6.6-2.5,12.2-7.4,16.9c-5,4.7-11.6,7.1-20,7.1c-1.9,0-3.5-0.1-4.9-0.4c-2.6-0.5-4.2-0.8-4.9-0.8c-1.3,0-2.8,0.6-4.6,1.9
		c-1.8,1.3-2.7,2.9-2.7,4.9c0,2.9,1.3,4.7,3.9,5.6c2.6,0.9,8.7,1.4,18.3,1.6c8.1,0.2,14.1,0.8,18,1.7c3.9,0.9,7.2,2.8,9.8,5.8
		c2.7,3,4,6.7,4,11.1c0,13.7-11.9,20.6-35.8,20.6c-11.3,0-19.6-1.7-24.8-5.2c-5.2-3.4-7.8-8.1-7.8-13.8c0-7,3.6-11.8,10.9-14.4
		c-4.7-3.1-7-7-7-11.6c0-5.6,3.3-9.8,9.9-12.7c-6.2-5-9.2-11.4-9.2-19c0-7.1,2.6-13,7.9-17.5c5.3-4.6,11.7-6.8,19.2-6.8
		c5.4,0,10.2,1,14.6,3.1c0.7-4.7,2.3-8,4.9-9.8c2.6-1.8,6.4-2.7,11.7-2.7C312.7,16.8,313.5,16.8,315,16.9"/>
	<path class="st0" d="M367.8,57.6c-0.1-4.1-0.8-7.7-2-10.8c-1.2-3.2-3.3-5.8-6.2-8.1c-2.9-2.2-6.4-3.3-10.5-3.3
		c-5.5,0-10.2,2-14.1,6c-3.8,4-6,9.4-6.5,16.2H367.8L367.8,57.6z M368.5,77.6l10.3,2.1c-1.9,6.2-5.6,11.3-11,15.3
		c-5.5,4-11.9,6.1-19.3,6.1c-9.8,0-17.7-3.5-23.7-10.4c-6-7-9.1-14.1-9.1-25.4c0-11.5,3.1-20.8,9.4-27.9s14.2-10.6,23.6-10.6
		c9.3,0,16.9,3.3,22.5,9.8c5.7,6.5,8.6,16.3,8.7,29.4h-52c0,8.2,2.3,16.3,6.8,20.2c4.5,3.8,9.3,5.7,14.4,5.7
		C358.3,91.9,364.8,87.1,368.5,77.6L368.5,77.6z"/>
	<path class="st1" d="M0.1,37.7l36.3-35h62.2v96.5H0.1V37.7z"/>
	<path class="st2" d="M36.2,38.9H0.1L36.2,2.7V38.9z"/>
	<path class="st3" d="M68.9,99.2V39.7h13v59.5H68.9z M75.4,28.2c-5.1,0-9-3.8-9-8.7s3.9-8.8,9-8.8s9.1,3.9,9.1,8.8
		C84.4,24.4,80.4,28.2,75.4,28.2z"/>
</g>
</svg>
