<?xml version="1.0" encoding="utf-8"?>
<!-- Generator: Adobe Illustrator 22.0.1, SVG Export Plug-In . SVG Version: 6.00 Build 0)  -->
<svg version="1.1" id="图层_1" xmlns="http://www.w3.org/2000/svg" xmlns:xlink="http://www.w3.org/1999/xlink" x="0px" y="0px"
	 viewBox="0 0 520 180" style="enable-background:new 0 0 520 180;" xml:space="preserve">
<style type="text/css">
	.st0{fill:#3868AF;}
</style>
<g id="_x23_fffffeff">
</g>
<g id="_x23_000000ff">
	<path d="M238.2,10.1c3.3-1.5,7.1-0.9,10.6-1c80,0,160,0,240.1,0c6.7-0.3,13,5.5,13.2,12.1c0.1,43.7,0,87.5,0,131.2
		c0.2,4.7-2.8,9-6.7,11.3c-3.2,1.9-7,1.5-10.6,1.5c-80.7,0-161.3,0-242,0c-7.1,0.1-13.2-6.8-12.6-13.8c0-43,0-86,0-129
		C229.9,17.2,233.5,12.3,238.2,10.1 M253.3,35c0,34.1,0,68.2,0,102.3c4.1,0,8.1,0.2,12.2,0.3c0.2-13.4,0-26.8,0.1-40.2
		c0.1-4.4-0.4-8.9,1-13.2c1.7-4.8,4.7-9.3,9.3-11.7c5.8-3.3,14.1-2.1,18.1,3.4c3.5,5,4.4,11.4,4.4,17.3c0,14.7,0,29.3,0,43.9
		c4.2,0.2,8.4,0.1,12.6-0.1c-0.1-11.3,0.1-22.5-0.1-33.8c0-11.2,0.8-23.1-4.9-33.2c-4.4-7.9-14-12.7-22.9-10.7
		c-7.7,1.4-14,7-17.5,13.8c0.2-16.1,0-32.3,0.1-48.4C261.6,28.3,257.5,31.7,253.3,35 M456.4,49.1c0.1,3.9,0.1,7.8,0.1,11.6
		c-3.5,0-6.9,0-10.4,0c0,3.5,0,7,0,10.5c3.4,0,6.9,0,10.3,0c0.1,10.7,0,21.4,0,32.1c0.1,7.6-0.4,15.3,1.5,22.8c1,4,3.2,7.9,6.8,10.2
		c4.2,2.9,9.7,3.1,14.6,2.7c1.9-4.1,3.6-8.3,5.5-12.3c-4.1,0.6-9.1,1.9-12.6-1.1c-3.3-3.1-3.4-8-3.7-12.2c0-13.8-0.1-27.6,0-41.4
		c0.2-0.2,0.6-0.5,0.8-0.7c5.6-0.2,11.2,0,16.8-0.1c0-3.5,0-7,0-10.5c-5.9,0-11.8,0-17.7,0c0-6.1,0-12.2,0-18.3
		C464.5,44.6,460.5,46.8,456.4,49.1 M353.8,59.2c-9.6,0.7-18.7,6.2-23.8,14.4c-6.8,10.3-7.9,23.2-6.3,35.2
		c1.8,10.9,7.6,21.8,17.7,27c12.2,6.6,28.6,3.3,37.6-7.2c7.6-8.4,10.1-20.1,10-31.2c-0.4-9.6-2.7-19.6-9-27.2
		C373.9,62.3,363.6,58.3,353.8,59.2 M408.4,62.9c-8.3,5.3-11.8,16.5-8.5,25.6c1.8,5,5.8,8.8,10.2,11.5c5.2,3.2,11.6,4.6,16,9.1
		c5.2,5.1,3.7,15.4-3.3,18.2c-7.8,3.2-16.2-0.3-23-4.1c-0.7,3.6-2.4,7-2.6,10.7c6.4,3.9,14.1,5.6,21.6,5c7-0.4,14.2-3.5,18.2-9.4
		c5.5-8.2,5.7-20-0.7-27.8c-5.1-6.5-13.5-8.4-20.3-12.6c-3.9-2.1-5.8-6.5-5.6-10.8c1-3.4,2.9-6.8,6.4-8c6.4-2.2,13.1,0.4,18.8,3.5
		c0.9-3.4,2-6.8,2.8-10.3C429.5,58.4,417.5,57.1,408.4,62.9z"/>
	<path d="M352.3,70.1c5.5-1.1,11.6,0.3,15.6,4.4c5.6,5.8,7.9,14.1,8.4,22c0.4,8.9-1.4,18.3-7.1,25.4c-4,5-11,8.2-17.3,6.2
		c-6.4-1.6-11-7.2-13.3-13.1c-3.8-9.6-3.8-20.6-0.6-30.4C340.1,78,345.1,71.6,352.3,70.1z"/>
</g>
<g id="_x23_3868afff">
	<path class="st0" d="M39.3,31.1c2.7-0.9,6.2-0.6,8.1,1.8c4.4,4.5,2.5,14.6-4.5,15c-4.4,0.8-8.1-3.4-8.5-7.5
		C34.1,36.7,35.7,32.5,39.3,31.1z"/>
	<path class="st0" d="M194.5,46.5c4-1.3,7.9-2.8,12-4c0,6.1,0,12.2,0,18.3c5.9,0,11.7,0,17.6,0c0,3.5,0,7,0,10.5
		c-5.9,0.5-11.8,0.4-17.6-0.1c0,14.1,0,28.2,0,42.2c0.1,4.3,0.6,9.3,4,12.4c3.6,2.6,8.4,1.1,12.5,0.9c-1.6,4-3,8.2-4.2,12.4
		c-5.6,0.1-11.8,0.5-16.6-3.1c-3.5-2.3-5.4-6.3-6.5-10.3c-1.7-7-1.1-14.2-1.2-21.4c0-11.1,0.1-22.1-0.1-33.2
		c-3.4-0.1-6.8,0-10.2,0.3c-0.2-3.6-0.2-7.2-0.1-10.8c3.5-0.1,6.9,0,10.4,0C194.5,56,194.5,51.3,194.5,46.5z"/>
	<path class="st0" d="M146.3,62.9c9-5.8,21-4.6,30,0.7c-0.8,3.6-1.9,7.1-3.1,10.5c-5.2-3.8-12.2-5.8-18.5-3.7
		c-6.5,2.4-8.4,11.8-3.4,16.7c5.9,5.5,14.7,6.7,20.6,12.3c7.5,6.5,8.8,18.1,4.9,26.9c-3.2,7.4-11,12-18.9,12.6
		c-7.8,0.7-16.1-0.6-22.8-4.9c0-3.7,1.9-7.2,2.5-10.9c6.6,4.5,15.1,6.8,22.9,4.3c7.9-2.9,8.5-15.1,1.9-19.6
		c-7-5.1-16.5-6.8-21.8-14.2C133.2,84.3,136.4,69.2,146.3,62.9z"/>
	<path class="st0" d="M36.1,60.8c4.1-0.1,8.2-0.1,12.3,0c-0.1,22.9,0,45.8,0,68.6c0.1,10.3-0.4,21.4-6.3,30.3
		c-4.9,7.5-14.1,10.7-22.7,11.2c-0.6-3.7-1.1-7.4-1.4-11.1c5-0.8,10.7-2.1,13.7-6.5c4.5-6.7,3.8-15.2,4.4-22.9
		C36.1,107.2,36,84,36.1,60.8z"/>
	<path class="st0" d="M65.1,60.8c4.1,0,8.2,0,12.3,0c0.1,15.2-0.1,30.4,0.1,45.6c0.5,6.1,1.4,12.9,5.8,17.6
		c3.4,3.6,8.8,3.9,13.3,2.9c7.6-2.5,12.9-10.4,12.9-18.3c0.1-15.9,0-31.8,0-47.7c4.2-0.1,8.4-0.1,12.5,0c0.1,25.6-0.3,51.2,0.3,76.8
		c-3.6,0-7.3,0-10.9-0.3c-0.2-4.2-0.3-8.5-0.5-12.7c-3.9,7.6-11.3,13.8-20.1,14.4c-6.8,0.8-14.2-1.6-18.5-7.1
		c-5.4-6.5-7-15.3-7.2-23.5C65.1,92.5,65.2,76.7,65.1,60.8z"/>
</g>
</svg>
