<?xml version="1.0" encoding="utf-8"?>
<!-- Generator: Adobe Illustrator 22.0.1, SVG Export Plug-In . SVG Version: 6.00 Build 0)  -->
<svg version="1.1" id="图层_1" xmlns="http://www.w3.org/2000/svg" xmlns:xlink="http://www.w3.org/1999/xlink" x="0px" y="0px"
	 viewBox="0 0 1100 420" style="enable-background:new 0 0 1100 420;" xml:space="preserve">
<style type="text/css">
	.st0{fill:#040606;}
	.st1{fill:#004812;}
	.st2{fill:#1FB25A;}
</style>
<g id="_x23_040606ff">
	<path class="st0" d="M136.9,7.4h1.2c24.4,12.1,49.1,23.7,73.6,35.7c1.6,35.7,3.2,71.5,4.6,107.2c-8.9,5.4-18.5,9.5-27.5,14.8
		c8.4,5.9,17.1,11.5,25.6,17.2c1.4,1.1,3.5,2.1,3.4,4.2c0.6,9,0.7,18,1.2,26.9c9.6-5.5,18.8-11.6,28.4-17.1c7,4,13.4,8.8,20.3,13.1
		c0.2-8.6,0.3-17.2,0.5-25.9c16.3-10,32.5-20.2,49-29.8c19.3,10.4,38.4,21.3,57.7,31.8c-1.9,18-4.8,35.8-7,53.8
		c-0.4,2.7-0.5,6-3.1,7.6c-13.2,10.5-26.4,20.9-39.5,31.5c-1.4,0.8-2.9,2.8-4.7,1.8c-5.8-3.2-10.8-7.6-16.4-11
		c-0.8,8.3-0.9,16.5-1.6,24.8c0,2.6-2.2,4.2-4,5.7c-17.2,13.4-34,27.4-51.4,40.7c-8.3-5.9-15.5-13.1-23.6-19.2
		c0.2,11.7,1.2,23.4,1.3,35.2c0.2,2.1-1.8,3.3-3.2,4.6c-18.1,14.2-36,28.7-54,43c-3.7,3-7.3,6.1-11.5,8.5
		c-4.7-3.9-8.6-8.7-12.9-13.1c-12.6-13.4-25.2-26.8-37.9-40.1c-3-2.8-3.5-7-4.3-10.7c-3.7-18.6-7.9-37.2-11.4-55.9
		c4.9-3.1,9.8-6,14.7-9.1c-6-6.1-12.5-11.7-18.6-17.7c-1.9-1.7-2.8-4.1-3.2-6.5c-4.7-23.3-9.6-46.6-14.4-69.9
		c-0.5-2.5-0.9-5.1-1.3-7.7c7.4-3.8,15-7.1,22.5-10.8c-8.9-7.7-18.5-14.5-27.7-21.9c-1.6-1.2-2.5-3-2.8-4.9
		C52.7,113.7,46.3,83.3,40,52.9c-0.8-4.4-2.2-8.7-2.4-13.2c2.9-2.1,6.5-2.7,9.8-3.8c27-8.3,53.9-16.8,80.9-25.1
		C131.4,9.6,134.2,8.5,136.9,7.4 M44.2,46.4c0.7,5.4,2,10.7,3.1,16.1c5.2,25.7,10.7,51.4,15.9,77.2c0.5,2.7,1.6,5.4,3.9,7
		c10.8,8.2,21.3,16.7,32.2,24.9c7.4,5.6,14.5,11.7,22.2,17c-0.6-7.8-2.1-15.4-3.1-23.1c-3.7-26-7.6-51.9-11.3-77.9
		c-0.2-2.9-2.9-4.3-5-5.7C82.6,70.3,63.7,57.8,44.2,46.4 M111.6,84.8c5.2,35.4,10.2,70.9,15.7,106.3c6.3-2.8,12.3-6.3,18.4-9.4
		c21.9-11.5,43.9-22.7,65.7-34.3c-1.5-33.1-2.9-66.1-4.2-99.2C175.2,60.2,143.5,72.8,111.6,84.8 M273.3,189.6
		c-0.2,6.9-0.5,13.9-0.6,20.8c-0.3,2.7,2.5,4,4.3,5.4c8.4,5.2,16.6,10.8,24.9,16.2c1.9,1.4,4.6,2.8,4.2,5.6
		c-0.2,8.5-1.3,17-1.4,25.6c4.7,3.7,9.6,7.1,14.7,10.2c1.7-15.3,2.6-30.6,4.2-45.9c0.1-1.9,0.4-3.7,0.2-5.6
		c-0.8-1.4-2.3-2.2-3.6-3.1C304.5,209.1,288.9,199.2,273.3,189.6 M73.7,190.2c4.4,21.8,9.1,43.5,13.4,65.3c0.5,3,1.6,6.1,4,8.1
		c9.8,9.1,19.6,18.4,29.5,27.5c6.2,5.7,12,11.8,18.6,17.1c-3.3-22.9-6.7-45.9-10-68.8c-0.2-2.5-1.4-4.9-3.5-6.4
		c-12.4-10.2-24.8-20.6-37.2-30.9C83.7,198.1,79,193.8,73.7,190.2 M133.7,235.6c3.6,25.4,7.4,50.7,11.1,76.1
		c24-15.9,47.8-32,71.6-48.2c-1.2-24.3-2.1-48.7-3.2-73.1C186.6,205.1,160.1,220.3,133.7,235.6 M332,219.1c-2.1,1.2-3.3,3.3-3.3,5.7
		c-1.3,15.9-2.8,31.9-4.1,47.8c11-8.2,21.4-17.2,32.3-25.5c1.9-1.5,3.9-2.9,5.4-4.8c0.9-2.5,1-5.2,1.4-7.7c1.8-14,3.9-28,5.6-42
		C356.7,201.1,344.5,210.2,332,219.1 M292.3,247.3c-14.3,10.4-28.9,20.5-43.2,31c0.2,18,0.3,36,0.4,54.1
		c14.1-10.9,27.8-22.2,41.7-33.2c2.1-1.7,4.3-3.2,6-5.2c0.9-2.4,0.8-5.1,1-7.6c0.6-14.9,2.1-29.8,2.4-44.8
		C297.8,243.4,295,245.3,292.3,247.3 M221.9,261.5c-0.8,2.4-1.4,5.2-3.8,6.6c-5,3.5-10.3,6.5-15,10.4c5.8,6.1,13.2,10.2,19,16.3
		c1.8,6.2,0,12.9,1.8,19.1c1.3,2,3.3,3.4,5.1,4.9c5.2,4.1,10,8.8,15.5,12.6c0.3-15.4-0.3-30.8-0.1-46.1c-0.2-3,0.6-6.8-2.3-8.7
		C235.4,271.5,228.8,266.3,221.9,261.5 M150.4,348.8c2.3,18.7,5.2,37.3,8.1,55.9c4.8-3.1,9.1-7,13.6-10.5c16-12.7,32-25.5,48-38.2
		c-0.6-18.5-1.6-36.9-2.2-55.4C195.4,316.5,173,332.8,150.4,348.8 M97.2,302.5c2.7,16,6.5,31.8,9.5,47.7c0.6,4,3.6,7,6.3,9.7
		c13.2,13.9,26.2,27.9,39.4,41.7c-1.3-14.8-4.2-29.4-6-44.1c-0.6-3.6-0.7-7.8-3.5-10.6c-7.2-7.4-15-14.3-22.3-21.7
		C112.9,317.5,105.5,309.5,97.2,302.5z"/>
	<path class="st0" d="M452.5,130.8c9-2,17.8-4.3,26.8-6.3c0,43,0,86,0,129.1c0.1,6.4,0.8,13.2,4.5,18.6c1.9,3,5.1,4.7,8.1,6.5
		c-2.9,5.1-7.7,9.3-13.6,10.6c-6.6,1.6-14.8,1.5-19.8-3.7c-5.5-5.8-5.9-14.4-6-22C452.5,219.2,452.3,174.9,452.5,130.8z"/>
	<path class="st0" d="M904.2,130.8c8.9-2,17.7-4.3,26.5-6.3c0.2,32,0,64,0.1,96c-0.1,22.5,0.2,45-0.2,67.5c-8.8-0.1-17.6-0.1-26.3,0
		c-0.2-2.1-0.1-4.3-0.3-6.5c-11.3,8.5-26.4,10-40,7.4c-12.4-2.3-23.7-9.9-30.2-20.8c-8.3-13.6-9.6-30.2-8.1-45.7
		c1.6-15.5,9.2-30.4,21.6-40.1c15.7-12.7,38.6-14.2,56.8-5.9C904.1,161.1,903.8,145.9,904.2,130.8 M862.2,203.2
		c-7.1,7.5-9.2,18.2-9.2,28.2c-0.1,9.3,1.6,19.3,8,26.4c6.1,6.8,15.5,9.3,24.4,9.5c6.7,0.3,13.2-2.5,18.5-6.4
		c0.2-20.1,0-40.1,0.1-60.2c-4.3-3.2-9.2-5.9-14.6-6.5C879.7,193.2,869,195.8,862.2,203.2z"/>
	<path class="st0" d="M528.7,129.8c8.8-3,19.1,3.5,20,12.7c1.6,9-6.2,18.1-15.3,17.8c-8,0.3-15.5-6.7-15.6-14.8
		C517.2,138.4,522.1,131.8,528.7,129.8z"/>
	<path class="st0" d="M622.2,172.3c10-1.8,20.6-1.6,30.2,2c9.1,3.4,16.7,10.5,20.8,19.3c3.8,8,4.8,17,4.8,25.7c0,22.8,0,45.7,0,68.5
		c-8.9,0-17.8,0-26.7,0c-0.4-22.9,0-45.8-0.2-68.6c-0.3-7-1.4-14.8-6.6-20c-5.4-5.2-13.6-6.2-20.7-5.3c-7.2,1.4-14.4,5-19,10.8
		c-0.7,2.5-0.3,5.1-0.4,7.6c0.1,25.1,0,50.3,0,75.4c-9,0.1-17.9,0.1-26.9,0c0-38.1,0-76.2,0-114.4c6.5,0,13-0.1,19.5,0.1
		c1.5,3.4,3,6.8,4.6,10.1C607.3,178.1,614.3,173.8,622.2,172.3z"/>
	<path class="st0" d="M743.8,172.1c15.5-2.1,32.6-0.2,45.3,9.7c11.8,9.1,18.2,23.7,19.6,38.3c2,18.9-1,39.8-14.5,54.2
		c-11.1,12.4-28.6,16.9-44.8,15.6c-13.8-0.6-27.7-6.2-36.5-17c-12-13.9-15-33.4-13.3-51.1c1.3-14.5,7.8-28.7,18.9-38.2
		C725.6,177.3,734.5,173.4,743.8,172.1 M747.8,193.9c-5.7,1.3-10.7,5.1-13.9,9.9c-5.7,8.3-6.9,18.7-6.7,28.5
		c0.2,9.6,1.6,19.9,7.8,27.6c5.8,7.3,16.1,9.2,24.8,7.6c7.8-1.5,14.1-7.4,17.3-14.5c4.3-9.2,4.6-19.7,4-29.7
		c-0.7-8-2.5-16.5-7.9-22.7C767,193.6,756.6,191.9,747.8,193.9z"/>
	<path class="st0" d="M980.5,177.6c13.1-7.1,28.9-7.8,43.1-4.4c14.1,3.4,26.4,13.2,32.9,26.2c3.7,7.3,5,15.5,5.9,23.5v3.8
		c-1.1,4-2,8.1-2.8,12.1c-27.3,0.2-54.5-0.2-81.8,0.2c0.8,7.4,3.1,15.1,8.8,20.3c8.3,8,20.8,9.2,31.8,7.8c7.4-0.8,14.3-4.1,20.1-8.8
		c3.5,6.8,7.2,13.5,10.2,20.6c-13.9,10-31.7,11.8-48.3,10.9c-14.4-0.8-28.9-6.9-38.1-18.2c-11.8-14.2-13.9-34-11.5-51.7
		C953.2,202.1,964.7,186.1,980.5,177.6 M993,197.1c-8,4.3-12.2,13.1-14.1,21.6c18.7,0.2,37.3,0.1,56,0c-0.9-8.8-5-18.3-13.6-22.1
		C1012.5,192.6,1001.7,192.6,993,197.1z"/>
	<path class="st0" d="M504.8,173.6c13.9-0.2,27.9-0.1,41.8-0.1c0.1,38.1,0.1,76.3,0,114.4c-9,0.1-18.1,0.1-27.1,0
		c0-30.8,0.1-61.6,0-92.4c-4.9,0-9.8,0-14.6-0.1C504.9,188.1,504.9,180.8,504.8,173.6z"/>
</g>
<g id="_x23_004812ff">
	<path class="st1" d="M44.2,46.4C63.7,57.8,82.6,70.3,102,81.9c2.2,1.4,4.9,2.8,5,5.7c3.7,25.9,7.7,51.9,11.3,77.9
		c1,7.7,2.6,15.3,3.1,23.1c-7.7-5.3-14.7-11.4-22.2-17c-10.8-8.2-21.3-16.7-32.1-24.9c-2.4-1.6-3.5-4.3-3.9-7
		c-5.1-25.8-10.6-51.4-15.9-77.2C46.2,57.1,44.9,51.8,44.2,46.4z"/>
	<path class="st1" d="M273.3,189.6c15.7,9.6,31.2,19.5,46.9,29.1c1.3,0.9,2.8,1.7,3.6,3.1c0.3,1.9,0,3.7-0.2,5.6
		c-1.7,15.3-2.5,30.6-4.2,45.9c-5.1-3.1-10-6.5-14.7-10.2c0.1-8.6,1.2-17.1,1.4-25.6c0.4-2.8-2.4-4.2-4.2-5.6
		c-8.3-5.4-16.5-10.9-24.9-16.2c-1.8-1.4-4.6-2.7-4.3-5.4C272.8,203.4,273.1,196.6,273.3,189.6z"/>
	<path class="st1" d="M73.7,190.2c5.2,3.7,10,8,14.9,12c12.4,10.3,24.7,20.6,37.2,30.9c2.1,1.5,3.2,3.9,3.5,6.4
		c3.3,22.9,6.6,45.9,10,68.8c-6.6-5.3-12.4-11.4-18.6-17.1c-9.9-9.1-19.6-18.4-29.5-27.5c-2.4-2.1-3.4-5.1-4-8.1
		C82.8,233.8,78.1,212.1,73.7,190.2z"/>
	<path class="st1" d="M221.9,261.5c6.9,4.8,13.6,10,20.2,15.2c2.9,1.9,2.1,5.7,2.3,8.7c-0.3,15.4,0.4,30.8,0.1,46.1
		c-5.4-3.9-10.2-8.5-15.5-12.6c-1.8-1.5-3.8-2.9-5.1-4.9c-1.7-6.2,0.1-12.9-1.8-19.1c-5.7-6.1-13.2-10.3-19-16.3
		c4.7-3.9,10.1-6.9,15-10.4C220.5,266.8,221,264,221.9,261.5z"/>
	<path class="st1" d="M97.2,302.5c8.3,7.1,15.6,15.2,23.5,22.7c7.3,7.4,15.1,14.3,22.3,21.7c2.8,2.7,2.9,6.9,3.5,10.6
		c1.8,14.7,4.7,29.3,6,44.1c-13.3-13.8-26.2-27.9-39.4-41.7c-2.8-2.7-5.7-5.7-6.3-9.7C103.7,334.2,99.9,318.3,97.2,302.5z"/>
</g>
<g id="_x23_1fb25aff">
	<path class="st2" d="M111.6,84.8c31.8-12.2,63.6-24.6,95.5-36.6c1.3,33.1,2.7,66.1,4.2,99.2c-21.8,11.7-43.8,22.8-65.7,34.3
		c-6.2,3.1-12.1,6.6-18.4,9.4C121.8,155.8,116.8,120.3,111.6,84.8z"/>
	<path class="st2" d="M133.7,235.6c26.5-15.2,52.9-30.3,79.5-45.2c1.1,24.4,2,48.7,3.2,73.1c-23.8,16.2-47.6,32.3-71.6,48.2
		C141.1,286.2,137.3,260.8,133.7,235.6z"/>
	<path class="st2" d="M332,219.1c12.5-8.8,24.8-17.9,37.4-26.6c-1.7,14-3.8,28-5.6,42c-0.4,2.6-0.5,5.3-1.4,7.7
		c-1.4,2-3.5,3.3-5.4,4.8c-10.9,8.3-21.4,17.3-32.3,25.5c1.3-15.9,2.8-31.9,4.1-47.8C328.7,222.3,329.8,220.1,332,219.1z"/>
	<path class="st2" d="M292.3,247.3c2.7-2,5.5-3.9,8.5-5.6c-0.3,14.9-1.8,29.8-2.4,44.8c-0.2,2.5-0.1,5.2-1,7.6c-1.7,2.1-4,3.6-6,5.2
		c-14,11-27.7,22.3-41.7,33.2c-0.1-18-0.2-36-0.4-54.1C263.4,267.8,278,257.8,292.3,247.3z"/>
	<path class="st2" d="M150.4,348.8c22.6-16,45-32.2,67.5-48.2c0.7,18.5,1.7,36.9,2.2,55.4c-16.1,12.7-32,25.5-48,38.2
		c-4.5,3.5-8.8,7.4-13.6,10.5C155.6,386.2,152.8,367.5,150.4,348.8z"/>
</g>
</svg>
