<?xml version="1.0" encoding="utf-8"?>
<!-- Generator: Adobe Illustrator 22.0.1, SVG Export Plug-In . SVG Version: 6.00 Build 0)  -->
<svg version="1.1" id="图层_1" xmlns="http://www.w3.org/2000/svg" xmlns:xlink="http://www.w3.org/1999/xlink" x="0px" y="0px"
	 viewBox="0 0 750 150" style="enable-background:new 0 0 750 150;" xml:space="preserve">
<style type="text/css">
	.st0{fill:#F7602A;}
</style>
<path class="st0" d="M126.1,21.3c-5.6-5.6-18.4-3.2-33.6,5.2C57.7,8.9,20.1,13.3,6.5,36.9c-10.4,18.4-4,43.2,14.4,63.6
	c-6,12.8-7.6,23.6-2.4,28.4c5.6,5.6,18.4,3.2,33.6-5.2c34.8,17.2,72.4,13.2,86-10.8c10.8-18,4.4-42.8-14.4-63.2
	C129.7,36.9,131.3,26.5,126.1,21.3z M118.1,22.5c3.2,3.2,1.6,10-2.8,18.8c-6-5.2-12.8-10-20-13.6C106.1,21.3,114.5,18.9,118.1,22.5z
	 M130.1,114.1c-11.2,19.6-43.6,22.4-74.4,7.6c11.2-6.8,23.2-16.4,35.2-28c8.8-8.8,16.4-17.6,22.4-26.4c0.4-0.8,0.4-1.6,0-2
	c-2-2.4-4.4-4.8-6.8-6.8c-0.8-0.4-1.6-0.4-2.4,0c-6,8-13.6,16.8-22.4,25.6c-27.2,27.6-54.8,44-62,36.8c-2.8-3.2-1.6-9.6,2.8-18.8
	c5.2,5.6,11.2,10.4,18,14.8c1.2-0.4,2.4-1.2,3.2-2c-30.4-19.2-45.6-50-34-70.4c10.8-18.4,40.4-22,69.6-9.6c-8.4,6-17.2,13.2-25.6,22
	c-12.8,12.8-23.2,26.4-30,38c0,0.4,0,0.4,0,0.8c0.8,0,1.2,0.4,1.6,0.8h0.4c6.8-11.2,17.2-24.4,30.4-37.6c8.8-8.8,18-16.8,26.4-22.8
	l9.6,4.8C125.3,60.1,142.5,92.9,130.1,114.1z"/>
<polygon class="st0" points="200.5,41.3 190.1,41.3 190.1,107.3 236.5,107.3 236.5,97.7 200.5,97.7 "/>
<path class="st0" d="M332.1,56.9c-7.2,0-12.8,2.8-16.8,7.6v-6h-10.4v48.8h10.4V84.9c0-12,5.2-18.4,14.4-18.4
	c6.8,0,11.6,5.2,11.6,13.2v27.6h10.4V77.7c0-6-2-10.8-5.6-14.8C342.5,58.9,337.7,56.9,332.1,56.9z"/>
<path class="st0" d="M569.7,64.5c-4.4-4.8-10.4-7.2-17.6-7.2c-6.8,0-12.4,2.4-17.2,7.2s-7.2,10.8-7.2,18.4c0,7.6,2.4,14,7.2,18.8
	s10.4,7.2,17.2,7.2c7.2,0,13.2-2.4,17.6-7.2v5.6h10.4V58.5l-10.4,0.4V64.5z M564.9,94.9c-3.2,3.2-6.8,4.8-11.2,4.8
	c-4.8,0-8.4-1.2-11.6-4.4c-2.8-3.2-4.4-7.6-4.4-12.4s1.2-8.8,4.4-12c3.2-3.2,6.8-4.8,11.6-4.8c4,0,8,1.6,11.2,4.8
	c3.2,3.2,4.8,7.2,4.8,12S568.1,91.7,564.9,94.9z"/>
<path class="st0" d="M630.1,62.9c-3.6-4-9.2-6-16.8-6c-6.4,0-12,2.4-16.8,6.8c-4.8,4.4-7.2,10-7.2,16.8c0,6.4,2.4,12,7.2,16.8
	c4.8,4.4,10.4,6.8,16.8,6.8c7.2,0,12.8-2,16.8-6v3.2c0,9.2-6,15.2-15.2,15.2c-7.6,0-11.6-2.8-15.6-8.8l-8.4,6.4
	c4.4,7.6,12.4,11.6,24,11.6c7.6,0,14-2,18.4-6c4.4-4,6.8-9.6,6.8-16.8V58.5l-10-0.4V62.9z M625.7,91.3c-3.2,2.8-6.8,4.4-10.8,4
	c-4.4,0-8-1.2-11.2-4c-2.8-2.8-4.4-6.4-4.4-10.8c0-4.4,1.6-8,4.4-10.8c3.2-2.8,6.8-4,11.2-4c4.4,0,8,1.2,10.8,4
	c2.8,2.8,4.4,6.4,4.4,10.8C630.1,84.9,628.9,88.5,625.7,91.3z"/>
<path class="st0" d="M675.3,56.9c-7.2,0-13.2,2.4-18,7.2s-7.2,11.2-7.2,18.8s2.4,13.6,7.2,18.4c4.8,4.8,10.8,7.2,17.6,7.2
	c11.2,0,19.6-5.2,23.6-15.2l-9.2-2c-2.8,5.6-7.6,8.4-14.4,8.4c-7.6,0-14-5.6-14.8-14.4h39.6l0-4c-0.4-7.2-2.8-12.8-7.6-17.6
	C687.7,59.3,682.1,56.9,675.3,56.9z M660.1,78.1c0.8-3.6,2.8-6.8,5.6-8.8c2.8-2.4,6-3.2,9.2-3.2c7.2,0,12.4,4,14,12H660.1z"/>
<path class="st0" d="M735.7,79.7l-11.6-2.4c-4-0.8-6-2.8-6-5.6c0-3.6,3.2-6.4,8.8-6.4c6.4,0,10.4,3.2,11.2,8l9.6-2
	c-2-8.4-9.6-14-20.8-14c-11.6,0-19.2,6.4-19.2,15.6c0,6.8,4.4,11.2,13.2,13.2l10.8,2c4.8,1.2,6.8,3.2,6.8,6c0,4-3.6,6.4-9.6,6.4
	c-6.8,0-11.6-2.8-12.4-8.4l-10.4,2c1.2,9.2,10,14.4,21.6,14.4c12.8,0,20.8-5.6,20.8-15.6C748.5,86.1,743.7,81.3,735.7,79.7z"/>
<path class="st0" d="M437.7,68.9V58.5h-10.4v48.8h10.4V90.1c0-13.6,6.4-22,18.4-22h2.8l0.8-10c-0.8-0.4-2-0.4-3.2-0.4
	C448.5,57.7,442.1,61.3,437.7,68.9z"/>
<path class="st0" d="M402.1,64.1c-4.4-4.4-10.4-6.8-17.6-6.8c-6.8,0-12.4,2.4-17.2,7.2c-4.8,4.8-7.2,10.8-7.2,18.4
	c0,7.6,2.4,14,7.2,18.8s10.4,7.2,17.2,7.2c7.2,0,13.2-2.4,17.6-7.2v5.6h10.4V58.5h-10.4V64.1z M397.3,94.9
	c-3.2,3.2-6.8,4.8-11.2,4.8c-4.8,0-8.4-1.2-11.6-4.4c-2.8-3.2-4.4-7.6-4.4-12.4s1.2-8.8,4.4-12s6.8-4.8,11.6-4.8c4,0,8,1.6,11.2,4.8
	c3.2,3.2,4.8,7.2,4.8,12S400.5,91.7,397.3,94.9z"/>
<path class="st0" d="M281.3,81.3c0,12-5.2,18.4-14.4,18.4c-6.8,0-11.6-5.6-11.6-13.6V58.5h-10.4v29.6c0,6.4,1.6,11.2,5.2,15.2
	c3.6,3.6,8.4,5.6,14.4,5.6c7.2,0,12.8-2.8,16.8-7.6v6h10V58.9h-10V81.3z"/>
<path class="st0" d="M496.1,57.3c-7.2,0-13.2,2-17.6,6.8v-5.6h-10.4v65.2h10.4v-22.4c4.4,4.8,10.4,7.2,17.6,7.2
	c6.8,0,12.4-2.4,17.2-7.2c4.8-4.8,7.2-11.2,7.2-18.8c0-7.2-2.4-13.6-7.2-18.4C508.5,59.3,502.9,56.9,496.1,57.3z M506.1,94.9
	c-3.2,3.2-6.8,4.8-11.6,4.4c-4,0-8-1.6-11.2-4.8c-3.2-3.2-4.8-7.2-4.8-12s1.6-8.8,4.8-12s6.8-4.8,11.2-4.8c4.8,0,8.4,1.6,11.6,4.8
	c2.8,2.8,4.4,6.8,4.4,12C510.5,87.7,509.3,91.7,506.1,94.9z"/>
</svg>
