<?xml version="1.0" encoding="utf-8"?>
<!-- Generator: Adobe Illustrator 22.0.1, SVG Export Plug-In . SVG Version: 6.00 Build 0)  -->
<svg version="1.1" id="图层_1" xmlns="http://www.w3.org/2000/svg" xmlns:xlink="http://www.w3.org/1999/xlink" x="0px" y="0px"
	 viewBox="0 0 460 180" style="enable-background:new 0 0 460 180;" xml:space="preserve">
<style type="text/css">
	.st0{fill:#090909;}
</style>
<g id="_x23_e3e3e1ff">
</g>
<g id="_x23_090909ff">
	<path class="st0" d="M33.4,0.8c5.9,0,11.8,0,17.7,0c-6.7,14.8-12.9,30-16.9,45.9c-5.6,22.7-6.5,46.5-3.3,69.6
		c3.2,21.8,10.3,42.9,20,62.7c-6,0-11.9,0-17.9,0c-11.7-17.7-20.7-37.4-25.4-58.2C2.2,97.5,3,72.9,9.6,50
		C14.7,32.4,23,15.8,33.4,0.8z"/>
	<path class="st0" d="M409.1,1.2c6,0,11.9,0,17.9,0c14.5,22.1,24.9,47.2,28.1,73.6c1.7,15.5,1,31.3-2.5,46.5
		c-4.6,20.8-13.8,40.5-25.9,58c-5.9,0-11.8,0-17.7,0c5.1-11.2,9.8-22.6,13.6-34.3c8-24.9,10.2-51.7,7-77.7
		C426.7,44.2,419.3,21.9,409.1,1.2z"/>
	<path class="st0" d="M325.6,40.4c15.7-4.1,31.5-8.1,47.2-12.3c0,9.3,0,18.6,0,27.9c10.6,0,21.3,0,31.9,0c0,5.5,0,11,0,16.6
		c-10.6,0-21.3,0-31.9,0c0,11.9,0,23.8,0,35.7c0.2,3.1,0.1,6.8,2.8,8.9c2.9,2,6.5,1.9,9.8,2c6.4,0.1,12.8-0.9,19.1-2
		c1.4,5.4,2.7,10.8,4.2,16.2c-7.7,1.4-15.4,2.2-23.2,2.7c-12.5,0.8-25.1,0.7-37.4-1.5c-6.6-1.3-13.9-3-18.4-8.4c-3.6-4-4-9.7-4-14.8
		c-0.1-12.9,0-25.8,0-38.7c-7.2,0-14.4,0-21.6,0c0-5.5,0-11-0.1-16.6c7.2,0,14.4,0,21.6,0C325.6,50.8,325.6,45.6,325.6,40.4z"/>
	<path class="st0" d="M104.8,61.1c12.6-5.6,26.4-7.8,40.1-7.8c11-0.1,22.1,0.6,32.6,3.9c5.9,1.8,11.5,4.6,16.3,8.6
		c8.5-5,17.9-8.4,27.6-10.3c10.7-2.2,21.7-2.4,32.5-1.9c10.2,0.7,20.7,1.9,30.1,6.3c5.7,2.7,10.9,7,13.2,13.1
		c1.8,4.6,1.6,9.6,1.6,14.4c0,15.6,0,31.3,0,46.9c-14.7,0-29.3,0-44,0c0-15,0-29.9,0-44.9c0-4.6,0.1-9.7-2.9-13.6
		c-3.3-4.2-9-5.5-14.1-6.1c-9.3-0.8-19.1,0-27.7,3.9c-5.8,2.5-10,8-11.1,14.2c-0.7,3.3-0.6,6.7-0.6,10c0,12.2,0,24.3,0,36.4
		c-14.6,0-29.3,0-43.9,0c0-15,0-29.9,0-44.9c0-3.9,0.1-7.8-1.2-11.5c-0.9-2.6-3-4.8-5.5-5.9c-4-1.9-8.6-2.3-13-2.4
		c-7.8-0.3-15.8,0.6-23.2,3.2c-3.4,1.2-6.8,3-9.1,6c-2.1,2.4-3.2,5.5-3.8,8.7c-0.8,4.8-0.5,9.7-0.6,14.6c0,10.8,0,21.6,0,32.4
		c-14.6,0-29.2,0-43.9,0c0-26.4,0-52.8,0-79.1c13.6,0,27.1,0,40.6,0c0,3.7,0,7.3,0,11C98.4,64.3,101.5,62.5,104.8,61.1z"/>
	<path class="st0" d="M164.9,148.4c1.9,0,3.8,0,5.7,0c0,7.7,0,15.3,0,23c-1.8,0-3.6,0-5.4,0c0-0.7,0-1.4,0-2.1
		c-3.7,2.6-8.4,2.7-12.8,2.3c-3.6-0.5-7.4-1.6-9.8-4.5c-1.9-2.2-1.9-5.7-0.1-8c2.1-2.8,5.6-3.9,8.9-4.4c4.5-0.5,9.5-0.4,13.5,2
		C165,153.8,164.9,151.1,164.9,148.4 M152.2,157.1c-2.6,0.6-4.9,2.8-4.9,5.6c-0.3,2.6,1.7,4.8,4,5.7c3.8,1.5,8.5,1.4,12-0.9
		c3.2-2.1,2.7-7.3-0.3-9.2C159.8,156.3,155.7,156.3,152.2,157.1z"/>
	<path class="st0" d="M176.3,148.3c1.9,0,3.8,0,5.7,0c0,1.1,0,2.2,0,3.3c-1.9,0-3.8,0-5.7,0C176.3,150.5,176.3,149.4,176.3,148.3z"
		/>
	<path class="st0" d="M359.4,148.3c3,0,6,0,9,0c0,7.7,0,15.3,0,23c-3,0-6,0-9,0C359.4,163.7,359.4,156,359.4,148.3z"/>
	<path class="st0" d="M221.2,151.4c3-0.9,6-1.8,9.1-2.6c0,2,0,3.9,0,5.9c2,0,4,0,6,0c0,1.2,0,2.3,0,3.5c-2,0-4,0-6,0
		c0,2.9-0.1,5.7,0.1,8.6c0,0.8,1,1.2,1.7,1.3c1.4,0.1,2.9-0.2,4.3-0.4c0.3,1.1,0.5,2.3,0.8,3.5c-4.3,0.7-8.7,1.1-12.9-0.1
		c-1.5-0.4-2.8-1.7-2.9-3.3c-0.2-3.2,0-6.3-0.1-9.5c-1.4,0-2.7,0-4.1,0c0-1.2,0-2.4,0-3.5c1.4,0,2.7,0,4.1,0
		C221.2,153.6,221.2,152.5,221.2,151.4z"/>
	<path class="st0" d="M64.4,157c3.9-2.8,9-3,13.7-2.6c2.3,0.2,4.6,1,6.3,2.6c4.3-3,9.9-3.1,14.9-2.5c2.5,0.4,5.6,1.7,5.9,4.6
		c0.1,4,0,8.1,0,12.1c-1.9,0-3.9,0-5.8,0c-0.1-3.9,0.1-7.7-0.1-11.6c-0.1-1.7-1.8-2.6-3.3-2.8c-2.7-0.3-5.5-0.3-8.1,0.8
		c-1.5,0.6-2.8,1.9-2.8,3.5c-0.1,3.4,0,6.7,0,10.1c-1.9,0-3.8,0-5.7,0c0-3.8,0.1-7.7,0-11.5c-0.1-1.7-1.8-2.7-3.3-2.8
		c-2.7-0.3-5.5-0.3-8.1,0.8c-1.8,0.7-2.9,2.6-2.9,4.5c0,3,0,6.1,0,9.1c-1.9,0-3.8,0-5.8,0c0-5.6,0-11.1,0-16.7c1.7,0,3.4,0,5.1,0
		C64.4,155.4,64.4,156.2,64.4,157z"/>
	<path class="st0" d="M112.9,156.7c4.6-2.4,10-2.6,15.1-2.2c3.6,0.4,7.5,1.3,10.1,4.1c1.3,1.4,1.6,3.3,1.7,5.1c-8.5,0.1-17,0-25.5,0
		c0.7,3.5,4.4,5.1,7.6,5.5c4.1,0.6,9,0.2,11.8-3.2c2,0.1,3.9,0.2,5.9,0.3c-2.3,3.8-7,4.8-11.1,5.3c-4.9,0.4-10.1,0.3-14.7-1.7
		c-2.5-1-4.9-3.2-5.2-6.1C108.2,160.8,110.3,158,112.9,156.7 M120.2,157.1c-2.4,0.5-4.7,1.9-5.5,4.3c6.5,0,12.9,0,19.4,0
		c-0.5-1.1-1-2.4-2.2-3C128.3,156.4,124,156.2,120.2,157.1z"/>
	<path class="st0" d="M186.5,159.5c1.8-3.6,6-4.4,9.6-4.9c4.2-0.4,8.4-0.4,12.5,0.1c2.2,0.4,5,1,6.1,3.3c1.1,4.4-1.2,9.7,2,13.4
		c-2-0.1-4,0-6,0c-0.4-0.7-0.8-1.3-1.2-2c-5.5,2.3-11.7,2.9-17.6,2c-2.2-0.4-4.7-1-5.9-3c-0.8-1.3-0.2-3.1,1.1-3.9
		c2-1.4,4.6-1.9,7-2.2c5.1-0.6,10.2-0.6,15.3-1.4c0-1.4-0.6-2.9-2.1-3.3c-3.7-1.1-7.7-1-11.5-0.3c-1.6,0.3-2.7,1.3-3.6,2.6
		C190.2,159.7,188.4,159.6,186.5,159.5 M197.4,164.2c-1.7,0.2-3.6,0.3-5,1.4c-0.9,0.6-0.7,2,0.2,2.5c2.3,1.5,5.2,1.3,7.9,1.2
		c2.7-0.3,5.6-0.7,7.7-2.5c1.1-0.9,1-2.5,1.2-3.9C205.4,163.6,201.4,163.9,197.4,164.2z"/>
	<path class="st0" d="M240.6,156.4c4.6-2.3,9.9-2.3,14.9-1.9c3.7,0.4,7.8,1.4,10.2,4.5c1.2,1.5,1.6,3.4,1.6,5.3
		c-7.5-0.1-15,0.1-22.5-0.1c0.4,2.2,2.6,3.5,4.7,3.8c2.9,0.5,6.5,0.5,8.5-2c3,0.2,5.9,0.5,8.9,0.7c-2.8,3.6-7.6,4.5-12,4.9
		c-4.7,0.2-9.7,0.1-14.1-1.8c-2.8-1.2-5.3-3.9-5.1-7.1C235.9,159.8,238.2,157.6,240.6,156.4 M244.9,161.4c4.6,0.1,9.2,0.1,13.8,0
		c-0.7-2.6-3.3-3.6-5.7-3.7C249.9,157.5,245.9,158.1,244.9,161.4z"/>
	<path class="st0" d="M278,156.9c4.4-2.7,9.9-3,14.9-2.3c1.9,0.3,3.6,1.1,5.2,2.2c4.7-2.7,10.3-3,15.5-2.1c2.5,0.5,5.4,1.8,5.7,4.7
		c0.1,4,0,7.9,0.1,11.9c-3,0-6,0-9,0c0-3.5,0.1-7.1,0-10.6c0.1-1.1-0.7-2.2-1.7-2.6c-2.1-0.7-4.5-0.5-6.6,0.1
		c-1.5,0.5-2.8,1.8-2.9,3.4c-0.4,3.2,0.1,6.4-0.2,9.6c-3,0-5.9,0-8.9,0c0-3.4,0-6.7,0-10.1c0-1.2-0.2-2.6-1.5-3.1
		c-2.3-0.8-4.8-0.5-7,0.1c-1.6,0.4-2.8,1.8-2.9,3.5c-0.1,3.2,0,6.4-0.1,9.6c-3,0-6,0-9,0c0-5.6,0-11.1,0-16.7c2.8,0,5.6,0,8.4,0
		C278,155.4,278,156.2,278,156.9z"/>
	<path class="st0" d="M332,157.1c4.4-2.8,9.8-3.3,14.8-2.5c2.9,0.5,6,1.6,8.1,3.8s2.5,5.9,0.8,8.4c-1.5,2.3-4.2,3.5-6.8,4.1
		c-5.4,1.2-11.3,1.1-16.2-1.6c0,2.7,0,5.4,0,8.2c-3,0-6,0-9,0c0-7.6,0-15.3,0-22.9c2.8,0,5.6,0,8.4,0C332,155.5,332,156.3,332,157.1
		 M337.2,158.1c-1.4,0.4-2.8,1-3.8,2.1c-1.7,2.2-1.1,5.9,1.6,7c3.1,1.4,6.8,1.5,9.9,0c3-1.4,3.4-6.2,0.6-8.1
		C343.1,157.5,340,157.7,337.2,158.1z"/>
	<path class="st0" d="M376,156.2c4.5-2.1,9.6-2.1,14.5-1.7c3.6,0.4,7.5,1.3,10,4.2c1.4,1.5,1.8,3.5,1.9,5.5
		c-3.2,0.2-6.3-0.1-9.5,0.1c-4.4,0.2-8.8-0.3-13.2,0.1c0.7,1.6,1.9,3,3.7,3.4c3.2,0.9,7.4,1.1,9.7-1.8c2.9,0.2,5.9,0.5,8.8,0.7
		c-2.7,3.6-7.5,4.5-11.7,4.8c-5,0.2-10.2,0.2-14.8-1.9c-2.8-1.3-5.1-4.2-4.7-7.4C371.3,159.4,373.6,157.4,376,156.2 M379.9,161.4
		c4.6,0.1,9.2,0.1,13.8,0c-0.6-2.6-3.4-3.6-5.8-3.8C385,157.5,381,158.1,379.9,161.4z"/>
	<path class="st0" d="M176.3,154.6c1.9,0,3.8,0,5.7,0c0,5.6,0,11.1,0,16.7c-1.9,0-3.8,0-5.7,0C176.3,165.8,176.3,160.2,176.3,154.6z
		"/>
</g>
</svg>
