<?xml version="1.0" encoding="utf-8"?>
<!-- Generator: Adobe Illustrator 22.0.1, SVG Export Plug-In . SVG Version: 6.00 Build 0)  -->
<svg version="1.1" id="图层_1" xmlns="http://www.w3.org/2000/svg" xmlns:xlink="http://www.w3.org/1999/xlink" x="0px" y="0px"
	 viewBox="0 0 270 70" style="enable-background:new 0 0 270 70;" xml:space="preserve">
<style type="text/css">
	.st0{fill:#FF5100;}
	.st1{fill:url(#SVGID_1_);}
	.st2{fill:url(#SVGID_2_);}
	.st3{fill:#FF8C44;}
	.st4{fill:#6E6F71;}
</style>
<path class="st0" d="M82.3,11.7c-2.9,0-5.5,1.6-6.9,4.1l-0.2,0.3l-6.1,12.2l-7.8,15.4l5.1,10.1l0.3,0.5c0.8,1.4,2,2.5,3.4,3.2
	c1.4-0.7,2.6-1.8,3.4-3.2l0.3-0.5l15.3-30.3l0.4-0.7c1.7-4-0.1-8.6-4.1-10.3C84.4,12,83.4,11.8,82.3,11.7L82.3,11.7z"/>
<path class="st0" d="M34.9,26.3l-5.1-10l-0.3-0.6c-0.8-1.4-2-2.5-3.4-3.2c-1.4,0.7-2.6,1.8-3.4,3.2l-0.3,0.6L7.2,46.5l-0.4,0.7
	c-1.8,4,0,8.6,4,10.4c3.7,1.7,8.1,0.2,10.1-3.4l0.2-0.3l6.2-12.2L34.9,26.3L34.9,26.3z"/>
<linearGradient id="SVGID_1_" gradientUnits="userSpaceOnUse" x1="66.0753" y1="-704.4976" x2="86.0649" y2="-661.6326" gradientTransform="matrix(1 0 0 -1 -1 -649.28)">
	<stop  offset="0" style="stop-color:#D4202C"/>
	<stop  offset="0.1" style="stop-color:#DC3D29;stop-opacity:0.79"/>
	<stop  offset="0.2" style="stop-color:#E45926;stop-opacity:0.58"/>
	<stop  offset="0.32" style="stop-color:#EA7123;stop-opacity:0.4"/>
	<stop  offset="0.43" style="stop-color:#F08521;stop-opacity:0.25"/>
	<stop  offset="0.55" style="stop-color:#F4941F;stop-opacity:0.14"/>
	<stop  offset="0.68" style="stop-color:#F79F1E;stop-opacity:6.000000e-02"/>
	<stop  offset="0.82" style="stop-color:#F8A51D;stop-opacity:2.000000e-02"/>
	<stop  offset="1" style="stop-color:#F9A71D;stop-opacity:0"/>
</linearGradient>
<path class="st1" d="M82.3,11.7c-2.9,0-5.5,1.6-6.9,4.1l-0.2,0.3L69,28.3l-7.8,15.4l5.1,10.1l0.3,0.5c0.8,1.4,2,2.5,3.4,3.2
	c1.4-0.7,2.6-1.8,3.4-3.2l0.3-0.5l15.4-30.3l0.4-0.7c1.7-4-0.1-8.6-4.1-10.3C84.4,12,83.3,11.8,82.3,11.7L82.3,11.7z"/>
<linearGradient id="SVGID_2_" gradientUnits="userSpaceOnUse" x1="751.4" y1="484.9724" x2="771.4075" y2="527.8756" gradientTransform="matrix(-1 0 0 1 782.5 -470.11)">
	<stop  offset="0" style="stop-color:#D4202C"/>
	<stop  offset="0.1" style="stop-color:#DC3D29;stop-opacity:0.79"/>
	<stop  offset="0.2" style="stop-color:#E45926;stop-opacity:0.58"/>
	<stop  offset="0.32" style="stop-color:#EA7123;stop-opacity:0.4"/>
	<stop  offset="0.43" style="stop-color:#F08521;stop-opacity:0.25"/>
	<stop  offset="0.55" style="stop-color:#F4941F;stop-opacity:0.14"/>
	<stop  offset="0.68" style="stop-color:#F79F1E;stop-opacity:6.000000e-02"/>
	<stop  offset="0.82" style="stop-color:#F8A51D;stop-opacity:2.000000e-02"/>
	<stop  offset="1" style="stop-color:#F9A71D;stop-opacity:0"/>
</linearGradient>
<path class="st2" d="M14,58.3c2.8,0,5.5-1.5,6.9-4l0.2-0.3l6.2-12.2l7.8-15.4L30,16.3l-0.3-0.6c-0.8-1.4-2-2.5-3.4-3.2
	c-1.4,0.7-2.6,1.8-3.4,3.2l-0.3,0.6L7.1,46.5l-0.4,0.7c-1.7,4,0.1,8.6,4.1,10.3C11.8,58,12.8,58.3,14,58.3L14,58.3z"/>
<path class="st3" d="M34.9,26.3l-5.1-10l-0.3-0.6c-0.8-1.4-2-2.5-3.4-3.2c0.5-0.2,1-0.4,1.5-0.6c0.7-0.2,1.3-0.2,2-0.2h10.7
	c2.8,0,5.5,1.5,6.9,4l0.3,0.6l13.8,27.4l5.1,10l0.3,0.5c0.8,1.4,2,2.5,3.4,3.3c-1.1,0.5-2.3,0.8-3.5,0.8H55.9c-2.8,0-5.4-1.5-6.8-4
	l-0.3-0.5L34.9,26.3z"/>
<path class="st4" d="M103.1,35.5c0-0.4,0.3-0.8,0.7-0.8c0.1,0,0.1,0,0.2,0h0.6c0.4,0,0.8,0.3,0.8,0.7v0.1v1.9c0,0.4,0,0.8-0.1,1.2
	h0.1c1.2-2.7,3.9-4.4,6.8-4.4c4.2,0,5.7,2.4,5.7,6.5v9.9c0,0.4-0.3,0.8-0.7,0.8c-0.1,0-0.1,0-0.2,0h-0.6c-0.4,0-0.8-0.3-0.8-0.7
	c0-0.1,0-0.1,0-0.2v-9.3c0-2.7-0.4-5-3.7-5c-3.6,0-6.4,3-6.4,6.9v7.4c0.1,0.4-0.2,0.8-0.6,0.8c-0.1,0-0.1,0-0.2,0h-0.6
	c-0.4,0-0.8-0.3-0.8-0.7c0-0.1,0-0.1,0-0.2L103.1,35.5z"/>
<path class="st4" d="M130,41.2h1v-0.5c0-3.2-1.8-4.4-4.2-4.4c-1.4,0-2.9,0.4-4.1,1.2c-0.4,0.2-0.9,0.1-1.1-0.2c0,0,0,0,0-0.1
	l-0.2-0.3c-0.3-0.3-0.2-0.8,0.1-1.1l0.1-0.1c1.6-1,3.5-1.5,5.4-1.5c4,0,6.3,2.2,6.3,6.5v10c0.1,0.4-0.2,0.8-0.6,0.8
	c-0.1,0-0.1,0-0.2,0H132c-0.4,0.1-0.8-0.2-0.8-0.6c0-0.1,0-0.1,0-0.2v-1.4c0-0.4,0-0.9,0.1-1.3h-0.2c-0.9,2.3-3.2,3.9-5.7,3.9
	c-2.8,0-5.7-1.7-5.7-4.9C119.7,41.5,126.7,41.2,130,41.2z M125.8,50c3.2,0,5.2-3.3,5.2-6.3v-0.8h-0.9c-2.7,0-8,0.1-8,3.9
	C122,48.4,123.3,50,125.8,50z"/>
<path class="st4" d="M136.5,35.5c0-0.4,0.3-0.8,0.7-0.8c0.1,0,0.1,0,0.2,0h0.6c0.4,0,0.8,0.3,0.8,0.7v0.1v1.9c0,0.4,0,0.8-0.1,1.2
	h0.1c1.1-2.5,3.5-4.2,6.2-4.4c3.1,0,4.7,1.4,5.2,4.2l0,0c1.1-2.5,3.5-4.1,6.2-4.2c4.1,0,5.6,2.4,5.6,6.5v9.9c0,0.4-0.3,0.8-0.7,0.8
	c-0.1,0-0.1,0-0.2,0h-0.6c-0.4,0-0.8-0.3-0.8-0.7c0-0.1,0-0.1,0-0.2v-9.3c0-2.7-0.6-5-3.6-5c-3.4,0-5.7,3.5-5.7,7v7.3
	c0.1,0.4-0.2,0.8-0.6,0.8c-0.1,0-0.1,0-0.2,0H149c-0.4,0-0.8-0.3-0.8-0.7c0-0.1,0-0.1,0-0.2v-9.3c0-2.5-0.4-5-3.6-5
	c-3.4,0-5.8,3.6-5.8,7v7.3c0.1,0.4-0.2,0.8-0.6,0.8c-0.1,0-0.1,0-0.2,0h-0.6c-0.4,0-0.8-0.3-0.8-0.7c0-0.1,0-0.1,0-0.2L136.5,35.5z"
	/>
<path class="st4" d="M172.4,34.3c4.5,0,7,3.2,7,8c0,0.5-0.4,0.8-0.8,0.8l0,0h-12.1c0.1,4.3,3.1,6.7,6.5,6.7c1.6,0,3.2-0.6,4.4-1.5
	c0.3-0.3,0.7-0.3,1,0c0,0.1,0.1,0.1,0.1,0.2l0.3,0.4c0.2,0.4,0.1,0.8-0.2,1.1l0,0c-1.6,1.2-3.6,1.9-5.6,2c-4.7,0.2-8.6-3.5-8.8-8.2
	c0-0.2,0-0.4,0-0.6C164.1,37.6,167.8,34.3,172.4,34.3z M177.1,41.5c-0.1-3.5-2.3-5.3-4.8-5.3c-3,0-5.5,2.3-5.8,5.3H177.1z"/>
<path class="st4" d="M190.3,34.3c2,0,4,0.6,5.6,1.9c0.3,0.2,0.4,0.7,0.2,1c0,0.1-0.1,0.1-0.1,0.1l-0.2,0.4c-0.3,0.5-0.7,0.5-1.1,0.2
	c-1.2-1-2.7-1.5-4.3-1.5c-3.6,0-6.5,2.8-6.6,6.4c0,0.1,0,0.3,0,0.4c-0.1,3.6,2.6,6.6,6.2,6.8c0.1,0,0.3,0,0.4,0
	c1.7,0,3.4-0.6,4.7-1.8c0.3-0.3,0.7-0.3,0.9,0c0.1,0.1,0.1,0.1,0.2,0.2l0.2,0.3c0.3,0.4,0.2,0.9-0.2,1.1l0,0c-1.7,1.4-3.8,2.2-6,2.2
	c-4.7,0.2-8.7-3.5-8.8-8.2c0-0.2,0-0.4,0-0.6c-0.1-4.7,3.6-8.7,8.3-8.9C189.9,34.3,190.1,34.3,190.3,34.3z"/>
<path class="st4" d="M198.7,28.8c-0.1-0.4,0.2-0.8,0.6-0.8c0.1,0,0.1,0,0.2,0h0.6c0.4,0,0.8,0.3,0.8,0.7c0,0.1,0,0.1,0,0.2v8.4
	c0,0.5,0,0.9-0.1,1.4h0.1c1.2-2.6,3.8-4.3,6.7-4.3c4.2,0,5.7,2.4,5.7,6.5v9.9c0,0.5-0.3,0.8-0.8,0.8h-0.6c-0.4,0-0.8-0.3-0.8-0.7
	c0-0.1,0-0.1,0-0.2v-9.3c0-2.7-0.4-5-3.7-5c-3.6,0-6.4,2.9-6.4,7v7.3c0,0.4-0.3,0.8-0.7,0.8c-0.1,0-0.1,0-0.2,0h-0.6
	c-0.4,0-0.8-0.2-0.8-0.6c0-0.1,0-0.1,0-0.2V28.8z"/>
<path class="st4" d="M223.9,34.3c4.5,0,7,3.2,7,8c0,0.5-0.4,0.8-0.8,0.8l0,0H218c0.1,4.3,3.1,6.7,6.5,6.7c1.6,0,3.2-0.6,4.4-1.5
	c0.3-0.3,0.7-0.3,1,0c0.1,0.1,0.1,0.1,0.1,0.2l0.3,0.4c0.2,0.4,0.2,0.8-0.2,1.1l0,0c-1.6,1.2-3.6,1.9-5.6,2
	c-4.7,0.2-8.7-3.5-8.8-8.2c0-0.2,0-0.4,0-0.6C215.5,37.6,219.3,34.3,223.9,34.3z M228.6,41.5c-0.1-3.5-2.3-5.3-4.8-5.3
	c-3,0-5.5,2.3-5.8,5.3H228.6z"/>
<path class="st4" d="M242.2,41.2h1v-0.5c0-3.2-1.8-4.4-4.2-4.4c-1.4,0-2.9,0.4-4.1,1.2c-0.4,0.2-0.9,0.1-1.1-0.2l0,0l-0.2-0.3
	c-0.3-0.3-0.2-0.8,0.1-1.1l0.1-0.1c1.6-1,3.5-1.5,5.4-1.5c4,0,6.3,2.2,6.3,6.5v10c0.1,0.4-0.2,0.8-0.6,0.8c-0.1,0-0.1,0-0.2,0h-0.6
	c-0.4,0.1-0.8-0.2-0.8-0.6c0-0.1,0-0.1,0-0.2v-1.4c0-0.4,0-0.9,0.1-1.3h-0.1c-0.9,2.3-3.2,3.8-5.7,3.9c-2.9,0-5.7-1.7-5.7-4.9
	C231.9,41.5,239,41.2,242.2,41.2z M238,50c3.2,0,5.2-3.3,5.2-6.3v-0.8h-0.9c-2.6,0-8,0.1-8,3.9C234.3,48.4,235.5,50,238,50z"/>
<path class="st4" d="M248.7,35.5c-0.1-0.4,0.2-0.8,0.6-0.8c0.1,0,0.1,0,0.2,0h0.5c0.4-0.1,0.8,0.2,0.8,0.6v0.1v1.2
	c0,0.4,0,0.8-0.1,1.1h0.1c1.1-2.2,3.4-3.6,5.9-3.5c4.5,0,7.3,3.6,7.3,8.8s-3.2,8.9-7.6,8.9c-2.4,0-4.5-1.3-5.6-3.4h-0.1
	c0.1,0.5,0.1,1,0.1,1.5v7.4c0,0.4-0.3,0.8-0.7,0.8c-0.1,0-0.1,0-0.2,0h-0.6c-0.4,0-0.8-0.3-0.8-0.7c0-0.1,0-0.1,0-0.2V35.5H248.7z
	 M256.3,49.9c3,0,5.5-2.5,5.5-6.8c0-4.1-2.2-6.8-5.3-6.8c-2.8,0-5.5,2-5.5,6.8C251,46.6,252.8,49.9,256.3,49.9L256.3,49.9z"/>
</svg>
