<?xml version="1.0" encoding="utf-8"?>
<!-- Generator: Adobe Illustrator 22.0.1, SVG Export Plug-In . SVG Version: 6.00 Build 0)  -->
<svg version="1.1" id="Layer_1" xmlns="http://www.w3.org/2000/svg" xmlns:xlink="http://www.w3.org/1999/xlink" x="0px" y="0px"
	 viewBox="0 0 1200 320" style="enable-background:new 0 0 1200 320;" xml:space="preserve">
<style type="text/css">
	.st0{fill:#74DCFF;}
</style>
<path class="st0" d="M1191,62h-42l-76.5,76L997,62H765v193h29.5v-75.5h130V150h-130V92h163V64.5l94,94.5L955,255h42l75.5-75l75,75.5
	h42l-96-96.5L1191,62z"/>
<path d="M133.5,247c-63,0-110-67-74.5-133.5c5.5-10,13.5-18.5,23-24.5c66-42,137,5.5,138.5,69v4C219,209,180,247,133.5,247z M586,62
	H399v28.5c-19.5-21-46.5-34-76-34c-32.5,0-63,15.5-82,41c-33.5-57-109-82-177.5-41.5c-17,10-31,25.5-40,43.5
	C-21.5,192,45,284,133,284c45,0,85.5-24,107.5-62C271,262.5,329,277.5,380,246.5c16.5-10,28.5-25,36-42.5l7-16.5h-40l-2.5,4.5
	C369,213,347,226,323,226c-35.5,0-65-28.5-65.5-64v-3.5c1-35.5,30.5-64,66-64c21,0,40,9.5,52.5,26.5l2.5,3.5H421l-7-12.5l-7.5-12h68
	v156h37V99.5h75V62L586,62z M646,117l30,58h-57.5C618.5,175,646,117,646,117z M540.5,255h39l26-51.5h82L715,255h38.5L646,50.5
	L540.5,255z"/>
</svg>
