<?xml version="1.0" encoding="utf-8"?>
<!-- Generator: Adobe Illustrator 22.0.1, SVG Export Plug-In . SVG Version: 6.00 Build 0)  -->
<svg version="1.1" id="图层_1" xmlns="http://www.w3.org/2000/svg" xmlns:xlink="http://www.w3.org/1999/xlink" x="0px" y="0px"
	 viewBox="0 0 1120 450" style="enable-background:new 0 0 1120 450;" xml:space="preserve">
<style type="text/css">
	.st0{fill:#FF4800;}
	.st1{fill:#333333;}
</style>
<g id="_x23_ff4800ff">
	<path class="st0" d="M627.6,28.2c10.4-2.4,21.2-2.8,31.8-2.1c16.6,1.1,32.6,8.4,44.8,19.8c3.7,3.5,7.9,7.4,8.5,12.7
		c0.5,4.5-4,7.4-7.7,8.4c-6.4,1.6-13,2.1-19.5,3.4c-39.1,7.4-77.3,20-113.2,37.3c-31.9,15.4-61.6,35.2-87.9,59.1
		c-34.5,30.7-66.5,64.3-96,99.9c-28.7,34.8-55.1,71.7-76.6,111.4c-8,14.9-15.4,30.2-21.4,46c-5.5-1.1-10.7-4.8-12-10.5
		c-2.2-9.5,0.7-19.2,3.5-28.3c9.6-30.9,23.7-60.3,40.2-88.2c27.9-47.4,62.7-90.5,100.3-130.5C464.6,122.7,511,81.5,565,52.5
		C584.7,41.9,605.5,32.6,627.6,28.2z"/>
	<path class="st0" d="M304.9,50.1c1.8-1.4,4.2-0.2,6.1,0.2c6.1,1.8,10.1,7,14.3,11.5c20.3,23.3,32.7,53.2,34.9,84
		c2,22.1-1.5,44.3-8.6,65.2c-1.5,4.1-3.8,8.3-7.5,10.7c-2.4,1.4-5.1-0.2-6.6-2.1c-2.8-3.2-4.9-7.1-5.7-11.4
		c-9.4-42-18.6-84.2-25.3-126.7c-1.5-9.3-2.4-18.6-3.3-27.9C303.3,52.3,303.7,50.8,304.9,50.1z"/>
</g>
<g id="_x23_333333ff">
	<path class="st1" d="M52.2,141.8c13.8-2.9,28-3.6,42.2-3.8c17.4,0,35.7,2.3,50.4,12.4c10.3,6.8,17.5,18.1,19.1,30.4
		c2.6,14.5,0.2,29.8-6.9,42.7c-7,13.4-18.8,24.2-32.7,30.2c-18.8,8.1-39.8,10.6-60,7.8c-1.5-0.2-4-1-4,1.4
		c-4.3,23.3-9.4,46.5-13.5,69.8c-0.1,2.4-2.7,1.6-4.3,1.7c-10.4-0.1-20.8,0.1-31.2-0.1c1.7-0.9,2.8-2.6,3.1-4.5
		c8.3-44.8,16.3-89.7,25.1-134.5c3.2-16.8,6.2-33.6,9.4-50.4C49,143,50.5,141.9,52.2,141.8 M80.7,166.4c-2.4,0.1-2.2,3-2.7,4.7
		c-3.6,20.6-7.8,41-11.6,61.5c13.9,3,29.3,3,42.1-3.8c7.4-3.8,13.9-9.8,17.7-17.2c4.8-9.3,6-20.5,2.5-30.5
		c-2.3-6.1-7.6-10.8-13.6-13.1C104.1,164,92.1,164.7,80.7,166.4z"/>
	<path class="st1" d="M202.1,200.5c27.9-13.8,60.8-12.5,90-3.9c-4.9,21.1-8.7,42.4-13.1,63.6c-4.9,24.3-8.2,49.1-7.5,74
		c-10.5,0.3-21.1,0.3-31.6,0c0-10.4,1.5-20.8,2.2-31.2c-7.3,13-17.5,25.2-31.6,31c-13.1,5.4-29,5.2-41.2-2.4
		c-9.4-5.9-15.5-16.1-18.1-26.7c-3.2-13.8-1.7-28.3,1.5-41.9C159.7,236.6,177.4,212.6,202.1,200.5 M231.7,217.4
		c-12.7,2.4-22.7,11.4-30.7,21.1c-12,14.8-17,34.5-15,53.2c1.1,6.4,4.1,13.1,10,16.3c6.9,3.7,15.5,2.4,22-1.6
		c9.1-5.6,15.5-14.6,20.2-24c8.8-17.8,10.5-37.8,14.7-56.9c0.3-2.6,1.6-5.2,0.8-7.8C246.5,216,238.9,216,231.7,217.4z"/>
	<path class="st1" d="M516.8,191.5c16.3-2.9,34.1-0.7,48,8.8c14.6,9.7,22.4,27.3,23.2,44.5c0.4,13.1-1.8,26.2-6.1,38.5
		c-5.8,16.2-16.5,30.7-30.5,40.7c-14.7,10.5-33.2,15.3-51.2,13.9c-14.9-1.4-29.9-7.8-39.3-19.8c-8.4-10.8-12.6-24.6-12.3-38.3
		c0-21.5,6.6-43.4,20.5-60.1C480.9,204.9,498,194.3,516.8,191.5 M521.6,217c-12,2.2-21.2,11.8-27,22.1c-7,12.7-10.8,27.2-10.5,41.7
		c0.2,8.7,2.9,17.8,9.3,24c6.4,6.4,16.4,8.1,25,6c8.5-2.4,15.4-8.5,20.5-15.5c9.7-14.2,14.7-31.5,14.5-48.6c-0.3-8.4-3-16.9-8.9-23
		C538.7,217.6,529.7,215.6,521.6,217z"/>
	<path class="st1" d="M684.7,192c10.7-2.3,22.6-2.6,32.4,3c8.3,4.6,13.9,13.2,15.8,22.5c2.8,13.7,1.1,27.9-1.8,41.5
		c-4.3,23.7-8.8,47.4-13.4,71.1c-0.6,1.3-0.3,4-2.3,4c-10.9,0.2-21.8,0-32.8,0.1c5.1-28.4,11.2-56.7,16-85.2
		c0.8-7.8,1.8-16.3-1.8-23.6c-2.9-6.1-10.3-8.2-16.5-7.6c-8,0.9-15.2,5.6-20.6,11.3c-10.4,11.1-16.7,25.7-19,40.6
		c-4.1,21.7-7.9,43.4-12.3,65c-11.2,0.1-22.4,0-33.6,0c3.6-22.6,8.4-44.9,12.4-67.4c3.8-21.4,8.6-42.6,11.5-64.2
		c0.4-3.2,0.9-6.3,1.5-9.5c10-0.1,20.1-0.1,30.2,0c-0.4,8.2-2,16.3-2.4,24.5C656.5,205.4,669.5,195.4,684.7,192z"/>
	<path class="st1" d="M811.6,192c10.8-2.2,22.2-2.4,33,0.5c12.2,3.4,23.3,12.5,26.9,24.9c2.7,9.8,2.7,20.7-1.5,30
		c-4.2,9.4-12.8,15.9-22,20c-21,9.5-44.6,9.3-67.2,9.6c0.2,7.2,1.2,14.8,5.1,21c4.5,6.9,12.4,11,20.4,12c15.9,1.8,32.2-1.7,46.4-8.8
		c1.2,8.2,2.3,16.5,3.3,24.8c-8.8,5-18.7,7.6-28.6,9.6c-9.6,2-19.5,2.7-29.2,1.8c-15.9-0.6-31.9-8.4-40.8-21.9
		c-8.4-12.9-10.6-28.8-9.3-43.9c1.9-18.7,8.5-37.1,20.3-51.9C779.4,206.3,794.5,195.7,811.6,192 M808.8,219.2
		c-12.3,6.3-20.5,18.7-23.8,31.9c9.9,0.4,19.8,0,29.7-1.2c7.4-1.3,15.1-3,21.2-7.6c6.1-4.3,7.9-13.5,3.9-19.8
		c-2.3-3.5-6.3-5.6-10.3-6.2C822.4,215.2,815,215.9,808.8,219.2z"/>
	<path class="st1" d="M912.8,207.2c12.9-10.9,29.7-16.9,46.5-16.7c12.6-0.4,25.6,3.7,34.8,12.4c11,10.9,13.2,28.5,7.9,42.6
		c-5,12.7-17.4,20.9-30,24.8c-19.3,6.4-39.8,6.7-59.9,6.8c-1,10,2.3,21,10.4,27.3c6.4,5,14.8,6.4,22.7,6.7c13.4,0,26.5-3.5,38.6-9.3
		c0.9,8.2,2.8,16.4,2.9,24.7c-4.7,3.1-10.1,4.6-15.4,6.3c-17.9,5.2-37.4,7.3-55.6,2c-13.3-3.8-25.3-13.2-30.9-26.1
		c-7.9-18.2-7.3-39.3-1.2-58C889.1,234,899,218.4,912.8,207.2 M938,220.4c-11.3,6.6-18.7,18.4-22.2,30.8c10,0.5,20.1,0,30-1.3
		c8.2-1.3,17.1-3.4,23.1-9.6c6-6.2,4.8-18.1-3.2-21.9C956.9,214.1,946.2,215.8,938,220.4z"/>
	<path class="st1" d="M1089,192.4c6.3-2.2,13.1-2,19.7-1.8c-2.1,11.2-4.5,22.5-7,33.6c-9.4-0.7-19.4,0.9-26.9,7
		c-13,10.2-19.3,26.5-23.1,42.1c-3.8,19.3-7.8,38.6-11.2,58c-0.5,1.3-0.5,3.8-2.3,3.6c-10.7,0.2-21.4,0.1-32.1,0
		c5.3-29.3,11.2-58.5,16.8-87.8c2.8-15.7,4.8-31.6,6.5-47.5c0.3-1.9,0.3-3.9,1.2-5.6c3.4-0.9,7.1-0.5,10.6-0.6
		c6.1,0.1,12.2-0.4,18.3,0.5c-0.6,9.5-2.3,18.8-2.5,28.3c3.2-4.1,5.5-8.9,8.8-12.9C1072.1,202,1079.8,195.4,1089,192.4z"/>
</g>
</svg>
