<?xml version="1.0" encoding="utf-8"?>
<!-- Generator: Adobe Illustrator 22.0.1, SVG Export Plug-In . SVG Version: 6.00 Build 0)  -->
<svg version="1.1" id="图层_1" xmlns="http://www.w3.org/2000/svg" xmlns:xlink="http://www.w3.org/1999/xlink" x="0px" y="0px"
	 viewBox="0 0 240 80" style="enable-background:new 0 0 240 80;" xml:space="preserve">
<style type="text/css">
	.st0{fill:#1E7DC1;}
	.st1{fill:#1E7EC2;}
	.st2{fill:#1F7CC0;}
	.st3{fill:#1F7DC1;}
	.st4{fill:#1E7DC2;}
	.st5{fill:#1D7DC1;}
	.st6{fill:#017DC5;}
</style>
<g id="_x23_1e7dc1ff">
	<path class="st0" d="M138.9,18.6c0.8-7,8.1-11.9,14.9-10.7c4.6,0.3,9.7,3.7,9.9,8.7c0.1,4.2-3.3,7.2-6,10c4.5,2.4,8.6,6.5,8.5,12
		c0.3,5.1-2.9,9.5-6.8,12.5c-1.9-0.1-3.8-0.2-5.7-0.3c2.4-1.3,5-2.7,6.1-5.3c1.4-3.8,0.7-8.6-2.7-11.1c-3.3-2.8-7.9-2.7-12-3.7
		c3.3-1.4,7.2-2.1,9.7-4.9c2.5-2.7,3.4-7.3,1-10.3c-2.2-2.8-6.3-3.4-9.5-2.2C143.5,14.5,141.4,16.8,138.9,18.6z"/>
	<path class="st0" d="M116.9,28.4c2.8-4.2,8.1-6.8,13.1-5.1c3.7,1.3,4.5,5.9,3.8,9.3c-1.1,6.9-2.3,13.7-3.6,20.5c-2,0-3.9,0-5.8-0.1
		c1.1-7.1,3-14.2,3.5-21.4c0.3-4-5.1-4.6-7.3-2.2c-6.6,6-6,15.7-8.1,23.7c-1.9,0-3.8,0-5.7-0.1c1.3-9.9,4.2-19.7,4.4-29.7
		c1.8,0,3.5,0,5.3,0C116.6,25,116.8,26.7,116.9,28.4z"/>
	<path class="st0" d="M78.8,45.6C77,37,81.3,27,89.8,23.7c3.9-1.3,9.1-1.5,12.1,1.8c2.6,3.1,1.5,8.2-1.6,10.7
		c-4.6,3.7-10.7,4.3-16.3,5.3c0.8,2.4,1.3,5.3,3.7,6.5c4,1.6,8.4,0.1,12.4-0.9c0.2,1.6,0.3,3.2,0.5,4.9c-4.8,1.2-9.8,2.3-14.6,1.1
		C82.4,52.1,79.5,49.2,78.8,45.6 M90.6,28.4c-3.2,1.7-4.7,5.1-6,8.2c3.8-0.6,7.8-1,11.1-3.2c1.9-1.2,1.4-3.6,1.5-5.5
		C95.1,27.9,92.6,27.1,90.6,28.4z"/>
</g>
<g id="_x23_1e7ec2ff">
	<path class="st1" d="M171.6,8.9c9,0,18.1-0.1,27.1,0.1c-5,15-11,29.7-16,44.7c-1.6,0.1-3.2,0.2-4.8,0.2
		c4.8-13.2,9.7-26.3,14.4-39.5c-7.7,0-15.3,0-23,0C170.1,12.5,170.9,10.7,171.6,8.9z"/>
</g>
<g id="_x23_1f7cc0ff">
	<path class="st2" d="M209.9,9c5.9-0.2,11.8-0.1,17.8-0.1c-0.9,1.8-1.8,3.6-2.7,5.4c-4.8,0.1-9.6,0-14.4,0.1c-1,1.9-2,3.7-3,5.6
		c4.9,0.5,9.9,1.7,13.7,5c5.5,4.2,7.7,12.2,4.9,18.5c-2.4,5.5-8,8.9-13.8,10.1c-4.7,0.8-10.5,0.9-13.5-3.6c0.4-0.8,1.1-2.3,1.5-3.1
		c4.8-0.4,8.4,4.1,13.2,3.1c7.5-1,11.4-11.2,6.5-16.9c-4.6-5.8-12.6-6.5-19.5-7.1C203.7,20.3,206.9,14.7,209.9,9z"/>
</g>
<g id="_x23_1f7dc1ff">
	<path class="st3" d="M52.5,10.9c2,0,3.9,0,5.9,0.1c0,5.5-1,10.9-2.2,16.2c3.6-3.3,8.7-5.7,13.5-3.6c3.3,1.6,4,5.7,3.4,9
		c-1,6.9-2.3,13.7-3.7,20.5c-1.9,0-3.7,0-5.6,0c0.8-6.9,2.6-13.7,3.3-20.6c0.6-2.5-1.7-4.9-4.2-4.5c-4.2,0.2-6.6,4.3-7.7,7.8
		c-1.6,5.6-2.2,11.4-3.3,17.1C50,52.9,48,53,46.1,53C47.7,39,51.7,25.1,52.5,10.9z"/>
</g>
<g id="_x23_1e7dc2ff">
	<path class="st4" d="M21.6,11.8c6.1-0.7,12.9-1.6,18.3,1.7c6,4.4,4.9,13.8,0.7,19S29.3,38.3,23.2,38c-1,5-1.7,10-2.8,15
		c-1.9,0-3.8,0-5.7-0.1C16.5,39.2,19.4,25.6,21.6,11.8 M27.1,16.5c-1.5,5.4-2.1,11-3,16.5c3.6-0.1,7.6,0,10.5-2.4
		c3.6-3.5,4-9.5,0.8-13.4C32.7,16.7,29.9,16,27.1,16.5z"/>
</g>
<g id="_x23_1d7dc1ff">
	<path class="st5" d="M139.3,48.1c5.1-2,9.2,3.3,14.3,2.6c1.9,0.1,3.8,0.2,5.7,0.3c-5.7,2.6-12.2,3.7-18.3,2.2
		C138.8,52.9,137.1,49.7,139.3,48.1z"/>
</g>
<g id="_x23_017dc5ff">
	<path class="st6" d="M91.7,58.4c7.7-0.4,15.3-1.5,23-1.5c19.6-1.1,39.3-0.4,58.9-0.6c9-0.3,18,0.7,27,1.2c10.1,1.4,20.3,1.7,30.4,3
		c0,1.1-0.1,2.1-0.1,3.2c-0.5,0.3-1.4,1-1.9,1.3c-4.4-0.1-8.9-0.9-13.3-0.4c-10,1.3-20,0.5-30.1,0.3c-16.6-1.1-33.4-0.7-50-1.4
		c-22.4-0.5-44.6,2.2-67,2.8C55.9,67.6,43.1,69,30.3,70c-6.3,0.5-12.4,3-18.8,2c-2.4-0.5-2.1-3.4-2.5-5.3c11.2-3.3,23-3,34.5-4.5
		C59.6,59.9,75.7,59.5,91.7,58.4z"/>
</g>
</svg>
