<?xml version="1.0" encoding="utf-8"?>
<!-- Generator: Adobe Illustrator 22.0.0, SVG Export Plug-In . SVG Version: 6.00 Build 0)  -->
<svg version="1.1" id="Layer_1" xmlns="http://www.w3.org/2000/svg" xmlns:xlink="http://www.w3.org/1999/xlink" x="0px" y="0px"
	 viewBox="0 0 670 200" style="enable-background:new 0 0 670 200;" xml:space="preserve">
<style type="text/css">
	.st0{fill:#8D20A1;}
</style>
<g>
	<g>
		<g>
			<polygon class="st0" points="539.4,167.6 134,167.6 166.3,200 			"/>
			<path class="st0" d="M171.6,36.6v4.9c-7.5-4.8-14.3-7.6-23.5-7.6c-28.4,0-50,26-50,57.9c0,31.9,21.6,57.9,50,57.9
				c9.2,0,16-2.8,23.5-7.6v4.9h25V36.6H171.6z M148,123.1c-14,0-24.3-13.8-24.3-31.3c0-17.5,10.3-31.3,24.3-31.3
				c14,0,23.9,13.8,23.9,31.3C171.9,109.2,162.1,123.1,148,123.1z"/>
			<path class="st0" d="M371.5,36.6v64.8c0,12.2-8.3,22.4-20.5,22.4c-12.1,0-20.5-10.3-20.5-22.4V36.6h-25v64.8
				c0,26.6,18.1,48.2,44.7,48.2c12.3,0,21.2-6.8,21.2-6.8v4.1h25V36.6H371.5z"/>
			<path class="st0" d="M604.1,146.9V82.1c0-12.2,8.3-22.4,20.5-22.4c12.1,0,20.5,10.3,20.5,22.4v64.8h25V82.1
				c0-26.6-18.1-48.2-44.7-48.2c-12.3,0-21.2,6.8-21.2,6.8v-4.1h-25v110.3C579.2,146.9,604.1,146.9,604.1,146.9z"/>
			<path class="st0" d="M26.1,146.9v-42.7h18.5l32,42.7h32.7L70.6,95.4c12-8.7,19.9-22.8,19.9-38.7c0-26.2-21.3-47.5-47.4-47.5H0
				v137.8H26.1z M26.1,35.3h17c11.7,0,21.3,9.6,21.3,21.3c0,11.8-9.6,21.4-21.3,21.4h-17V35.3z"/>
			<path class="st0" d="M463.8,120.8c-2.2,1.5-5.1,2.7-8.3,2.7c-4.1,0-11.8-3.1-11.8-13.5V62.8H465V36.6h-21.3l0-27.5h-25l0,27.5
				h-13.2v26.2h13.2v47.6c0,24.6,18.5,39.4,37.1,39.4c6.9,0,16.6-2.3,24.4-6.9L463.8,120.8z"/>
			<polygon class="st0" points="258.6,88.3 301.4,36.6 266.4,36.6 236.5,75 236.5,0 210.7,0 210.7,146.9 236.5,146.9 236.5,101.6 
				273.3,146.9 308.2,146.9 			"/>
			<path class="st0" d="M521.4,33.8c-28.9,0-49.6,25.5-49.6,58c0,34.2,26,58,52.1,58c13.2,0,30-4.5,44.2-24.7l-22-12.8
				c-17.1,25.2-45.5,12.4-48.8-12.8l71.9,0C575.4,59.9,549.8,33.8,521.4,33.8z M543.2,77.5h-45C503.5,51.7,538.4,50.2,543.2,77.5z"
				/>
		</g>
	</g>
</g>
</svg>
