<?xml version="1.0" encoding="utf-8"?>
<!-- Generator: Adobe Illustrator 22.0.1, SVG Export Plug-In . SVG Version: 6.00 Build 0)  -->
<svg version="1.1" id="图层_1" xmlns="http://www.w3.org/2000/svg" xmlns:xlink="http://www.w3.org/1999/xlink" x="0px" y="0px"
	 viewBox="0 0 620 180" style="enable-background:new 0 0 620 180;" xml:space="preserve">
<style type="text/css">
	.st0{fill:#95BF47;}
	.st1{fill:#5E8E3E;}
	.st2{fill:#FFFFFF;}
</style>
<path class="st0" d="M136.6,36.3c-0.1-0.9-0.9-1.3-1.5-1.4s-13.7-1-13.7-1s-9.1-9-10-10c-1-1-2.9-0.7-3.7-0.5c-0.1,0-2,0.6-5.1,1.6
	c-2.9-8.7-8.3-16.7-17.7-16.7h-0.8c-2.7-3.5-6-5.1-8.8-5.1C53.4,3.3,43,30.6,39.7,44.5C31.2,47,25.2,49,24.4,49.1
	c-4.7,1.5-4.9,1.6-5.5,6.1C18.4,58.7,6,154.7,6,154.7l96.7,18.1l52.4-11.3C155.1,161.3,136.7,37.1,136.6,36.3z M97.3,26.6
	c-2.4,0.8-5.2,1.6-8.2,2.5v-1.8c0-5.4-0.8-9.8-2-13.2C92,14.9,95.3,20.4,97.3,26.6z M81.2,15.3c1.3,3.4,2.2,8.2,2.2,14.7v0.9
	c-5.3,1.6-11.1,3.4-16.9,5.2C69.8,23.6,75.9,17.5,81.2,15.3z M74.7,9.1c0.9,0,1.9,0.3,2.8,0.9c-7,3.3-14.5,11.6-17.7,28.2
	c-4.6,1.4-9.2,2.8-13.4,4.1C50.2,29.8,59,9.1,74.7,9.1z"/>
<path class="st1" d="M135.1,34.9c-0.6-0.1-13.7-1-13.7-1s-9.1-9-10-10c-0.4-0.4-0.9-0.6-1.4-0.6l-7.3,149.6l52.4-11.3
	c0,0-18.4-124.4-18.5-125.2C136.5,35.5,135.7,35,135.1,34.9z"/>
<path class="st2" d="M84.9,63.8L78.4,83c0,0-5.7-3-12.6-3c-10.2,0-10.7,6.4-10.7,8c0,8.8,22.9,12.1,22.9,32.7
	c0,16.2-10.3,26.6-24.1,26.6c-16.6,0-25.1-10.3-25.1-10.3l4.4-14.7c0,0,8.7,7.5,16.1,7.5c4.8,0,6.8-3.8,6.8-6.6
	c0-11.5-18.8-12-18.8-30.8c0-15.8,11.4-31.2,34.3-31.2C80.6,61.3,84.9,63.8,84.9,63.8z"/>
<path d="M216.2,99.8c-5.2-2.8-7.9-5.2-7.9-8.5c0-4.2,3.7-6.9,9.6-6.9c6.8,0,12.8,2.8,12.8,2.8l4.8-14.6c0,0-4.4-3.4-17.3-3.4
	c-18,0-30.5,10.3-30.5,24.8c0,8.2,5.8,14.5,13.6,19c6.3,3.6,8.5,6.1,8.5,9.9c0,3.9-3.1,7-9,7c-8.7,0-16.9-4.5-16.9-4.5l-5.1,14.6
	c0,0,7.6,5.1,20.3,5.1c18.5,0,31.8-9.1,31.8-25.5C231,110.8,224.3,104.6,216.2,99.8L216.2,99.8z M290,69.1
	c-9.1,0-16.3,4.3-21.8,10.9l-0.3-0.1l7.9-41.4h-20.6l-20,105.3h20.6l6.9-36c2.7-13.6,9.7-22,16.3-22c4.6,0,6.4,3.1,6.4,7.6
	c0,2.8-0.3,6.3-0.9,9.1l-7.8,41.2h20.6l8.1-42.6c0.9-4.5,1.5-9.9,1.5-13.4C306.8,76.1,300.7,69.1,290,69.1L290,69.1z M353.4,69.1
	c-24.8,0-41.2,22.4-41.2,47.3c0,16,9.9,28.8,28.4,28.8c24.3,0,40.8-21.8,40.8-47.3C381.4,83.1,372.7,69.1,353.4,69.1L353.4,69.1z
	 M343.3,129.3c-7,0-10-6-10-13.4c0-11.8,6.1-31.1,17.3-31.1c7.3,0,9.7,6.3,9.7,12.4C360.3,110.1,354.2,129.3,343.3,129.3z
	 M434.1,69.1c-13.9,0-21.8,12.2-21.8,12.2H412l1.2-11H395c-0.9,7.5-2.5,18.8-4.2,27.3l-14.3,75.4H397l5.7-30.5h0.4
	c0,0,4.2,2.7,12.1,2.7c24.2,0,40-24.8,40-49.9C455.3,81.4,449.1,69.1,434.1,69.1L434.1,69.1z M414.4,129.8c-5.4,0-8.5-3-8.5-3
	l3.4-19.3c2.4-12.8,9.1-21.4,16.3-21.4c6.3,0,8.2,5.8,8.2,11.3C433.8,110.8,425.9,129.8,414.4,129.8z M484.7,39.5
	c-6.6,0-11.8,5.2-11.8,11.9c0,6.1,3.9,10.3,9.7,10.3h0.3c6.4,0,11.9-4.3,12.1-11.9C495,43.9,491,39.5,484.7,39.5L484.7,39.5z
	 M455.9,143.8h20.6l14-73h-20.7 M542.9,70.6h-14.3l0.7-3.4c1.2-7,5.4-13.3,12.2-13.3c3.7,0,6.6,1,6.6,1l4-16.1c0,0-3.6-1.8-11.2-1.8
	c-7.3,0-14.6,2.1-20.2,6.9c-7,6-10.3,14.6-11.9,23.3l-0.6,3.4h-9.6l-3,15.5h9.6l-10.9,57.6H515l10.9-57.6h14.2L542.9,70.6
	L542.9,70.6z M592.5,70.8c0,0-12.9,32.5-18.7,50.2h-0.3c-0.4-5.7-5.1-50.2-5.1-50.2h-21.7l12.4,67c0.3,1.5,0.1,2.4-0.4,3.4
	c-2.4,4.6-6.4,9.1-11.2,12.4c-3.9,2.8-8.2,4.6-11.6,5.8l5.7,17.5c4.2-0.9,12.8-4.3,20.2-11.2c9.4-8.8,18.1-22.4,27-40.9l25.2-54
	L592.5,70.8L592.5,70.8z"/>
</svg>
