<?xml version="1.0" encoding="utf-8"?>
<!-- Generator: Adobe Illustrator 22.0.1, SVG Export Plug-In . SVG Version: 6.00 Build 0)  -->
<svg version="1.1" id="图层_1" xmlns="http://www.w3.org/2000/svg" xmlns:xlink="http://www.w3.org/1999/xlink" x="0px" y="0px"
	 viewBox="0 0 300 80" style="enable-background:new 0 0 300 80;" xml:space="preserve">
<style type="text/css">
	.st0{fill:#333230;}
	.st1{fill:#88BE48;}
	.st2{fill:#FFFFFF;}
</style>
<title>logo-2018</title>
<path class="st0" d="M69.9,21.9c-4.3-7.2-14.1-3.1-12,5.2C60.7,38.2,74.3,41,79.3,50.9c2.8,5.5,1,10.9-3.2,13.3
	c-4.2,2.4-11.6,3.4-16.1,0.1c-2.2-1.7-2.1-2.9-3.2,0.2c-0.4,1-1,2.1-2.3,1c-1.3-1.1-1.9-6.9,1.4-9.1s3.5-0.5,5.4,1.4
	c4.7,3.9,10.7,2.7,12.2-0.5s0-5.3-2-7.5s-7.4-6-11.2-10.4S51.6,27.2,54,20.8s8.3-10.7,15.6-7c4.3,2.2,8.5,7.1,6.1,12.1
	c-1.7,3.4-6.8,4.5-9.2,1c-2.4-3.5,4.5-3.1,3.3-5.1L69.9,21.9z"/>
<path class="st0" d="M88.9,33.5c0.2,6.1-6.8,5.7-7-0.2c-0.1-1.7,1.2-3.2,2.9-3.3c0.2,0,0.4,0,0.6,0c0.8,0.1,1.6,0.5,2.2,1
	c0.7,0.6,1.2,1.5,1.2,2.5H88.9z"/>
<path class="st0" d="M82.5,47.2l-0.3,0.2c-3,1.7-2.1-1.7-0.5-3.7s3-2.8,4.2-2.6c1,0.1,1.9,0.8,2.2,1.8c0.8,3.9-3.6,14.8,1.1,17.7
	c0.9,0.6,2,0.4,2.7-0.4c0.9-1,1-2.7,2.1-3s0.9,0.1,1.1,1.4c0.3,3.9-1.4,9.5-6.8,7.6C82.9,64.3,83.7,55,83.8,50
	C83.8,49.7,83.7,46.7,82.5,47.2L82.5,47.2z"/>
<path class="st0" d="M116.9,40.5c-0.3-1-1.3-1.6-2.3-1.6l-5.6,0.3l-6.3,0.3l1-9c0.9-8.7,1-14.1,0.1-16.1s-1.9-2.6-3-1.9
	c-2.2,0.4-2.8,4.3-3,11.5c0,5.4,0.3,10.8,0.8,16.1L95.4,41c-0.9,0.2-1.8,0.6-2.6,1c-0.4,0.2-0.6,0.7-0.5,1.1c0,0.7,0.2,1.4,0.5,2
	l4,9.2l3.7,8.4c1.1,2.5,2.5,3.8,4.3,3.7s2.6-0.3,2.5-0.6s-0.3-1.2-0.4-2.5c-1.5-3.3-2.7-6.9-3.3-10.5c-0.3-2.8-0.4-5.6-0.4-8.4
	c5.5-1.3,9.2-0.9,12.4-1.8h0.2c1.2-0.8,0.5-0.4,1-0.8C117.2,41.5,117.2,40.8,116.9,40.5z M100.4,57.5l-0.2,0.2h-0.3l-0.4-0.9
	c-0.3-0.7-1.6-5.1-1.6-5.1s-1.1-4.1-1.3-4.5c-0.1-0.2-0.1-0.5,0-0.7s0.2-0.4,0.4-0.6c0.4-0.3,0.8-0.5,1.3-0.6h0.3l0.2,0.3v0.9
	l0.3,2.1l1,6.2l0.3,2.3C100.4,57.1,100.4,57.5,100.4,57.5z"/>
<path class="st0" d="M136,59.7c-3.4,4.2-8.2,8.1-13.5,6.6c-3.1-1.1-5.1-4.1-6.1-7.8c-0.9-3.6-1-7.4-0.2-11
	c1.2-5.6,4.6-10.2,8.5-10.2c7.4,0.7,11.2,8.9,7.4,14.7c-2.1,3.2-6.5,4.8-8.6,5.9s-1.4,0.6-1.3,2.1c0.3,3.7,6.6,3.7,10.6-4.6
	c0.4-0.8,2.9-4,4.5-3.1C140.7,54.4,136.4,59.2,136,59.7z M120.5,54.5c4.4-1.4,8.1-5.3,8.4-7.4c0.6-4-5.5-7.4-7.7-0.9
	c-0.6,1.7-0.7,5.3-0.7,8.2L120.5,54.5z"/>
<path class="st0" d="M165.8,45c-0.3,3.3,4.7,20.6,1.1,20.9s-3.5,0.4-4-0.8c-0.5-1.2,1.6-10-0.2-7.3c-0.4,0.6-0.3,0.7-1,1.8
	c-5.9,10.6-14,7.8-18.7-0.8c-3.1-6.2-4.3-13.3-3.5-20.2c1.3-12.3,6.6-28.5,19-25.9c9.8,2.1,3,15.2-0.4,11.8
	C150,6.9,133.9,49.7,151.8,60c5.2,3,9.6-6.7,8.5-11s-0.9-3.1-2.4-2.7s-5.1,3.8-6.3,2.7s-2.1-6.4,0.6-6.5s5.1,0.9,8.9-3.7
	s6.3-2.9,5.7,1.6C166.5,42.3,166,43.5,165.8,45L165.8,45z"/>
<path class="st0" d="M188.8,38.7c-3-2.1-6.6-3.2-10.2-3c-5.4,0.6-10.5,4.2-9.9,9.9c0.2,2.4,0.5,12.8,1.4,17.1
	c0.2,1.5,1.2,2.7,2.6,3.2c1.5,0.5,3-0.2,3.7-1.6c0.9-2.1-0.1-4-0.6-5.8c-0.9-3.8-1.5-7.8-1.8-11.7c-0.6-6.4,9.1-7.2,11.3-3.5
	c-1.6,2.5,0.7,4.1,3.7,1.8s1.6-5-0.3-6.5L188.8,38.7z"/>
<path class="st0" d="M202,66.6c13.4-2.3,18.5-23,1.9-30.1C186.6,30.9,185.8,69.9,202,66.6z M195.9,49.8c1.6-16.3,12.3-8.7,13.7,1.9
	S193.6,68.6,195.9,49.8z"/>
<path class="st0" d="M221.3,45.2c-2.1,4.6-1.3,23.2,8.3,14.4c2.1-1.9,2.4-8.1,1.6-13.4c-0.2-1.2-1.2-4.9-1.6-6s0.7-3.4,2.5-4
	c1.5-0.4,3.1,0.4,3.7,1.8c1,2.4,0.3,6.3,0.2,7.9c-0.3,4.8-1.1,10.6,0.6,13.7c0.7,1.3,1.7,1.5,1.8,2.4c0.1,3.5-4.1,5.8-5.6,3.6
	c-0.4-0.6-0.1-1.5-0.7-2c-7.9,7.1-16.6,1.5-16.4-8.6c0-2.2-0.3-5.8,0.5-9s1-4.8,2.3-6.1c1.3-1.3,2.5-0.5,3.1-0.1
	S221.9,43.5,221.3,45.2L221.3,45.2z"/>
<path class="st0" d="M256.5,61c1.4-4.8,3.1-12.6,2-15.5s-7.6-5.9-10.5-1.5c-1.8,2.7-1.9,12.4,0.4,18.1c0.6,1.4-0.5,3.3-2.2,3.8
	c-6.6,2.2-1.5-16.1-5.3-22c-0.8-1.3-1.8-1.4-2-2.3c-0.4-3.4,3.6-5.5,5.4-3.4c0.5,0.6,0.2,1.5,0.9,1.9c7.3-6.8,18.2-1.7,18.9,8
	c0.1,5.1-0.8,10.1-2.6,14.8c-0.4,1.1-1,2.1-1.8,3c-0.9,0.8-2.2,0.9-3.1,0.1C255.4,65.2,256,62.5,256.5,61L256.5,61z"/>
<path class="st0" d="M285.6,39.7c0.6-5.2-1.6-20.5-5.6-20.9c-1.1-0.1-1.3-2.7-0.6-4.3s2.5-2.1,5.4-0.9c4.6,1.9,5,19.4,5.1,24.6
	s-0.2,11.3,0.6,16.1c0.2,1.5,0.7,3,1.3,4.4c0.8,1.9,1.7,3.2,1.1,4.3s-4.8,3.3-6,2.1c-1.2-1.2-1.2-2.3-1.4-4c-6.9,11-18,2.4-19.5-8.3
	S273.8,30.9,285.6,39.7z M274.8,60c8.7,6.3,11.5-10,7.1-16.1S263.1,51,274.8,60z"/>
<path class="st1" d="M20.2,56.4C13.3,54,8.5,47.5,7.3,40.6C4,21.4,24.4,4.2,44.7,13.7c0.2,4.3-1.8,10.4-7.2,12.3
	c27.2,17.2,3.9,52.3-24.6,40.8c-5.2-2.7-2.4-7.5,3.1-4.7s14.3,2.1,19.4-0.7c3.3-1.8,6.2-4.3,8.3-7.4c0.8-1.1,1.4-2.3,2-3.6
	c0.4-1,1.8-5.2,0.7-5.7s-0.4,0.2-0.5,0.5c-0.7,2.7-2,5.3-3.9,7.4c-2.2,2.6-5.1,4.6-8.4,5.8c-4.1,1.5-8.8,1.7-15.3,0.3
	c0.4-0.5,1.3-1.8,1.8-2.3C20.1,56.3,20.2,56.3,20.2,56.4z"/>
<path class="st2" d="M38.9,15.5c0.1,0.6,0.2,1.3,0.2,1.9c0.2,2.8-0.9,5.6-3,7.5l-1.5,1.4c7.7,4.8,11.7,15.2,7.2,22.5
	c-6,9.8-17.9,7.6-24.5,0.9s-5.9-16.2-1-23C21.7,19.6,30,15.5,38.9,15.5z"/>
<path class="st0" d="M15.8,37.1c1.5-14.6,18.3-17.5,24.5,2S13.5,54.7,15.8,37.1z"/>
<path class="st2" d="M29.5,46.7c13.3,0.5,6.9-13.1-1.8-16.1S14.2,46.7,29.5,46.7z"/>
</svg>
