<?xml version="1.0" encoding="utf-8"?>
<!-- Generator: Adobe Illustrator 22.0.1, SVG Export Plug-In . SVG Version: 6.00 Build 0)  -->
<svg version="1.1" id="Layer_1" xmlns="http://www.w3.org/2000/svg" xmlns:xlink="http://www.w3.org/1999/xlink" x="0px" y="0px"
	 viewBox="0 0 340 80" style="enable-background:new 0 0 340 80;" xml:space="preserve">
<style type="text/css">
	.st0{fill:url(#SVGID_1_);}
	.st1{fill:#FFFFFF;}
	.st2{fill:#231F20;}
	.st3{fill:#67942D;}
</style>
<g>
	<g>
		<g>
			<g>
				
					<radialGradient id="SVGID_1_" cx="-451.5732" cy="488.9876" r="11.3949" gradientTransform="matrix(2.3801 0 0 2.4153 1110.3351 -1141.0518)" gradientUnits="userSpaceOnUse">
					<stop  offset="0" style="stop-color:#BBD765"/>
					<stop  offset="0.9839" style="stop-color:#7AB34D"/>
				</radialGradient>
				<ellipse class="st0" cx="35.7" cy="40" rx="27.1" ry="27.5"/>
				<g>
					<path class="st1" d="M51.2,20.4c-10.6-8.8-26.3-6.9-34.9,3.9c-8.4,10.8-6.8,26.5,3.8,35.2s26.3,6.9,34.7-3.9
						C63.4,44.9,61.8,29,51.2,20.4z M53.4,54.5c-7.8,10-22.3,11.6-32.1,3.7S9.8,35.5,17.6,25.5c8-10,22.5-11.6,32.3-3.7
						C59.8,30,61.4,44.5,53.4,54.5z"/>
				</g>
			</g>
		</g>
		<g>
			<g>
				<path class="st1" d="M34.5,24.5c0,0.8,0.6,1.2,1.2,1.4v-2.4c-1.2-0.2-1.8-0.6-1.8-1.6s0.8-1.8,1.8-1.8v-0.6h0.4V20
					c1,0.2,1.4,0.8,1.6,1.6h-0.8c-0.2-0.6-0.4-0.8-1-1v2l0.6,0.2c0.4,0.2,1.4,0.6,1.4,1.6s-0.8,1.8-1.8,1.8V27h-0.4v-0.4
					c-1.2-0.2-1.8-0.8-2-2h0.8V24.5z M35.7,20.9c-0.6,0-1,0.4-1,1s0.4,0.8,1,1V20.9z M36.1,25.9c0.6,0,1-0.4,1-1s-0.4-0.8-1-1V25.9z
					"/>
			</g>
		</g>
		<g>
			<g>
				<path class="st1" d="M21.9,51.4h0.4c-0.2-0.4-0.4-0.8-0.4-1.4c0-1,1-1.8,2-1.8c1.2,0,2,0.8,2,2.2h-0.8c0-1-0.4-1.6-1.2-1.6
					c-0.6,0-1.2,0.4-1.2,1.2c0,0.6,0.2,0.8,0.4,1.4h1.4v0.4h-1.2c0,0.2,0.2,0.4,0.2,0.6c0,0.8-0.4,1.2-1,1.6l0,0
					c0.2-0.2,0.6-0.2,0.8-0.2c0.4,0,0.6,0,0.8,0.2c0.2,0,0.4,0.2,0.8,0.2c0.2,0,0.6-0.2,0.8-0.4l0.4,0.6c-0.4,0.2-0.8,0.4-1.2,0.4
					c-0.2,0-0.6,0-0.8-0.2c-0.2,0-0.6-0.2-0.8-0.2c-0.4,0-0.6,0.2-0.8,0.2l-0.6-0.4c0.4-0.4,1-0.8,1-1.6c0-0.2-0.2-0.6-0.2-0.8h-0.8
					C21.9,51.8,21.9,51.4,21.9,51.4z"/>
			</g>
		</g>
		<g>
			<g>
				<path class="st1" d="M49.4,49.2c-0.4-0.4-0.8-0.6-1.2-0.6s-0.8,0.2-1,0.6c-0.2,0.2-0.4,0.6-0.4,1.2h2.4L49,51h-2.2v0.2v0.2H49
					L48.8,52H47c0.2,1.2,0.8,1.8,1.6,1.8c0.2,0,0.6,0,0.8-0.2c0.2,0,0.4-0.2,0.6-0.4V54c-0.8,0.2-1.4,0.2-1.8,0.2
					c-1.4,0-2.2-0.8-2.4-2.4h-0.6l0.2-0.6h0.4V51c0-0.2,0-0.2,0-0.2h-0.6l0.2-0.6h0.4c0.2-0.6,0.4-1.2,0.8-1.6
					c0.4-0.4,1-0.6,1.6-0.6s1,0.2,1.6,0.6L49.4,49.2z"/>
			</g>
		</g>
		<g>
			<g>
				<path class="st1" d="M20.3,36.5h-1.2v-0.6h1.2v-0.4l-0.2-0.2h-1v-0.6h0.8l-1.4-2.9h1l1.4,3.1l1.4-3.1h0.8l-1.6,3.1h0.8v0.6h-1
					l-0.2,0.2v0.4h1.2v0.6h-1v1.4h-1C20.3,38.1,20.3,36.5,20.3,36.5z"/>
			</g>
		</g>
		<g>
			<g>
				<path class="st1" d="M51.4,33.9h-0.6c-0.4,0-0.4,0.2-0.6,0.4L50,35.5h0.8l-0.2,0.6h-0.8l-0.4,2.6c-0.2,1.6-0.6,2-1.6,2h-0.6
					l0.2-0.6c0.8,0,1,0,1.2-0.8l0.6-3.3h-0.8l0.2-0.6h0.8l0.2-1.2c0.2-0.6,0.6-1.2,1.4-1.2h0.6L51.4,33.9z"/>
			</g>
		</g>
		<path class="st1" d="M35.7,28.6c-4.6,0-8.2,3.9-8.2,8.4c0,2.9,3.6,6.9,3.6,8.8c0,1,0,0.8,0,1.6c0,1,0.8,1.6,1.6,1.6
			c0.4,0,5.4,0,6,0c1,0,1.6-0.8,1.6-1.6c0-1,0-0.6,0-1.6c0-1.8,3.6-5.7,3.6-8.8C43.9,32.5,40.3,28.6,35.7,28.6z M35.7,55.7
			c0.6,0,1.4-0.2,1.8-0.8c-1.2,0-2.4,0-3.6,0C34.3,55.5,34.9,55.7,35.7,55.7z M38.7,50c-0.6,0-5.4,0-6,0s-1,0.4-1,1s0.4,1,1,1
			s5.4,0,6,0s1-0.4,1-1S39.1,50,38.7,50z M38.7,52.4c-0.6,0-5.4,0-6,0s-1,0.4-1,1s0.4,1,1,1s5.4,0,6,0s1-0.4,1-1
			C39.7,52.8,39.1,52.4,38.7,52.4z"/>
	</g>
	<g>
		<path class="st2" d="M64,22.7h28.7V27h-12v31.6h-4.8V27h-12v-4.3H64z"/>
		<path class="st2" d="M115.8,58.5h-4.4V41.4c0-3.5-1-5.9-5.2-5.9c-3.6,0-7.2,2-7.2,8.8v14.3h-4.4V22.7l4.4-0.6V36l0,0
			c1.2-1.6,3.4-4.3,7.6-4.3c4,0,9,1.6,9,9.2v17.7h0.2V58.5z"/>
		<path class="st2" d="M118.4,27.6v-4.9h4.4v5.1h-4.4V27.6z M122.8,58.5h-4.4v-26h4.4V58.5z"/>
		<path class="st2" d="M146.3,58.5h-4.4V42.4c0-4.5-1.2-6.9-5.4-6.9c-2.4,0-6.8,1.6-6.8,8.8v14.3h-4.4V32.5l4-0.6v4.3l0,0
			c1-1.4,3.4-4.5,7.8-4.5c4,0,9,1.6,9,9.2v17.7h0.2V58.5z"/>
		<path class="st2" d="M170.2,58.5h-5.6l-8-13.2l-3.6,3.3v10h-4.2V22.7l4.2-0.6v21.4l11-11h5.4l-9.8,9.8L170.2,58.5z"/>
	</g>
	<g>
		<path class="st3" d="M203.9,58.7h-6V31.6l0,0l-7,27.1h-5.8l-6.8-27.1l0,0v27.1h-6V22.5h9.8l6.2,26.1l0,0l6-26.1h9.6
			C203.9,22.5,203.9,58.7,203.9,58.7z"/>
		<path class="st3" d="M229,53.4c0,3.1,0.6,3.9,1.6,4.1v1h-7.4c-0.4-1.2-0.4-1.6-0.6-3.1c-1.6,1.6-3.8,3.9-8.4,3.9
			c-3.8,0-7.8-2.2-7.8-7.7c0-5.1,3.2-7.7,7.6-8.4l6.2-1c1-0.2,2.4-0.6,2.4-2c0-2.9-2.8-3.1-4.4-3.1c-3.4,0-4,2-4.2,3.7h-6.6
			c0.8-8.1,6.2-9.2,11.6-9.2c3.6,0,10.4,1.2,10.4,7.5v14.3C229.4,53.4,229,53.4,229,53.4z M222.4,45.9c-0.6,0.6-1.8,1-4.6,1.4
			c-2.6,0.4-4.6,1-4.6,3.9c0,2.4,1.8,3.3,3.2,3.3c3,0,6-2,6-5.3C222.4,49.2,222.4,45.9,222.4,45.9z"/>
		<path class="st3" d="M232.4,32.3h5.4v4.5l0,0c1.4-2.6,3-5.3,7.2-5.3c0.4,0,0.8,0,1.4,0v7.1c-0.6,0-1.4,0-2,0
			c-5.4,0-6.2,3.5-6.2,6.3v13.6h-5.6V32.3H232.4z"/>
		<path class="st3" d="M254.1,58.7h-5.4V22.5l5.4-0.8v21.2l8.8-10.4h7.6l-9.4,10.6l9.2,15.7h-7.4l-6-11l-2.8,2.9L254.1,58.7
			L254.1,58.7z"/>
		<path class="st3" d="M293,51c-1.8,6.3-7,8.4-11.4,8.4c-7.2,0-12.8-3.5-12.8-14.5c0-3.3,1-13.2,12.4-13.2c5.2,0,12.2,2.4,12.2,14.5
			v1.2H275c0.2,2,1.2,6.5,6.6,6.5c1.8,0,4.4-1,5-2.9H293z M286.8,42.9c-0.4-4.3-3.6-5.5-5.8-5.5c-3.2,0-5.4,2-5.8,5.5H286.8z"/>
		<g>
			<path class="st3" d="M306.7,37.1v-4.9h-4.6v-7.1l-5.4,0.8v6.3h-5.2c1,1.2,2,2.9,2.6,4.9h2.6v16.3c0,3.3,0.4,5.5,6.2,5.5h0.8
				c1,0,2,0,3.2,0v-5.1c-0.4,0-1,0-1.4,0c-2.6,0-3.4-0.6-3.4-2V37.1C302.1,37.1,306.7,37.1,306.7,37.1z"/>
		</g>
		<path class="st3" d="M324,40.8c-0.2-1.6-1-3.9-4.6-3.9s-4.2,1.4-4.2,2.6c0,4.1,16.3,1.2,16.3,10.8c0,7.7-7.2,9.2-11.4,9.2
			c-5.8,0-11-1.4-11.2-8.4h5.8c0,2.2,1.2,3.1,5.6,3.1c3.6,0,4.4-1.8,4.4-2.6c0-4.5-16.1-1-16.1-11c0-3.9,2.4-8.8,10.4-8.8
			c5,0,10.6,1.6,11.2,9.2H324V40.8z"/>
	</g>
</g>
</svg>
