<?xml version="1.0" encoding="utf-8"?>
<!-- Generator: Adobe Illustrator 22.0.1, SVG Export Plug-In . SVG Version: 6.00 Build 0)  -->
<svg version="1.1" id="图层_1" xmlns="http://www.w3.org/2000/svg" xmlns:xlink="http://www.w3.org/1999/xlink" x="0px" y="0px"
	 viewBox="0 0 500 120" style="enable-background:new 0 0 500 120;" xml:space="preserve">
<style type="text/css">
	.st0{fill:#3AB2E4;}
	.st1{fill:#373C4F;}
</style>
<g id="_x23_3ab2e4ff">
	<path class="st0" d="M55.1,20H59c5.2,0.7,10.3,2.2,14.7,5.3c6.4,4.3,11.3,11.1,13.3,18.8c1.8-0.6,3.4-1.7,5.2-2.2
		c3.4-1.1,7.1-1.1,10.6-0.4c2.8,0.6,5.4,2.1,8,3.5c-7.3,7.7-14.6,15.4-21.9,23.2c-0.9,0.9-1.7,2-2.7,2.7c-1.2,0.1-2.3-0.4-3.4-0.4
		c-1.6-0.1-3,0.5-4.6,0.6c-0.8-0.3-1.5-1-2.2-1.6c-1.8-1.9-3.8-3.7-5.8-5.4c-2.1-2.1-4.4-3.9-6.5-6.1c-1-1.1-2.3-2-3.3-3.2
		c-0.2-1.9,0.3-3.9-0.1-5.8c-0.7-3.3-3.1-6-6-7.4c-2.6-1-5.7-1-8.2,0.5c-2.4,1.3-4.1,3.6-5,6.2c-0.5,1.7-0.3,3.6-0.3,5.3
		c0.1,0.6-0.4,0.9-0.8,1.3c-1.3,1.1-2.6,2.1-3.9,3.3c-2.7,2.4-5.6,4.6-8.3,7C21.2,71,14.4,76.5,7.7,82.2c-1.5,1.2-2.7,2.7-4.5,3.4
		c-1.1-2.9-1.9-5.9-2.2-9v-3.4C1.5,63,8.4,53.5,17.7,50.6c2.4-0.9,4.9-1,7.4-1.3c0.4-2,0.7-4.1,1.3-6c2-6.6,6-12.6,11.3-16.7
		C42.6,22.6,48.8,20.4,55.1,20z"/>
	<path class="st0" d="M91.6,77c8.2-8.5,16.2-17.3,24.4-25.8c2.5,3.3,3.5,7.7,4,11.8c2,1.1,4.1,2.1,5.8,3.8c3.6,3.5,6.1,8.6,6.1,13.9
		c0.1,3.7-1,7.3-2.7,10.5c-1.3,2.3-3.2,4-5.2,5.6c-2.5,2-5.7,2.8-8.8,3.2H23.3c-2.7-0.4-5.4-0.9-7.9-2c-2.7-1.3-5.2-3.1-7.4-5.2
		c4.4-3.8,9-7.6,13.5-11.3c7.5-6.5,15.1-12.7,22.6-19.2c0.6-0.4,1.1-1.1,1.8-1.1c1.3,0.1,2.6,0.8,3.9,0.9c1.7,0.2,3.4-0.3,5-0.8
		c5.1,4.6,10.1,9.4,15.2,14c0.9,0.8,1.8,1.6,2.5,2.6c0.3,1.1-0.1,2.2,0,3.3c-0.3,5.8,5.1,11.1,10.5,10.5c3.8-0.2,7.3-3.1,8.6-6.9
		C92.5,82.2,92.1,79.5,91.6,77z"/>
</g>
<g id="_x23_373c4fff">
	<path class="st1" d="M268.8,33.5c1.9,0,3.9,0,5.8,0c0,16.6,0,33.1,0,49.7c-1.9,0-3.9-0.1-5.8,0c0-0.8,0-1.6,0-2.4
		c-3.5,3-8.4,3.7-12.7,2.6c-3.2-0.8-6-3.3-7.7-6.3c-2.3-3.9-2.8-8.8-2.3-13.3c0.5-5.6,3.4-11,7.9-14.2c2.8-2.1,6.4-2.6,9.7-2
		c1.9,0.2,3.6,1.1,5.2,2.2C268.8,44.3,268.7,38.9,268.8,33.5 M260.2,52.8c-2.3,0.5-4.3,2.1-5.7,4.1c-1.7,2.5-2.5,5.6-2.5,8.7
		c0,3.3,0.4,6.8,2.5,9.4c1.8,2.3,4.6,3.3,7.3,3.5c2.3,0.2,4.6-0.7,6.3-2.2c0.6-0.4,0.5-1.3,0.6-2c0-6.1,0-12.2,0-18.2
		C267.2,53,263.3,52,260.2,52.8z"/>
	<path class="st1" d="M287.7,34.9c1.9-0.9,4.5,0.3,5,2.5c0.7,2.4-1.2,5-3.5,4.9c-2.2,0.1-4-2.2-3.6-4.4
		C285.7,36.6,286.5,35.4,287.7,34.9z"/>
	<path class="st1" d="M408.9,34.7c2.1-0.7,4.6,1.1,4.6,3.5c0.2,2.3-1.9,4.4-4,4.1c-2.3-0.1-3.8-3-3-5.2
		C406.8,36,407.8,35,408.9,34.7z"/>
	<path class="st1" d="M156.2,35c11.9,0,23.8,0,35.7,0c0,2,0,3.9,0,5.9c-5,0-10,0-15.1,0c0,14.1,0,28.2,0,42.2c-2.1,0-4.1,0.1-6.1,0
		c0-14.1,0-28.1,0-42.2c-4.8,0-9.6,0-14.4,0C156.2,38.9,156.2,36.9,156.2,35z"/>
	<path class="st1" d="M363.9,35c2.3,0,4.6,0,6.8,0c3.9,11.8,7.7,23.7,11.7,35.5c2.4-7.9,5-15.8,7.5-23.8c1.3-3.9,2.4-7.9,3.8-11.8
		c2.2,0.1,4.3,0,6.5,0.1c-5.4,16.3-10.9,32.5-16.3,48.8c-1.1,0-2.1,0-3.2,0C375.2,67.5,369.4,51.3,363.9,35z"/>
	<path class="st1" d="M354.3,49.4c1-1.2,2-2.4,2.9-3.7c1.3,1.3,2.6,2.6,3.8,3.8c-1.2,1-2.4,1.9-3.6,2.9c2.2,3,2.6,7,2.1,10.6
		c-0.6,4.8-4.2,8.9-8.6,10.1c-3.1,0.9-6.4,0.5-9.4,1.6c-0.8,0.4-2.1,1-1.7,2.1c0.7,0.9,1.8,1,2.8,1c3.2,0,6.4-1.2,9.6-1
		c3,0.1,6.3,1.4,8,4.2c1.9,3.3,1.8,7.9-0.5,10.9c-1.9,2.4-4.7,3.9-7.6,4.6c-6,1.4-12.4,0.1-17.5-3.5c0.9-1.8,2-3.4,3.1-5
		c2.8,1.8,5.9,3.5,9.2,3.6c2.6,0,5.4-0.3,7.5-2.1c1.2-1,1.8-2.9,1.2-4.4c-0.5-1.8-2.4-2.6-4-2.7c-3.4-0.5-6.6,1.1-9.9,0.9
		c-1.7-0.1-3.4-0.4-4.8-1.5c-1.4-1.3-1.9-3.5-1.4-5.3c1-2.2,3.3-3.2,5.4-4c-2.4-1.5-4.8-3.4-5.8-6.3c-1.4-3.9-1.5-8.5,0.5-12.1
		c1.9-3.4,5.3-5.9,9.1-6.4C348,47.1,351.5,47.4,354.3,49.4 M345.5,52.5c-1.7,0.3-3.1,1.5-4,3c-2.3,3.7-1.5,9.5,2,12.1
		c2.2,1.5,5.2,1.4,7.3-0.1c2.1-1.6,3-4.5,2.9-7.2c0.1-2.2-0.6-4.4-2.1-6C350.1,52.6,347.6,52,345.5,52.5z"/>
	<path class="st1" d="M201.3,48.2c2.7-1.3,5.8-0.8,8.7-0.4c-0.5,2.1-1.5,4-2.2,6c-1.5-0.6-3-1.4-4.6-1.2c-2.6,0.2-4.7,2.4-5.9,4.7
		c-1,2-1.3,4.3-1.3,6.6c0,6.4,0,12.9,0,19.3c-2,0.1-3.9,0-5.9,0c0-11.7,0-23.4,0-35.1c2-0.2,3.9-0.1,5.9-0.1c0,1.8-0.1,3.6,0,5.4
		C197.4,51.2,199,49.1,201.3,48.2z"/>
	<path class="st1" d="M214.5,50.7c3.4-2.4,7.5-3.6,11.6-3.4c3.2,0.1,6.7,0.9,9.1,3.4c2.3,2.4,3,6,3.3,9.3c0.2,5.2,0,10.5,0.1,15.7
		c0.1,2,1,3.9,2.6,5.1c0,1,0,2,0,2.9c-1.7,0-3.5-0.1-5.1-0.9c-1.4-0.7-2.2-2.2-2.9-3.6c-1.8,2.3-4.5,3.8-7.3,4.3
		c-2.6,0.5-5.4,0.5-7.8-0.8c-3-1.7-5.1-5.1-5.2-8.6c-0.2-2.9,0.7-5.8,2.6-7.9c4.2-5,11.3-6.6,17.3-4.8c0-2.7-0.7-5.7-2.9-7.3
		c-2.1-1.4-4.8-1.3-7.2-0.9c-2.1,0.3-4,1.4-5.7,2.8C216,54.2,215.1,52.5,214.5,50.7 M223.2,66.4c-1.8,1-3.5,2.5-4.2,4.6
		c-0.7,1.9-0.5,4.2,0.7,5.9c1.3,1.7,3.5,1.9,5.5,1.9c2.5-0.1,4.7-1.4,6.4-3.2c0.4-0.5,1-0.9,1-1.6c0.1-2.7,0-5.5,0-8.2
		C229.4,65,226.1,65,223.2,66.4z"/>
	<path class="st1" d="M309.6,49.4c2.8-2.2,6.6-2.5,10-1.8c2.8,0.5,5.2,2.5,6.3,5.2c1.7,3.7,1.5,8,1.5,12.1c0,6.1,0,12.2,0,18.2
		c-2,0-3.9,0-5.9,0c0-6.7,0-13.3,0-20c0-2.4-0.1-4.8-0.9-7.1c-0.7-1.9-2.5-3.2-4.4-3.4c-3.4-0.7-6.8,1.1-8.9,3.8
		c-0.4,0.4-0.3,0.9-0.3,1.4c0,8.4,0.1,16.8,0,25.3c-2,0-3.9,0-5.9,0c0.1-11.7,0-23.4,0-35.2c1.3,0.1,2.8-0.3,4.1,0.2
		c0.7,1.3,1.1,2.8,1.7,4.2C307.8,51.4,308.5,50.2,309.6,49.4z"/>
	<path class="st1" d="M429.6,48.4c3.1-1.4,6.5-1.4,9.7-0.8c3.5,0.6,6.7,2.7,8.7,5.8c2.4,3.6,2.7,8.4,1.9,12.6c-8,0.1-16,0-24,0.1
		c0,3.3,0.7,6.9,3,9.3c2.6,2.9,6.7,3.6,10.3,2.8c2.1-0.3,3.9-1.5,5.7-2.8c0.6,1.2,1.3,2.3,1.9,3.5c0.2,0.4,0.6,1,0.1,1.3
		c-1.6,1.4-3.5,2.1-5.4,2.6c-3.6,0.9-7.4,1.2-11,0.1c-3.9-1.3-7.2-4.5-9-8.4c-1.2-2.6-1.7-5.5-1.7-8.3c0-3.3,0.5-6.7,1.8-9.7
		C423.2,53,426.1,50,429.6,48.4 M429.5,54.7c-2,1.7-3.2,4.3-3.5,6.9c6.1,0,12.3,0,18.4,0c0.1-3.6-2.1-7.3-5.4-8.5
		C435.9,52,432.1,52.4,429.5,54.7z"/>
	<path class="st1" d="M452.8,47.8c2.1,0,4.2-0.1,6.3,0.1c2.3,7.6,4.6,15.2,7,22.8c1.3-2.7,2.2-5.6,3.3-8.4c1.8-4.7,3.5-9.4,5.4-14
		c0.2-0.8,1.2-0.3,1.7-0.4c2.8,7,5.5,13.9,8.2,20.9c0.3,0.7,0.6,1.3,0.9,1.9c2.6-7.6,5-15.2,7.6-22.8c1.9,0,3.8,0,5.8,0
		c-2.3,7.2-4.8,14.3-7.1,21.5c-1.7,4.8-3.1,9.6-4.8,14.4c-0.5,0-1,0-1.5,0c-3.2-8-6.4-15.9-9.7-23.9c-3.3,7.9-6.5,15.9-9.7,23.9
		c-0.5,0-1,0-1.5,0c-2.5-7.2-4.8-14.5-7.2-21.8C455.9,57.3,454.2,52.6,452.8,47.8z"/>
	<path class="st1" d="M281.3,48c3.5-0.1,7,0,10.5,0c0,11.7,0,23.5,0,35.2c-2,0-3.9,0-5.9,0c0.1-10,0-19.9,0-29.9c-1.5,0-3.1,0-4.6,0
		C281.3,51.5,281.4,49.7,281.3,48z"/>
	<path class="st1" d="M402.1,48c3.5-0.1,6.9-0.1,10.4,0c0,11.7,0,23.4,0,35.2c-2,0.1-3.9,0.1-5.9,0c0-10,0-19.9,0-29.9
		c-1.5,0-3,0-4.5,0C402,51.5,402.1,49.7,402.1,48z"/>
</g>
</svg>
