<?xml version="1.0" encoding="utf-8"?>
<!-- Generator: Adobe Illustrator 22.0.1, SVG Export Plug-In . SVG Version: 6.00 Build 0)  -->
<svg version="1.1" id="图层_1" xmlns="http://www.w3.org/2000/svg" xmlns:xlink="http://www.w3.org/1999/xlink" x="0px" y="0px"
	 viewBox="0 0 900 280" style="enable-background:new 0 0 900 280;" xml:space="preserve">
<style type="text/css">
	.st0{fill:#6077B1;}
	.st1{fill:#5DA244;}
	.st2{fill:#1B4488;}
	.st3{fill:#263143;}
</style>
<g id="_x23_ffffffff">
</g>
<g id="_x23_6077b1ff">
	<path class="st0" d="M133.5,2.9c7.7-1.4,15.7-2.4,23.5-1c3.4,0.7,6.9,1.1,10.4,1.6c46.7,5.9,89,37.8,107.6,81c0.6,1.5,1,3,1.5,4.6
		c-4.4-7.6-8.2-15.5-13.4-22.6c-16.3-23-40.3-40.7-67.6-48.3c-25-7.2-52.3-6-76.5,3.4C90.9,32,67.4,53.3,53.1,79.6
		c-4.8,8.4-7.7,17.6-11.4,26.5c0.3-2.5,0.7-5.1,1.1-7.6c-7.5-3.6-14.7-7.9-21.4-12.8c10.3-24.8,28.6-46.2,50.9-61
		c6.3-4.1,12.9-7.6,19.6-11c1.5-0.6,3-1.3,4.5-1.9C108.4,7.6,120.8,4,133.5,2.9z"/>
</g>
<g id="_x23_5da244ff">
	<path class="st1" d="M41.8,14.2c17.4-6.3,36.7-6.3,54.6-2.4c-1.5,0.6-3,1.3-4.5,1.9c-17.8-1.7-36.7-0.9-52.7,7.9
		c-12.6,6.8-22,19.2-25,33.2C10.9,69,13,83.7,16.6,97.6c1.1,6.6,3.6,12.9,6.4,18.9c17,36.5,44.4,67.3,75.3,92.6
		c25.4,20.5,53.9,37.7,85.1,48c9.4,2.9,18.9,5.9,28.7,5.9c17.7,1.5,36.8,0.5,52-9.5c12.8-8.1,20.7-22.4,22.7-37.2
		c2-13.7,0.2-27.9-4-41c0.4-2.1,0.9-4.3,1.4-6.4c6.2,17.9,10.6,37.4,6.5,56.3c-2.9,14.5-11.5,27.8-23.9,35.9
		c-15.8,10.7-35.5,13.3-54.1,12.2c-6.3-0.5-12.7-0.9-18.8-2.6c-7.6-2.2-15.3-3.7-22.9-6.2c-31.5-10-60.4-27.2-85.6-48.4
		c-25.3-21.3-47.4-46.8-62.8-76.2c-4-7.5-7-15.4-10.5-23.1c-4.9-10.7-6.6-22.5-8.8-34C1.5,71.4,3.8,59.8,7.4,48.8
		C12.9,32.9,26,19.9,41.8,14.2z"/>
	<path class="st1" d="M875.7,111.4c4.8-1.1,9.7-1.8,14.5-2.7c1.3,18.8-0.3,37.6,0.8,56.4c2.4-0.4,5.1-0.9,6.3,1.7
		c-4.2,2.5-8.5,6-13.6,6c-1.8-1.9-2.1-4.5-2.8-6.8c-3.3,3.1-6.8,6.8-11.6,6.9c-6.9,0.7-12.6-5-14.6-11.2c-2.5-8-1.2-17.6,4.9-23.6
		c5.4-5.7,14.3-7.3,21.3-3.8c-0.1-6.3,0.2-12.7-0.3-19c-1.9-0.7-3.9-1.3-5.8-2.2C875.1,112.7,875.5,111.8,875.7,111.4 M865.8,141.3
		c-3.1,4.7-3.3,10.9-1.7,16.1c1.2,3.8,4.2,7.5,8.4,7.7c3.2-0.2,5.8-2.4,8.4-4.1c-0.1-6,0.3-12-0.1-17.9
		C878.4,137.4,869.3,136.1,865.8,141.3z"/>
	<path class="st1" d="M765.7,121.1c9.1-1.5,18.5-3.1,27.8-1.7c5.3,0.7,10.9,3.2,13.4,8.2c3,6.6,0.2,14.9-5.8,18.9
		c-4.7,3.3-11.1,4.3-16.5,2.3c-0.8-1.1-1.3-2.4-2-3.6c3.9,0.3,8.5,1.4,11.7-1.5c5.3-5,4.7-15.2-1.7-19.1c-3.3-2-7.4-1.8-11.1-2
		c-0.2,14.7-0.4,29.3,0.1,44c2.4,0.7,4.8,1.4,7.2,2.1c-0.3,0.6-0.9,1.7-1.2,2.3c-7.5,0.5-15,0.2-22.5,0.1c0.5-3.1,3.7-3.7,6-4.7
		c0.1-14-0.1-28.1,0.1-42.1c-2,0.1-3.9,0.3-5.8,0.4C765.6,123.6,765.6,122.3,765.7,121.1z"/>
	<path class="st1" d="M821.9,135.4c5-2.5,10.9-4,16.4-2.3c3.4,1,5.8,4.4,5.9,7.9c0.5,7.9-0.4,15.9,0.5,23.9c1.7-0.2,3.5-0.4,5.2-0.6
		c0.1,0.7,0.4,2.1,0.5,2.9c-4,2.4-8,5.5-12.8,5.8c-2.2-1.2-2.4-3.9-3.3-6.1c-4.5,3.7-10.3,7.4-16.3,5.5c-6.1-1.9-7.8-10.2-4.1-15
		c4.7-6.7,13.5-7.4,20.8-8.8c-0.1-2.7,0.2-5.5-0.7-8.1c-1.3-2.7-5.2-3-7.6-1.6c-1.4,1.4-2.1,3.4-3.3,4.9c-3,1.9-6.7,2.2-10.2,2.7
		C813,141.1,817.6,137.7,821.9,135.4 M823.2,157.7c-1.6,2.4-1.2,6.2,1.5,7.6c2.8,0.9,5.6-0.8,7.8-2.3c3.8-2.2,1.7-7.2,2.2-10.8
		C830.7,153.2,825.5,153.5,823.2,157.7z"/>
</g>
<g id="_x23_1b4488ff">
	<path class="st2" d="M118.9,21.4c24.3-9.4,51.6-10.6,76.5-3.4c27.3,7.6,51.3,25.3,67.6,48.3c5.2,7.1,9,15,13.4,22.6
		c10.8,24.9,13.2,53.4,7.6,79.9c-0.5,2.1-0.9,4.3-1.4,6.4c-8.6,32.6-30,61.3-58,79.9c-4.1,2.8-8.5,5-12.6,7.8
		c-9.9,0-19.4-3.1-28.7-5.9c-31.1-10.2-59.6-27.4-85.1-48C67.4,183.8,40,153,23,116.5c-2.9-6-5.4-12.3-6.4-18.9
		c1.8-3.9,3.2-7.9,4.8-11.9c6.7,4.9,13.9,9.2,21.4,12.8c-0.4,2.5-0.8,5.1-1.1,7.6c3.7-8.9,6.7-18.1,11.4-26.5
		C67.4,53.3,90.9,32,118.9,21.4 M143.5,94.9c-1.9,3-2.9,6.4-4.2,9.7c-6.2,15.4-12.2,30.8-18.6,46.1c-4.3-11.3-9-22.4-12.9-33.8
		c1.8-3.2,6.5-3.3,7.6-7.1c-9.8-0.2-19.6-0.2-29.4,0c1.3,3.4,4.9,4.2,7.7,5.9c2,1.5,2.4,4.2,3.4,6.4c5.9,15.4,12,30.8,17.9,46.2
		c0.7,1.5,1.3,3.9,3.4,3.9c2.5,0.5,3.3-2.4,4.1-4.1c7.8-20.6,15.7-41.1,23.6-61.6c1.1-3.1,2.8-6.1,3.2-9.4
		C149.7,94.1,145.1,92.1,143.5,94.9 M56,109.8c1.6,4,6.9,4.2,8.4,8.2c6.6,16.4,13.2,32.9,19.7,49.3c0.8,2.1,2,3.9,3.4,5.6
		c1.4-1.4,2.7-2.8,3.3-4.7c3-7.4,6-14.8,9.1-22.1c0.7-1.8,1.6-3.7,1.2-5.7c-1.1-2-4.3-3.1-5.8-0.9c-2.2,3.5-3.1,7.6-4.8,11.3
		c-4.5-11.7-9.2-23.2-13.5-35c2.7-1.7,5.7-3.1,7.2-6C74.7,109.6,65.4,109.6,56,109.8 M146,109.8c1.4,4.1,6.1,4.2,9.1,6.6
		c0.8,1.7,0.6,3.6,0.7,5.4c-0.1,13.4,0,26.8,0,40.1c-0.1,1.5,0,3.6-1.8,4.3c-3,1.4-6.5,2.4-8,5.7c10.6,0.2,21.2,0.2,31.8,0
		c-1.4-5.4-10.5-3.7-9.6-10c0.2-15-0.3-30,0.2-45c2.6-3.2,8-2.8,9.3-7.2C167.1,109.6,156.6,109.6,146,109.8 M185.7,109.8
		c1.1,1.9,2.5,3.6,4.7,4.3c1.8,1,5,1.4,4.8,4c0.2,6.4,0,12.8,0,19.1c-6.7,0.4-13.4-0.4-20.1,0.4c-3.5,0.6-3.2,6.2,0.5,6.3
		c6.5,0.6,13.1,0,19.6,0.3c-0.1,7,0.5,14.1-0.3,21.1c-3,2.5-7.6,2.6-9.2,6.7c10.6,0.2,21.1,0.2,31.7,0c-1.6-4.1-6.3-4.2-9.2-6.7
		c-0.4-1.4-0.4-2.9-0.4-4.3c0-13.4,0-26.8,0-40.1c0-1.4,0-2.9,0.4-4.3c2.9-2.5,7.7-2.7,9.2-6.8C206.8,109.6,196.3,109.6,185.7,109.8
		 M218.5,109.8c1.5,4.2,6.3,4.3,9.3,6.8c0.6,11.7,0.1,23.5,0.2,35.3c-0.2,4.4,0.4,8.9-0.4,13.2c-2.9,2.6-7.7,2.7-9.2,6.9
		c10.7,0.2,21.4,0.2,32.1,0c-1.5-4.3-6.9-3.9-9.3-7.2c-0.5-16.1-0.1-32.3-0.2-48.5c4.2,0.1,9-0.3,12.5,2.5
		c4.9,3.9,4.3,11.6,1.6,16.7c-1.8,3.4-6.1,3.3-9.2,5c-0.8,2-0.1,5.2,2.6,4.8c6.1,0.1,12.7-1,17.5-4.9c7.5-6.4,7-19.4-0.5-25.5
		c-5.3-4.3-12.4-5.3-19-5.3C237.2,109.7,227.8,109.5,218.5,109.8z"/>
	<path class="st2" d="M11.9,116.9c3.5,7.7,6.5,15.6,10.5,23.1c15.4,29.4,37.6,54.9,62.8,76.2c25.3,21.1,54.2,38.3,85.6,48.4
		c7.5,2.4,15.3,4,22.9,6.2c-8.6,2.4-17.3,5-26.2,6c-4.7,0.3-9.2,2.2-14,2.1c-5.9,0-12,0.6-17.8-1.1c-3.7-0.9-7.5-1.1-11.3-1.7
		c-29.1-5-56.4-19.8-76.7-41.4c-22.1-23.3-35.7-54.5-37.3-86.6C9.5,137.6,11.2,127.3,11.9,116.9z"/>
</g>
<g id="_x23_263143ff">
	<path class="st3" d="M389,106.5c0.6-1.8,2-3.1,3.4-4.3c1,0.7,1.9,1.5,2.8,2.4c0.4,1.5-0.2,3.1-0.7,4.5c-7,18.3-14.1,36.6-21,54.9
		c-1,2.4-1.7,5-3.2,7.1c-1.9,1.2-3.8-0.5-4.3-2.4c-5.8-14.7-11.4-29.4-17.2-44.1c-1.4-4-6.5-3.9-8.7-7.3c8.6-0.9,17.5-0.9,26.1,0
		c-2,2.3-4.8,3.6-7.3,5.3c3.8,10,7.7,20.1,11.7,30C376.8,137.4,382.8,121.9,389,106.5z"/>
	<path class="st3" d="M424.4,112c4.5-1.1,9.1-2,13.5-3.5c0.7,1.7,1.1,3.6,1,5.4c-0.1,8.3,0,16.7-0.1,25c4-3.1,8.4-6.2,13.6-6.6
		c5.1-0.3,9.6,3.6,11.4,8.2c2,5.6,2.7,12.1,0,17.6c-3.1,6.3-8.5,11.9-15.3,14.1c-6.7,2-13.2-1.9-19.3-4.4
		c-0.2-17.4,0.3-34.7-0.3-52.1C427.2,114.9,423,115,424.4,112 M439,144.3c-0.2,6.1,0,12.2-0.1,18.4c3.3,1.4,6.7,3.3,10.4,3.1
		c3.4-0.2,5.9-3.2,6.7-6.3c1.3-4.9,0.8-10.3-1.1-14.9c-1.3-3.2-4.8-5.7-8.4-4.9C443.7,140.5,440.9,141.9,439,144.3z"/>
	<path class="st3" d="M313.8,116.9c8.2-0.2,16.3-0.2,24.5,0c-1.4,2.5-3.9,3.8-6.2,5.2c3.8,10.3,7.7,20.5,12,30.6
		c2.1-3.6,2-9.4,6.4-11.1c1.7,0.7,3.4,2.1,2.6,4.1c-1.5,4.9-3.8,9.5-5.6,14.3c-1.8,4.2-3,8.7-6,12.2c-1.4-1.7-2.6-3.7-3.4-5.8
		c-4.9-12.4-9.9-24.7-14.8-37.1c-1-2.3-1.7-4.9-3.2-7C318,120.5,315.2,119.5,313.8,116.9z"/>
	<path class="st3" d="M649,117.4c3-1.8,8.4-1.2,9.2,2.8c0.8,6-8.3,9-11.8,4.4C645.1,122,646.5,118.7,649,117.4z"/>
	<path class="st3" d="M614.3,125.7c3-2.3,6-4.7,9.4-6.4c0.7,4.9,0.3,9.8,0.4,14.7c4.7,0.1,9.5-0.5,14.2,0.6
		c-1.2,1.8-2.5,3.5-3.9,5.2c-3.4-0.7-6.8-1.2-10.3-1.3c0.1,7.4-0.1,14.7,0.1,22.1c0.2,2,0.9,5.3,3.5,5.1c3.1,0,5.8-1.8,8.6-2.9
		c0.5,1,1.1,2,1.6,2.9c-4.8,2.9-9.6,6.8-15.4,7.1c-5.1-0.1-7.9-5.3-8-9.9c-0.2-8,0-16-0.1-24.1c-2.2-0.2-4.4-0.4-6.5-0.8
		c1.6-2.3,3.6-4.5,6.6-4.7C614.3,130.9,614.3,128.3,614.3,125.7z"/>
	<path class="st3" d="M473.6,120.5c7.3,0,14.7-0.2,22,0.1c-0.3,3.2-3.8,3.5-6.2,4.6c-0.1,5.5,0,11.1,0,16.6c7,0,14,0,21,0
		c0-5.5,0-11.1,0-16.6c-2.3-1.2-5.8-1.4-6-4.6c7.4-0.3,14.9-0.3,22.3,0c0,3.4-3.7,3.5-6,4.7c0,13.8-0.1,27.6,0,41.3
		c2.3,1.1,6,1.3,6,4.6c-7.4,0.2-14.8,0.2-22.2,0c-0.1-3.3,3.6-3.6,5.9-4.7c0-6.6,0-13.2,0-19.8c-7,0-14,0-21.1,0
		c0.1,6.4-0.2,12.7,0.1,19.1c1.6,2.3,6.1,1.7,6,5.4c-7.3,0.3-14.6,0.1-21.9,0.1c0.1-0.7,0.2-2.1,0.2-2.8c1.8-0.6,3.6-1.2,5.4-1.8
		c0.1-13.9,0.1-27.7,0-41.6c-1.8-0.7-3.6-1.3-5.4-1.8C473.7,122.6,473.6,121.2,473.6,120.5z"/>
	<path class="st3" d="M641.8,135.4c5-0.8,9.9-2.4,14.9-3.4c0.1,11.5,0,23,0.1,34.5c2.2,1.2,5.8,1.4,5.8,4.7c-7,0.3-14,0.1-21,0.1
		c0.1-0.7,0.2-2.1,0.2-2.8c1.7-0.6,3.5-1.2,5.2-1.8c0-9,0.2-18.1-0.2-27.1c-1.7-0.6-3.5-1.3-5.2-1.9
		C641.7,137.1,641.7,136,641.8,135.4z"/>
	<path class="st3" d="M388.9,144.3c3.9-9.3,16.1-15.1,25.4-10.1c5.4,2.8,7.5,9.1,7.8,14.8c-2.4,1.3-4.7,3.3-7.5,3.2
		c-5.9,0.1-11.8-0.1-17.6,0.1c0.5,4.9,1.9,11,7.2,12.9c5.7,1.9,11.1-1.5,15.8-4.4c0.6,0.9,1.1,1.8,1.7,2.8
		c-3.4,3.1-6.7,6.7-11.1,8.3c-5.7,1.8-12.5,1.2-17-2.9C386.7,162.9,385.5,152.4,388.9,144.3 M400.5,139c-2.5,2.5-2.7,6.1-3.5,9.3
		c5.1,0.1,10.2,0.1,15.3-0.1c-0.2-3-0.4-6.2-2.4-8.7C407.9,136.5,403,136.3,400.5,139z"/>
	<path class="st3" d="M543.9,133.2c6.9-2.2,15.2-0.1,19.7,5.7c5.5,6.9,5.5,17.4,0.6,24.6c-4,6.5-11.9,10.5-19.5,9.1
		c-8.6-1-15-9.2-14.9-17.7C528.8,145.6,534.9,136.1,543.9,133.2 M545.9,137.4c-4.1,1.3-5.5,5.9-5.9,9.7c-0.7,6.4-0.3,13.8,4.4,18.8
		c2.7,3.2,8.2,2.8,10.6-0.5c2.4-3.3,2.4-7.6,2.7-11.5c-0.2-5.3-1.2-11.1-5.1-15C550.9,137.1,548.2,136.8,545.9,137.4z"/>
	<path class="st3" d="M575.9,139.5c1.8-3.7,5.7-5.8,9.6-6.7c5.6-1.2,11.3,0.1,16.5,2.4c-0.5,2.9-1.3,5.8-2.3,8.6
		c-0.7,0-2.1,0-2.8-0.1c-1.5-3.4-3.8-7.9-8.3-7.4c-3.6-0.4-6.2,4.3-3.6,7c4.5,4.5,11.3,5.7,15.7,10.5c4.7,5.2,2.2,14.4-4,17.2
		c-6.9,3.2-15.1,2.1-21.9-0.9c-0.2-3.9,0-7.8,0.5-11.6c0.8,0.1,2.4,0.2,3.1,0.3c1,2.6,1.9,5.3,4.1,7.2c2.7,2.4,7,3.2,10.2,1.2
		c2.2-1.8,1.8-5.5,0-7.5c-4.4-4.9-11.6-6-15.8-11.2C574.8,146.1,574.5,142.4,575.9,139.5z"/>
	<path class="st3" d="M667.8,135.5c4.4-1,8.8-1.8,13-3.2c0.9,2.4,1.3,5,1.5,7.6c4.5-3.9,10-7.4,16.2-7.6c4.3-0.2,8.2,3.5,8.5,7.8
		c0.5,8.5-0.1,17.1,0.3,25.6c1.6,2.2,5.7,1.9,5.9,5.4c-7.2,0.2-14.4,0.3-21.5,0c0.4-3.4,4-3.4,6-5.3c0.2-6.3,0.1-12.7,0-19
		c-0.3-2.4-0.1-5.5-2.3-7.1c-5.1-1.2-9.2,2.6-13,5.3c0,6.9-0.2,13.8,0.1,20.6c1.3,2.4,5.9,1.8,5.9,5.5c-7.2,0.2-14.3,0.2-21.5,0
		c0.4-3.1,3.4-3.5,5.6-4.8c0.7-8.4,0.3-17,0.2-25.4C672.9,137.7,664.9,138.9,667.8,135.5z"/>
	<path class="st3" d="M719.8,141.1c3.5-6.1,10.9-9.2,17.7-8.7c2.9,0.2,5.5,1.7,8.2,2.6c4,0,7.8-2.1,11.8-2.5c-0.5,2.1-1.2,4-2,6
		c-2,0.2-4,0.5-5.9,0.7c1.3,3.6,2.2,7.6,0.4,11.2c-2.6,5.9-9.1,8.7-15.2,9.2c-2.2,0-2.7,2.5-3.7,3.9c7.1,3,15.4,1.8,22.2,5.7
		c3.3,1.7,4.4,6.1,3,9.4c-2,5-6.6,8.4-11.4,10.6c-7.2,3.2-15.8,2.5-22.9-0.6c-3.6-1.6-7.2-5.2-6.4-9.5c1.6-4.3,6.1-6.4,9.7-8.7
		c-1.6-1.2-3.2-2.4-4.8-3.6c1.7-3.4,4.6-5.9,7.6-8.1c-2.9-1.4-6-2.7-7.9-5.5C717.6,149.8,717.6,144.8,719.8,141.1 M730.9,137.1
		c-3.8,2.4-3.7,7.6-2.8,11.5c0.9,4.3,5.7,7.3,9.9,5.8c4.3-2.2,4.5-7.9,3.2-12C740,138.1,735,134.8,730.9,137.1 M730,172.3
		c-2.7,1.8-6.1,4.8-4.5,8.4c3.1,4.3,9,5.2,14,4.9c4,0,8.3-3.2,7.9-7.5c-0.3-2.8-3.5-3.5-5.8-4.1C737.7,173.3,733.9,172.3,730,172.3z
		"/>
	<path class="st3" d="M797.9,184.2c5-3.4,11.4-3,16.8-0.6c-1.2,2.3-0.8,6.6-3.7,7.2c-1.4-1.8-2.1-4.1-4-5.4
		c-2.9-1.6-6.6,0.2-7.7,3.2c-1.4,3.7-1.8,8-0.2,11.8c1,2.6,3.6,4.6,6.4,4.5c3.2,0.1,5.7-2.2,8.6-3.3c0.6,3.1-2.4,4.9-4.6,6.4
		c-4.8,3.2-11.8,1.9-15.2-2.7C789.5,198.8,791,188.5,797.9,184.2z"/>
	<path class="st3" d="M827.9,182.5c6.1-2.4,13.9,0.9,16,7.2c3,7.3-1.2,16.4-8.5,19.1c-5.5,2.3-12.4-0.3-15.2-5.5
		C816.2,195.9,819.7,185.2,827.9,182.5 M829,185.4c-2.4,1.2-3.1,4.1-3.3,6.6c-0.4,4.4-0.2,9.4,2.9,12.8c1.4,1.6,3.7,2,5.7,1.3
		c2.5-1.4,3.3-4.4,3.5-7.1c0.3-4.1-0.1-8.5-2.5-11.9C834,185.1,831.2,184.2,829,185.4z"/>
	<path class="st3" d="M848,184.8c3.3-1.6,7-2.1,10.6-3.1c0.2,1.5,0.4,3,0.6,4.5c3.2-2.3,6.9-5.1,11.2-4.4c2.4,0.3,3.7,2.4,4.9,4.2
		c3.3-2.5,7.5-5.5,11.9-3.9c2.5,0.7,4,3.3,4.1,5.8c0.3,5.6-0.1,11.2,0.2,16.8c1.5,1.4,3.4,2.2,4.8,3.6c-5.2,0.6-10.4,0.6-15.6,0
		c1.3-1.2,2.7-2.3,4.2-3.4c-0.1-5,0.1-10.1-0.1-15.1c-0.2-1.3-0.6-3.7-2.4-3.4c-2.8-0.4-4.9,1.9-7.1,3.4c0,5.1,0,10.1,0,15.2
		c1.6,1,3.2,2,4.8,3.2c-5.1,0.9-10.3,0.7-15.4,0.1c1.3-1.3,2.8-2.4,4.2-3.4c-0.2-5.6,0.5-11.3-0.4-16.9c-2.1-3.9-6.8,0.1-9.3,1.8
		c0,5.1,0,10.1,0,15.2c1.6,1,3.2,2.1,4.7,3.2c-5.3,0.8-10.7,0.8-16,0c1.5-1.2,3.2-2.2,4.9-3.2c-0.1-6.1,0-12.1,0-18.2
		C851.2,186.2,849.6,185.5,848,184.8z"/>
	<path class="st3" d="M779,202.3c2.7-2.1,7,0.2,6.7,3.6c-0.2,3.9-5.6,6.1-8.4,3.2C775.9,206.9,776.6,203.5,779,202.3z"/>
</g>
</svg>
