<?xml version="1.0" encoding="utf-8"?>
<!-- Generator: Adobe Illustrator 22.0.1, SVG Export Plug-In . SVG Version: 6.00 Build 0)  -->
<svg version="1.1" id="Layer_1" xmlns="http://www.w3.org/2000/svg" xmlns:xlink="http://www.w3.org/1999/xlink" x="0px" y="0px"
	 viewBox="0 0 310 90" style="enable-background:new 0 0 310 90;" xml:space="preserve">
<style type="text/css">
	.st0{fill:#1499CD;}
	.st1{fill:#FF7007;}
</style>
<g>
	<path class="st0" d="M120.6,2.7c1.4-0.4,2.9-0.4,3.9-0.4c1.4,0,2.9,0,3.9,0c1.4,0,2.9,0,3.9,0c1.4,0,2.9,0.4,4.3,0.4v31.8
		c0.4-0.7,1.4-1.4,2.1-2.5c0.7-1.1,1.8-1.8,3.2-2.9c1.4-0.7,2.9-1.4,4.6-2.1c1.8-0.7,3.9-1.1,6.4-1.1c6.8,0,11.8,1.8,15,5.7
		s5,9.3,5,17.5V87c-1.4,0.4-2.9,0.4-4.3,0.4c-1.4,0-2.9,0-3.9,0c-1.4,0-2.9,0-3.9,0c-1.4,0-2.9-0.4-4.3-0.4V53.3
		c0-4.3-0.7-7.1-1.8-9.7c-1.4-2.1-3.6-3.2-6.8-3.2c-1.4,0-2.9,0.4-3.9,0.4c-1.4,0.4-2.9,1.1-3.6,2.1c-1.1,1.1-2.1,2.9-2.9,4.6
		c-0.7,2.1-1.1,4.6-1.1,7.9V87c-1.4,0.4-2.9,0.4-4.3,0.4c-1.4,0-2.9,0-3.9,0c-1.4,0-2.9,0-3.9,0c-1.4,0-2.9-0.4-3.9-0.4L120.6,2.7
		L120.6,2.7z"/>
	<path class="st0" d="M187.6,27.2c2.9-0.4,5.4-0.7,8.2-0.7c2.9,0,5.4,0.4,8.2,0.7v31.5c0,3.2,0.4,5.7,0.7,7.9
		c0.7,2.1,1.4,3.6,2.5,4.6s2.5,2.1,3.9,2.5s3.2,0.7,5.4,0.7c2.9,0,5.4-0.4,7.1-0.7V26.9c2.9-0.4,5.4-0.7,8.2-0.7
		c2.8,0,5.4,0.4,8.2,0.7v57.2c-2.5,0.7-5.7,1.8-9.7,2.5c-3.9,0.7-8.2,1.1-12.5,1.1c-3.9,0-7.9-0.4-11.4-1.1s-6.8-1.8-9.7-3.9
		s-5-5-6.4-8.9c-1.8-3.9-2.5-8.9-2.5-15.4L187.6,27.2L187.6,27.2z"/>
	<path class="st0" d="M254.1,2.7c2.9-0.4,5.4-0.7,8.2-0.7c2.9,0,5.4,0.4,8.2,0.7V33c1.1-2.1,2.9-3.6,5.7-5c2.9-1.4,5.7-2.1,9.3-2.1
		s6.8,0.7,9.7,1.8s5.4,3.2,7.5,5.7s3.9,5.7,5,9.3c1.1,3.9,1.8,8.2,1.8,13.2s-0.7,9.3-2.5,13.6c-1.4,3.9-3.6,7.1-6.8,10
		c-2.9,2.9-6.4,5-10.7,6.4s-8.9,2.1-14.3,2.1c-1.8,0-3.6,0-5.4-0.4s-3.6-0.4-5.7-0.7c-1.8-0.4-3.6-0.7-5.7-1.1
		c-1.8-0.4-3.2-0.7-4.6-1.4L254.1,2.7L254.1,2.7L254.1,2.7z M270.4,74.2c1.1,0.4,1.8,0.4,2.9,0.4s2.1,0,3.2,0c5,0,8.9-1.4,11.8-4.3
		s4.3-7.5,4.3-13.6c0-5.7-0.7-9.7-2.9-12.5c-2.1-2.9-4.6-4.3-8.9-4.3c-3.2,0-5.7,1.1-7.5,3.2c-1.8,2.1-2.9,5.4-2.9,9.7V74.2
		L270.4,74.2z"/>
</g>
<path class="st1" d="M60.9,25.8c3.6,0,7.1-1.8,8.2-3.9c-1.4-3.2-4.6-5.4-8.2-5.4s-6.8,2.1-8.2,5.4C53.9,24.5,57.1,25.8,60.9,25.8z"
	/>
<g>
	<path class="st0" d="M50.6,82.7c-21.8,0-39.7-17.9-39.7-39.7s18-39.7,39.7-39.7S90.3,21.2,90.3,43S72.7,82.7,50.6,82.7z M50.6,7.2
		C30.9,7.2,14.9,23.3,14.9,43S31,78.7,50.6,78.7S86.3,62.6,86.3,43S70.2,7.2,50.6,7.2z"/>
</g>
<path class="st1" d="M7.1,48c0-9.3,9.7-16.4,21.4-16.4S49.9,39.2,49.9,48s-9.7,16.8-21.4,16.8C16.6,64.5,7.1,57,7.1,48z"/>
<path class="st1" d="M101.4,42.2c0-0.4,0-1.1,0-1.4c-3.2-2.5-7.1-3.9-11.4-3.9c-10,0-18.2,8.2-18.2,18.2c0,0.4,0,1.1,0,1.4
	c2.9,2.1,6.8,3.2,10.7,3.2C92.7,59.8,101.4,52,101.4,42.2z"/>
<circle class="st1" cx="28.4" cy="58.7" r="27.9"/>
<circle class="st1" cx="89.9" cy="54.8" r="18.6"/>
<circle class="st1" cx="60.9" cy="25.5" r="9.3"/>
</svg>
