<?xml version="1.0" encoding="utf-8"?>
<!-- Generator: Adobe Illustrator 22.0.1, SVG Export Plug-In . SVG Version: 6.00 Build 0)  -->
<svg version="1.1" id="图层_1" xmlns="http://www.w3.org/2000/svg" xmlns:xlink="http://www.w3.org/1999/xlink" x="0px" y="0px"
	 viewBox="0 0 720 280" style="enable-background:new 0 0 720 280;" xml:space="preserve">
<style type="text/css">
	.st0{fill:#9B5C8F;}
	.st1{fill:#FFFFFF;}
	.st2{fill:#464646;}
	.st3{fill:#21759B;}
</style>
<g id="_x23_9b5c8fff">
	<path class="st0" d="M10.8,13.9c4.4-5.6,11.6-8.2,18.6-8.4c64.3,0,128.7,0,193,0c8.7,0.2,17.4,4.9,21.1,12.9c2.4,4.3,2,9.3,2,14.1
		c0,23.7,0,47.4,0,71c0.2,11.5-10.7,21.6-22.1,21.1c-23.4,0-46.8,0-70.2,0c3.3,7.9,6.4,15.9,9.8,23.7c-13.3-7.5-26.8-14.8-40.1-22.3
		c-1.4-0.8-2.8-1.5-4.4-1.4c-30.4,0-60.8,0-91.1,0c-11.7,0.2-21.6-10.5-21.7-22c-0.2-23.7,0-47.4-0.1-71.1
		C5.5,25.2,6.7,18.7,10.8,13.9 M106.9,19c-3.6,0.6-5.5,4.1-6.8,7c-7.2,15.8-9.2,33.2-11.6,50.2c-4-9.9-6.7-20.4-8.8-30.9
		c-0.7-3-1.2-6.4-3.6-8.7c-2.8-2.1-7.3-1.8-9.6,0.9c-2.9,3-4.4,7-6.3,10.6c-5.9,11.2-11.7,22.4-17.7,33.6
		c-4.3-16.9-7.2-34.2-9.9-51.4c-0.4-2.7-1.5-6-4.4-6.9c-3.7-1-8.5-0.6-10.7,2.9c-2.1,2.9-1.1,6.7-0.8,9.9
		C20.4,57.7,23.8,79.2,30,100c1.5,4.4,2.6,9.4,6.2,12.6c2.7,2.1,6.2,0.2,8.3-1.9c4.8-4.9,7.9-11.1,11-17.2
		c4.1-8.4,8.5-16.7,12.6-25.2c4.1,13.3,9.2,26.6,18.1,37.5c2.4,2.9,4.9,6.1,8.7,7.5c2.6,0.6,5.8,0.2,7.4-2.2
		c3.1-4.3,1.4-9.8,1.7-14.7c0.4-8,0.8-15.9,2-23.8c2.1-14.6,4.4-29.4,10.9-42.8C119.5,23.9,112.8,17.4,106.9,19 M141.7,29.8
		c-5.9,1.1-11.2,4.5-14.9,9.1c-8.4,10.3-12.4,24.1-11.2,37.3c0.8,7.8,3.6,15.8,9.7,21.1c9.2,7.8,24.2,7.4,32.8-1.1
		c9.4-9.6,14.2-23.3,13.7-36.7c0.1-7.4-1.9-15-6.5-21C160,31.4,150.3,28.2,141.7,29.8 M202.8,29.8c-4.9,1-9.3,3.6-12.8,7.2
		c-6.7,6.9-10.8,16.2-12.4,25.6c-1.6,10.7-0.8,22.6,6,31.5c8,10.4,24.9,11.9,34.6,3.2c9.3-8.2,14-20.6,15.1-32.8
		c0.7-9.5-1.2-19.9-7.6-27.3C220.2,30.9,211,28.2,202.8,29.8z"/>
	<path class="st0" d="M140.1,49.1c1.8-1.9,4.2-2.8,6.5-3.9c6.1,1.8,8.3,8.4,8.8,14.1c0.5,7.6-1.4,15.6-6.2,21.7
		c-2.2,2.9-5.6,4.3-8.8,5.7c-3.1-1.6-5.9-4-6.9-7.4C129.9,69.1,132.7,57,140.1,49.1z"/>
	<path class="st0" d="M201.3,49.3c1.8-2.1,4.5-3,6.9-4.1c6.6,2.4,8.6,9.9,8.7,16.2c-0.2,7.1-1.9,14.6-6.7,20
		c-2.1,2.6-5.2,3.9-8.2,5.3c-6-2-8.1-8.6-8.7-14.3C192.7,64.1,195.8,55.6,201.3,49.3z"/>
</g>
<g id="_x23_ffffffff">
	<path class="st1" d="M106.9,19c5.9-1.6,12.6,4.9,9.9,10.8c-6.5,13.4-8.8,28.2-10.9,42.8c-1.2,7.9-1.6,15.8-2,23.8
		c-0.3,4.9,1.4,10.4-1.7,14.7c-1.6,2.4-4.8,2.8-7.4,2.2c-3.7-1.3-6.2-4.6-8.7-7.5c-8.8-10.9-14-24.2-18.1-37.5
		c-4.1,8.5-8.5,16.8-12.6,25.2c-3.1,6.1-6.2,12.2-11,17.2c-2,2.1-5.6,4-8.3,1.9c-3.6-3.2-4.7-8.2-6.2-12.6
		c-6.2-20.8-9.6-42.3-13.3-63.7c-0.4-3.3-1.4-7,0.8-9.9c2.2-3.5,7-3.9,10.7-2.9c2.9,0.9,4,4.2,4.4,6.9c2.7,17.2,5.6,34.5,9.9,51.4
		c6-11.1,11.8-22.4,17.7-33.6c2-3.6,3.5-7.5,6.3-10.6c2.3-2.7,6.8-3.1,9.6-0.9c2.3,2.3,2.9,5.7,3.6,8.7c2.1,10.5,4.7,21,8.8,30.9
		c2.4-17,4.4-34.4,11.6-50.2C101.4,23.1,103.3,19.6,106.9,19z"/>
	<path class="st1" d="M141.7,29.8c8.6-1.5,18.3,1.6,23.6,8.8c4.6,6,6.5,13.5,6.5,21c0.5,13.4-4.2,27.1-13.7,36.7
		c-8.6,8.6-23.6,9-32.8,1.1c-6.1-5.3-8.9-13.3-9.7-21.1c-1.2-13.2,2.8-27,11.2-37.3C130.5,34.3,135.8,30.9,141.7,29.8 M140.1,49.1
		c-7.4,7.9-10.2,20-6.6,30.2c1,3.5,3.8,5.8,6.9,7.4c3.2-1.5,6.6-2.8,8.8-5.7c4.8-6.1,6.7-14.1,6.2-21.7c-0.5-5.7-2.7-12.3-8.8-14.1
		C144.3,46.3,141.8,47.2,140.1,49.1z"/>
	<path class="st1" d="M202.8,29.8c8.2-1.6,17.3,1,22.9,7.4c6.4,7.4,8.3,17.8,7.6,27.3c-1.1,12.2-5.8,24.5-15.1,32.8
		c-9.7,8.7-26.6,7.2-34.6-3.2c-6.8-8.9-7.6-20.8-6-31.5c1.7-9.4,5.7-18.7,12.4-25.6C193.5,33.4,198,30.8,202.8,29.8 M201.3,49.3
		c-5.5,6.3-8.6,14.8-7.9,23.2c0.6,5.7,2.7,12.2,8.7,14.3c2.9-1.4,6.1-2.8,8.2-5.3c4.8-5.4,6.5-12.9,6.7-20
		c-0.1-6.3-2.1-13.8-8.7-16.2C205.9,46.4,203.1,47.2,201.3,49.3z"/>
</g>
<g id="_x23_000000ff">
	<path d="M280,33.9c8.2-3.7,17.5-3.7,26.2-1.9c0,5.3,0,10.5,0,15.8c-5.1-1-10.6-2.4-15.7-0.3c-7,2.7-10.8,10.6-10.4,17.8
		c-0.4,6.6,2.2,13.8,8.1,17.3c5.4,3.4,12.1,2.4,18,0.8c-0.1,5.3,0,10.6,0,15.9c-10.7,2.8-22.8,1.7-31.8-5
		c-11.5-8.2-15.7-23.8-12.8-37.2C263.3,47,270.7,38.2,280,33.9z"/>
	<path d="M333.8,31.1c9.2-1.3,19.6,0.9,26.2,7.8c5.4,5.8,7.6,13.8,8.3,21.5c0.6,9.3-0.2,19.1-4.7,27.3c-3.9,7-11.1,12.1-19.1,12.9
		c-9,1.2-19.3-0.5-25.8-7.4c-7.5-8.2-9.1-19.9-8.8-30.6c0.2-8.8,2.5-18.1,9.1-24.3C322.9,34.1,328.3,31.8,333.8,31.1 M334.9,46.9
		c-2.7,1.5-4,4.7-4.8,7.6c-1.4,6.2-1,12.7-0.7,19c0.3,4.2,1.3,9.3,5.5,11.5c3.8,1.3,8.9,0.8,11.2-2.9c2.6-4.4,2.7-9.7,3.1-14.6
		c0.1-6-0.1-12.3-3.2-17.6C343.9,46,338.6,45.2,334.9,46.9z"/>
	<path d="M642.8,35.9c8.8-5.6,19.8-6,29.7-3.8c0,5.3,0,10.5,0,15.8c-5.4-1-11.2-2.5-16.4,0.1c-12.3,6.2-13.2,26.3-2.2,34.3
		c5.5,3.8,12.5,2.9,18.6,1.3c0,5.3,0,10.6,0,15.9c-8,1.9-16.6,2-24.3-1c-8.9-3.3-16.1-10.9-19-19.9c-1.9-5.1-1.9-10.7-1.8-16.1
		C627.3,51.7,633.6,41.4,642.8,35.9z"/>
	<path d="M378.5,32.5c7.5,0,15.1,0.1,22.6,0c2.8,12.5,5.5,25,7.7,37.6c2-12.6,5.2-25,8-37.5c7.8-0.1,15.6,0,23.4-0.1
		c3.1,22.3,6,44.6,9.1,66.9c-5.9-0.1-11.9-0.1-17.8,0c-2.1-15-3.1-30.2-5-45.2c-4,15-7.3,30.2-11.2,45.2c-4,0-8,0-12,0
		c-3.9-15.2-7.9-30.4-11.5-45.7c-1.9,15.2-3.4,30.4-4.6,45.7c-5.7,0-11.5,0-17.2,0C372.6,77.1,375.6,54.8,378.5,32.5z"/>
	<path d="M460.1,32.5c7.6,0,15.3,0,22.9,0c2.6,12.3,5.1,24.6,7.6,36.8c2.1-12.4,5-24.7,8-36.9c7.8,0.1,15.6,0,23.3,0.1
		c2.6,22.3,6.2,44.5,8.7,66.8c-5.9,0-11.8,0-17.7,0c-1.8-15.3-3-30.7-5-46c-3.2,15.4-7.4,30.6-10.9,46c-4.1,0-8.2,0-12.2-0.1
		c-3.7-14.9-7.4-29.9-11.4-44.7c-2.1,14.9-3.1,29.8-4.7,44.8c-5.7,0-11.5,0-17.2,0C454.5,77.2,457.3,54.8,460.1,32.5z"/>
	<path d="M536.1,32.6c12.1,0,24.2,0,36.4,0c0,4.8,0,9.6,0,14.3c-6.1,0-12.2,0-18.3,0c0,4.1,0,8.3,0,12.4c5.4,0,10.8,0,16.1,0
		c0,4.5,0,9,0,13.5c-5.4,0-10.8,0-16.1,0c0,4.1,0,8.2,0,12.3c6.1,0,12.3,0,18.4,0c0,4.7,0,9.5,0,14.2c-12.1,0-24.3,0-36.4,0
		C536.1,77.1,536.1,54.9,536.1,32.6z"/>
	<path d="M577.8,32.5c11.5,0.5,23.3-1.5,34.5,2.1c6.8,2.1,12.7,7.7,13.8,14.9c1.6,8.1-3.4,16.3-10.7,19.8c4.9,9.9,9.6,20,14.5,30
		c-6.4,0-12.7,0-19.1,0.1c-4.9-10.3-9.8-20.6-14.8-30.8c0,10.2,0,20.5,0,30.8c-6,0-12.1,0-18.2,0C577.8,77.1,577.8,54.8,577.8,32.5
		 M595.8,45.2c0,5.5,0,11,0,16.4c4.3-0.4,8.7-1.3,11.8-4.4c-0.2-3,0.5-6.7-2-9C603,45.8,599.2,45.7,595.8,45.2z"/>
	<path d="M677.4,32.5c12.3,0,24.5,0,36.8,0c0,4.8,0,9.5,0,14.3c-6.3,0-12.5,0-18.8,0c0,4.1,0,8.2,0,12.4c5.3,0,10.7,0,16,0
		c0,4.5,0,9,0,13.5c-5.3,0-10.7,0-16,0c0,4.2,0,8.3,0,12.4c6.3,0,12.7,0,19,0c0,4.8,0,9.5,0,14.3c-12.3,0-24.7,0-37,0
		C677.4,77.1,677.4,54.8,677.4,32.5z"/>
</g>
<g id="_x23_464646ff">
	<path class="st2" d="M255.9,162.2c12.5-2.1,25.7-0.2,36.8,5.9c13.3,7.1,23.5,19.8,27.6,34.3c4.2,15,2.1,31.7-6,45
		c-7.5,12.3-19.7,21.6-33.6,25.2c-15.7,4.2-33.3,1.5-46.7-7.8c-15.2-10.2-24.9-28.1-24.7-46.4c-0.3-12.6,4-25.3,11.8-35.2
		C229.6,172.2,242.3,164.5,255.9,162.2 M255.9,165.1c-14.6,2.7-27.7,11.8-35.6,24.3c-7.9,12.5-10.3,28.3-6.3,42.6
		c3.3,12.5,11.4,23.5,22.1,30.6c12.9,8.7,29.6,11.4,44.6,7c12.6-3.6,23.7-12.1,30.7-23.2c7.6-12,10.2-27.2,6.8-41
		c-3.3-13.8-12.3-26.1-24.5-33.4C282.6,165.1,268.8,162.6,255.9,165.1z"/>
	<path class="st2" d="M225.1,191.4c8.9-13.7,24.9-22.5,41.3-22c11.9-0.2,23.3,4.8,32.3,12.4c-3.7,0.8-7.6,2.8-8.4,6.8
		c-1.5,5.8,3.2,10.6,5.5,15.5c3.3,5.9,3.6,13,1.6,19.4c-2.5,8.1-4.9,16.2-7.4,24.4c-5.9-17.5-11.8-35.1-17.7-52.6
		c3-0.4,7.9,0.4,7.6-4.1c-8.9,0.2-17.8,0.8-26.7,0c-2-0.7-4.4,1.3-2.8,3.2c2.1,0.6,4.3,0.7,6.4,1c2.1,5.5,4,11,6.1,16.5
		c0.7,2,1.7,4.2,0.8,6.3c-3.3,10.1-6.7,20.1-10,30.1c-6-17.7-11.9-35.3-17.8-53c2.1-0.2,4.2-0.3,6.3-0.8c2.1-0.5,0.9-3.9-1-3.4
		C236,191.1,230.5,191.6,225.1,191.4z"/>
	<path class="st2" d="M308.5,194.1c6.7,12.6,8,27.9,2.8,41.3c-3.9,10.5-11.7,19.2-21.3,24.9c5.3-16,11-31.9,16.5-47.8
		C308.6,206.5,308.9,200.3,308.5,194.1z"/>
	<path class="st2" d="M522.6,196.9c0-0.5,0.1-1.5,0.2-2c7.9,0,15.8,0,23.7,0c4.8,0,10,1.4,13.4,5.1c4.7,5.1,4.1,14.1-1.5,18.3
		c-5.4,4.4-12.7,3.9-19.2,3.9c0.2,5-0.5,10.4,1.4,15.2c1.6,3.3,6.6,1.4,8.1,4.8c-8.7,0.4-17.4,0.2-26.1,0.2c0.1-0.5,0.3-1.6,0.3-2.1
		c2.5-0.6,6-0.4,7.1-3.2c1.5-3.7,1.1-7.8,1.2-11.7c-0.1-6.6,0.1-13.2-0.1-19.9c-0.3-2.5-0.3-5.6-2.6-7.1
		C526.6,197.5,524.5,197.4,522.6,196.9 M539.2,198.9c0,6.4,0,12.7,0,19.1c3.5-0.2,7.3,0.3,10.6-1.2c5.6-3.1,5.8-11.9,1.2-15.9
		C547.6,198.3,543.1,199.1,539.2,198.9z"/>
	<path class="st2" d="M220.2,234.7c-4.4-11.8-3.8-25.3,1.3-36.9c8,21.3,15.7,42.8,23.5,64.2C233.7,256.5,224.5,246.6,220.2,234.7z"
		/>
	<path class="st2" d="M148.3,203.8c3.7,0,7.5,0,11.2,0c0,5.6,0,11.3,0,16.9c5.6,0,11.2,0,16.9,0c0,3.8,0,7.5,0,11.2
		c-5.6,0-11.2,0-16.9,0c0,5.6,0,11.2,0,16.9c-3.8,0-7.5,0-11.2,0c0-5.6,0-11.2,0-16.9c-5.6,0-11.3,0-16.9,0c0-3.8,0-7.5,0-11.2
		c5.6,0,11.2,0,16.9,0C148.3,215,148.3,209.4,148.3,203.8z"/>
	<path class="st2" d="M646.7,216.5c-1.5-5.6,3.3-10.9,8.7-11.8c3.9-1,7.9,0.3,11.4,2c1.1-1.1,2.2-2.1,3.5-3.1
		c0.2,4.6,0.1,9.1,0.1,13.7c-0.5,0-1.6,0-2.2,0c-1.1-4.3-3.7-9.2-8.8-9.3c-3.7-0.8-8.7,3.2-5.6,6.8c5.4,5.3,14.5,5.7,18.7,12.4
		c3.5,5.8-0.4,13.6-6.5,15.6c-5.2,2.2-10.9,0.6-15.5-2.3c-1.1,1.5-2.3,3-3.9,4.1c-0.4-5.3-0.2-10.7-0.2-16c0.6,0,1.7,0,2.2,0
		c1.2,5,4.3,10.3,9.9,11.1c3.7,1.1,9.2-0.7,8.9-5.2c-0.8-4.2-5.4-5.8-8.7-7.4C653.8,225,647.8,222.4,646.7,216.5z"/>
	<path class="st2" d="M683,208c4.6-4.7,12.1-4.2,17.5-1.2c1.1-1.1,2.3-2.1,3.5-3.1c0.2,4.6,0.1,9.1,0.2,13.7c-0.5,0-1.7,0-2.2,0
		c-1-2.9-1.9-6.2-4.6-7.9c-2.9-2-7.5-2.1-9.9,0.7c-1.5,1.6-0.8,4.2,0.8,5.4c5.1,4.2,12.3,5.1,16.9,10.1c4.2,4.6,2.5,12.6-2.7,15.8
		c-5.5,3.9-13,2.6-18.3-1c-1,1.6-2.2,3.1-3.9,4.1c-0.2-5.6-0.2-11.2,0-16.7c2.5,0.9,3,3.6,4,5.6c2.2,5.1,8.8,7.8,13.9,5.7
		c2.9-1.1,4-5.2,1.7-7.5c-4.8-5-12.6-5.5-17.2-10.8C679.5,217.5,679.3,211.4,683,208z"/>
	<path class="st2" d="M565.1,207.9c0-0.7,0-1.5,0-2.2c8.7,0.4,17.6-0.9,26.1,1c5.5,1.2,9.8,7,7.9,12.7c-1.2,4.4-5.7,6.5-9.7,7.8
		c4.6,4.5,8.3,10.4,14.7,12.6c2.4,0.9,6.1,0.4,6.9-2.4c1.1-4.5,0.4-9.2,0.6-13.9c-0.1-4.2,0.5-8.5-0.7-12.6c-1-2.6-4.2-2.3-6.4-2.9
		c0-0.5,0.1-1.6,0.1-2.2c10.8,0,21.5,0,32.3,0c0.3,3.9,0.7,7.7,0.6,11.6c-2.9-1.8-2.5-6.8-6.3-7.4c-3.9-0.8-7.9-0.3-11.9-0.4
		c0,4.1,0,8.1,0,12.1c2.4-0.3,4.8-0.2,7.1-1.1c2.1-1.1,1.7-3.8,2.2-5.7c0.5,0,1.4,0.1,1.9,0.1c0,5.5,0,11,0,16.5c-0.5,0-1.5,0-1.9,0
		c-0.7-1.9,0-5.1-2.5-5.7c-2.2-0.6-4.6-0.7-6.9-0.9c0.3,4.3-0.8,9.1,1.6,12.9c3.8,2,8.3,1.3,12.3,0.7c3.8-0.5,3.6-5.4,6.4-7.3
		c0.1,3.8-0.2,7.6-0.5,11.3c-15.1,0.1-30.2,0-45.4,0c-4.5-5.4-8.3-11.4-13.6-16.1c0,3.9-0.6,7.9,0.8,11.6c1.2,2.2,4.2,1.9,6.3,2.5
		c0,0.5,0,1.5,0,1.9c-7.4,0-14.8,0-22.3,0c0-0.5,0-1.5,0-1.9c2-0.4,4-0.8,6-1.3c2-6.1,1.1-12.5,1.3-18.7c-0.1-3.4,0.3-7-1-10.2
		C570.3,208,567.3,208.4,565.1,207.9 M580.2,209.4c0,4.8,0,9.6,0,14.4c2.6-0.2,5.2,0.1,7.7-0.8c4.8-2.3,4.9-10.6,0-12.9
		C585.4,209.1,582.7,209.5,580.2,209.4z"/>
	<path class="st2" d="M266.7,221.8c5.2,14,10.3,28.1,15.4,42.2c-9.8,3.1-20.3,3.4-30.2,0.7C256.9,250.4,261.8,236.1,266.7,221.8z"/>
</g>
<g id="_x23_21759bff">
	<path class="st3" d="M378.4,194.9c6.9,0,13.8,0,20.7,0c0,0.5,0.1,1.5,0.1,2c-2.8,0.6-6.3,0.5-8.1,3.1c-2.9,4.3-3.9,9.5-5.7,14.3
		c-3.5,10-6.4,20.2-10.2,30.1c-0.3,0-1,0-1.3,0.1c-4-11.2-7.4-22.6-11.2-33.9c-3.9,11.2-7.3,22.7-11.5,33.8c-0.3,0-0.9,0.1-1.2,0.1
		c-4.2-11.5-7.6-23.3-11.5-35c-1.2-3.3-2-7-4.2-9.8c-2-2.7-6.5-1.3-8-4.6c8.6-0.3,17.3-0.2,25.9-0.1c-0.9,3.1-4.5,2-6.6,3.4
		c-1.5,1.5-0.8,3.8-0.4,5.6c2.4,7.8,5.1,15.5,7.6,23.3c3.6-10.8,7.2-21.6,10.9-32.4c0.6,0,1.8,0,2.4,0c3.5,10.8,7.2,21.5,10.6,32.4
		c2.6-7.3,5-14.7,7.5-22c0.5-2,1.5-4.2,0.6-6.2c-1.5-1.9-4.2-1.5-6.3-2.2C378.4,196.5,378.4,195.5,378.4,194.9z"/>
	<path class="st3" d="M407.9,205.1c9.8-2.6,21.4,1.6,26.1,10.8c3.9,7.4,1.7,17.1-4.7,22.4c-9.1,8.1-24.7,7.4-32.8-1.9
		c-4.2-4.7-5.8-11.6-3.9-17.7C394.8,211.9,401,206.8,407.9,205.1 M408.8,209c-9.3,4.3-10.5,17.6-5.5,25.6c4.2,7,15.5,7.6,20.5,1.1
		c4.8-6.3,4.9-15.8,0.6-22.4C421.2,208.4,414.2,206.7,408.8,209z"/>
	<path class="st3" d="M437.7,205.7c6.3,0,12.5-0.1,18.8,0c4.2,0.1,8.8,0.7,12.1,3.5c4,3.2,4.5,9.6,1.1,13.4c-2,2.5-5.1,3.4-7.9,4.5
		c3.8,3.8,7,8.4,11.7,11.2c3.1,1.9,7.3,2.8,10.5,0.6c2.1-2.7,1.5-6.4,1.7-9.6c-0.2-6,0.5-12-0.5-18c-0.5-3.2-4.3-3.1-6.8-3.5
		c0-0.6,0-1.7,0-2.2c6.7,0.1,13.4-0.1,20.1,0.1c5.5,0.2,11.4,1.1,15.9,4.6c8.5,6.4,8.6,21,0.2,27.5c-4.6,3.6-10.6,4.7-16.2,4.7
		c-10.7,0-21.5,0-32.2,0c-4.6-5.3-8.2-11.5-13.7-15.9c-0.1,3.7-0.4,7.5,0.7,11.1c1,2.6,4.2,2.3,6.4,2.9c0,0.5,0,1.4,0,1.9
		c-7.3,0-14.7,0-22,0c0-0.5,0-1.4,0-1.9c2.1-0.6,5-0.4,6.1-2.6c1.3-3.7,0.7-7.6,0.9-11.5c-0.2-5,0.4-10-0.5-15
		c-0.5-3.2-4.2-3.2-6.6-3.6C437.6,207.3,437.7,206.2,437.7,205.7 M452.4,209.4c0,4.8,0,9.6,0,14.4c2.5-0.1,5.2,0.1,7.6-0.8
		c5.1-2.2,5.1-10.9,0-13.1C457.6,209.1,454.9,209.5,452.4,209.4 M493.4,209.4c0,8,0,16.1,0,24.1c0.1,1.6,0,3.5,1.2,4.7
		c3,1.2,6.4,0.6,9.5-0.2c4.5-1.4,7.2-6.1,7.6-10.6c0.6-5.4,0-12.1-4.7-15.6C503.1,208.7,498,209.5,493.4,209.4z"/>
</g>
</svg>
