<?xml version="1.0" encoding="utf-8"?>
<!-- Generator: Adobe Illustrator 22.0.1, SVG Export Plug-In . SVG Version: 6.00 Build 0)  -->
<svg version="1.1" id="图层_1" xmlns="http://www.w3.org/2000/svg" xmlns:xlink="http://www.w3.org/1999/xlink" x="0px" y="0px"
	 viewBox="0 0 550 150" style="enable-background:new 0 0 550 150;" xml:space="preserve">
<style type="text/css">
	.st0{fill:#00749A;}
	.st1{fill:#464342;}
</style>
<g id="Layer_1">
</g>
<g id="Layer_2">
	<g>
		<path class="st0" d="M318.2,62h-21.3v2.3c6.6,0,7.7,1.4,7.7,9.9v15.2c0,8.4-1.1,10-7.7,10c-5.1-0.7-8.5-3.4-13.3-8.7l-5.5-5.9
			c7.4-1.3,11.3-5.9,11.3-11.2c0-6.5-5.6-11.5-16-11.5h-20.9v2.3c6.6,0,7.7,1.4,7.7,9.9v15.2c0,8.4-1.1,10-7.7,10v2.3h23.6v-2.3
			c-6.6,0-7.7-1.5-7.7-10V85h2l13.2,16.5h34.6c17,0,24.3-9,24.3-19.8C342.5,70.9,335.2,62,318.2,62z M268.4,81.3V65.5h4.9
			c5.3,0,7.7,3.7,7.7,8c0,4.2-2.4,7.8-7.7,7.8L268.4,81.3L268.4,81.3z M318.5,97.8h-0.8c-4.3,0-4.9-1.1-4.9-6.5V65.5
			c0,0,5.2,0,5.7,0c12.4,0,14.6,9,14.6,16C333.2,88.8,330.9,97.8,318.5,97.8z"/>
		<path class="st0" d="M186.4,85.7l8.2-24.2c2.4-7,1.3-9-6.3-9v-2.4h22.3v2.4c-7.5,0-9.3,1.8-12.2,10.5l-13.5,40.6h-1.5l-12.1-37.2
			l-12.3,37.2h-1.5l-13.2-40.6c-2.9-8.7-4.8-10.5-11.6-10.5v-2.4h26.4v2.4c-7,0-8.9,1.7-6.4,9l8,24.2l12-35.6h2.3L186.4,85.7z"/>
		<path class="st0" d="M226.8,103.1c-13.1,0-23.8-9.6-23.8-21.4c0-11.6,10.7-21.3,23.8-21.3c13.1,0,23.8,9.6,23.8,21.3
			C250.5,93.4,239.8,103.1,226.8,103.1z M226.8,64.1c-10.9,0-14.7,9.9-14.7,17.6c0,7.8,3.8,17.6,14.7,17.6c11,0,14.8-9.7,14.8-17.6
			C241.6,74,237.8,64.1,226.8,64.1z"/>
		<path class="st1" d="M371.9,99.1v2.4h-27.2v-2.4c8,0,9.4-2,9.4-13.9v-19c0-11.9-1.4-13.8-9.4-13.8v-2.4h24.6
			c12.2,0,19,6.3,19,14.7c0,8.2-6.8,14.6-19,14.6h-6.8v5.8C362.5,97.1,363.9,99.1,371.9,99.1z M369.3,54.4h-6.8V75h6.8
			c6.7,0,9.7-4.6,9.7-10.2C379,59.1,375.9,54.4,369.3,54.4z"/>
		<path class="st1" d="M469.8,90.3l-0.6,2.1c-1.1,3.9-2.4,5.3-10.8,5.3h-1.7c-6.2,0-7.2-1.4-7.2-9.9v-5.5c9.3,0,10,0.8,10,7h2.3
			V71.8h-2.3c0,6.2-0.7,7-10,7V65.5h6.5c8.4,0,9.7,1.4,10.8,5.3l0.6,2.3h1.9L468.5,62h-34.9v2.3c6.6,0,7.7,1.4,7.7,9.9v15.2
			c0,7.7-0.9,9.7-6.2,9.9c-5-0.8-8.4-3.5-13.1-8.6l-5.5-5.9c7.4-1.3,11.3-5.9,11.3-11.2c0-6.5-5.6-11.5-16-11.5H391v2.3
			c6.6,0,7.7,1.4,7.7,9.9v15.2c0,8.4-1.1,10-7.7,10v2.3h23.6v-2.3c-6.6,0-7.7-1.5-7.7-10V85h2l13.2,16.5h48.8l0.7-11.2L469.8,90.3
			L469.8,90.3z M406.9,81.3V65.5h4.9c5.3,0,7.7,3.7,7.7,8c0,4.2-2.4,7.8-7.7,7.8L406.9,81.3L406.9,81.3z"/>
		<path class="st1" d="M493.9,103.1c-4.8,0-8.9-2.5-10.7-4c-0.6,0.6-1.7,2.4-1.9,4h-2.3V86.7h2.4c1,7.8,6.4,12.5,13.4,12.5
			c3.8,0,6.9-2.1,6.9-5.7c0-3.1-2.7-5.5-7.6-7.7l-6.8-3.2c-4.8-2.3-8.3-6.2-8.3-11.4c0-5.7,5.3-10.6,12.7-10.6
			c3.9,0,7.2,1.4,9.3,3.1c0.6-0.5,1.2-1.8,1.5-3.2h2.3v14h-2.5c-0.8-5.6-3.9-10.2-10.2-10.2c-3.3,0-6.4,1.9-6.4,4.9
			c0,3.1,2.5,4.7,8.2,7.4l6.5,3.2c5.7,2.7,8,7.1,8,10.7C508.4,97.8,501.9,103.1,493.9,103.1z"/>
		<path class="st1" d="M530.5,103.1c-4.8,0-8.9-2.5-10.7-4c-0.6,0.6-1.7,2.4-1.9,4h-2.3V86.7h2.4c1,7.8,6.4,12.5,13.4,12.5
			c3.8,0,6.9-2.1,6.9-5.7c0-3.1-2.7-5.5-7.6-7.7l-6.8-3.2c-4.8-2.3-8.3-6.2-8.3-11.4c0-5.7,5.3-10.6,12.7-10.6
			c3.9,0,7.2,1.4,9.3,3.1c0.6-0.5,1.2-1.8,1.5-3.2h2.3v14h-2.5c-0.8-5.6-3.9-10.2-10.2-10.2c-3.3,0-6.4,1.9-6.4,4.9
			c0,3.1,2.5,4.7,8.2,7.4l6.5,3.2c5.7,2.7,8,7.1,8,10.7C545,97.8,538.5,103.1,530.5,103.1z"/>
		<g>
			<path class="st1" d="M13.7,75c0,20.8,12.1,38.8,29.6,47.3L18.3,53.6C15.3,60.1,13.7,67.4,13.7,75z"/>
			<path class="st1" d="M101.7,72.3c0-6.5-2.3-11-4.3-14.5c-2.7-4.3-5.2-8-5.2-12.3c0-4.8,3.7-9.3,8.8-9.3c0.2,0,0.5,0,0.7,0
				c-9.3-8.6-21.8-13.8-35.5-13.8c-18.4,0-34.5,9.4-43.9,23.7c1.2,0,2.4,0.1,3.4,0.1c5.5,0,14-0.7,14-0.7c2.8-0.2,3.2,4,0.3,4.3
				c0,0-2.8,0.3-6,0.5l19.1,56.9l11.5-34.5l-8.2-22.4c-2.8-0.2-5.5-0.5-5.5-0.5c-2.8-0.2-2.5-4.5,0.3-4.3c0,0,8.7,0.7,13.8,0.7
				c5.5,0,14-0.7,14-0.7c2.8-0.2,3.2,4,0.3,4.3c0,0-2.9,0.3-6,0.5l19,56.5l5.2-17.5C100,82.1,101.7,76.8,101.7,72.3z"/>
			<path class="st1" d="M67.2,79.6l-15.8,45.8c4.7,1.4,9.7,2.1,14.8,2.1c6.1,0,12-1.1,17.5-3c-0.1-0.2-0.3-0.5-0.4-0.7L67.2,79.6z"
				/>
			<path class="st1" d="M112.4,49.8c0.2,1.7,0.4,3.5,0.4,5.4c0,5.3-1,11.3-4,18.8l-16.1,46.4c15.6-9.1,26.1-26,26.1-45.4
				C118.8,65.9,116.5,57.3,112.4,49.8z"/>
			<path class="st1" d="M66.3,13.7C32.5,13.7,5,41.2,5,75c0,33.8,27.5,61.3,61.3,61.3c33.8,0,61.3-27.5,61.3-61.3
				C127.5,41.2,100,13.7,66.3,13.7z M66.3,133.5C34,133.5,7.8,107.2,7.8,75c0-32.2,26.2-58.5,58.5-58.5c32.2,0,58.5,26.2,58.5,58.5
				C124.7,107.2,98.5,133.5,66.3,133.5z"/>
		</g>
	</g>
</g>
</svg>
