<?xml version="1.0" encoding="utf-8"?>
<!-- Generator: Adobe Illustrator 22.0.1, SVG Export Plug-In . SVG Version: 6.00 Build 0)  -->
<svg version="1.1" id="图层_1" xmlns="http://www.w3.org/2000/svg" xmlns:xlink="http://www.w3.org/1999/xlink" x="0px" y="0px"
	 viewBox="0 0 620 160" style="enable-background:new 0 0 620 160;" xml:space="preserve">
<style type="text/css">
	.st0{fill:#40BAC8;}
	.st1{fill:#162A33;}
</style>
<path class="st0" d="M48.5,139.4h38.2v-28.9l-9.3-9.3H57.6l-9.1,9.3V139.4z M97.9,60.9L88.8,70v20l9.1,9.1H127V60.9H97.9z
	 M86.7,20.6H48.5v29.1l9.1,9.1h19.8l9.3-9.1V20.6z M127,139.4v-28.9l-9.1-9.3H88.8v38.2H127z M17.3,20.6l-9.1,9.1v29.1h38.2V20.6
	H17.3z M88.8,20.6v29.1l9.1,9.1H127V20.6H88.8z M67.6,85.6c-3,0-5.4-2.6-5.4-5.4c0-3,2.6-5.4,5.4-5.4c3,0,5.4,2.6,5.4,5.4
	S70.6,85.6,67.6,85.6z M46.4,60.9H8.2v38.2h28.9l9.3-9.1C46.4,90,46.4,60.9,46.4,60.9z M46.4,110.5l-9.3-9.3H8.2v38.2h28.9l9.3-9.1
	C46.4,130.3,46.4,110.5,46.4,110.5z"/>
<path class="st1" d="M336.5,50.9c-9.5,0-17,4.9-20,14.4c-0.9,3.3-1.6,7.5-1.6,15.1c0,7.9,0.5,11.9,1.6,15.1
	c3.3,9.8,10.2,14.7,20.7,14.7c8.8,0,15.6-4,19.6-9.5c0.5-0.5,0.5-1.2-0.2-1.6l-0.7-0.7c-0.5-0.5-1.2-0.5-1.6,0.2
	c-3.5,4.7-9.3,8.1-17.2,8.1c-8.4,0-14.7-3.7-17.5-12.3c-0.9-3-1.4-6.5-1.4-12.8c0-0.5,0.2-0.9,0.7-0.9h38c0.9,0,1.4-0.5,1.4-1.2
	c0-7.2-0.5-10.9-1.6-14.2C353.5,55.8,346.2,50.9,336.5,50.9z M354.2,77.4h-34.9c-0.5,0-0.7-0.2-0.7-0.7c0-4.2,0.5-7.2,1.4-10
	c2.6-8.4,8.6-12.3,16.8-12.3s14.2,4.2,16.8,12.3c0.9,2.8,1.4,6.1,1.4,10C354.9,77.2,354.7,77.4,354.2,77.4z"/>
<path class="st1" d="M236.9,50h-14.7c-0.7,0-1.2,0.5-1.2,0.9l-7.5,35.2h-0.2l-9.8-35.2c-0.2-0.7-0.5-0.9-1.2-0.9h-9.1
	c-0.7,0-0.9,0.2-1.2,0.9l-9.3,35.2h-0.2L175,50.9c0-0.5-0.5-0.9-1.2-0.9h-14.7c-0.7,0-0.7,0.5-0.7,0.9l16.3,58.7
	c0.2,0.7,0.5,0.9,1.2,0.9h11.2c0.7,0,0.9-0.2,1.2-0.9l9.5-33.8h0.2l9.5,33.8c0.2,0.7,0.5,0.9,1.2,0.9h11.4c0.7,0,0.9-0.2,1.2-0.9
	l16.3-58.7C237.6,50.4,237.4,50,236.9,50z"/>
<path class="st1" d="M273.4,50h-24.2c-0.5,0-0.9,0.5-0.9,0.9v58.7c0,0.5,0.5,0.9,0.9,0.9v-0.2h14c0.5,0,0.9-0.5,0.9-0.9V90.7
	c0-0.2,0-0.5,0.5-0.5h8.8c14.7,0,22.4-8.6,22.4-20.3S288.1,50,273.4,50z M272.5,77h-7.9c-0.2,0-0.5,0-0.5-0.5V63.9
	c0-0.2,0-0.5,0.5-0.5h7.9c4.9,0,7.7,2.6,7.7,6.8C280.2,74.2,277.4,77,272.5,77z"/>
<path class="st1" d="M493.2,27.8h-2.8c-0.7,0-1.2,0.5-1.2,1.2v4.7c0,0.7,0.5,1.2,1.2,1.2v0.2h2.8c0.7,0,1.2-0.5,1.2-1.2V29
	C494.4,28.3,493.9,27.8,493.2,27.8z"/>
<path class="st1" d="M590,50.9c-9.5,0-17,4.9-20,14.4c-0.9,3.3-1.6,7.5-1.6,15.1c0,7.9,0.5,11.9,1.6,15.1l0,0
	c3,9.8,10.2,14.7,20.7,14.7c8.8,0,15.6-4,19.6-9.5c0.5-0.5,0.5-1.2-0.2-1.6l-0.7-0.7c-0.5-0.5-1.2-0.5-1.6,0.2
	c-3.5,4.7-9.3,8.1-17.2,8.1c-8.4,0-14.7-3.7-17.5-12.3c-0.9-3-1.4-6.5-1.4-12.8c0-0.5,0.2-0.9,0.7-0.9h38c0.9,0,1.4-0.5,1.4-1.2
	c0-7.2-0.5-10.9-1.6-14.2C607,55.8,599.9,50.9,590,50.9z M607.5,77.4h-34.9c-0.5,0-0.7-0.2-0.7-0.7c0-4.2,0.5-7.2,1.4-10
	c2.6-8.4,8.6-12.3,16.8-12.3c8.1,0,14.2,4.2,16.8,12.3c0.9,2.8,1.4,6.1,1.4,10C608.2,77.2,608,77.4,607.5,77.4z"/>
<path class="st1" d="M534.2,51.1c-8.1,0-14.7,4-17.5,10.5h-0.2v-7.9c0-0.7-0.5-1.2-1.2-1.2H514c-0.7,0-1.2,0.5-1.2,1.2v54.5
	c0,0.7,0.5,1.2,1.2,1.2h1.2c0.7,0,1.2-0.5,1.2-1.2V72.3c0-11.2,7.9-17.7,17.5-17.7c10.9,0,16.5,5.8,16.5,19.3v34
	c0,0.7,0.5,1.2,1.2,1.2h1.4c0.7,0,1.2-0.5,1.2-1.2V73C554.2,58.3,547,51.1,534.2,51.1z"/>
<path class="st1" d="M492.5,52.5h-1.2c-0.7,0-1.2,0.5-1.2,1.2V108c0,0.7,0.5,1.2,1.2,1.2h1.2c0.7,0,1.2-0.5,1.2-1.2V53.7
	C493.7,53,493.2,52.5,492.5,52.5z"/>
<path class="st1" d="M469.7,52.8h-1.2c-0.7,0-1.2,0.5-1.2,1.2v8.1H467c-2.8-6.3-7.7-10.7-17.7-10.7c-9.5,0-16.1,5.1-18.9,13.5
	c-1.2,4-1.9,9.1-1.9,16.1s0.5,12.1,1.9,16.1c2.8,8.4,9.3,13.5,18.9,13.5c10,0,14.9-4.4,17.7-10.7h0.2v9.5c0,14-7,19.3-17.7,19.3
	c-7,0-11.9-2.6-15.1-6.8c-0.5-0.7-0.9-0.9-1.6-0.5l-0.9,0.7c-0.7,0.2-0.7,0.9-0.2,1.6c2.8,4.4,9.5,8.1,17.7,8.4
	c13,0,21.4-7,21.4-22.6V53.9C470.9,53.2,470.4,52.8,469.7,52.8z M465.8,95.6c-2.6,8.4-8.8,11.4-15.8,10.9c-7.7,0-13-3.7-15.6-11.2
	c-1.2-3.5-1.9-8.4-1.9-14.9s0.7-11.4,1.9-14.9c2.3-7.5,7.9-11.2,15.6-11.2c7,0,13,3,15.8,11.4c1.2,3.5,1.6,7.9,1.6,14.9
	C467.4,87.9,466.9,92.1,465.8,95.6z"/>
<path class="st1" d="M394.8,51.1c-8.1,0-14.7,4-17.5,10.5H377v-7.9c0-0.7-0.5-1.2-1.2-1.2h-1.2c-0.7,0-1.2,0.5-1.2,1.2v54.5
	c0,0.7,0.5,1.2,1.2,1.2h1.2c0.7,0,1.2-0.5,1.2-1.2V72.3c0-11.2,7.9-17.7,17.5-17.7c10.9,0,16.5,5.8,16.5,19.3v34
	c0,0.7,0.5,1.2,1.2,1.2h1.4c0.7,0,1.2-0.5,1.2-1.2V73C414.8,58.3,407.6,51.1,394.8,51.1z"/>
</svg>
